<svg width="50" height="60" viewBox="0 0 50 60" fill="none" xmlns="http://www.w3.org/2000/svg">
<path d="M3.74912 20.0078C1.67855 20.0078 0 21.6864 0 23.7569V41.2528C0 43.3234 1.67855 45.0019 3.74912 45.0019C5.81969 45.0019 7.49824 43.3234 7.49824 41.2528V23.7569C7.49824 21.6864 5.81969 20.0078 3.74912 20.0078Z" fill="#4CAF50"/>
<path d="M46.2394 20.0078C44.1688 20.0078 42.4902 21.6864 42.4902 23.7569V41.2528C42.4902 43.3234 44.1688 45.0019 46.2394 45.0019C48.3099 45.0019 49.9885 43.3234 49.9885 41.2528V23.7569C49.9885 21.6864 48.31 20.0078 46.2394 20.0078Z" fill="#4CAF50"/>
<path d="M38.7413 20.0078H11.2478C10.5576 20.0078 9.99805 20.5674 9.99805 21.2576V41.2528C9.99746 44.2226 12.0871 46.7824 14.9969 47.3764V56.2493C14.9969 58.3198 16.6755 59.9984 18.746 59.9984C20.8166 59.9984 22.4952 58.3198 22.4952 56.2493V47.5013H27.494V56.2493C27.494 58.3198 29.1726 59.9984 31.2431 59.9984C33.3137 59.9984 34.9923 58.3198 34.9923 56.2493V47.3764C37.9021 46.7824 39.9917 44.2226 39.9911 41.2528V21.2576C39.991 20.5674 39.4315 20.0078 38.7413 20.0078Z" fill="#4CAF50"/>
<path d="M34.0791 5.19288L37.1259 2.1486C37.6223 1.66906 37.636 0.877996 37.1566 0.381472C36.677 -0.114935 35.886 -0.128643 35.3895 0.350776C35.379 0.360852 35.3688 0.371045 35.3588 0.381472L31.8096 3.93072C27.4628 2.04245 22.5272 2.04245 18.1803 3.93072L14.6312 0.379012C14.1348 -0.100524 13.3436 -0.0866994 12.864 0.409708C12.3963 0.894047 12.3963 1.6618 12.864 2.14602L15.9083 5.19277C12.197 7.64844 9.97428 11.8101 9.99725 16.2602C9.99725 16.9504 10.5568 17.5099 11.247 17.5099H38.7406C39.4308 17.5099 39.9903 16.9504 39.9903 16.2602C40.0132 11.8102 37.7904 7.64856 34.0791 5.19288Z" fill="#4CAF50"/>
<path d="M18.7458 12.5112C19.4361 12.5112 19.9956 11.9517 19.9956 11.2615C19.9956 10.5712 19.4361 10.0117 18.7458 10.0117C18.0556 10.0117 17.4961 10.5712 17.4961 11.2615C17.4961 11.9517 18.0556 12.5112 18.7458 12.5112Z" fill="#FAFAFA"/>
<path d="M31.2429 12.5112C31.9331 12.5112 32.4927 11.9517 32.4927 11.2615C32.4927 10.5712 31.9331 10.0117 31.2429 10.0117C30.5527 10.0117 29.9932 10.5712 29.9932 11.2615C29.9932 11.9517 30.5527 12.5112 31.2429 12.5112Z" fill="#FAFAFA"/>
</svg>
