<svg width="57" height="60" viewBox="0 0 57 60" fill="none" xmlns="http://www.w3.org/2000/svg">
<path d="M28.2296 0L0 9.93471L4.46103 46.92L28.2594 60L52.1808 46.7427L56.64 9.75877L28.2296 0Z" fill="#B3B3B3"/>
<path d="M53.8242 11.8961L28.1636 3.14551V56.8748L49.6683 44.9731L53.824 11.8961H53.8242Z" fill="#A6120D"/>
<path d="M3.16772 12.0537L6.99048 45.1311L28.1632 56.8747V3.14453L3.16795 12.0535L3.16772 12.0537Z" fill="#DD1B16"/>
<path d="M35.2273 31.7482L28.1637 35.0514H20.7188L17.2192 43.8048L10.71 43.9251L28.1637 5.09668L35.2273 31.7484V31.7482ZM34.5444 30.0852L28.2107 17.5462L23.0152 29.8694H28.1635L34.5444 30.0855V30.0852Z" fill="#F2F2F2"/>
<path d="M28.1636 5.09668L28.2103 17.5464L34.1054 29.8792H28.1769L28.1636 35.0436L36.3614 35.0514L40.1928 43.9267L46.4213 44.042L28.1636 5.09668Z" fill="#B3B3B3"/>
</svg>
