<svg width="39" height="41" viewBox="0 0 39 41" fill="none" xmlns="http://www.w3.org/2000/svg">
<path fill-rule="evenodd" clip-rule="evenodd" d="M37.6276 6.40381L19.6276 0.0585714C19.4076 -0.0195238 19.1676 -0.0195238 18.9476 0.0585714L0.947598 6.40381C0.547598 6.54048 0.287598 6.91143 0.287598 7.32143V20.5C0.287598 30.8476 6.6276 37.72 19.0276 40.961C19.1876 41 19.3676 41 19.5476 40.961C31.9676 37.6224 38.2876 30.7695 38.2876 20.5V7.32143C38.2876 6.91143 38.0276 6.54048 37.6276 6.40381ZM2.2876 7.80952L19.2876 2.01095L36.2876 7.80952V20.5C36.2876 29.7348 30.7076 35.8652 19.2876 39.0086C7.8676 35.9433 2.2876 29.8324 2.2876 20.5V7.80952ZM10.5888 18.7829C10.9888 18.412 11.6288 18.4315 12.0088 18.822L16.0288 22.961L24.5288 13.9605C24.9088 13.57 25.5488 13.531 25.9488 13.902C26.3488 14.2729 26.3888 14.8977 26.0088 15.2881L16.7888 25.05C16.3888 25.4796 15.7288 25.4796 15.3288 25.0696L10.5488 20.1691C10.1688 19.7786 10.1888 19.1539 10.5888 18.7829Z" fill="url(#paint0_linear)"/>
<defs>
<linearGradient id="paint0_linear" x1="19.2876" y1="0" x2="19.2876" y2="40.9902" gradientUnits="userSpaceOnUse">
<stop offset="0.182292" stop-color="#0A7B82"/>
<stop offset="1" stop-color="#0F172A"/>
</linearGradient>
</defs>
</svg>
