<svg width="203" height="61" viewBox="0 0 203 61" fill="none" xmlns="http://www.w3.org/2000/svg">
<path d="M74.0879 42.122H68.2012V17.1719H80.2901C86.0722 17.1719 90.1018 20.6061 90.1018 25.5819C90.1018 28.9468 87.8954 31.7502 84.6352 32.7954L90.6634 42.1163H84.0821L79.1756 33.5663H74.0879V42.122ZM74.0879 21.623V29.4362H79.3439C82.1133 29.4362 84.2151 27.8945 84.2151 25.5819C84.2151 23.0586 82.1133 21.6216 79.3439 21.6216L74.0879 21.623Z" fill="#023D4D"/>
<path d="M92.9023 18.8174C92.9023 17.1003 94.164 15.874 95.9518 15.874C97.7396 15.874 98.9998 17.1003 98.9998 18.8174C98.9998 20.5699 97.7382 21.7961 95.9518 21.7961C94.1654 21.7961 92.9023 20.5699 92.9023 18.8174ZM98.5798 24.1794V42.1212H93.3238V24.1794H98.5798Z" fill="#023D4D"/>
<path d="M112.936 42.8227C111.783 42.8356 110.643 42.583 109.604 42.0847C108.565 41.5863 107.654 40.8554 106.943 39.9486V42.1212H101.762V16.1201H107.018V26.3519C107.712 25.4448 108.608 24.7126 109.636 24.2138C110.663 23.715 111.793 23.4635 112.936 23.4793C117.947 23.4793 121.45 27.4736 121.45 33.151C121.45 38.8284 117.913 42.8227 112.936 42.8227ZM106.803 33.151C106.803 35.9897 108.766 38.0915 111.498 38.0915C114.197 38.0915 116.194 36.0236 116.194 33.151C116.194 30.3123 114.233 28.209 111.498 28.209C108.764 28.209 106.804 30.3123 106.804 33.151H106.803Z" fill="#023D4D"/>
<path d="M134.664 42.8227C133.512 42.8357 132.372 42.5832 131.333 42.0848C130.294 41.5864 129.384 40.8554 128.673 39.9486V42.1212H123.486V16.1201H128.742V26.3519C129.437 25.4442 130.334 24.7117 131.362 24.2128C132.391 23.714 133.522 23.4628 134.664 23.4793C139.676 23.4793 143.181 27.4736 143.181 33.151C143.181 38.8284 139.64 42.8227 134.664 42.8227ZM128.532 33.151C128.532 35.9897 130.495 38.0915 133.227 38.0915C135.926 38.0915 137.923 36.0236 137.923 33.151C137.923 30.3123 135.961 28.209 133.227 28.209C130.493 28.209 128.532 30.3123 128.532 33.151Z" fill="#023D4D"/>
<path d="M159.089 24.1813H164.347V42.1231H159.089V39.6422C157.688 41.6394 155.553 42.8317 152.992 42.8317C147.947 42.8317 144.406 38.836 144.406 33.16C144.406 27.484 147.942 23.4883 152.992 23.4883C155.55 23.4883 157.688 24.6792 159.089 26.6764V24.1813ZM159.054 33.1529C159.054 30.2435 157.092 28.1063 154.358 28.1063C151.624 28.1063 149.662 30.2435 149.662 33.1529C149.662 36.0624 151.625 38.1981 154.358 38.1981C157.091 38.1981 159.054 36.0609 159.054 33.1529Z" fill="#023D4D"/>
<path d="M174.79 42.8936C169.954 42.8936 166.445 40.0563 166.485 36.1313H170.934C170.934 37.9177 172.582 39.1794 174.859 39.1794C176.787 39.1794 178.189 38.2685 178.189 37.0776C178.189 35.5698 176.156 35.1497 173.984 34.939C169.988 34.4482 166.66 33.8174 166.66 29.4369C166.66 25.9335 169.988 23.4102 174.369 23.4102C179.178 23.4102 182.64 26.0042 182.64 29.6123H178.014C178.014 28.1413 176.436 27.1244 174.336 27.1244C172.724 27.1244 171.427 27.966 171.393 29.1569C171.393 30.3492 172.968 30.6986 175.001 31.014C178.646 31.5048 183.237 32.2417 183.237 36.4467C183.231 40.1949 179.801 42.8936 174.79 42.8936Z" fill="#023D4D"/>
<path d="M190.388 16.1201V26.2119C191.579 24.4595 193.716 23.4793 195.89 23.4793C200.025 23.4793 202.723 26.492 202.723 30.7323V42.1212H197.466V31.8186C197.466 29.6461 196.204 28.1412 194.102 28.1044C192.07 28.1044 190.388 29.7508 190.388 32.0294V42.1212H185.131V16.1201H190.388Z" fill="#023D4D"/>
<path d="M76.2582 56.3892L78.0743 49.627H79.4152L77.2936 57.3213H75.2795L73.7788 51.0979L72.2894 57.3213H70.2668L68.1367 49.627H69.4846L71.3106 56.3892L72.9429 49.627H74.66L76.2582 56.3892Z" fill="#023D4D"/>
<path d="M82.5932 51.583C84.3103 51.583 85.5281 52.8008 85.5281 54.508C85.5281 54.6381 85.5167 54.8022 85.5068 54.9323L80.8534 54.921C80.9949 55.8998 81.6795 56.5518 82.5819 56.5518C83.3216 56.5518 84.0062 56.1176 84.2127 55.508L85.3216 55.6721C85.0061 56.7597 83.8647 57.5419 82.6031 57.5419C80.8747 57.5419 79.6328 56.2689 79.6328 54.4981C79.6356 52.7952 80.8747 51.583 82.5932 51.583ZM84.2989 54.0511C84.2447 53.6328 84.0366 53.2497 83.7152 52.9764C83.3939 52.7032 82.9822 52.5594 82.5606 52.5731C81.6681 52.5731 81.0161 53.1714 80.8633 54.0511H84.2989Z" fill="#023D4D"/>
<path d="M89.8809 57.3213V49.627H93.3603C94.8497 49.627 95.9062 50.4968 95.9062 51.692C95.9132 52.0447 95.8056 52.3902 95.5995 52.6766C95.3935 52.963 95.1001 53.1749 94.7634 53.2804C95.5583 53.4756 96.1226 54.2365 96.1226 55.1276C96.1226 56.4119 94.9911 57.3242 93.4041 57.3242L89.8809 57.3213ZM91.1849 50.7005V52.7768H93.1651C94.0024 52.7768 94.5894 52.3525 94.5894 51.7443C94.5894 51.1361 94.0024 50.7005 93.1651 50.7005H91.1849ZM93.1863 53.7994H91.1892V56.245H93.1906C94.1354 56.245 94.8101 55.723 94.8101 55.0173C94.8101 54.3115 94.1354 53.8023 93.1906 53.8023L93.1863 53.7994Z" fill="#023D4D"/>
<path d="M101.241 57.3209V56.6137C101.041 56.9007 100.774 57.1348 100.464 57.2957C100.153 57.4567 99.8077 57.5395 99.4578 57.5373C98.0985 57.5373 97.2188 56.5373 97.2188 55.1667V51.8047H98.404V55.0889C98.404 55.9036 98.8821 56.4906 99.7194 56.4906C99.9184 56.4929 100.116 56.4554 100.3 56.3803C100.484 56.3052 100.652 56.194 100.793 56.0532C100.933 55.9125 101.045 55.7451 101.12 55.5608C101.195 55.3765 101.232 55.179 101.23 54.98V51.8047H102.404V57.3209H101.241Z" fill="#023D4D"/>
<path d="M103.703 50.1813C103.703 49.9867 103.78 49.7999 103.918 49.6623C104.056 49.5246 104.243 49.4473 104.437 49.4473C104.632 49.4473 104.819 49.5246 104.956 49.6623C105.094 49.7999 105.171 49.9867 105.171 50.1813C105.171 50.376 105.094 50.5627 104.956 50.7004C104.819 50.8381 104.632 50.9154 104.437 50.9154C104.243 50.9154 104.056 50.8381 103.918 50.7004C103.78 50.5627 103.703 50.376 103.703 50.1813ZM105.03 51.8051V57.3213H103.856V51.8051H105.03Z" fill="#023D4D"/>
<path d="M107.576 49.2998V57.3209H106.402V49.2998H107.576Z" fill="#023D4D"/>
<path d="M111.33 51.5835C111.716 51.5772 112.097 51.6615 112.445 51.8295C112.792 51.9975 113.095 52.2446 113.33 52.551V49.2979H114.515V57.3218H113.361V56.5495C113.124 56.8626 112.816 57.1153 112.463 57.2874C112.11 57.4594 111.721 57.5458 111.328 57.5396C109.73 57.5396 108.555 56.2893 108.555 54.5609C108.555 52.8325 109.72 51.5835 111.33 51.5835ZM109.731 54.5637C109.731 55.6613 110.514 56.4335 111.557 56.4335C112.601 56.4335 113.374 55.6401 113.374 54.5637C113.374 53.4873 112.613 52.6924 111.557 52.6924C110.502 52.6924 109.731 53.4873 109.731 54.5637Z" fill="#023D4D"/>
<path d="M119.088 49.627H121.705C124.379 49.627 126.163 51.1588 126.163 53.4756C126.163 55.7923 124.382 57.3213 121.705 57.3213H119.088V49.627ZM121.707 50.7132H120.381V56.2365H121.705C123.586 56.2365 124.859 55.1714 124.859 53.4756C124.859 51.7797 123.589 50.7132 121.705 50.7132H121.707Z" fill="#023D4D"/>
<path d="M127.238 50.1813C127.238 49.9867 127.316 49.7999 127.453 49.6623C127.591 49.5246 127.778 49.4473 127.972 49.4473C128.167 49.4473 128.354 49.5246 128.491 49.6623C128.629 49.7999 128.706 49.9867 128.706 50.1813C128.706 50.376 128.629 50.5627 128.491 50.7004C128.354 50.8381 128.167 50.9154 127.972 50.9154C127.778 50.9154 127.591 50.8381 127.453 50.7004C127.316 50.5627 127.238 50.376 127.238 50.1813ZM128.565 51.8008V57.317H127.391V51.8051L128.565 51.8008Z" fill="#023D4D"/>
<path d="M134.448 57.2162V56.509C134.21 56.8056 133.907 57.0432 133.562 57.2034C133.217 57.3636 132.84 57.442 132.459 57.4326C130.85 57.4326 129.676 56.236 129.676 54.5627C129.676 52.8442 130.85 51.6052 132.459 51.6052C132.843 51.5959 133.224 51.6765 133.571 51.8406C133.919 52.0046 134.223 52.2476 134.459 52.55V51.8061H135.633V57.2317C135.633 59.0153 134.427 60.0478 132.741 60.0478C131.295 60.0478 130.099 59.1341 129.903 57.8625L130.991 57.7324C131.09 58.1097 131.311 58.4435 131.62 58.6815C131.929 58.9195 132.308 59.0484 132.698 59.0478C133.72 59.0436 134.448 58.3802 134.448 57.2162ZM134.492 54.5642C134.492 53.4439 133.731 52.6391 132.676 52.6391C131.621 52.6391 130.85 53.4439 130.85 54.5642C130.85 55.6405 131.622 56.4227 132.676 56.4227C133.729 56.4227 134.492 55.6405 134.492 54.5642Z" fill="#023D4D"/>
<path d="M136.877 50.1813C136.877 49.9867 136.954 49.7999 137.092 49.6623C137.23 49.5246 137.416 49.4473 137.611 49.4473C137.806 49.4473 137.992 49.5246 138.13 49.6623C138.268 49.7999 138.345 49.9867 138.345 50.1813C138.345 50.376 138.268 50.5627 138.13 50.7004C137.992 50.8381 137.806 50.9154 137.611 50.9154C137.416 50.9154 137.23 50.8381 137.092 50.7004C136.954 50.5627 136.877 50.376 136.877 50.1813ZM138.204 51.8008V57.317H137.03V51.8051L138.204 51.8008Z" fill="#023D4D"/>
<path d="M140.054 52.7242H139.205V51.8048H140.119L140.272 50.4668H141.239V51.8048H142.587V52.7284H141.239V55.6987C141.239 56.1994 141.543 56.5473 142.044 56.5473C142.254 56.5426 142.462 56.5098 142.663 56.4497V57.3946C142.347 57.4951 142.017 57.5467 141.685 57.5473C140.694 57.5473 140.054 56.8302 140.054 55.7751V52.7242Z" fill="#023D4D"/>
<path d="M148.255 51.8043H149.44V57.3204H148.255V56.4944C148.023 56.8222 147.715 57.0885 147.357 57.2703C146.998 57.4522 146.602 57.5442 146.2 57.5383C144.58 57.5383 143.428 56.2879 143.428 54.5595C143.428 52.8311 144.58 51.5794 146.2 51.5794C146.602 51.5735 146.998 51.6654 147.357 51.8473C147.715 52.0292 148.023 52.2955 148.255 52.6232V51.8043ZM148.245 54.5666C148.245 53.4464 147.483 52.6416 146.429 52.6416C145.375 52.6416 144.602 53.4464 144.602 54.5666C144.602 55.6868 145.374 56.4902 146.429 56.4902C147.484 56.4902 148.245 55.6811 148.245 54.5624V54.5666Z" fill="#023D4D"/>
<path d="M151.947 49.2998V57.3209H150.771V49.2998H151.947Z" fill="#023D4D"/>
<path d="M157.773 54.9762V57.3213H156.512V49.627H159.49C161.295 49.627 162.589 50.7457 162.589 52.3016C162.589 53.8574 161.295 54.9762 159.478 54.9762H157.773ZM157.773 50.7033V53.8886H159.274C160.448 53.8886 161.295 53.2252 161.285 52.3016C161.275 51.378 160.448 50.7033 159.274 50.7033H157.773Z" fill="#023D4D"/>
<path d="M164.818 51.8046V52.5118C164.965 52.2411 165.181 52.0147 165.445 51.8561C165.709 51.6974 166.011 51.6122 166.318 51.6094C166.561 51.6158 166.8 51.6637 167.026 51.7508V52.7946C166.753 52.6826 166.462 52.6235 166.167 52.6207C165.385 52.6207 164.863 53.3166 164.863 54.2953V57.3207H163.678V51.8046H164.818Z" fill="#023D4D"/>
<path d="M173.237 54.5632C173.237 56.3128 171.997 57.5419 170.236 57.5419C168.475 57.5419 167.234 56.3128 167.234 54.5632C167.234 52.8135 168.463 51.583 170.236 51.583C172.008 51.583 173.237 52.8121 173.237 54.5632ZM172.063 54.5632C172.063 53.443 171.291 52.6382 170.236 52.6382C169.181 52.6382 168.42 53.443 168.42 54.5632C168.42 55.6834 169.171 56.4868 170.236 56.4868C171.301 56.4868 172.059 55.682 172.059 54.5632H172.063Z" fill="#023D4D"/>
<path d="M176.817 51.5835C177.203 51.5775 177.585 51.6618 177.933 51.8298C178.281 51.9978 178.584 52.2448 178.819 52.551V49.2979H180.003V57.3218H178.847V56.5495C178.61 56.8626 178.302 57.1154 177.948 57.2874C177.595 57.4594 177.206 57.5458 176.813 57.5396C175.215 57.5396 174.041 56.2893 174.041 54.5609C174.041 52.8325 175.208 51.5835 176.817 51.5835ZM175.219 54.5637C175.219 55.6613 176.003 56.4335 177.047 56.4335C178.09 56.4335 178.861 55.6401 178.861 54.5637C178.861 53.4873 178.1 52.6924 177.047 52.6924C175.993 52.6924 175.219 53.4873 175.219 54.5637Z" fill="#023D4D"/>
<path d="M185.163 57.3209V56.6137C184.963 56.9007 184.696 57.1348 184.385 57.2957C184.074 57.4567 183.729 57.5395 183.379 57.5373C182.02 57.5373 181.139 56.5373 181.139 55.1667V51.8047H182.324V55.0889C182.324 55.9036 182.802 56.4906 183.639 56.4906C183.838 56.4929 184.036 56.4554 184.22 56.3803C184.405 56.3052 184.572 56.194 184.713 56.0533C184.854 55.9126 184.965 55.7452 185.04 55.5609C185.116 55.3766 185.153 55.1791 185.151 54.98V51.8047H186.325V57.3209H185.163Z" fill="#023D4D"/>
<path d="M193.028 53.682L191.896 53.8234C191.803 53.4687 191.594 53.1553 191.303 52.9327C191.011 52.7101 190.654 52.591 190.287 52.5943C189.308 52.5943 188.537 53.4203 188.537 54.5632C188.537 55.706 189.298 56.5306 190.287 56.5306C190.653 56.5344 191.011 56.4171 191.304 56.1969C191.597 55.9767 191.809 55.6659 191.908 55.3128L193.039 55.4542C192.812 56.6607 191.648 57.5419 190.288 57.5419C188.591 57.5419 187.363 56.2916 187.363 54.5632C187.363 52.8348 188.592 51.583 190.278 51.583C191.679 51.583 192.831 52.4642 193.028 53.682Z" fill="#023D4D"/>
<path d="M194.62 52.7242H193.771V51.8048H194.689L194.842 50.4668H195.81V51.8048H197.158V52.7284H195.81V55.6987C195.81 56.1994 196.114 56.5473 196.614 56.5473C196.824 56.5426 197.033 56.5098 197.234 56.4497V57.3946C196.917 57.4951 196.587 57.5467 196.255 57.5473C195.265 57.5473 194.624 56.8302 194.624 55.7751L194.62 52.7242Z" fill="#023D4D"/>
<path d="M200.591 57.5529C199.134 57.5529 198.08 56.6717 198.08 55.4539H199.166C199.166 56.106 199.765 56.5855 200.591 56.5855C201.33 56.5855 201.864 56.2488 201.852 55.792C201.852 55.2163 200.994 55.0749 200.438 54.9985C199.144 54.8033 198.165 54.6392 198.165 53.3238C198.165 52.3125 199.132 51.5742 200.383 51.5742C201.807 51.5742 202.851 52.3677 202.851 53.4653H201.76C201.749 52.9221 201.173 52.5417 200.38 52.5417C199.782 52.5417 199.281 52.867 199.281 53.3139C199.281 53.7269 199.694 53.8571 200.586 54.0098C201.64 54.1838 202.999 54.4115 202.999 55.6619C202.994 56.7552 201.994 57.5529 200.591 57.5529Z" fill="#023D4D"/>
<path d="M18.8338 44.8174L18.9648 44.9124L18.8281 44.8202L18.8338 44.8174Z" fill="url(#paint0_linear)"/>
<path d="M38.9719 39.624V60.2461L18.7402 45.0893L18.9623 44.9111H18.9665L25.4275 39.7018L25.5223 39.624H38.9719Z" fill="url(#paint1_linear)"/>
<path d="M18.3969 44.8301L18.5165 44.9251L18.3926 44.8343L18.3969 44.8301Z" fill="url(#paint2_linear)"/>
<path d="M18.8338 44.8174L18.9648 44.9124L18.8281 44.8202L18.8338 44.8174Z" fill="url(#paint3_linear)"/>
<path d="M18.7402 45.0901L18.9623 44.9119H18.9665L24.9509 40.0859L38.9719 60.2469L18.7402 45.0901Z" fill="url(#paint4_linear)"/>
<path d="M24.3547 23.5159L0 0L45.4845 23.5159H45.4689H24.3547Z" fill="url(#paint5_linear)"/>
<path d="M0 60.2466V0L24.3547 23.5159L0 60.2466Z" fill="url(#paint6_linear)"/>
<path d="M0 60.2463L45.5142 23.5156H24.3547L0 60.2463Z" fill="url(#paint7_linear)"/>
<path d="M21.9712 44.9251L21.8516 44.8343L21.8558 44.8301L21.9712 44.9251Z" fill="url(#paint8_linear)"/>
<defs>
<linearGradient id="paint0_linear" x1="18.8281" y1="44.8656" x2="18.9648" y2="44.8656" gradientUnits="userSpaceOnUse">
<stop stop-color="#26D09B"/>
<stop offset="1" stop-color="#87D46A"/>
</linearGradient>
<linearGradient id="paint1_linear" x1="6372.09" y1="10036.8" x2="9266.03" y2="10036.8" gradientUnits="userSpaceOnUse">
<stop stop-color="#26D09B"/>
<stop offset="1" stop-color="#87D46A"/>
</linearGradient>
<linearGradient id="paint2_linear" x1="18.3926" y1="44.8769" x2="18.5165" y2="44.8769" gradientUnits="userSpaceOnUse">
<stop stop-color="#326483"/>
<stop offset="1" stop-color="#0C9AA3"/>
</linearGradient>
<linearGradient id="paint3_linear" x1="61.834" y1="87.4947" x2="61.9652" y2="87.4947" gradientUnits="userSpaceOnUse">
<stop stop-color="#326483"/>
<stop offset="1" stop-color="#0C9AA3"/>
</linearGradient>
<linearGradient id="paint4_linear" x1="6372.09" y1="9846.57" x2="9266.03" y2="9846.57" gradientUnits="userSpaceOnUse">
<stop stop-color="#326483"/>
<stop offset="1" stop-color="#0C9AA3"/>
</linearGradient>
<linearGradient id="paint5_linear" x1="22034.5" y1="7768.25" x2="13582.2" y2="-1670.85" gradientUnits="userSpaceOnUse">
<stop stop-color="#326483"/>
<stop offset="1" stop-color="#0C9AA3"/>
</linearGradient>
<linearGradient id="paint6_linear" x1="4421.1" y1="20767" x2="8614.73" y2="20767" gradientUnits="userSpaceOnUse">
<stop stop-color="#26D09B"/>
<stop offset="1" stop-color="#87D46A"/>
</linearGradient>
<linearGradient id="paint7_linear" x1="8262.19" y1="15738" x2="22908.2" y2="15738" gradientUnits="userSpaceOnUse">
<stop stop-color="#326483"/>
<stop offset="1" stop-color="#0C9AA3"/>
</linearGradient>
<linearGradient id="paint8_linear" x1="62.0457" y1="87.515" x2="62.1462" y2="87.515" gradientUnits="userSpaceOnUse">
<stop stop-color="#326483"/>
<stop offset="1" stop-color="#0C9AA3"/>
</linearGradient>
</defs>
</svg>
