<svg width="54" height="50" viewBox="0 0 54 50" fill="none" xmlns="http://www.w3.org/2000/svg">
<path fill-rule="evenodd" clip-rule="evenodd" d="M4.90909 8.59091C4.90909 13.3282 8.76273 17.1818 13.5 17.1818H8.56636C3.82909 17.1818 0 21.0109 0 25.7727V30.6573C0 32.6945 1.64455 34.3391 3.68182 34.3391H4.90909V47.8636C4.90909 48.5509 5.44909 49.0909 6.13636 49.0909H20.8636C21.5509 49.0909 22.0909 48.5509 22.0909 47.8391V34.3145H23.3182C25.3555 34.3145 27 32.67 27 30.6327V30.6573C27 32.6945 28.6445 34.3391 30.6818 34.3391H31.9091V47.8391C31.9091 48.5264 32.4491 49.0664 33.1364 49.0664H47.8636C48.5509 49.0664 49.0909 48.5264 49.0909 47.8391V34.3145H50.3182C52.3555 34.3145 54 32.67 54 30.6327V25.7482C54 21.0109 50.1709 17.1818 45.4091 17.1818H40.5C45.2373 17.1818 49.0909 13.3282 49.0909 8.59091C49.0909 3.85364 45.2373 0 40.5 0C35.7627 0 31.9091 3.85364 31.9091 8.59091C31.9091 13.3282 35.7627 17.1818 40.5 17.1818H35.5664C30.8291 17.1818 27 21.0109 27 25.7727V25.7482C27 21.0109 23.1709 17.1818 18.4091 17.1818H13.5C18.2373 17.1818 22.0909 13.3282 22.0909 8.59091C22.0909 3.85364 18.2373 0 13.5 0C8.76273 0 4.90909 3.85364 4.90909 8.59091ZM19.6364 8.59091C19.6364 11.9782 16.8873 14.7273 13.5 14.7273C10.1127 14.7273 7.36364 11.9782 7.36364 8.59091C7.36364 5.20364 10.1127 2.45455 13.5 2.45455C16.8873 2.45455 19.6364 5.20364 19.6364 8.59091ZM20.8636 31.8845C20.1764 31.8845 19.6364 32.4245 19.6364 33.1118V46.6364H7.36364V33.0873C7.36364 32.4 6.82364 31.86 6.13636 31.86H3.68182C2.99455 31.86 2.45455 31.32 2.45455 30.6327V25.7482C2.45455 22.3855 5.20364 19.6364 8.56636 19.6364H18.4336C21.7964 19.6364 24.5455 22.3855 24.5455 25.7727V30.6573C24.5455 31.3445 24.0055 31.8845 23.3182 31.8845H20.8636ZM46.6364 8.59091C46.6364 11.9782 43.8873 14.7273 40.5 14.7273C37.1127 14.7273 34.3636 11.9782 34.3636 8.59091C34.3636 5.20364 37.1127 2.45455 40.5 2.45455C43.8873 2.45455 46.6364 5.20364 46.6364 8.59091ZM47.8636 31.8845C47.1764 31.8845 46.6364 32.4245 46.6364 33.1118V46.6364H34.3636V33.0873C34.3636 32.4 33.8236 31.86 33.1364 31.86H30.6818C29.9945 31.86 29.4545 31.32 29.4545 30.6327V25.7482C29.4545 22.3855 32.2036 19.6364 35.5909 19.6364H45.4336C48.7964 19.6364 51.5455 22.3855 51.5455 25.7727V30.6573C51.5455 31.3445 51.0055 31.8845 50.3182 31.8845H47.8636Z" fill="url(#paint0_linear)"/>
<defs>
<linearGradient id="paint0_linear" x1="27" y1="0" x2="27" y2="49.0909" gradientUnits="userSpaceOnUse">
<stop offset="0.182292" stop-color="#0A7B82"/>
<stop offset="1" stop-color="#0F172A"/>
</linearGradient>
</defs>
</svg>
