<svg width="47" height="47" viewBox="0 0 47 47" fill="none" xmlns="http://www.w3.org/2000/svg">
<path d="M4.93014 42.5024V45.8742C4.93014 46.5037 4.42419 46.9982 3.78025 46.9982H1.48046C0.836519 46.9982 0.330566 46.5037 0.330566 45.8742C0.330566 45.2448 0.836519 44.7503 1.48046 44.7503H2.63035V22.2712H1.48046C0.836519 22.2712 0.330566 21.7766 0.330566 21.1472C0.330566 20.5178 0.836519 20.0232 1.48046 20.0232H3.78025C4.42419 20.0232 4.93014 20.5178 4.93014 21.1472V24.2268L8.6098 21.2821C10.2426 19.9783 12.4964 19.6411 14.4513 20.4279L20.4767 22.8556C24.1104 24.4067 25.4442 26.9019 23.9954 29.9365C23.6964 30.566 23.3054 31.083 22.8455 31.4876L26.4791 32.6116L39.4269 26.205C42.0947 25.0361 44.2335 25.2159 45.5214 26.9918C47.1082 29.1947 46.2343 31.4426 44.0035 33.4433C43.0836 34.275 37.0582 38.7484 28.043 45.3797C26.6171 46.4362 24.7543 46.7734 23.0295 46.3013L9.34573 42.5024H4.93014ZM4.93014 40.2545H9.50672L9.82869 40.2994L23.6734 44.1433C24.7083 44.4356 25.8352 44.2333 26.6861 43.6038C35.5633 37.0849 41.6347 32.5666 42.4627 31.8248C43.9345 30.476 44.3945 29.3296 43.6585 28.318C43.1296 27.5762 42.1637 27.5088 40.4388 28.2731L27.1001 34.9044C26.8241 35.0393 26.5251 35.0618 26.2262 34.9719L17.671 32.3193C16.889 32.1395 16.0611 31.8922 15.1642 31.5326L13.7383 31.083C13.1404 30.9031 12.7954 30.2737 13.0024 29.6668C13.0254 29.5994 13.0484 29.5319 13.0714 29.487C13.0944 29.4645 13.0944 29.4195 13.1174 29.397C13.3934 28.8351 14.0833 28.5878 14.6582 28.8575C15.0952 29.0599 15.5092 29.2397 15.9001 29.397L18.4299 30.1838C20.2697 30.5435 21.3966 30.1164 21.8796 29.0599C22.7075 27.284 22.0636 26.0477 19.5338 24.9687L13.5543 22.5184C12.3814 22.0464 11.0476 22.2487 10.0587 23.0355L4.93014 27.1266V40.2545Z" fill="url(#paint0_linear)"/>
<path d="M25.3556 5.77C25.0046 5.23 25.0766 4.528 25.5266 4.078L26.3996 3.205C26.8496 2.755 27.5606 2.683 28.0916 3.025L29.0006 3.61C29.3696 3.412 29.7656 3.25 30.1616 3.124L30.3866 2.062C30.5216 1.45 31.0706 1 31.7096 1H32.9516C33.5906 1 34.1396 1.45 34.2746 2.071L34.4996 3.133C34.9046 3.259 35.2916 3.421 35.6606 3.619L36.5696 3.025C37.1006 2.674 37.8116 2.746 38.2616 3.205L39.1346 4.078C39.5846 4.528 39.6566 5.239 39.3146 5.77L38.7206 6.67C38.9186 7.039 39.0806 7.435 39.2066 7.831L40.2686 8.056C40.8806 8.191 41.3306 8.74 41.3306 9.379V10.621C41.3306 11.26 40.8806 11.809 40.2596 11.944L39.1976 12.169C39.0716 12.574 38.9096 12.961 38.7116 13.33L39.3056 14.239C39.6566 14.77 39.5846 15.481 39.1256 15.931L38.2526 16.804C37.8026 17.254 37.0916 17.326 36.5606 16.984L35.6606 16.39C35.2916 16.588 34.8956 16.75 34.4996 16.876L34.2746 17.938C34.1396 18.55 33.5906 19 32.9516 19H31.7096C31.0706 19 30.5216 18.55 30.3866 17.929L30.1706 16.867C29.7656 16.741 29.3786 16.579 29.0096 16.381L28.1006 16.975C27.5696 17.326 26.8586 17.254 26.4086 16.795L25.5356 15.922C25.0856 15.472 25.0136 14.761 25.3556 14.23L25.9406 13.33C25.7426 12.961 25.5806 12.565 25.4546 12.169L24.3926 11.944C23.7806 11.809 23.3306 11.26 23.3306 10.621V9.379C23.3306 8.74 23.7806 8.191 24.4016 8.056L25.4636 7.84C25.5896 7.435 25.7516 7.048 25.9406 6.67L25.3556 5.77ZM26.8586 6.877C26.5976 7.336 26.3906 7.831 26.2556 8.335C26.2106 8.506 26.0756 8.623 25.9136 8.659L24.5906 8.938C24.3836 8.983 24.2306 9.163 24.2306 9.379V10.621C24.2306 10.837 24.3836 11.017 24.5906 11.062L25.9136 11.341C26.0756 11.377 26.2106 11.503 26.2556 11.665C26.3996 12.178 26.5976 12.673 26.8586 13.132C26.9396 13.276 26.9396 13.456 26.8406 13.6L26.1026 14.734C25.9856 14.914 26.0126 15.148 26.1656 15.301L27.0386 16.174C27.1916 16.327 27.4256 16.345 27.6056 16.237L28.7396 15.499C28.8836 15.409 29.0636 15.4 29.2076 15.481C29.6666 15.742 30.1616 15.949 30.6746 16.084C30.8366 16.129 30.9626 16.264 30.9986 16.426L31.2776 17.749C31.3136 17.947 31.4936 18.1 31.7096 18.1H32.9516C33.1676 18.1 33.3476 17.947 33.3926 17.74L33.6716 16.417C33.7076 16.255 33.8336 16.12 33.9956 16.075C34.5086 15.931 35.0036 15.733 35.4626 15.472C35.6066 15.391 35.7866 15.391 35.9306 15.49L37.0646 16.228C37.2446 16.345 37.4786 16.318 37.6316 16.165L38.5046 15.292C38.6576 15.139 38.6756 14.905 38.5676 14.725L37.8296 13.591C37.7396 13.447 37.7306 13.267 37.8116 13.123C38.0726 12.664 38.2796 12.169 38.4146 11.656C38.4596 11.494 38.5946 11.368 38.7566 11.332L40.0796 11.053C40.2866 11.008 40.4396 10.828 40.4396 10.612V9.379C40.4396 9.163 40.2866 8.983 40.0796 8.938L38.7566 8.659C38.5946 8.623 38.4596 8.497 38.4146 8.335C38.2706 7.822 38.0726 7.327 37.8116 6.868C37.7306 6.724 37.7306 6.544 37.8296 6.4L38.5676 5.266C38.6846 5.086 38.6576 4.852 38.5046 4.699L37.6316 3.826C37.4786 3.673 37.2446 3.655 37.0646 3.763L35.9216 4.51C35.7776 4.6 35.5976 4.609 35.4536 4.528C34.9946 4.267 34.4996 4.06 33.9866 3.925C33.8246 3.88 33.6986 3.745 33.6626 3.583L33.3926 2.26C33.3476 2.053 33.1676 1.9 32.9516 1.9H31.7096C31.4936 1.9 31.3136 2.053 31.2686 2.26L30.9896 3.583C30.9536 3.745 30.8366 3.88 30.6656 3.925C30.1616 4.06 29.6666 4.267 29.2076 4.528C29.0636 4.609 28.8746 4.609 28.7396 4.51L27.6056 3.772C27.4256 3.655 27.1916 3.682 27.0386 3.835L26.1656 4.708C26.0126 4.861 25.9856 5.095 26.1026 5.275L26.8406 6.409C26.9396 6.544 26.9396 6.733 26.8586 6.877Z" fill="url(#paint1_linear)" stroke="url(#paint2_linear)" stroke-width="0.7"/>
<path d="M32.3306 13C30.6731 13 29.3306 11.6575 29.3306 10C29.3306 8.3425 30.6731 7 32.3306 7C33.9881 7 35.3306 8.3425 35.3306 10C35.3306 11.6575 33.9881 13 32.3306 13ZM32.3306 12.25C33.5756 12.25 34.5806 11.245 34.5806 10C34.5806 8.755 33.5756 7.75 32.3306 7.75C31.0856 7.75 30.0806 8.755 30.0806 10C30.0806 11.245 31.0856 12.25 32.3306 12.25Z" fill="url(#paint3_linear)" stroke="url(#paint4_linear)" stroke-width="0.7"/>
<defs>
<linearGradient id="paint0_linear" x1="23.3306" y1="20.0078" x2="23.3306" y2="46.9982" gradientUnits="userSpaceOnUse">
<stop offset="0.182292" stop-color="#0A7B82"/>
<stop offset="1" stop-color="#0F172A"/>
</linearGradient>
<linearGradient id="paint1_linear" x1="32.3306" y1="1" x2="32.3306" y2="19" gradientUnits="userSpaceOnUse">
<stop stop-color="#0A7B82"/>
<stop offset="1" stop-color="#0D4755"/>
</linearGradient>
<linearGradient id="paint2_linear" x1="32.3306" y1="1" x2="32.3306" y2="19" gradientUnits="userSpaceOnUse">
<stop stop-color="#0A7B82"/>
<stop offset="1" stop-color="#0D4654"/>
</linearGradient>
<linearGradient id="paint3_linear" x1="32.3306" y1="7" x2="32.3306" y2="13" gradientUnits="userSpaceOnUse">
<stop stop-color="#0A7B82"/>
<stop offset="1" stop-color="#0D4755"/>
</linearGradient>
<linearGradient id="paint4_linear" x1="32.3306" y1="7" x2="32.3306" y2="13" gradientUnits="userSpaceOnUse">
<stop stop-color="#0A7B82"/>
<stop offset="1" stop-color="#0D4654"/>
</linearGradient>
</defs>
</svg>
