<svg width="35" height="39" viewBox="0 0 35 39" fill="none" xmlns="http://www.w3.org/2000/svg">
<g clip-path="url(#clip0)">
<path d="M17.5 22.2853C19.0289 22.2853 20.2631 21.041 20.2631 19.4996C20.2631 17.9582 19.0289 16.7139 17.5 16.7139C15.971 16.7139 14.7368 17.9582 14.7368 19.4996C14.7368 21.041 15.971 22.2853 17.5 22.2853Z" fill="url(#paint0_linear)"/>
<path d="M17.5 22.2853C19.0289 22.2853 20.2631 21.041 20.2631 19.4996C20.2631 17.9582 19.0289 16.7139 17.5 16.7139C15.971 16.7139 14.7368 17.9582 14.7368 19.4996C14.7368 21.041 15.971 22.2853 17.5 22.2853Z" stroke="url(#paint1_linear)"/>
<path d="M17.4997 39C11.734 39 7.36816 30.1971 7.36816 19.5C7.36816 8.80286 11.734 0 17.4997 0C23.2655 0 27.6313 8.80286 27.6313 19.5C27.6313 30.1971 23.2655 39 17.4997 39ZM17.4997 37.1429C21.9024 37.1429 25.7892 29.3057 25.7892 19.5C25.7892 9.69429 21.9024 1.85714 17.4997 1.85714C13.0971 1.85714 9.21027 9.69429 9.21027 19.5C9.21027 29.3057 13.0971 37.1429 17.4997 37.1429Z" fill="url(#paint2_linear)"/>
<path d="M17.4997 39C11.734 39 7.36816 30.1971 7.36816 19.5C7.36816 8.80286 11.734 0 17.4997 0C23.2655 0 27.6313 8.80286 27.6313 19.5C27.6313 30.1971 23.2655 39 17.4997 39ZM17.4997 37.1429C21.9024 37.1429 25.7892 29.3057 25.7892 19.5C25.7892 9.69429 21.9024 1.85714 17.4997 1.85714C13.0971 1.85714 9.21027 9.69429 9.21027 19.5C9.21027 29.3057 13.0971 37.1429 17.4997 37.1429Z" stroke="url(#paint3_linear)"/>
<path d="M34.2268 30.0282C31.3531 34.9868 21.6268 34.4111 12.4531 29.1368C3.26104 23.8811 -2.09949 15.8025 0.792618 10.8254C3.6663 5.86678 13.3926 6.44249 22.5663 11.7168C31.74 16.9725 37.1189 25.0511 34.2268 30.0282ZM21.6453 13.3325C13.2268 8.50392 4.56893 8.0025 2.37683 11.7725C0.184723 15.5425 4.95578 22.7111 13.3558 27.5211C21.7742 32.3496 30.4321 32.8511 32.6242 29.0811C34.8163 25.3296 30.0453 18.1425 21.6453 13.3325Z" fill="url(#paint4_linear)"/>
<path d="M34.2268 30.0282C31.3531 34.9868 21.6268 34.4111 12.4531 29.1368C3.26104 23.8811 -2.09949 15.8025 0.792618 10.8254C3.6663 5.86678 13.3926 6.44249 22.5663 11.7168C31.74 16.9725 37.1189 25.0511 34.2268 30.0282ZM21.6453 13.3325C13.2268 8.50392 4.56893 8.0025 2.37683 11.7725C0.184723 15.5425 4.95578 22.7111 13.3558 27.5211C21.7742 32.3496 30.4321 32.8511 32.6242 29.0811C34.8163 25.3296 30.0453 18.1425 21.6453 13.3325Z" stroke="url(#paint5_linear)"/>
<path d="M2.37579 29.0823C4.56789 32.8523 13.2442 32.3509 21.6442 27.5223C30.0442 22.7123 34.8153 15.5252 32.6416 11.7738C30.4495 8.00377 21.7732 8.5052 13.3732 13.3338C4.95473 18.1438 0.183682 25.3309 2.37579 29.0823ZM0.791577 30.0295C-2.10053 25.0709 3.27842 16.9923 12.4521 11.7181C21.6258 6.46235 31.3337 5.88663 34.2258 10.8266C37.1179 15.7852 31.7389 23.8638 22.5653 29.1381C13.3732 34.3938 3.66526 34.9695 0.791577 30.0295Z" fill="url(#paint6_linear)"/>
<path d="M2.37579 29.0823C4.56789 32.8523 13.2442 32.3509 21.6442 27.5223C30.0442 22.7123 34.8153 15.5252 32.6416 11.7738C30.4495 8.00377 21.7732 8.5052 13.3732 13.3338C4.95473 18.1438 0.183682 25.3309 2.37579 29.0823ZM0.791577 30.0295C-2.10053 25.0709 3.27842 16.9923 12.4521 11.7181C21.6258 6.46235 31.3337 5.88663 34.2258 10.8266C37.1179 15.7852 31.7389 23.8638 22.5653 29.1381C13.3732 34.3938 3.66526 34.9695 0.791577 30.0295Z" stroke="url(#paint7_linear)"/>
</g>
<defs>
<linearGradient id="paint0_linear" x1="17.5" y1="16.7139" x2="17.5" y2="22.2853" gradientUnits="userSpaceOnUse">
<stop offset="0.182292" stop-color="#0A7B82"/>
<stop offset="1" stop-color="#0F172A"/>
</linearGradient>
<linearGradient id="paint1_linear" x1="17.5" y1="16.7139" x2="17.5" y2="22.2853" gradientUnits="userSpaceOnUse">
<stop stop-color="#0A7B82"/>
<stop offset="1" stop-color="#0F192C"/>
</linearGradient>
<linearGradient id="paint2_linear" x1="17.4997" y1="0" x2="17.4997" y2="39" gradientUnits="userSpaceOnUse">
<stop offset="0.182292" stop-color="#0A7B82"/>
<stop offset="1" stop-color="#0F172A"/>
</linearGradient>
<linearGradient id="paint3_linear" x1="17.4997" y1="0" x2="17.4997" y2="39" gradientUnits="userSpaceOnUse">
<stop stop-color="#0A7B82"/>
<stop offset="1" stop-color="#0F192C"/>
</linearGradient>
<linearGradient id="paint4_linear" x1="17.509" y1="7.41406" x2="17.509" y2="33.4395" gradientUnits="userSpaceOnUse">
<stop offset="0.182292" stop-color="#0A7B82"/>
<stop offset="1" stop-color="#0F172A"/>
</linearGradient>
<linearGradient id="paint5_linear" x1="17.509" y1="7.41406" x2="17.509" y2="33.4395" gradientUnits="userSpaceOnUse">
<stop stop-color="#0A7B82"/>
<stop offset="1" stop-color="#0F192C"/>
</linearGradient>
<linearGradient id="paint6_linear" x1="17.5087" y1="7.4292" x2="17.5087" y2="33.4269" gradientUnits="userSpaceOnUse">
<stop offset="0.182292" stop-color="#0A7B82"/>
<stop offset="1" stop-color="#0F172A"/>
</linearGradient>
<linearGradient id="paint7_linear" x1="17.5087" y1="7.4292" x2="17.5087" y2="33.4269" gradientUnits="userSpaceOnUse">
<stop stop-color="#0A7B82"/>
<stop offset="1" stop-color="#0F192C"/>
</linearGradient>
<clipPath id="clip0">
<rect width="35" height="39" fill="white"/>
</clipPath>
</defs>
</svg>
