<svg width="43" height="41" viewBox="0 0 43 41" fill="none" xmlns="http://www.w3.org/2000/svg">
<path fill-rule="evenodd" clip-rule="evenodd" d="M5.40547 11.8423C9.40395 4.01341 18.6552 0.16086 27.1364 3.07322C34.4206 5.57585 39.2206 12.4108 39.2206 19.9817C39.2206 20.5706 39.7048 21.0333 40.2733 21.0333C40.8627 21.0333 41.3259 20.5706 41.3259 19.9817C41.3469 11.5275 35.9785 3.89341 27.8522 1.09635C18.2954 -2.1978 7.90041 2.16965 3.46193 11.0033C2.6481 10.9652 1.82188 11.2575 1.19825 11.8802C0.0348291 13.0539 0.0348291 14.9461 1.19825 16.1198C2.37366 17.2934 4.26871 17.2934 5.44412 16.1198C6.61954 14.9461 6.61954 13.0539 5.44412 11.8802C5.43133 11.8675 5.41844 11.8548 5.40547 11.8423ZM4.59255 12.7305C5.3002 13.4251 5.3002 14.5629 4.59255 15.2695C3.8849 15.976 2.75747 15.976 2.04982 15.2695C1.34218 14.5749 1.35417 13.4371 2.04982 12.7305C2.74547 12.024 3.8849 12.024 4.59255 12.7305ZM21.4923 19.5263C18.6666 19.5263 16.3733 17.1684 16.3733 14.2632C16.3733 11.3579 18.6666 9 21.4923 9C24.3181 9 26.6114 11.3579 26.6114 14.2632C26.6114 17.1684 24.3181 19.5263 21.4923 19.5263ZM21.4923 19.5263H22.5162C25.9152 19.5263 28.659 22.3474 28.659 25.8421V29C28.659 30.7474 27.2871 32.1579 25.5876 32.1579H17.3971C15.6976 32.1579 14.3257 30.7474 14.3257 29V25.8421C14.3257 22.3474 17.0695 19.5263 20.4685 19.5263H21.4923ZM21.4923 17.4211C23.1919 17.4211 24.5638 16.0105 24.5638 14.2632C24.5638 12.5158 23.1919 11.1053 21.4923 11.1053C19.7928 11.1053 18.4209 12.5158 18.4209 14.2632C18.4209 16.0105 19.7928 17.4211 21.4923 17.4211ZM20.4685 21.6316C18.2162 21.6316 16.3733 23.5263 16.3733 25.8421V29C16.3733 29.5895 16.8238 30.0526 17.3971 30.0526H25.5876C26.1609 30.0526 26.6114 29.5895 26.6114 29V25.8421C26.6114 23.5263 24.7685 21.6316 22.5162 21.6316H20.4685ZM15.5149 36.9619C23.9962 39.8743 33.2474 36.0217 37.2459 28.1928C37.2329 28.1803 37.22 28.1677 37.2072 28.1549C36.0318 26.9813 36.0318 25.089 37.2072 23.9154C38.3827 22.7417 40.2777 22.7417 41.4531 23.9154C42.6165 25.089 42.6165 26.9813 41.4531 28.1549C40.8295 28.7776 40.0033 29.0699 39.1894 29.0319C34.751 37.8655 24.3559 42.233 14.7992 38.9388C6.67284 36.1418 1.30442 28.5077 1.32547 20.0534C1.32547 19.4646 1.78863 19.0019 2.37811 19.0019C2.94653 19.0019 3.43074 19.4646 3.43074 20.0534C3.43074 27.6244 8.23074 34.4593 15.5149 36.9619ZM38.0588 24.7657C37.3512 25.4723 37.3512 26.61 38.0588 27.3046C38.7665 28.0112 39.9059 28.0112 40.6015 27.3046C41.2972 26.598 41.3092 25.4603 40.6015 24.7657C39.8939 24.0591 38.7665 24.0591 38.0588 24.7657Z" fill="url(#paint0_linear)"/>
<defs>
<linearGradient id="paint0_linear" x1="21.3257" y1="0" x2="21.3257" y2="40.0352" gradientUnits="userSpaceOnUse">
<stop offset="0.182292" stop-color="#0A7B82"/>
<stop offset="1" stop-color="#0F172A"/>
</linearGradient>
</defs>
</svg>
