<svg width="230" height="69" viewBox="0 0 230 69" fill="none" xmlns="http://www.w3.org/2000/svg">
<path d="M21.3385 50.7793L21.4869 50.887L21.332 50.7825L21.3385 50.7793Z" fill="url(#paint0_linear)"/>
<path d="M20.8447 50.793L20.9802 50.9007L20.8398 50.7978L20.8447 50.793Z" fill="url(#paint1_linear)"/>
<path d="M21.3385 50.7793L21.4869 50.887L21.332 50.7825L21.3385 50.7793Z" fill="url(#paint2_linear)"/>
<path d="M0 68.2597V0L27.594 26.6437L0 68.2597Z" fill="url(#paint3_linear)"/>
<path d="M24.8953 50.9007L24.7598 50.7978L24.7646 50.793L24.8953 50.9007Z" fill="url(#paint4_linear)"/>
<path d="M83.9412 47.7237H77.2715V19.4551H90.9683C97.5194 19.4551 102.085 23.346 102.085 28.9837C102.085 32.7961 99.5851 35.9724 95.8913 37.1566L102.721 47.7173H95.2647L89.7055 38.03H83.9412V47.7237ZM83.9412 24.4982V33.3506H89.8962C93.034 33.3506 95.4153 31.6039 95.4153 28.9837C95.4153 26.1248 93.034 24.4966 89.8962 24.4966L83.9412 24.4982Z" fill="white"/>
<path d="M105.258 21.3202C105.258 19.3747 106.687 17.9854 108.713 17.9854C110.738 17.9854 112.166 19.3747 112.166 21.3202C112.166 23.3057 110.737 24.6951 108.713 24.6951C106.689 24.6951 105.258 23.3057 105.258 21.3202ZM111.69 27.3954V47.7235H105.735V27.3954H111.69Z" fill="white"/>
<path d="M127.957 48.5188C126.651 48.5334 125.36 48.2473 124.182 47.6826C123.005 47.1179 121.973 46.2898 121.167 45.2625V47.7239H115.297V18.2646H121.252V29.8573C122.038 28.8296 123.054 28 124.218 27.4348C125.383 26.8697 126.663 26.5847 127.957 26.6026C133.635 26.6026 137.604 31.1282 137.604 37.5607C137.604 43.9933 133.596 48.5188 127.957 48.5188ZM121.008 37.5607C121.008 40.777 123.233 43.1583 126.329 43.1583C129.386 43.1583 131.649 40.8154 131.649 37.5607C131.649 34.3444 129.426 31.9615 126.329 31.9615C123.231 31.9615 121.01 34.3444 121.01 37.5607H121.008Z" fill="white"/>
<path d="M152.575 48.5188C151.269 48.5335 149.978 48.2474 148.801 47.6827C147.624 47.118 146.592 46.2899 145.787 45.2625V47.7239H139.91V18.2646H145.865V29.8573C146.652 28.8289 147.669 27.9989 148.834 27.4337C149.999 26.8686 151.28 26.5839 152.575 26.6026C158.253 26.6026 162.224 31.1282 162.224 37.5607C162.224 43.9933 158.213 48.5188 152.575 48.5188ZM145.626 37.5607C145.626 40.777 147.851 43.1583 150.947 43.1583C154.004 43.1583 156.267 40.8154 156.267 37.5607C156.267 34.3444 154.044 31.9615 150.947 31.9615C147.849 31.9615 145.626 34.3444 145.626 37.5607Z" fill="white"/>
<path d="M180.249 27.3966H186.206V47.7247H180.249V44.9138C178.661 47.1766 176.243 48.5275 173.341 48.5275C167.624 48.5275 163.613 44.0004 163.613 37.5694C163.613 31.1385 167.62 26.6113 173.341 26.6113C176.24 26.6113 178.661 27.9607 180.249 30.2234V27.3966ZM180.209 37.5614C180.209 34.265 177.986 31.8436 174.889 31.8436C171.791 31.8436 169.568 34.265 169.568 37.5614C169.568 40.8578 171.793 43.2776 174.889 43.2776C177.985 43.2776 180.209 40.8562 180.209 37.5614Z" fill="white"/>
<path d="M198.039 48.5993C192.56 48.5993 188.584 45.3846 188.629 40.9376H193.671C193.671 42.9616 195.538 44.391 198.118 44.391C200.302 44.391 201.89 43.359 201.89 42.0097C201.89 40.3014 199.587 39.8254 197.126 39.5866C192.599 39.0306 188.828 38.3158 188.828 33.3528C188.828 29.3833 192.599 26.5244 197.562 26.5244C203.01 26.5244 206.933 29.4635 206.933 33.5515H201.692C201.692 31.8849 199.905 30.7327 197.525 30.7327C195.698 30.7327 194.229 31.6862 194.19 33.0355C194.19 34.3864 195.975 34.7823 198.278 35.1396C202.408 35.6957 207.61 36.5306 207.61 41.2949C207.603 45.5416 203.717 48.5993 198.039 48.5993Z" fill="white"/>
<path d="M215.71 18.2646V29.6987C217.06 27.7132 219.481 26.6026 221.944 26.6026C226.629 26.6026 229.686 30.016 229.686 34.8204V47.7239H223.73V36.0511C223.73 33.5896 222.3 31.8845 219.919 31.8429C217.616 31.8429 215.71 33.7082 215.71 36.2899V47.7239H209.754V18.2646H215.71Z" fill="white"/>
<path d="M86.4009 63.8902L88.4586 56.2285H89.9778L87.574 64.9463H85.292L83.5917 57.8951L81.9042 64.9463H79.6126L77.1992 56.2285H78.7264L80.7953 63.8902L82.6446 56.2285H84.5901L86.4009 63.8902Z" fill="white"/>
<path d="M93.5787 58.4434C95.5242 58.4434 96.904 59.8231 96.904 61.7574C96.904 61.9048 96.8911 62.0907 96.8799 62.2381L91.6076 62.2253C91.7678 63.3343 92.5435 64.073 93.5659 64.073C94.404 64.073 95.1796 63.5811 95.4136 62.8904L96.67 63.0763C96.3126 64.3086 95.0194 65.1948 93.5899 65.1948C91.6316 65.1948 90.2246 63.7525 90.2246 61.7462C90.2278 59.8167 91.6316 58.4434 93.5787 58.4434ZM95.5114 61.2398C95.4499 60.7658 95.2141 60.3317 94.85 60.0221C94.4859 59.7125 94.0195 59.5496 93.5418 59.5651C92.5307 59.5651 91.7919 60.243 91.6188 61.2398H95.5114Z" fill="white"/>
<path d="M101.836 64.9463V56.2285H105.778C107.466 56.2285 108.663 57.2141 108.663 58.5682C108.671 58.9679 108.549 59.3593 108.315 59.6838C108.082 60.0083 107.749 60.2483 107.368 60.3678C108.268 60.589 108.908 61.4512 108.908 62.4608C108.908 63.9158 107.626 64.9495 105.828 64.9495L101.836 64.9463ZM103.313 57.4448V59.7973H105.557C106.506 59.7973 107.171 59.3166 107.171 58.6275C107.171 57.9384 106.506 57.4448 105.557 57.4448H103.313ZM105.581 60.956H103.318V63.7268H105.586C106.656 63.7268 107.421 63.1354 107.421 62.3358C107.421 61.5361 106.656 60.9592 105.586 60.9592L105.581 60.956Z" fill="white"/>
<path d="M114.706 64.9452V64.1439C114.479 64.4692 114.177 64.7344 113.825 64.9167C113.473 65.099 113.082 65.1929 112.685 65.1904C111.145 65.1904 110.148 64.0574 110.148 62.5045V58.6953H111.491V62.4164C111.491 63.3394 112.033 64.0045 112.982 64.0045C113.207 64.0071 113.431 63.9646 113.64 63.8795C113.849 63.7944 114.038 63.6684 114.198 63.5089C114.357 63.3495 114.483 63.1598 114.568 62.951C114.653 62.7422 114.696 62.5185 114.693 62.293V58.6953H116.023V64.9452H114.706Z" fill="white"/>
<path d="M117.496 56.8561C117.496 56.6355 117.584 56.424 117.74 56.268C117.896 56.112 118.107 56.0244 118.328 56.0244C118.548 56.0244 118.76 56.112 118.916 56.268C119.072 56.424 119.16 56.6355 119.16 56.8561C119.16 57.0767 119.072 57.2883 118.916 57.4442C118.76 57.6002 118.548 57.6878 118.328 57.6878C118.107 57.6878 117.896 57.6002 117.74 57.4442C117.584 57.2883 117.496 57.0767 117.496 56.8561ZM118.999 58.6958V64.9457H117.669V58.6958H118.999Z" fill="white"/>
<path d="M121.883 55.8574V64.9454H120.553V55.8574H121.883Z" fill="white"/>
<path d="M126.136 58.4452C126.573 58.438 127.006 58.5335 127.4 58.7238C127.793 58.9142 128.137 59.1942 128.402 59.5413V55.8555H129.745V64.9466H128.438V64.0716C128.169 64.4263 127.82 64.7127 127.42 64.9076C127.02 65.1025 126.58 65.2004 126.135 65.1934C124.324 65.1934 122.992 63.7768 122.992 61.8185C122.992 59.8602 124.313 58.4452 126.136 58.4452ZM124.325 61.8217C124.325 63.0653 125.212 63.9402 126.394 63.9402C127.577 63.9402 128.452 63.0412 128.452 61.8217C128.452 60.6022 127.59 59.7015 126.394 59.7015C125.199 59.7015 124.325 60.6022 124.325 61.8217Z" fill="white"/>
<path d="M134.928 56.2285H137.892C140.923 56.2285 142.944 57.9641 142.944 60.589C142.944 63.2139 140.926 64.9463 137.892 64.9463H134.928V56.2285ZM137.896 57.4593H136.392V63.7171H137.892C140.024 63.7171 141.466 62.5104 141.466 60.589C141.466 58.6676 140.027 57.4593 137.892 57.4593H137.896Z" fill="white"/>
<path d="M144.16 56.8561C144.16 56.6355 144.248 56.424 144.404 56.268C144.56 56.112 144.771 56.0244 144.992 56.0244C145.212 56.0244 145.424 56.112 145.58 56.268C145.736 56.424 145.824 56.6355 145.824 56.8561C145.824 57.0767 145.736 57.2883 145.58 57.4442C145.424 57.6002 145.212 57.6878 144.992 57.6878C144.771 57.6878 144.56 57.6002 144.404 57.4442C144.248 57.2883 144.16 57.0767 144.16 56.8561ZM145.663 58.691V64.9409H144.333V58.6958L145.663 58.691Z" fill="white"/>
<path d="M152.331 64.8258V64.0246C152.061 64.3606 151.717 64.6299 151.327 64.8114C150.936 64.9929 150.508 65.0817 150.078 65.071C148.254 65.071 146.924 63.7153 146.924 61.8195C146.924 59.8724 148.254 58.4686 150.078 58.4686C150.513 58.4581 150.944 58.5494 151.337 58.7353C151.731 58.9211 152.075 59.1964 152.344 59.5391V58.6961H153.674V64.8435C153.674 66.8642 152.307 68.0341 150.397 68.0341C148.759 68.0341 147.403 66.9989 147.182 65.5582L148.414 65.4108C148.526 65.8382 148.777 66.2164 149.127 66.4861C149.477 66.7557 149.907 66.9017 150.348 66.9011C151.505 66.8963 152.331 66.1447 152.331 64.8258ZM152.38 61.8211C152.38 60.5519 151.518 59.64 150.323 59.64C149.127 59.64 148.254 60.5519 148.254 61.8211C148.254 63.0406 149.129 63.9268 150.323 63.9268C151.517 63.9268 152.38 63.0406 152.38 61.8211Z" fill="white"/>
<path d="M155.082 56.8561C155.082 56.6355 155.17 56.424 155.326 56.268C155.482 56.112 155.693 56.0244 155.914 56.0244C156.134 56.0244 156.346 56.112 156.502 56.268C156.658 56.424 156.745 56.6355 156.745 56.8561C156.745 57.0767 156.658 57.2883 156.502 57.4442C156.346 57.6002 156.134 57.6878 155.914 57.6878C155.693 57.6878 155.482 57.6002 155.326 57.4442C155.17 57.2883 155.082 57.0767 155.082 56.8561ZM156.585 58.691V64.9409H155.255V58.6958L156.585 58.691Z" fill="white"/>
<path d="M158.682 59.7373H157.721V58.6957H158.756L158.929 57.1797H160.025V58.6957H161.552V59.7421H160.025V63.1074C160.025 63.6747 160.37 64.069 160.937 64.069C161.175 64.0636 161.411 64.0264 161.639 63.9584V65.0289C161.28 65.1428 160.906 65.2012 160.53 65.2019C159.408 65.2019 158.682 64.3895 158.682 63.194V59.7373Z" fill="white"/>
<path d="M167.973 58.6946H169.316V64.9444H167.973V64.0085C167.71 64.3799 167.361 64.6816 166.955 64.8877C166.55 65.0937 166.1 65.1979 165.645 65.1912C163.81 65.1912 162.504 63.7746 162.504 61.8163C162.504 59.858 163.81 58.4398 165.645 58.4398C166.1 58.4331 166.55 58.5373 166.955 58.7433C167.361 58.9494 167.71 59.2511 167.973 59.6224V58.6946ZM167.962 61.8243C167.962 60.5551 167.098 59.6433 165.904 59.6433C164.711 59.6433 163.834 60.5551 163.834 61.8243C163.834 63.0935 164.709 64.0037 165.904 64.0037C167.1 64.0037 167.962 63.0871 167.962 61.8195V61.8243Z" fill="white"/>
<path d="M172.156 55.8574V64.9454H170.824V55.8574H172.156Z" fill="white"/>
<path d="M178.758 62.2893V64.9463H177.328V56.2285H180.703C182.748 56.2285 184.214 57.4961 184.214 59.2589C184.214 61.0217 182.748 62.2893 180.689 62.2893H178.758ZM178.758 57.448V61.0569H180.458C181.788 61.0569 182.748 60.3054 182.737 59.2589C182.725 58.2124 181.788 57.448 180.458 57.448H178.758Z" fill="white"/>
<path d="M186.739 58.6948V59.496C186.905 59.1894 187.151 58.9329 187.45 58.7531C187.749 58.5734 188.09 58.4769 188.439 58.4736C188.713 58.4809 188.984 58.5351 189.24 58.6339V59.8166C188.932 59.6896 188.602 59.6227 188.268 59.6194C187.382 59.6194 186.79 60.4079 186.79 61.5168V64.9446H185.447V58.6948H186.739Z" fill="white"/>
<path d="M196.278 61.8199C196.278 63.8022 194.872 65.1948 192.877 65.1948C190.882 65.1948 189.477 63.8022 189.477 61.8199C189.477 59.8376 190.869 58.4434 192.877 58.4434C194.885 58.4434 196.278 59.836 196.278 61.8199ZM194.948 61.8199C194.948 60.5507 194.073 59.6388 192.877 59.6388C191.682 59.6388 190.819 60.5507 190.819 61.8199C190.819 63.0891 191.67 63.9993 192.877 63.9993C194.084 63.9993 194.943 63.0875 194.943 61.8199H194.948Z" fill="white"/>
<path d="M200.335 58.4452C200.773 58.4383 201.205 58.5338 201.599 58.7242C201.993 58.9145 202.337 59.1943 202.603 59.5413V55.8555H203.944V64.9466H202.635V64.0716C202.366 64.4264 202.017 64.7128 201.617 64.9076C201.216 65.1025 200.776 65.2004 200.33 65.1934C198.52 65.1934 197.189 63.7768 197.189 61.8185C197.189 59.8602 198.512 58.4452 200.335 58.4452ZM198.524 61.8217C198.524 63.0653 199.412 63.9402 200.595 63.9402C201.777 63.9402 202.651 63.0412 202.651 61.8217C202.651 60.6022 201.789 59.7015 200.595 59.7015C199.401 59.7015 198.524 60.6022 198.524 61.8217Z" fill="white"/>
<path d="M209.79 64.9452V64.1439C209.563 64.4692 209.261 64.7344 208.909 64.9167C208.556 65.099 208.165 65.1929 207.769 65.1904C206.229 65.1904 205.23 64.0574 205.23 62.5045V58.6953H206.573V62.4164C206.573 63.3394 207.115 64.0045 208.064 64.0045C208.289 64.0071 208.513 63.9646 208.722 63.8795C208.931 63.7944 209.121 63.6685 209.28 63.509C209.44 63.3496 209.566 63.1599 209.651 62.9511C209.737 62.7423 209.779 62.5185 209.777 62.293V58.6953H211.107V64.9452H209.79Z" fill="white"/>
<path d="M218.701 60.8215L217.419 60.9818C217.313 60.5799 217.077 60.2248 216.746 59.9726C216.416 59.7204 216.011 59.5854 215.596 59.5892C214.487 59.5892 213.613 60.525 213.613 61.8199C213.613 63.1147 214.475 64.049 215.596 64.049C216.011 64.0533 216.416 63.9204 216.748 63.6709C217.08 63.4214 217.321 63.0693 217.432 62.6692L218.714 62.8295C218.456 64.1964 217.137 65.1948 215.597 65.1948C213.674 65.1948 212.283 63.7782 212.283 61.8199C212.283 59.8616 213.676 58.4434 215.586 58.4434C217.173 58.4434 218.479 59.4417 218.701 60.8215Z" fill="white"/>
<path d="M220.504 59.7373H219.543V58.6957H220.583L220.756 57.1797H221.852V58.6957H223.379V59.7421H221.852V63.1074C221.852 63.6747 222.197 64.069 222.764 64.069C223.002 64.0636 223.238 64.0264 223.466 63.9584V65.0289C223.107 65.1428 222.733 65.2012 222.357 65.2019C221.235 65.2019 220.509 64.3895 220.509 63.194L220.504 59.7373Z" fill="white"/>
<path d="M227.27 65.2075C225.62 65.2075 224.426 64.2091 224.426 62.8293H225.657C225.657 63.5681 226.334 64.1114 227.27 64.1114C228.108 64.1114 228.713 63.73 228.7 63.2123C228.7 62.5601 227.727 62.3999 227.097 62.3133C225.631 62.0922 224.522 61.9063 224.522 60.4159C224.522 59.2701 225.618 58.4336 227.035 58.4336C228.648 58.4336 229.831 59.3326 229.831 60.5762H228.596C228.583 59.9608 227.931 59.5297 227.031 59.5297C226.354 59.5297 225.786 59.8983 225.786 60.4047C225.786 60.8726 226.254 61.0201 227.265 61.1932C228.459 61.3903 229.999 61.6483 229.999 63.0649C229.993 64.3037 228.86 65.2075 227.27 65.2075Z" fill="white"/>
<path d="M44.157 44.8945V68.2594L21.2344 51.0867L21.486 50.8848H21.4908L28.8111 44.9827L28.9185 44.8945H44.157Z" fill="url(#paint5_linear)"/>
<path d="M21.2344 51.0867L21.486 50.8848H21.4908L28.2711 45.417L44.157 68.2594L21.2344 51.0867Z" fill="url(#paint6_linear)"/>
<path d="M27.594 26.6437L0 0L51.5341 26.6437H51.5165H27.594Z" fill="url(#paint7_linear)"/>
<path d="M0 68.2596L51.5678 26.6436H27.594L0 68.2596Z" fill="url(#paint8_linear)"/>
<defs>
<linearGradient id="paint0_linear" x1="21.332" y1="50.834" x2="21.4869" y2="50.834" gradientUnits="userSpaceOnUse">
<stop stop-color="#26D09B"/>
<stop offset="1" stop-color="#87D46A"/>
</linearGradient>
<linearGradient id="paint1_linear" x1="20.8398" y1="50.846" x2="20.9802" y2="50.846" gradientUnits="userSpaceOnUse">
<stop stop-color="#326483"/>
<stop offset="1" stop-color="#0C9AA3"/>
</linearGradient>
<linearGradient id="paint2_linear" x1="70.0579" y1="99.1329" x2="70.2066" y2="99.1329" gradientUnits="userSpaceOnUse">
<stop stop-color="#326483"/>
<stop offset="1" stop-color="#0C9AA3"/>
</linearGradient>
<linearGradient id="paint3_linear" x1="5009.13" y1="23529.1" x2="9760.53" y2="23529.1" gradientUnits="userSpaceOnUse">
<stop stop-color="#26D09B"/>
<stop offset="1" stop-color="#87D46A"/>
</linearGradient>
<linearGradient id="paint4_linear" x1="70.2999" y1="99.1552" x2="70.4137" y2="99.1552" gradientUnits="userSpaceOnUse">
<stop stop-color="#326483"/>
<stop offset="1" stop-color="#0C9AA3"/>
</linearGradient>
<linearGradient id="paint5_linear" x1="7219.61" y1="11371.7" x2="10498.5" y2="11371.7" gradientUnits="userSpaceOnUse">
<stop stop-color="#26D09B"/>
<stop offset="1" stop-color="#87D46A"/>
</linearGradient>
<linearGradient id="paint6_linear" x1="7219.61" y1="11156.2" x2="10498.5" y2="11156.2" gradientUnits="userSpaceOnUse">
<stop stop-color="#326483"/>
<stop offset="1" stop-color="#0C9AA3"/>
</linearGradient>
<linearGradient id="paint7_linear" x1="24965.2" y1="8801.47" x2="15388.7" y2="-1893.08" gradientUnits="userSpaceOnUse">
<stop stop-color="#326483"/>
<stop offset="1" stop-color="#0C9AA3"/>
</linearGradient>
<linearGradient id="paint8_linear" x1="9361.1" y1="17831.3" x2="25955.1" y2="17831.3" gradientUnits="userSpaceOnUse">
<stop stop-color="#326483"/>
<stop offset="1" stop-color="#0C9AA3"/>
</linearGradient>
</defs>
</svg>
