<svg width="40" height="40" viewBox="0 0 40 40" fill="none" xmlns="http://www.w3.org/2000/svg">
<path d="M32.5925 30C32.1925 32.8333 29.7592 35 26.8258 35H13.4925C10.2758 35 7.65918 32.3833 7.65918 29.1667V10.8333C7.65918 7.61667 10.2758 5 13.4925 5H14.3592C14.3758 5 14.3758 5 14.3925 5C14.7925 2.16667 17.2258 0 20.1592 0H31.1925C31.9758 0 32.7092 0.366667 33.1758 0.983333L38.8092 8.38333C39.1425 8.81667 39.3258 9.35 39.3258 9.9V24.1667C39.3258 27.3833 36.7092 30 33.4925 30H32.5925ZM30.9092 30H20.1592C16.9425 30 14.3258 27.3833 14.3258 24.1667V6.66667H13.4925C11.1925 6.66667 9.32585 8.53333 9.32585 10.8333V29.1667C9.32585 31.4667 11.1925 33.3333 13.4925 33.3333H26.8258C28.8425 33.3333 30.5258 31.9 30.9092 30ZM30.1592 1.66667H20.1592C17.8592 1.66667 15.9925 3.53333 15.9925 5.83333V24.1667C15.9925 26.4667 17.8592 28.3333 20.1592 28.3333H33.4925C35.7925 28.3333 37.6592 26.4667 37.6592 24.1667V10.8333C37.6592 10.3667 37.2925 10 36.8258 10H33.4925C32.1092 10 30.9925 8.88333 30.9925 7.5V2.5C30.9925 2.03333 30.6258 1.66667 30.1592 1.66667ZM32.6592 3.05V7.5C32.6592 7.96667 33.0258 8.33333 33.4925 8.33333H36.6758L32.6592 3.05Z" fill="white"/>
<path d="M25.9285 35C25.5285 37.8333 23.0951 40 20.1618 40H6.82845C3.61178 40 0.995117 37.3833 0.995117 34.1667V15.8333C0.995117 12.6167 3.61178 10 6.82845 10C6.82845 10 7.71178 10 7.72845 10L9.32845 10.15L9.24512 25.7833L9.17845 31.35L10.9451 33.55L26.1451 34.1L25.9285 35ZM24.2451 35H13.4951C10.2785 35 7.66178 32.3833 7.66178 29.1667V11.6667H6.82845C4.52845 11.6667 2.66178 13.5333 2.66178 15.8333V34.1667C2.66178 36.4667 4.52845 38.3333 6.82845 38.3333H20.1618C22.1785 38.3333 23.8618 36.9 24.2451 35Z" fill="white"/>
</svg>
