<svg width="51" height="51" viewBox="0 0 51 51" fill="none" xmlns="http://www.w3.org/2000/svg">
<path d="M24.2857 50.9757C11.1714 50.3686 0.655714 39.8529 0.0242857 26.7629L0 26.7143V24.2857C0.631429 11.1714 11.1714 0.631429 24.2857 0.0242857V0H26.7143V0.0242857C40.2414 0.655714 51 11.8271 51 25.5C51 39.1729 40.2414 50.3443 26.7143 50.9757V51H24.2857V50.9757ZM24.2857 36.4771V26.7143H14.5957C14.6929 30.6729 15.2757 34.34 16.2229 37.4971C18.7486 36.9386 21.4686 36.5743 24.2857 36.4771ZM26.7143 36.4286C29.5557 36.4529 32.3 36.72 34.8743 37.1814C35.7486 34.0971 36.3071 30.5271 36.4043 26.7143H26.7143V36.4286ZM24.2857 13.77C21.5414 13.6971 18.8943 13.3814 16.4171 12.8471C15.3486 16.15 14.6929 20.06 14.5957 24.2857H24.2857V13.77ZM26.7143 13.77V24.2857H36.4043C36.3071 20.06 35.6271 16.1743 34.5829 12.8471C32.1057 13.3814 29.4586 13.6971 26.7143 13.77ZM24.2857 48.4257V38.9057C21.7357 39.0029 19.2829 39.3186 16.9757 39.8286C18.7729 44.5157 21.3957 47.7214 24.2857 48.4257ZM26.7143 38.8571V48.4257C29.6529 47.6971 32.3243 44.37 34.1214 39.5129C31.79 39.1 29.2886 38.8814 26.7143 38.8571ZM24.2857 11.3414V2.57429C21.5414 3.25429 19.0157 6.19286 17.2429 10.54C19.4529 11.0014 21.8329 11.2686 24.2857 11.3414ZM26.7143 2.57429V11.3414C29.1671 11.2686 31.5471 11.0014 33.7571 10.5643C31.9843 6.19286 29.4586 3.25429 26.7143 2.57429ZM2.45286 26.7143C2.72 31.9357 4.73571 36.72 7.91714 40.46C9.66571 39.5129 11.6571 38.7357 13.8186 38.1043C12.8229 34.7043 12.2157 30.8429 12.1186 26.7143H2.45286ZM38.8329 26.7143C38.7357 30.6729 38.1771 34.3886 37.2543 37.6914C39.5371 38.25 41.65 38.9786 43.52 39.8771C46.4343 36.2343 48.2557 31.6686 48.5229 26.7143H38.8329ZM12.1671 24.2857C12.2643 19.89 12.9443 15.7857 14.0614 12.24C11.9729 11.6571 10.0786 10.9043 8.40286 10.0057C4.93 13.8186 2.74429 18.7971 2.45286 24.2857H12.1671ZM48.5471 24.2857C48.2557 18.8214 46.07 13.8671 42.6457 10.0543C40.9457 10.9529 39.0514 11.6814 36.9629 12.2886C38.08 15.8343 38.7357 19.9386 38.8329 24.31H48.5471V24.2857ZM14.62 40.4114C12.8229 40.9214 11.1714 41.5529 9.69 42.3057C12.2157 44.6857 15.3 46.5071 18.7243 47.5757C17.0729 45.7543 15.6886 43.3014 14.62 40.4114ZM36.5257 40.0229C35.4329 43.0829 33.9757 45.6814 32.2757 47.5757C35.9429 46.4586 39.1971 44.4429 41.8443 41.7957C40.2414 41.0671 38.4686 40.4843 36.5257 40.0229ZM14.8629 9.95714C15.9071 7.33429 17.1943 5.12429 18.7 3.44857C15.5186 4.42 12.6286 6.07143 10.2 8.23286C11.6086 8.91286 13.1629 9.49571 14.8629 9.95714ZM36.1614 9.98143C37.8614 9.52 39.4157 8.93714 40.8486 8.25714C38.42 6.09571 35.5057 4.42 32.3 3.44857C33.8057 5.12429 35.1171 7.35857 36.1614 9.98143Z" fill="url(#paint0_linear)"/>
<path d="M24.2857 50.9757C11.1714 50.3686 0.655714 39.8529 0.0242857 26.7629L0 26.7143V24.2857C0.631429 11.1714 11.1714 0.631429 24.2857 0.0242857V0H26.7143V0.0242857C40.2414 0.655714 51 11.8271 51 25.5C51 39.1729 40.2414 50.3443 26.7143 50.9757V51H24.2857V50.9757ZM24.2857 36.4771V26.7143H14.5957C14.6929 30.6729 15.2757 34.34 16.2229 37.4971C18.7486 36.9386 21.4686 36.5743 24.2857 36.4771ZM26.7143 36.4286C29.5557 36.4529 32.3 36.72 34.8743 37.1814C35.7486 34.0971 36.3071 30.5271 36.4043 26.7143H26.7143V36.4286ZM24.2857 13.77C21.5414 13.6971 18.8943 13.3814 16.4171 12.8471C15.3486 16.15 14.6929 20.06 14.5957 24.2857H24.2857V13.77ZM26.7143 13.77V24.2857H36.4043C36.3071 20.06 35.6271 16.1743 34.5829 12.8471C32.1057 13.3814 29.4586 13.6971 26.7143 13.77ZM24.2857 48.4257V38.9057C21.7357 39.0029 19.2829 39.3186 16.9757 39.8286C18.7729 44.5157 21.3957 47.7214 24.2857 48.4257ZM26.7143 38.8571V48.4257C29.6529 47.6971 32.3243 44.37 34.1214 39.5129C31.79 39.1 29.2886 38.8814 26.7143 38.8571ZM24.2857 11.3414V2.57429C21.5414 3.25429 19.0157 6.19286 17.2429 10.54C19.4529 11.0014 21.8329 11.2686 24.2857 11.3414ZM26.7143 2.57429V11.3414C29.1671 11.2686 31.5471 11.0014 33.7571 10.5643C31.9843 6.19286 29.4586 3.25429 26.7143 2.57429ZM2.45286 26.7143C2.72 31.9357 4.73571 36.72 7.91714 40.46C9.66571 39.5129 11.6571 38.7357 13.8186 38.1043C12.8229 34.7043 12.2157 30.8429 12.1186 26.7143H2.45286ZM38.8329 26.7143C38.7357 30.6729 38.1771 34.3886 37.2543 37.6914C39.5371 38.25 41.65 38.9786 43.52 39.8771C46.4343 36.2343 48.2557 31.6686 48.5229 26.7143H38.8329ZM12.1671 24.2857C12.2643 19.89 12.9443 15.7857 14.0614 12.24C11.9729 11.6571 10.0786 10.9043 8.40286 10.0057C4.93 13.8186 2.74429 18.7971 2.45286 24.2857H12.1671ZM48.5471 24.2857C48.2557 18.8214 46.07 13.8671 42.6457 10.0543C40.9457 10.9529 39.0514 11.6814 36.9629 12.2886C38.08 15.8343 38.7357 19.9386 38.8329 24.31H48.5471V24.2857ZM14.62 40.4114C12.8229 40.9214 11.1714 41.5529 9.69 42.3057C12.2157 44.6857 15.3 46.5071 18.7243 47.5757C17.0729 45.7543 15.6886 43.3014 14.62 40.4114ZM36.5257 40.0229C35.4329 43.0829 33.9757 45.6814 32.2757 47.5757C35.9429 46.4586 39.1971 44.4429 41.8443 41.7957C40.2414 41.0671 38.4686 40.4843 36.5257 40.0229ZM14.8629 9.95714C15.9071 7.33429 17.1943 5.12429 18.7 3.44857C15.5186 4.42 12.6286 6.07143 10.2 8.23286C11.6086 8.91286 13.1629 9.49571 14.8629 9.95714ZM36.1614 9.98143C37.8614 9.52 39.4157 8.93714 40.8486 8.25714C38.42 6.09571 35.5057 4.42 32.3 3.44857C33.8057 5.12429 35.1171 7.35857 36.1614 9.98143Z" stroke="url(#paint1_linear)"/>
<defs>
<linearGradient id="paint0_linear" x1="25.5" y1="0" x2="25.5" y2="51" gradientUnits="userSpaceOnUse">
<stop offset="0.182292" stop-color="#0A7B82"/>
<stop offset="1" stop-color="#0F172A"/>
</linearGradient>
<linearGradient id="paint1_linear" x1="25.5" y1="0" x2="25.5" y2="51" gradientUnits="userSpaceOnUse">
<stop stop-color="#0A7B82"/>
<stop offset="1" stop-color="#0F192C"/>
</linearGradient>
</defs>
</svg>
