<svg width="20" height="20" viewBox="0 0 20 20" fill="none" xmlns="http://www.w3.org/2000/svg">
<path d="M19.6003 10.223C19.6003 9.40025 19.5336 8.80065 19.3904 8.17773H10V11.8886H15.5097C15.3997 12.8113 14.8001 14.2004 13.4644 15.1331L13.4444 15.2563L16.4124 17.5548L16.6189 17.5748C18.511 15.8326 19.6003 13.2677 19.6003 10.223Z" fill="#3283FC"/>
<path d="M10.0005 20.0002C12.702 20.0002 14.9671 19.1108 16.6227 17.5785L13.4681 15.1335C12.622 15.7231 11.4895 16.1328 10.0005 16.1328C7.35555 16.1328 5.11038 14.3873 4.31091 11.9756L4.19432 11.9856L1.10638 14.374L1.06641 14.4906C2.71198 17.7551 6.08972 20.0002 10.0005 20.0002Z" fill="#00AC47"/>
<path d="M4.31046 11.9785C4.1006 11.3556 3.97735 10.6894 3.97735 9.99987C3.97735 9.31033 4.1006 8.6441 4.30047 8.02119L4.2938 7.88794L1.16922 5.46289L1.06596 5.50953C0.38974 6.86529 0 8.38761 0 9.99987C0 11.6121 0.38974 13.1344 1.06596 14.4902L4.31046 11.9785Z" fill="#FFBB00"/>
<path d="M10.0005 3.86742C11.8792 3.86742 13.145 4.67688 13.8679 5.35643L16.6893 2.6016C14.9571 0.98934 12.702 0 10.0005 0C6.08972 0 2.71198 2.24517 1.06641 5.50966L4.30092 8.02132C5.11038 5.60959 7.35555 3.86742 10.0005 3.86742Z" fill="#FE2C25"/>
</svg>
