<svg width="26" height="26" viewBox="0 0 26 26" fill="none" xmlns="http://www.w3.org/2000/svg">
<path d="M19.0771 6.2168H5.91797V19.376H19.0771V6.2168Z" fill="white"/>
<path d="M19.082 25.2964L25.0024 19.376H19.082V25.2964Z" fill="#F72A25"/>
<path d="M25.0024 6.2168H19.082V19.376H25.0024V6.2168Z" fill="#FBBC04"/>
<path d="M19.0771 19.376H5.91797V25.2964H19.0771V19.376Z" fill="#34A853"/>
<path d="M0 19.376V23.3229C0 24.4134 0.882975 25.2964 1.97347 25.2964H5.92041V19.376H0Z" fill="#188038"/>
<path d="M25.0024 6.2168V2.26986C25.0024 1.17936 24.1195 0.296387 23.029 0.296387H19.082V6.2168H25.0024Z" fill="#1967D2"/>
<path d="M19.0796 0.296387H1.97347C0.882975 0.296387 0 1.17936 0 2.26986V19.376H5.92041V6.2168H19.0776V0.296387H19.0796Z" fill="#4285F4"/>
<path d="M8.61784 16.4239C8.12549 16.0923 7.78573 15.606 7.60059 14.9652L8.74194 14.4952C8.8457 14.8899 9.02677 15.1951 9.28516 15.4128C9.5415 15.6305 9.85482 15.7362 10.219 15.7362C10.5933 15.7362 10.9128 15.6223 11.1813 15.3965C11.4499 15.1686 11.5841 14.8797 11.5841 14.5298C11.5841 14.1717 11.4417 13.8787 11.1589 13.6509C10.8761 13.423 10.5201 13.3111 10.0969 13.3111H9.43774V12.182H10.0298C10.394 12.182 10.7032 12.0843 10.9535 11.8849C11.2037 11.6876 11.3278 11.417 11.3278 11.0732C11.3278 10.768 11.2159 10.5238 10.9921 10.3407C10.7683 10.1576 10.4855 10.0661 10.1417 10.0661C9.80599 10.0661 9.53947 10.1556 9.34212 10.3346C9.14478 10.5137 8.99626 10.7415 8.91081 10.9938L7.78166 10.5238C7.93221 10.0986 8.20687 9.72428 8.6097 9.4008C9.01253 9.07731 9.52726 8.91455 10.1519 8.91455C10.6137 8.91455 11.0308 9.00407 11.399 9.18311C11.7673 9.36214 12.0562 9.61035 12.2657 9.9257C12.4753 10.2431 12.579 10.5991 12.579 10.9938C12.579 11.3966 12.4814 11.7364 12.2881 12.0172C12.0948 12.2959 11.8547 12.5116 11.5719 12.6601V12.7272C11.9361 12.8778 12.2555 13.126 12.4895 13.4434C12.7275 13.7648 12.8476 14.1473 12.8476 14.5949C12.8476 15.0425 12.7336 15.4412 12.5078 15.7912C12.2799 16.1411 11.9666 16.4178 11.5679 16.6192C11.1691 16.8206 10.7195 16.9224 10.221 16.9224C9.64323 16.9224 9.11019 16.7576 8.61784 16.4239ZM15.6287 10.7598L14.3755 11.6652L13.7489 10.7151L15.997 9.09359H16.8596V16.7433H15.6287V10.7598Z" fill="#1A73E8"/>
</svg>
