<svg width="43" height="40" viewBox="0 0 43 40" fill="none" xmlns="http://www.w3.org/2000/svg">
<path d="M7.16667 27.3681C4.34095 27.3681 2.04762 25.0102 2.04762 22.105C2.04762 19.1997 4.34095 16.8418 7.16667 16.8418C9.99238 16.8418 12.2857 19.1997 12.2857 22.105C12.2857 25.0102 9.99238 27.3681 7.16667 27.3681ZM7.16667 27.3681H6.14286C2.74381 27.3681 0 30.1892 0 33.6839V36.8418C0 38.5892 1.3719 39.9997 3.07143 39.9997H11.2619C12.9614 39.9997 14.3333 38.5892 14.3333 36.8418V33.6839C14.3333 30.1892 11.5895 27.3681 8.19048 27.3681H7.16667ZM7.16667 25.2629C8.86619 25.2629 10.2381 23.8523 10.2381 22.105C10.2381 20.3576 8.86619 18.9471 7.16667 18.9471C5.46714 18.9471 4.09524 20.3576 4.09524 22.105C4.09524 23.8523 5.46714 25.2629 7.16667 25.2629ZM6.14286 29.4734C3.89048 29.4734 2.04762 31.3681 2.04762 33.6839V36.8418C2.04762 37.4313 2.4981 37.8944 3.07143 37.8944H11.2619C11.8352 37.8944 12.2857 37.4313 12.2857 36.8418V33.6839C12.2857 31.3681 10.4429 29.4734 8.19048 29.4734H6.14286Z" fill="url(#paint0_linear)"/>
<path d="M7.16667 27.3681C4.34095 27.3681 2.04762 25.0102 2.04762 22.105C2.04762 19.1997 4.34095 16.8418 7.16667 16.8418C9.99238 16.8418 12.2857 19.1997 12.2857 22.105C12.2857 25.0102 9.99238 27.3681 7.16667 27.3681ZM7.16667 27.3681H6.14286C2.74381 27.3681 0 30.1892 0 33.6839V36.8418C0 38.5892 1.3719 39.9997 3.07143 39.9997H11.2619C12.9614 39.9997 14.3333 38.5892 14.3333 36.8418V33.6839C14.3333 30.1892 11.5895 27.3681 8.19048 27.3681H7.16667ZM7.16667 25.2629C8.86619 25.2629 10.2381 23.8523 10.2381 22.105C10.2381 20.3576 8.86619 18.9471 7.16667 18.9471C5.46714 18.9471 4.09524 20.3576 4.09524 22.105C4.09524 23.8523 5.46714 25.2629 7.16667 25.2629ZM6.14286 29.4734C3.89048 29.4734 2.04762 31.3681 2.04762 33.6839V36.8418C2.04762 37.4313 2.4981 37.8944 3.07143 37.8944H11.2619C11.8352 37.8944 12.2857 37.4313 12.2857 36.8418V33.6839C12.2857 31.3681 10.4429 29.4734 8.19048 29.4734H6.14286Z" stroke="url(#paint1_linear)"/>
<path d="M35.8337 27.3681C33.0079 27.3681 30.7146 25.0102 30.7146 22.105C30.7146 19.1997 33.0079 16.8418 35.8337 16.8418C38.6594 16.8418 40.9527 19.1997 40.9527 22.105C40.9527 25.0102 38.6594 27.3681 35.8337 27.3681ZM35.8337 27.3681H34.8098C31.4108 27.3681 28.667 30.1892 28.667 33.6839V36.8418C28.667 38.5892 30.0389 39.9997 31.7384 39.9997H39.9289C41.6284 39.9997 43.0003 38.5892 43.0003 36.8418V33.6839C43.0003 30.1892 40.2565 27.3681 36.8575 27.3681H35.8337ZM35.8337 25.2629C37.5332 25.2629 38.9051 23.8523 38.9051 22.105C38.9051 20.3576 37.5332 18.9471 35.8337 18.9471C34.1341 18.9471 32.7622 20.3576 32.7622 22.105C32.7622 23.8523 34.1341 25.2629 35.8337 25.2629ZM34.8098 29.4734C32.5575 29.4734 30.7146 31.3681 30.7146 33.6839V36.8418C30.7146 37.4313 31.1651 37.8944 31.7384 37.8944H39.9289C40.5022 37.8944 40.9527 37.4313 40.9527 36.8418V33.6839C40.9527 31.3681 39.1098 29.4734 36.8575 29.4734H34.8098Z" fill="url(#paint2_linear)"/>
<path d="M35.8337 27.3681C33.0079 27.3681 30.7146 25.0102 30.7146 22.105C30.7146 19.1997 33.0079 16.8418 35.8337 16.8418C38.6594 16.8418 40.9527 19.1997 40.9527 22.105C40.9527 25.0102 38.6594 27.3681 35.8337 27.3681ZM35.8337 27.3681H34.8098C31.4108 27.3681 28.667 30.1892 28.667 33.6839V36.8418C28.667 38.5892 30.0389 39.9997 31.7384 39.9997H39.9289C41.6284 39.9997 43.0003 38.5892 43.0003 36.8418V33.6839C43.0003 30.1892 40.2565 27.3681 36.8575 27.3681H35.8337ZM35.8337 25.2629C37.5332 25.2629 38.9051 23.8523 38.9051 22.105C38.9051 20.3576 37.5332 18.9471 35.8337 18.9471C34.1341 18.9471 32.7622 20.3576 32.7622 22.105C32.7622 23.8523 34.1341 25.2629 35.8337 25.2629ZM34.8098 29.4734C32.5575 29.4734 30.7146 31.3681 30.7146 33.6839V36.8418C30.7146 37.4313 31.1651 37.8944 31.7384 37.8944H39.9289C40.5022 37.8944 40.9527 37.4313 40.9527 36.8418V33.6839C40.9527 31.3681 39.1098 29.4734 36.8575 29.4734H34.8098Z" stroke="url(#paint3_linear)"/>
<path d="M21.4997 10.5263C18.674 10.5263 16.3806 8.16842 16.3806 5.26316C16.3806 2.35789 18.674 0 21.4997 0C24.3254 0 26.6187 2.35789 26.6187 5.26316C26.6187 8.16842 24.3254 10.5263 21.4997 10.5263ZM21.4997 10.5263H20.4759C17.0768 10.5263 14.333 13.3474 14.333 16.8421V20C14.333 21.7474 15.7049 23.1579 17.4044 23.1579H25.5949C27.2944 23.1579 28.6663 21.7474 28.6663 20V16.8421C28.6663 13.3474 25.9225 10.5263 22.5235 10.5263H21.4997ZM21.4997 8.42105C23.1992 8.42105 24.5711 7.01053 24.5711 5.26316C24.5711 3.51579 23.1992 2.10526 21.4997 2.10526C19.8002 2.10526 18.4282 3.51579 18.4282 5.26316C18.4282 7.01053 19.8002 8.42105 21.4997 8.42105ZM20.4759 12.6316C18.2235 12.6316 16.3806 14.5263 16.3806 16.8421V20C16.3806 20.5895 16.8311 21.0526 17.4044 21.0526H25.5949C26.1682 21.0526 26.6187 20.5895 26.6187 20V16.8421C26.6187 14.5263 24.7759 12.6316 22.5235 12.6316H20.4759Z" fill="url(#paint4_linear)"/>
<path d="M21.4997 10.5263C18.674 10.5263 16.3806 8.16842 16.3806 5.26316C16.3806 2.35789 18.674 0 21.4997 0C24.3254 0 26.6187 2.35789 26.6187 5.26316C26.6187 8.16842 24.3254 10.5263 21.4997 10.5263ZM21.4997 10.5263H20.4759C17.0768 10.5263 14.333 13.3474 14.333 16.8421V20C14.333 21.7474 15.7049 23.1579 17.4044 23.1579H25.5949C27.2944 23.1579 28.6663 21.7474 28.6663 20V16.8421C28.6663 13.3474 25.9225 10.5263 22.5235 10.5263H21.4997ZM21.4997 8.42105C23.1992 8.42105 24.5711 7.01053 24.5711 5.26316C24.5711 3.51579 23.1992 2.10526 21.4997 2.10526C19.8002 2.10526 18.4282 3.51579 18.4282 5.26316C18.4282 7.01053 19.8002 8.42105 21.4997 8.42105ZM20.4759 12.6316C18.2235 12.6316 16.3806 14.5263 16.3806 16.8421V20C16.3806 20.5895 16.8311 21.0526 17.4044 21.0526H25.5949C26.1682 21.0526 26.6187 20.5895 26.6187 20V16.8421C26.6187 14.5263 24.7759 12.6316 22.5235 12.6316H20.4759Z" stroke="url(#paint5_linear)"/>
<defs>
<linearGradient id="paint0_linear" x1="7.16667" y1="16.8418" x2="7.16667" y2="39.9997" gradientUnits="userSpaceOnUse">
<stop offset="0.182292" stop-color="#0A7B82"/>
<stop offset="1" stop-color="#0F172A"/>
</linearGradient>
<linearGradient id="paint1_linear" x1="7.16667" y1="16.8418" x2="7.16667" y2="39.9997" gradientUnits="userSpaceOnUse">
<stop stop-color="#0A7B82"/>
<stop offset="1" stop-color="#0F192C"/>
</linearGradient>
<linearGradient id="paint2_linear" x1="35.8337" y1="16.8418" x2="35.8337" y2="39.9997" gradientUnits="userSpaceOnUse">
<stop offset="0.182292" stop-color="#0A7B82"/>
<stop offset="1" stop-color="#0F172A"/>
</linearGradient>
<linearGradient id="paint3_linear" x1="35.8337" y1="16.8418" x2="35.8337" y2="39.9997" gradientUnits="userSpaceOnUse">
<stop stop-color="#0A7B82"/>
<stop offset="1" stop-color="#0F192C"/>
</linearGradient>
<linearGradient id="paint4_linear" x1="21.4997" y1="0" x2="21.4997" y2="23.1579" gradientUnits="userSpaceOnUse">
<stop offset="0.182292" stop-color="#0A7B82"/>
<stop offset="1" stop-color="#0F172A"/>
</linearGradient>
<linearGradient id="paint5_linear" x1="21.4997" y1="0" x2="21.4997" y2="23.1579" gradientUnits="userSpaceOnUse">
<stop stop-color="#0A7B82"/>
<stop offset="1" stop-color="#0F192C"/>
</linearGradient>
</defs>
</svg>
