<svg width="46" height="44" viewBox="0 0 46 44" fill="none" xmlns="http://www.w3.org/2000/svg">
<path fill-rule="evenodd" clip-rule="evenodd" d="M33.9898 15.6462C33.5323 16.1036 32.8233 16.1036 32.3659 15.6462L26.3963 9.60796C24.7495 7.9383 24.7495 5.2394 26.3963 3.56974C28.043 1.90008 30.7191 1.90008 32.3659 3.56974L33.1664 4.39313L33.9898 3.56974C35.6366 1.90008 38.3126 1.90008 39.9594 3.56974C41.6062 5.2394 41.6062 7.9383 39.9594 9.60796L33.9898 15.6462ZM41.5604 11.2319C44.0992 8.6702 44.0992 4.48462 41.5604 1.92295C39.2732 -0.387128 35.7052 -0.615849 33.1664 1.23679C30.6276 -0.615849 27.0595 -0.387128 24.7723 1.92295C22.2335 4.48462 22.2335 8.6702 24.7723 11.2319L30.7419 17.2701C32.0685 18.6195 34.2414 18.6195 35.5908 17.2701L41.5604 11.2319ZM8.23394 17.2887L4.57441 20.285V17.1515C4.57441 16.5111 4.07122 16.0079 3.43081 16.0079H1.1436C0.503185 16.0079 0 16.5111 0 17.1515C0 17.7919 0.503185 18.2951 1.1436 18.2951H2.2872V41.1671H1.1436C0.503185 41.1671 0 41.6703 0 42.3107C0 42.9512 0.503185 43.4543 1.1436 43.4543H3.43081C4.07122 43.4543 4.57441 42.9512 4.57441 42.3107V38.8799H8.96584L22.5747 42.7453C24.2901 43.2256 26.1427 42.8825 27.5608 41.8076C36.5267 35.0603 42.5191 30.5088 43.434 29.6625C45.6526 27.6269 46.5217 25.3397 44.9436 23.0982C43.6627 21.2913 41.5356 21.1084 38.8825 22.2977L26.0055 28.8162L22.3917 27.6726C22.8492 27.2609 23.238 26.7349 23.5353 26.0945C24.9763 23.0067 23.6497 20.4679 20.0359 18.8898L14.0434 16.4196C12.0993 15.6191 9.85785 15.9622 8.23394 17.2887ZM4.57441 36.5927V23.2355L9.67488 19.0727C10.6584 18.2722 11.985 18.0664 13.1514 18.5467L19.0982 21.0397C21.6141 22.1376 22.2545 23.3956 21.4311 25.2025C20.9508 26.2774 19.8301 26.712 18.0003 26.3461L15.4844 25.5455C15.0956 25.3854 14.6839 25.2025 14.2493 24.9966C13.6775 24.7221 12.9913 24.9737 12.7169 25.5455C12.7054 25.557 12.6997 25.5741 12.694 25.5913C12.6883 25.6084 12.6825 25.6256 12.6711 25.637C12.6482 25.6828 12.6254 25.7514 12.6025 25.82L12.6025 25.82C12.3967 26.4375 12.7397 27.078 13.3344 27.2609L14.7525 27.7184C15.6445 28.0843 16.4679 28.3359 17.2455 28.5189L25.7539 31.2178C26.0513 31.3093 26.3486 31.2864 26.6231 31.1492L39.8889 24.4019C41.6043 23.6243 42.5649 23.6929 43.0909 24.4477C43.8228 25.4769 43.3654 26.6434 41.9016 28.0157C41.0782 28.7705 35.04 33.3678 26.2114 40.0007C25.3651 40.6411 24.2444 40.8469 23.2151 40.5496L9.44616 36.6385L9.12595 36.5927H4.57441Z" fill="url(#paint0_linear)"/>
<defs>
<linearGradient id="paint0_linear" x1="22.8742" y1="0" x2="22.8742" y2="43.4543" gradientUnits="userSpaceOnUse">
<stop offset="0.182292" stop-color="#0A7B82"/>
<stop offset="1" stop-color="#0F172A"/>
</linearGradient>
</defs>
</svg>
