<svg width="27" height="40" viewBox="0 0 27 40" fill="none" xmlns="http://www.w3.org/2000/svg">
<path fill-rule="evenodd" clip-rule="evenodd" d="M20.5252 20.4969C18.6129 22.4323 17.5406 25.0436 17.5411 27.7644L17.543 27.8774H9.06218V27.7703C9.06418 25.0474 7.99185 22.4337 6.0781 20.4969C3.869 18.6508 2.46776 16.0152 2.17269 13.1514C2.17269 10.1995 3.3453 7.3685 5.43257 5.28118C7.51983 3.19386 10.3508 2.02122 13.3026 2.02122C16.2545 2.02122 19.0854 3.19386 21.1727 5.28118C23.2599 7.3685 24.4325 10.1995 24.4325 13.1514C24.137 16.0155 22.735 18.6511 20.5252 20.4969ZM1.2588 8.12722C0.615678 9.72116 0.295354 11.4269 0.316404 13.1456C0.596578 16.5032 2.19469 19.6134 4.76136 21.7961C6.33089 23.3858 7.21001 25.5305 7.20784 27.7644V28.7988C7.20784 29.0447 7.30552 29.2805 7.4794 29.4544C7.65328 29.6283 7.88911 29.726 8.13501 29.726H18.478C18.7239 29.726 18.9597 29.6283 19.1336 29.4544C19.3075 29.2805 19.4052 29.0447 19.4052 28.7988V27.7644C19.4009 25.5316 20.2772 23.3871 21.8439 21.7961C24.4098 19.6131 26.0072 16.503 26.2869 13.1456C26.3079 11.4269 25.9876 9.72116 25.3445 8.12722C24.7013 6.53328 23.7482 5.08287 22.5403 3.86007C21.3325 2.63728 19.8939 1.66643 18.308 1.00381C16.7221 0.341198 15.0204 0 13.3016 0C11.5829 0 9.88122 0.341198 8.29532 1.00381C6.70942 1.66643 5.27082 2.63728 4.06294 3.86007C2.85506 5.08287 1.90193 6.53328 1.2588 8.12722ZM15.1519 37.1471H11.451V33.4462H15.1519V37.1471ZM16.0888 31.582H10.5238C10.2779 31.582 10.0421 31.6797 9.86824 31.8536C9.69436 32.0275 9.59668 32.2633 9.59668 32.5092V38.0743C9.59668 38.3202 9.69436 38.5561 9.86824 38.73C10.0421 38.9038 10.2779 39.0015 10.5238 39.0015H16.0888C16.3347 39.0015 16.5705 38.9038 16.7444 38.73C16.9183 38.5561 17.016 38.3202 17.016 38.0743V32.5092C17.016 32.2633 16.9183 32.0275 16.7444 31.8536C16.5705 31.6797 16.3347 31.582 16.0888 31.582Z" fill="white"/>
</svg>
