<svg width="57" height="57" viewBox="0 0 57 57" fill="none" xmlns="http://www.w3.org/2000/svg">
<path fill-rule="evenodd" clip-rule="evenodd" d="M22.6359 2.79546C22.7716 2.74118 22.9345 2.71404 23.0702 2.71404H33.9264C34.6863 2.71404 35.2834 3.31113 35.2834 4.07107C35.2834 4.20677 35.2562 4.36961 35.1748 4.50531L34.2792 7.21936C34.1163 7.76217 33.6007 8.14213 33.0036 8.14213H28.5619C28.5414 8.14125 28.5208 8.14081 28.5 8.14081C28.4793 8.14081 28.4587 8.14125 28.4382 8.14213H23.9658C23.3959 8.14213 22.8802 7.76217 22.6902 7.21936L21.7946 4.50531C21.5503 3.79966 21.9303 3.01259 22.6359 2.79546ZM27.143 10.8562H23.9658C22.2565 10.8562 20.7049 9.77864 20.1386 8.14081H11.5644L18.7854 25.0434C18.8994 25.2218 18.9726 25.4298 18.9927 25.6552C19.0049 25.7508 19.0066 25.8468 18.9983 25.9416V28.4961C18.9983 33.7342 14.7373 37.9953 9.49915 37.9953C4.26105 37.9953 0 33.7342 0 28.4961V25.8358C0 25.8357 0 25.8356 0 25.8356V25.7821C0 25.4979 0.0834941 25.2365 0.227775 25.0206L8.25325 6.24097C8.44323 5.80673 8.85034 5.50818 9.31173 5.42676H9.50171H19.2427L19.2162 5.34667C18.5106 3.20257 19.6505 0.895634 21.7946 0.189983C22.2017 0.0814213 22.6359 0 23.0702 0H33.9264C36.179 0 37.9974 1.81841 37.9974 4.07107C37.9974 4.50531 37.916 4.93956 37.7803 5.34667L37.7539 5.42676H47.4983C48.0411 5.42676 48.5297 5.72531 48.7468 6.24097L56.7819 25.0432C56.896 25.2216 56.9692 25.4297 56.9893 25.6551C57.0015 25.7508 57.0032 25.8468 56.9949 25.9416V28.4961C56.9949 33.7342 52.7339 37.9953 47.4958 37.9953C42.2577 37.9953 37.9966 33.7342 37.9966 28.4961V25.838V25.8333V25.7821C37.9966 25.498 38.0801 25.2366 38.2243 25.0208L45.4356 8.14081H36.8579C36.2916 9.77864 34.74 10.8562 33.0307 10.8562H29.857V46.1374H31.2141C36.4522 46.1374 40.7132 50.3985 40.7132 55.6366C40.7132 56.3965 40.1161 56.9936 39.3562 56.9936H17.6438C16.8839 56.9936 16.2868 56.3965 16.2868 55.6366C16.2868 50.3985 20.5479 46.1374 25.786 46.1374H27.143V10.8562ZM3.44223 24.4251H15.5612L9.50171 10.2306L3.44223 24.4251ZM47.4983 10.2306L53.5578 24.4251H41.4388L47.4983 10.2306ZM19.1366 54.2795C19.7608 51.1855 22.502 48.8515 25.786 48.8515H31.2141C34.4981 48.8515 37.2392 51.1855 37.8635 54.2795H19.1366ZM40.7107 28.4961C40.7107 32.2415 43.7504 35.2812 47.4958 35.2812C51.2411 35.2812 54.2809 32.2415 54.2809 28.4961V27.1391H40.7107V28.4961ZM9.49915 35.2812C5.75377 35.2812 2.71404 32.2415 2.71404 28.4961V27.1391H16.2843V28.4961C16.2843 32.2415 13.2445 35.2812 9.49915 35.2812Z" fill="url(#paint0_linear)"/>
<defs>
<linearGradient id="paint0_linear" x1="28.5" y1="0" x2="28.5" y2="56.9936" gradientUnits="userSpaceOnUse">
<stop offset="0.182292" stop-color="#0A7B82"/>
<stop offset="1" stop-color="#0F172A"/>
</linearGradient>
</defs>
</svg>
