<svg width="60" height="60" viewBox="0 0 60 60" fill="none" xmlns="http://www.w3.org/2000/svg">
<path d="M57.0107 16.9302C55.8501 18.4457 54.2339 19.5937 52.3666 20.1721C53.6893 23.1795 54.4243 26.504 54.4243 30C54.4243 43.4892 43.4892 54.4243 30 54.4243C16.5116 54.4243 5.57651 43.4892 5.57651 30C5.57651 16.5116 16.5116 5.57651 30 5.57651C33.8903 5.57651 37.5681 6.48612 40.8328 8.10392C41.4922 6.27131 42.7094 4.70545 44.2808 3.61092C40.0349 1.30777 35.1705 0 30 0C13.4318 0 0 13.4318 0 30C0 46.569 13.4318 60 30 60C46.569 60 60 46.569 60 30C60 25.315 58.9259 20.8802 57.0107 16.9302Z" fill="#4A8AF9"/>
<path d="M55.7631 11.264C55.7631 12.1556 55.5734 13.0022 55.2327 13.7663C54.4388 15.5501 52.821 16.8862 50.8617 17.2922C50.4564 17.3764 50.037 17.4205 49.6066 17.4205C46.2066 17.4205 43.4502 14.6641 43.4502 11.264C43.4502 10.7368 43.5163 10.2254 43.6406 9.73752C44.1332 7.8097 45.5346 6.2462 47.3617 5.53094C48.0573 5.2579 48.8142 5.1084 49.6066 5.1084C53.0067 5.1084 55.7631 7.864 55.7631 11.264Z" fill="#4A8AF9"/>
<path d="M30.0001 43.7171C37.576 43.7171 43.7175 37.5756 43.7175 29.9996C43.7175 22.4237 37.576 16.2822 30.0001 16.2822C22.4242 16.2822 16.2827 22.4237 16.2827 29.9996C16.2827 37.5756 22.4242 43.7171 30.0001 43.7171Z" fill="#4A8AF9"/>
</svg>
