<svg width="49" height="60" viewBox="0 0 49 60" fill="none" xmlns="http://www.w3.org/2000/svg">
<path d="M33.2959 9.50711C35.207 7.19723 36.5501 4.06001 36.4827 0.864536C36.4713 0.327935 35.9818 -0.070503 35.4512 0.0104736C32.6473 0.438911 29.5128 2.19497 27.5727 4.46641C25.7845 6.53395 24.1976 9.747 24.3169 12.9309C24.3348 13.4106 24.7401 13.793 25.22 13.7794C28.3148 13.6919 31.3703 11.8387 33.2959 9.50711Z" fill="#D6D6D8"/>
<path d="M26.7315 12.9308C26.5465 7.99477 30.2706 2.22938 36.3154 0.370666C36.1256 0.109807 35.7976 -0.0424198 35.4512 0.0104318C32.6473 0.438869 29.5129 2.19492 27.5727 4.46637C25.7845 6.53391 24.1975 9.74707 24.3169 12.9308C24.3348 13.4106 24.7402 13.793 25.22 13.7794C25.8202 13.7624 26.4186 13.6784 27.0077 13.538C26.8454 13.3842 26.7404 13.1697 26.7315 12.9308Z" fill="#C2C2C4"/>
<path d="M48.2328 43.6747C46.2899 42.6965 40.9281 39.3209 40.8618 31.8347C40.8051 25.7067 44.8715 22.1433 46.6013 20.8992C47.0119 20.6037 47.1021 20.0256 46.79 19.6276C45.3527 17.7953 43.6721 16.6201 42.0577 15.8582C42.0586 15.8581 42.0598 15.8579 42.0607 15.8578C41.8517 15.759 41.4937 15.6022 41.2071 15.4893C33.0837 12.2916 27.9643 17.193 24.8631 17.193C22.4888 17.193 18.8249 14.5102 14.943 14.5835C9.84191 14.6575 5.14339 17.5509 2.51289 22.1165C-1.52282 29.1213 -0.191919 38.6969 2.95234 46.1596C2.95234 46.1597 2.95222 46.1597 2.95222 46.1599C3.03273 46.3508 3.16093 46.6478 3.26781 46.8877C3.26792 46.8875 3.26792 46.8874 3.26804 46.8871C4.17894 48.9328 5.22179 50.8021 6.32043 52.3912C8.84312 56.0375 11.8526 60.1451 15.8069 59.9942C19.6128 59.8433 21.0516 57.5335 25.651 57.5335C30.2474 57.5335 31.544 59.9942 35.5682 59.921C39.6647 59.8433 42.2588 56.1999 44.7643 52.5363C46.9694 49.3171 48.1859 46.1751 48.6734 44.7605C48.8187 44.3389 48.6313 43.8753 48.2328 43.6747Z" fill="#D6D6D8"/>
<path d="M8.73496 52.3911C7.63632 50.8021 6.59347 48.9327 5.68257 46.8871C5.68246 46.8872 5.68246 46.8874 5.68234 46.8877C5.57558 46.6479 5.44843 46.3533 5.36675 46.1598C5.36675 46.1598 5.36687 46.1597 5.36687 46.1596C2.24195 38.743 0.8773 29.146 4.92742 22.1165C7.35683 17.9001 11.5503 15.1118 16.1955 14.6514C15.7813 14.6016 15.3636 14.5756 14.943 14.5834C9.84191 14.6575 5.14339 17.5508 2.51289 22.1165C-1.52282 29.1212 -0.191919 38.6969 2.95234 46.1596C2.95234 46.1597 2.95222 46.1598 2.95222 46.1598C3.03273 46.3507 3.16093 46.6478 3.26781 46.8877C3.26792 46.8874 3.26804 46.8873 3.26804 46.8871C4.17894 48.9327 5.22179 50.8021 6.32031 52.3911C8.843 56.0374 11.8525 60.1451 15.8068 59.9942C16.1958 59.9787 16.5591 59.9398 16.9046 59.884C13.5872 59.2112 10.9697 55.6213 8.73496 52.3911Z" fill="#C2C2C4"/>
</svg>
