<svg width="55" height="60" viewBox="0 0 55 60" fill="none" xmlns="http://www.w3.org/2000/svg">
<path d="M24.6598 0.637341C26.141 -0.210531 28.0704 -0.214361 29.5504 0.637341C36.9961 4.84458 44.4442 9.04521 51.8887 13.255C53.2889 14.0437 54.2255 15.602 54.2113 17.2154V42.5278C54.2217 44.208 53.1925 45.8035 51.7153 46.5744C44.294 50.7584 36.8766 54.9476 29.4566 59.1316C27.9447 59.9961 25.9766 59.9295 24.5119 58.9941C22.287 57.7044 20.0583 56.421 17.8332 55.1324C17.3785 54.8614 16.8659 54.6456 16.5449 54.2048C16.8287 53.8222 17.3361 53.7746 17.7485 53.6076C18.6772 53.3122 19.5302 52.8382 20.3834 52.3782C20.5991 52.2305 20.8625 52.2871 21.0693 52.4193C22.9719 53.5101 24.8576 54.6327 26.7666 55.7131C27.1738 55.9482 27.5861 55.6361 27.9342 55.442C35.2168 51.3261 42.5083 47.2256 49.7896 43.1084C50.0593 42.9786 50.2085 42.6922 50.1866 42.3967C50.1917 34.0467 50.1879 25.6952 50.1891 17.3452C50.22 17.0099 50.0259 16.7016 49.7227 16.5644C42.3272 12.3995 34.9355 8.22819 27.5413 4.06223C27.4131 3.97416 27.2614 3.9269 27.1059 3.92668C26.9505 3.92645 26.7986 3.97326 26.6702 4.06096C19.2759 8.22819 11.8855 12.4033 4.49125 16.568C4.18912 16.7054 3.98635 17.0086 4.02231 17.3452C4.02359 25.6952 4.02231 34.0467 4.02231 42.398C4.00949 42.5422 4.04116 42.6868 4.11306 42.8125C4.18495 42.9381 4.29363 43.0387 4.42444 43.1007C6.39763 44.2197 8.37338 45.3307 10.3478 46.4459C11.4602 47.0446 12.8259 47.4003 14.0515 46.9416C15.1329 46.5537 15.891 45.4501 15.8704 44.3018C15.8806 36.0005 15.8653 27.698 15.8781 19.398C15.851 19.0295 16.2006 18.725 16.5589 18.7597C17.507 18.7533 18.4564 18.7469 19.4044 18.7622C19.8002 18.7533 20.0725 19.1501 20.0236 19.5214C20.0198 27.8752 20.0338 36.2293 20.0172 44.5831C20.0198 46.8095 19.1051 49.232 17.0457 50.3214C14.5087 51.6356 11.373 51.3569 8.86657 50.0967C6.69678 49.0137 4.62614 47.7356 2.49486 46.5754C1.0138 45.8088 -0.0102424 44.2069 0.000183128 42.528V17.2154C-0.0153488 15.5686 0.958481 13.982 2.40231 13.2048C9.82231 9.01734 17.241 4.8267 24.6598 0.637341Z" fill="#8CC84B"/>
<path d="M31.1334 18.1714C34.3696 17.9631 37.8341 18.048 40.7462 19.6422C43.0009 20.8639 44.2509 23.428 44.2907 25.9329C44.2277 26.2708 43.8745 26.4572 43.552 26.434C42.6131 26.4327 41.6739 26.4467 40.735 26.4276C40.3367 26.4429 40.1052 26.0757 40.0552 25.7235C39.7854 24.525 39.1318 23.338 38.0037 22.7599C36.272 21.8929 34.2641 21.9365 32.3758 21.9546C30.9973 22.0278 29.5149 22.1471 28.3471 22.9578C27.4505 23.5718 27.1781 24.8114 27.4981 25.8097C27.7998 26.5265 28.6273 26.7578 29.3043 26.971C33.2043 27.991 37.3371 27.8895 41.1626 29.2319C42.7465 29.7791 44.2958 30.8429 44.838 32.5012C45.5471 34.7238 45.2363 37.3804 43.655 39.1647C42.3726 40.633 40.505 41.4321 38.6422 41.8662C36.1641 42.4187 33.5924 42.4328 31.0758 42.1875C28.7094 41.9177 26.2468 41.296 24.42 39.6836C22.8579 38.3272 22.0949 36.2138 22.1707 34.174C22.1887 33.8295 22.5317 33.5893 22.8617 33.6176C23.8073 33.61 24.7528 33.6074 25.6983 33.6189C26.076 33.5919 26.356 33.9183 26.3754 34.2742C26.5498 35.4161 26.979 36.6147 27.9747 37.2917C29.8964 38.5315 32.3077 38.4466 34.5081 38.4813C36.3311 38.4004 38.3775 38.3759 39.8652 37.171C40.6501 36.4838 40.8826 35.334 40.6705 34.3449C40.4407 33.5097 39.5671 33.1206 38.8169 32.8661C34.9669 31.6482 30.7879 32.0902 26.9751 30.7129C25.4273 30.1659 23.9305 29.1316 23.3358 27.5414C22.506 25.2908 22.8862 22.5069 24.6332 20.7829C26.3366 19.068 28.7956 18.4075 31.1334 18.1712V18.1714Z" fill="#8CC84B"/>
</svg>
