<svg width="60" height="60" viewBox="0 0 60 60" fill="none" xmlns="http://www.w3.org/2000/svg">
<path d="M30 0L19.9833 10.5833L9.95 21.15L0 31.6667V0H30Z" fill="#0D91D6"/>
<path d="M30 0H29.9333L19.95 10.55L9.93333 21.1333L0 31.6167V31.6667V31.8167V60L14.4833 45.5167L24.7833 35.2167L35.1 24.9L45.4167 14.5833L60 0H30Z" fill="#F88909"/>
<path d="M14.4833 45.5164L0 59.9997V31.8164L14.4833 45.5164Z" fill="#C757BC"/>
<path d="M24.7833 35.2171L14.4833 45.5171L0 31.8171V31.6671L9.95 21.1504L24.7833 35.2171Z" fill="#D3638F"/>
<path d="M35.1002 24.9007L24.7835 35.2173L9.9502 21.1507L19.9835 10.584L35.1002 24.9007Z" fill="#E07063"/>
<path d="M45.4167 14.5833L35.1001 24.9L19.9834 10.5833L30.0001 0L45.4167 14.5833Z" fill="#EC7D36"/>
<path d="M60 0L45.4167 14.5833L30 0H60Z" fill="#F88909"/>
<path d="M9.18333 21.9167L3.31667 28.1334L0 25.0001V13.2334L9.18333 21.9167Z" fill="#0095D5"/>
<path d="M15.05 15.7002L9.18333 21.9169L0 13.2335V1.4502L15.05 15.7002Z" fill="#2B88DA"/>
<path d="M20.9333 9.5L15.05 15.7L0 1.45V0H10.8833L20.9333 9.5Z" fill="#557BDE"/>
<path d="M26.8 3.28333L20.9333 9.5L10.8833 0H30L26.8 3.28333Z" fill="#806EE3"/>
<path d="M28.3333 31.667L0 60.0003H5.58333H19.2H56.6667L28.3333 31.667Z" fill="#0095D5"/>
<path d="M32.8001 59.9995H19.2001L9.6001 50.4162L16.4001 43.6162L32.8001 59.9995Z" fill="#2B88DA"/>
<path d="M46.4332 59.9997H32.7999L16.3999 43.6164L23.1999 36.8164L46.4332 59.9997Z" fill="#557BDE"/>
<path d="M59.9997 60H46.433L23.1997 36.8167L29.9997 30L59.9997 60Z" fill="#806EE3"/>
</svg>
