<svg width="35" height="41" viewBox="0 0 35 41" fill="none" xmlns="http://www.w3.org/2000/svg">
<path fill-rule="evenodd" clip-rule="evenodd" d="M14.4726 15.8078L10.2161 25.3374L21.4632 31.8309L27.5878 23.3799C31.8454 17.5025 33.0392 9.93176 30.8988 2.50102C23.3852 4.33286 17.4148 9.17099 14.4726 15.8078ZM11.7592 16.4574L12.4573 14.8961C15.8357 7.32755 22.7625 1.93353 31.4065 0.124781C31.9541 0.0128128 32.5069 0.331985 32.6837 0.862179C35.4393 9.25248 34.2504 17.9593 29.366 24.6584L28.363 26.0435L29.8274 28.3496C31.5069 31.0317 31.7289 34.0811 30.3549 36.4609L29.6025 37.7641C29.2972 38.2929 28.6379 38.4663 28.1041 38.1581L20.479 33.7558L20.4599 33.7448L9.06034 27.1632L9.04128 27.1522L1.41615 22.7498C0.871485 22.4606 0.692002 21.8029 0.997327 21.2741L1.74974 19.9709C3.1237 17.5911 5.88643 16.2397 9.03801 16.3721L11.7592 16.4574ZM10.7912 18.6182L8.95531 18.5404C6.58821 18.4581 4.60471 19.4283 3.65602 21.0714L3.44884 21.4303L8.30986 24.2368L10.7912 18.6182ZM26.9946 27.9733L23.3695 32.9315L28.2305 35.738L28.4377 35.3792C29.3973 33.7171 29.2348 31.5331 27.9609 29.5133L26.9946 27.9733ZM10.221 31.7108C10.5372 31.1631 10.3796 30.4677 9.8458 30.1595C9.31204 29.8513 8.63095 30.0625 8.31472 30.6102C6.78809 33.2544 7.05078 36.6295 8.93171 39.579C9.12226 39.8653 9.44632 40.0524 9.78954 40.0742C13.2762 40.1985 16.3304 38.7385 17.8461 36.1132C18.1624 35.5655 18.0047 34.87 17.4709 34.5619C16.9372 34.2537 16.2561 34.4649 15.9399 35.0126C14.9584 36.7124 12.9613 37.7503 10.5179 37.8002C9.33937 35.6592 9.2396 33.4106 10.221 31.7108ZM18.1612 13.5566C16.6563 16.163 17.5701 19.511 20.2008 21.0298C22.8314 22.5487 26.1878 21.666 27.6926 19.0595C29.1974 16.4531 28.2837 13.1051 25.653 11.5863C23.0223 10.0674 19.666 10.9501 18.1612 13.5566ZM25.7863 17.9589C24.8812 19.5266 22.8734 20.0546 21.2912 19.1411C19.709 18.2276 19.1624 16.2248 20.0674 14.6572C20.9725 13.0895 22.9803 12.5615 24.5625 13.475C26.1448 14.3885 26.6914 16.3913 25.7863 17.9589Z" fill="url(#paint0_linear)"/>
<defs>
<linearGradient id="paint0_linear" x1="25.6529" y1="11.5864" x2="20.2007" y2="21.03" gradientUnits="userSpaceOnUse">
<stop offset="0.182292" stop-color="#0A7B82"/>
<stop offset="1" stop-color="#0F172A"/>
</linearGradient>
</defs>
</svg>
