<svg width="32" height="39" viewBox="0 0 32 39" fill="none" xmlns="http://www.w3.org/2000/svg">
<path fill-rule="evenodd" clip-rule="evenodd" d="M28.85 36.5671L31.9747 12.2386C32.0124 12.09 31.9935 11.96 31.9559 11.7929L29.0006 1.98714C28.643 0.817143 27.5324 0 26.29 0H5.67825C4.43589 0 3.34413 0.817143 2.98648 2.00571L0.0311878 11.8114C-0.00645922 11.9414 -0.00645921 12.0714 0.0123643 12.2014L3.13707 36.5671C3.32531 37.96 4.51119 39 5.94178 39H26.0453C27.4759 39 28.6618 37.96 28.85 36.5671ZM26.3088 1.85714C26.723 1.85714 27.0806 2.13571 27.2124 2.52571L29.7912 11.1429H2.19589L4.79354 2.52571C4.90648 2.13571 5.26413 1.85714 5.67825 1.85714H26.3088ZM29.9794 13L26.9865 36.3257C26.93 36.79 26.5159 37.1429 26.0453 37.1429H5.94178C5.47119 37.1429 5.05707 36.79 5.01942 36.3257L2.00766 13H29.9794ZM12.2283 20.4297H19.7577C20.2848 20.4297 20.6989 20.8383 20.6989 21.3583C20.6989 21.8783 20.2848 22.2868 19.7577 22.2868H12.2283C11.7012 22.2868 11.2871 21.8783 11.2871 21.3583C11.2871 20.8383 11.7012 20.4297 12.2283 20.4297Z" fill="url(#paint0_linear)"/>
<defs>
<linearGradient id="paint0_linear" x1="15.9976" y1="0" x2="15.9976" y2="39" gradientUnits="userSpaceOnUse">
<stop offset="0.182292" stop-color="#0A7B82"/>
<stop offset="1" stop-color="#0F172A"/>
</linearGradient>
</defs>
</svg>
