<svg width="173" height="41" viewBox="0 0 173 41" fill="none" xmlns="http://www.w3.org/2000/svg">
<path d="M0.599609 22.6117C0.599609 12.64 8.68298 4.55664 18.6547 4.55664C28.6264 4.55664 36.7097 12.64 36.7097 22.6117C36.7097 32.5834 28.6264 40.6668 18.6547 40.6668C8.68298 40.6668 0.599609 32.5834 0.599609 22.6117Z" fill="#F15B3D"/>
<path d="M26.1305 25.976C26.7401 24.2445 26.7224 22.3561 26.0841 20.6357C25.8721 20.0703 25.596 19.5292 25.2626 19.0256C25.1013 18.7782 24.9246 18.5419 24.7347 18.3144C23.9352 17.1307 23.414 15.779 23.213 14.3655C23.0893 14.074 22.8883 13.8222 22.6321 13.6367C22.4908 13.5307 22.334 13.4468 22.1661 13.3893C21.6957 13.2259 21.1767 13.2745 20.7438 13.5196C19.708 14.5047 18.4624 15.2401 17.0997 15.6708C16.8104 15.7282 16.5232 15.8033 16.2427 15.8916C13.8995 16.6514 12.0465 18.4624 11.2337 20.788L11.2072 20.8698C11.2072 20.8963 11.1873 20.9228 11.1763 20.9493C10.3724 23.2771 10.6992 25.8479 12.0597 27.8996C12.2231 28.147 12.3998 28.3833 12.5898 28.6108C13.3871 29.7946 13.9061 31.1462 14.1071 32.5597C14.2263 32.8513 14.4229 33.1053 14.6747 33.293C15.2268 33.7038 15.9667 33.7502 16.5652 33.41C17.601 32.425 18.8467 31.6896 20.2093 31.2589C20.4987 31.2015 20.7858 31.1264 21.0663 31.038C23.414 30.2783 25.2692 28.465 26.0841 26.1372C26.0952 26.1107 26.1018 26.0842 26.1106 26.0555C26.1195 26.0268 26.1327 26.0025 26.1416 25.976" fill="#FFCD13"/>
<path d="M22.067 16.8522C22.1222 16.6932 22.2945 16.607 22.4535 16.6622C22.6125 16.7174 22.6986 16.8897 22.6434 17.0487C22.6412 17.0576 22.6368 17.0642 22.6346 17.073C22.575 17.2298 22.3983 17.3071 22.2415 17.2475C22.0847 17.1857 22.0074 17.009 22.067 16.8522Z" fill="#111828"/>
<path d="M23.12 18.2015C23.1796 18.0447 23.3541 17.9674 23.5109 18.0248C23.5109 18.0248 23.5131 18.0248 23.5131 18.027C23.6721 18.0822 23.7582 18.2545 23.703 18.4135C23.6478 18.5725 23.4755 18.6586 23.3165 18.6034C23.3077 18.6012 23.3011 18.5968 23.2922 18.5946C23.1354 18.5328 23.0581 18.3583 23.12 18.2015Z" fill="#111828"/>
<path d="M22.0662 18.5055C22.1214 18.3465 22.2937 18.2603 22.4527 18.3156C22.6117 18.3708 22.6978 18.543 22.6426 18.7021C22.6404 18.7109 22.636 18.7175 22.6338 18.7263C22.5653 18.8809 22.3864 18.9516 22.2318 18.8832C22.0861 18.8191 22.0154 18.6557 22.0662 18.5055Z" fill="#111828"/>
<path d="M22.6086 13.5717L21.7782 12.9224C19.0175 10.7735 15.0376 11.266 12.8887 14.0267L13.7169 14.6694C16.4754 16.8183 20.4552 16.3236 22.6042 13.5651" fill="#038A81"/>
<path d="M170.589 29.776C169.151 31.6931 166.989 33.948 164.955 35.1031C163.241 36.0749 161.291 37.1328 159.274 36.3907C158.945 36.267 158.634 36.1014 158.351 35.8938C159.462 35.2599 160.471 34.4648 161.348 33.535C163.336 31.5318 165.348 28.3824 162.98 26.0921C161.494 23.0973 157.448 23.9564 155.677 26.2445C153.87 28.579 153.81 31.4501 154.899 33.9745C155.032 34.2727 155.186 34.562 155.363 34.8359C153.146 35.8739 150.685 36.2847 148.249 36.0263C147.872 35.6928 147.536 35.4278 147.227 35.1583C148.183 34.4935 149.104 33.7802 149.985 33.0182C151.686 31.5098 153.678 29.2813 153.009 26.8342C152.412 24.6477 148.565 23.2386 146.657 24.1066C144.36 25.1535 142.982 28.3316 142.938 30.7125C142.915 31.9448 143.397 33.27 144.161 34.3831C143.258 35.123 142.288 35.7944 141.414 35.8253C140.656 35.8496 140.574 35.6641 140.073 35.0854C139.349 34.2506 138.876 33.2567 139 32.201C139.232 30.1956 140.309 28.4465 141.65 26.9998C142.343 26.2533 140.245 25.3324 139.762 25.3699C138.609 25.4605 137.091 24.9282 135.925 24.7913C135.576 24.7515 135.23 24.6919 134.887 24.6124C134.872 23.9697 134.611 23.3579 134.163 22.8985C133.772 22.512 133.059 22.2183 132.524 22.4347C130.965 23.0642 131.449 24.3054 132.358 25.1358C132.182 25.9 132.021 26.7017 131.99 26.8276C131.7 27.9959 131.396 29.2106 131.053 30.4187C130.625 31.8454 129.892 33.164 128.9 34.2771C128.493 34.7608 128.08 35.5338 127.575 35.8982C127.151 36.1963 126.59 36.2781 126.029 36.3399C125.598 35.6906 125.428 34.573 125.382 33.9105C125.293 32.6715 125.753 31.2248 126.066 30.0234C126.729 27.5122 127.846 25.1137 128.595 22.5871C129.196 20.553 129.947 18.5653 130.614 16.5489C130.704 16.5489 130.795 16.5489 130.885 16.5489C131.709 16.5643 130.804 16.4495 131.159 16.4738C131.601 16.5025 132.389 16.6946 132.783 16.7764C133.904 16.9796 134.861 16.9155 136.034 16.9133C138.264 16.9133 140.61 17.2357 142.772 16.6196C144.097 16.2441 142.017 14.358 141.085 14.6318C139.084 15.1818 136.371 14.9874 134.304 14.8682C133.273 14.8085 132.25 14.6893 131.228 14.581C131.7 13.1919 132.281 11.8424 132.964 10.5438C133.262 9.96071 133.527 9.37544 133.807 8.77692C134.293 7.73889 135.044 6.93939 135.574 5.94111C136.045 5.05768 133.787 3.67733 133.339 4.51217C132.76 5.59216 131.996 6.49988 131.455 7.60417C130.914 8.70845 130.419 9.66476 129.958 10.8066C129.496 11.9484 128.935 12.9776 128.566 14.1526C128.546 14.2166 128.522 14.2785 128.5 14.3403C124.469 14.0532 120.432 13.3774 116.402 13.5761C115.138 13.6402 117.137 15.6213 118.089 15.5639C120.108 15.4645 122.285 15.8002 124.273 16.0056C125.393 16.116 126.55 16.2397 127.709 16.3369C127.573 16.6792 127.442 17.0171 127.338 17.3572C126.718 19.3825 126.155 21.3989 125.368 23.4043C124.677 25.1292 124.107 26.9005 123.661 28.7049C122.941 31.7416 122.203 36.1389 125.667 37.8947C129.013 39.5909 131.76 35.4653 132.88 32.9542C133.628 31.269 133.931 29.4492 134.348 27.7243C134.461 27.2605 134.602 26.7525 134.711 26.2335C135.532 26.4455 136.367 26.5957 137.209 26.6862C137.535 26.726 137.871 26.7812 138.2 26.8408C137.955 27.1544 137.756 27.5034 137.608 27.8722C137.434 28.3139 137.226 28.7203 137.056 29.151C136.519 30.4761 136.376 31.8013 136.899 33.1264C137.889 35.6376 140.707 38.3806 143.607 37.4486C144.435 37.1836 145.173 36.6601 145.884 36.1235C146.822 36.8214 147.746 37.6165 148.916 37.8439C150.257 38.1023 151.701 38.0361 153.046 37.9279C154.555 37.8064 155.628 37.1637 156.889 36.5563C158.738 38.1023 161.331 38.8952 163.601 38.3541C167.278 37.4707 170.62 34.1048 172.811 31.1807C173.396 30.4518 171.187 28.9765 170.589 29.776ZM145.502 32.9409C145.506 32.9056 145.506 32.8702 145.502 32.8349C145.409 32.5743 145.336 32.307 145.281 32.0354C145.221 31.2977 145.462 30.3237 145.674 29.6325C145.954 28.7292 146.423 27.8965 147.052 27.192C148.072 26.1032 148.521 25.551 150.157 25.9905C150.599 26.1076 150.599 26.1076 150.619 26.7878C150.683 27.6271 150.429 28.4597 149.908 29.1201C148.826 30.5844 147.417 31.7969 146.019 32.8172C145.893 32.9078 145.76 33.0138 145.625 33.1242C145.599 33.0712 145.55 33.0027 145.502 32.9409ZM158.071 27.4703C158.629 26.8386 159.769 26.0237 160.681 25.964C160.774 25.9574 160.862 25.9949 160.92 26.0678L160.951 26.1054C161.132 26.3262 161.75 26.7105 161.834 26.9292C162.088 27.5785 161.264 29.6015 160.827 30.1979C160.22 31.0261 159.458 31.7262 158.742 32.4462C158.181 33.0094 157.565 33.5151 156.905 33.9591C156.116 31.8388 156.701 29.0119 158.071 27.4703Z" fill="#161616"/>
<path d="M119.01 23.3296C116.236 22.6228 114.387 25.6971 112.938 27.4243C112.808 27.5788 112.689 27.7379 112.565 27.8969C112.64 27.5656 112.717 27.2343 112.812 26.9119C113.21 25.5359 113.641 24.2373 114.076 22.8746C114.188 22.5212 113.802 22.0817 113.325 21.8056C112.717 21.3485 111.891 21.121 111.717 21.5848C111.388 22.4815 109.612 23.8817 108.897 24.5156C108.261 25.0854 107.552 25.5713 106.79 25.96L106.31 26.1808C106.299 25.6 106.282 25.0765 105.911 24.4559C105.61 24.1026 105.283 23.7735 104.932 23.4709C104.833 23.3759 104.729 23.2898 104.619 23.2081C104.325 22.9961 104.007 22.8238 103.671 22.6913C102.953 22.3799 101.997 21.9912 101.206 22C100.743 22.0044 100.285 22.0795 99.8437 22.2209C99.7752 21.9669 99.6846 21.7217 99.5698 21.4854C99.0994 20.507 98.5318 19.3078 97.8029 18.5105C97.1315 17.7441 96.4049 17.0307 95.6275 16.3748C94.7684 15.6901 93.8452 15.8734 92.9065 15.4648C92.8072 15.4207 92.3919 15.3124 92.4118 15.5554C92.4582 16.0877 92.6702 16.4256 92.7851 16.9291C92.9198 17.5166 92.7078 18.1858 92.8027 18.7909C92.9949 20.0233 93.7414 21.0371 94.5983 21.8829C95.3757 22.6427 95.8638 23.144 96.946 23.4135C97.1669 23.4709 97.4076 23.5129 97.6439 23.5482C97.1845 23.9303 96.723 24.3477 96.215 24.7475C96.1333 24.7872 96.067 24.8491 96.0184 24.9264C95.4442 25.865 94.8545 26.3641 94.4724 27.4287C94.1654 28.343 94.0064 29.3015 93.9976 30.2667C93.9048 32.1749 94.1897 34.0654 95.6032 35.5032C98.9006 38.8558 103.227 35.7771 105.1 32.6321C105.829 31.4593 106.273 30.1298 106.394 28.7538C107.781 28.2679 109.091 27.5833 110.284 26.7241L110.31 26.702C110.056 27.7511 109.868 28.7936 109.513 29.8095C109.071 31.0375 109.071 32.2853 108.671 33.5221C108.501 34.0544 107.867 35.4369 108.057 36.009C108.247 36.581 109.162 37.3452 109.811 37.1309C110.725 36.8306 111.174 34.8605 111.551 34.0743C112.176 32.7646 112.985 31.6448 113.718 30.4257C114.403 29.2949 115.354 28.4071 116.116 27.3337C116.543 26.7352 118.053 24.9749 119.171 24.9043C119.334 25.6662 119.363 26.4525 119.257 27.2255C119.16 27.8748 118.89 28.491 118.789 29.1425C118.665 29.9288 118.745 30.6488 118.499 31.4328C117.817 33.6082 117.258 35.7064 118.795 37.6345C119.376 38.3633 121.395 38.5908 120.414 37.3606C119.372 36.0509 120.193 34.1714 120.529 32.7226C120.856 31.3511 121.148 29.878 121.413 28.4336C121.837 26.2692 121.444 23.9524 119.01 23.3296ZM103.452 24.4051C103.543 24.4824 103.64 24.5509 103.744 24.6061C103.892 25.3106 103.843 26.2382 103.892 26.8478C103.892 26.9251 103.892 26.9958 103.903 27.0687C103.532 27.1438 103.152 27.1769 102.774 27.1681C101.659 27.1371 101.162 27.2122 100.966 25.9578C100.822 25.0567 101.198 24.4118 101.999 24.0319C102.198 24.0032 102.401 23.9988 102.602 24.0186C102.874 24.0473 103.163 24.3013 103.452 24.4051ZM103.221 30.2004C102.445 32.0733 100.833 34.1162 98.8388 34.8053C96.5352 35.6026 96.3254 32.9722 96.4844 31.2473C96.522 30.4389 96.6744 29.6394 96.9394 28.8753C97.3281 27.8417 97.7897 27.3911 98.3551 26.4768C98.4986 26.3597 98.6444 26.2338 98.7968 26.1035C98.958 26.5254 99.1811 26.9207 99.4594 27.2763C100.442 28.5219 102.043 29.0431 103.625 29.1271C103.508 29.4716 103.384 29.8183 103.221 30.2004Z" fill="#161616"/>
<path d="M95.5003 38.5932C94.9393 38.5446 94.6345 38.6881 94.4667 38.6639C93.9521 38.538 93.4529 38.3502 92.9825 38.1029C92.1256 37.5927 91.4233 36.3161 91.1715 35.3665C90.8336 34.0943 91.1892 32.1684 91.4122 30.9272C91.7479 29.072 91.8142 27.1064 92.7374 25.4058C93.1283 24.688 91.7899 23.9636 91.2488 23.915C88.625 23.6809 86.92 25.9403 85.5352 27.9523C85.7229 26.8877 85.9018 25.81 86.052 24.7366C86.158 23.9879 84.8991 23.3319 84.2852 23.4115C81.5797 23.8002 79.5588 26.4637 77.9223 28.4249C77.7125 28.6811 77.5203 28.9528 77.3502 29.2377C77.5976 28.5088 77.7456 27.6917 78.0393 26.9805C78.2602 26.435 78.7019 25.9977 78.9227 25.4676C79.042 25.1695 79.137 24.8625 79.2077 24.5489C79.3335 24.2529 79.4373 23.9481 79.5146 23.6345C79.7355 22.7511 77.4187 21.5055 77.1581 22.5722C76.8379 23.8973 76.2239 24.1491 75.4531 25.1364C74.8568 25.9027 74.3488 26.7066 73.6641 27.4377C72.5157 28.6767 71.2347 30.3088 69.8831 31.2938C68.5999 32.2259 67.5199 33.4185 66.0667 34.2136C65.0949 34.7458 63.5931 35.5785 62.3452 35.6359C61.8947 35.3355 61.5921 34.8585 61.5148 34.3218C61.4684 33.9684 61.4684 33.6084 61.5148 33.2551C63.953 32.5086 66.2632 31.391 68.3614 29.9422C69.8742 28.86 71.4114 26.8635 70.857 24.9111C70.4153 23.3253 68.2531 22.2166 66.6608 22.3116C65.0176 22.4066 63.1646 23.9194 62.1464 25.207C60.1123 27.78 57.4952 33.1336 60.3045 35.9296C63.1138 38.7257 66.833 37.0207 69.5297 34.9755C71.217 33.657 72.8072 32.2192 74.287 30.6732C74.0705 31.1878 73.8828 31.7157 73.726 32.2524C73.4057 33.4229 73.3527 34.6023 73.0833 35.764C72.9176 36.4774 74.7132 37.5993 75.1682 36.8948C76.67 34.5758 78.1696 32.0801 79.91 29.9378C80.8818 28.7429 82.1186 27.049 83.5828 25.9977C83.3774 27.1903 83.1411 28.3785 82.8827 29.5182C82.6376 30.5827 82.1428 31.5677 81.8491 32.6102C81.5554 33.6526 81.5134 34.7127 81.35 35.7949C81.2285 36.5966 83.1831 37.7296 83.4901 36.7623C83.9119 35.4371 84.7777 34.4057 85.4027 33.2043C85.904 32.2413 86.2177 31.3027 86.8758 30.364C87.6135 29.3172 88.3003 28.2284 89.1396 27.2455C89.334 27.0269 89.5482 26.8259 89.7801 26.647C89.4598 27.9192 89.2103 29.209 89.0292 30.5076C88.7465 32.418 88.7862 34.3395 89.6166 36.0887C90.372 37.6744 91.4807 38.9333 93.1194 39.6489C93.5501 39.8653 94.0051 40.0376 94.4711 40.1613C95.2198 40.3645 95.7278 40.2032 96.4411 40.2629C97.8082 40.3777 96.3175 38.6528 95.5003 38.5932ZM62.7913 29.0963C63.6461 27.3449 66.2389 23.7538 68.5336 24.4451C68.6639 25.8939 67.6193 27.1969 66.5216 28.0892C65.3577 29.0367 63.7388 29.929 62.1575 30.6136C62.3408 30.0968 62.5528 29.5888 62.7913 29.0963Z" fill="#161616"/>
<path d="M59.3932 38.9353C58.6467 38.6438 57.9488 38.2418 57.326 37.7382C57.1139 37.6057 56.8931 37.4909 56.6634 37.3893C56.4933 37.1596 56.31 36.9387 56.1179 36.7267C55.3206 35.6821 54.5277 33.5817 54.2229 31.9452C54.2053 31.848 54.1898 31.7508 54.1743 31.6536C54.4062 31.3201 54.6359 30.9911 54.8678 30.6708C56.7451 28.0846 58.5539 25.421 60.005 22.5742C62.9733 16.7458 65.2569 10.3785 66.1006 3.88747C66.4186 1.45804 64.0687 -0.350782 61.9043 1.17976C60.6896 2.03889 59.7863 3.89409 59.1039 5.16844C58.5981 6.1115 58.1012 6.93529 57.6197 7.90486C54.8678 13.4263 52.6018 19.3894 51.7405 25.516C51.4931 27.1879 51.4732 28.8841 51.6831 30.5604C51.0713 31.4151 50.4485 32.2676 49.7837 33.0737C48.7302 34.3525 47.3543 35.5849 46.4487 37.005C45.9474 37.7935 48.0809 39.1694 48.6021 38.3831C49.4855 37.0359 50.9344 35.8367 51.979 34.6286C52.1778 34.3967 52.3677 34.1515 52.5577 33.9064C52.7211 34.3017 52.9066 34.686 53.112 35.0615C54.764 38.0474 56.2725 39.3483 59.2474 40.4901C60.9414 41.135 60.6167 39.4411 59.3932 38.9353ZM59.1127 10.8378C59.8216 9.64521 60.2943 8.34878 61.0054 7.22904C61.7166 6.10929 62.4962 4.0244 63.7352 3.01729C63.6292 4.03323 63.32 5.07568 63.0925 5.98119C62.6133 7.87615 62.1075 9.74901 61.6106 11.6373C60.8155 14.6697 59.5235 17.5718 58.0901 20.3413C56.8909 22.6692 55.5635 24.9285 54.1147 27.1084C54.2936 25.4895 54.5962 23.8861 55.0158 22.3114C56.0141 18.5148 57.1139 14.2015 59.1127 10.8378Z" fill="#161616"/>
</svg>
