<svg width="173" height="41" viewBox="0 0 173 41" fill="none" xmlns="http://www.w3.org/2000/svg">
<path d="M0.599609 22.6137C0.599609 12.642 8.68298 4.55859 18.6547 4.55859C28.6264 4.55859 36.7097 12.642 36.7097 22.6137C36.7097 32.5854 28.6264 40.6687 18.6547 40.6687C8.68298 40.6687 0.599609 32.5854 0.599609 22.6137Z" fill="#F15B3D"/>
<path d="M26.1305 25.9789C26.7401 24.2474 26.7224 22.3591 26.0841 20.6386C25.8721 20.0732 25.596 19.5321 25.2626 19.0285C25.1013 18.7812 24.9246 18.5449 24.7347 18.3174C23.9352 17.1336 23.414 15.7819 23.213 14.3685C23.0893 14.0769 22.8883 13.8251 22.6321 13.6396C22.4908 13.5336 22.334 13.4497 22.1661 13.3923C21.6957 13.2288 21.1767 13.2774 20.7438 13.5226C19.708 14.5076 18.4624 15.243 17.0997 15.6737C16.8104 15.7311 16.5232 15.8062 16.2427 15.8946C13.8995 16.6543 12.0465 18.4654 11.2337 20.791L11.2072 20.8727C11.2072 20.8992 11.1873 20.9257 11.1763 20.9522C10.3724 23.28 10.6992 25.8508 12.0597 27.9026C12.2231 28.1499 12.3998 28.3863 12.5898 28.6137C13.3871 29.7975 13.9061 31.1492 14.1071 32.5627C14.2263 32.8542 14.4229 33.1082 14.6747 33.2959C15.2268 33.7067 15.9667 33.7531 16.5652 33.413C17.601 32.4279 18.8467 31.6925 20.2093 31.2618C20.4987 31.2044 20.7858 31.1293 21.0663 31.041C23.414 30.2812 25.2692 28.468 26.0841 26.1401C26.0952 26.1136 26.1018 26.0871 26.1106 26.0584C26.1195 26.0297 26.1327 26.0054 26.1416 25.9789" fill="#FFCD13"/>
<path d="M22.067 16.8551C22.1222 16.6961 22.2945 16.6099 22.4535 16.6652C22.6125 16.7204 22.6986 16.8926 22.6434 17.0517C22.6412 17.0605 22.6368 17.0671 22.6346 17.076C22.575 17.2328 22.3983 17.3101 22.2415 17.2504C22.0847 17.1886 22.0074 17.0119 22.067 16.8551Z" fill="#111828"/>
<path d="M23.12 18.2034C23.1796 18.0466 23.3541 17.9693 23.5109 18.0267C23.5109 18.0267 23.5131 18.0267 23.5131 18.0289C23.6721 18.0842 23.7582 18.2564 23.703 18.4154C23.6478 18.5745 23.4755 18.6606 23.3165 18.6054C23.3077 18.6032 23.3011 18.5988 23.2922 18.5966C23.1354 18.5347 23.0581 18.3602 23.12 18.2034Z" fill="#111828"/>
<path d="M22.0662 18.5074C22.1214 18.3484 22.2937 18.2623 22.4527 18.3175C22.6117 18.3727 22.6978 18.545 22.6426 18.704C22.6404 18.7128 22.636 18.7195 22.6338 18.7283C22.5653 18.8829 22.3864 18.9536 22.2318 18.8851C22.0861 18.8211 22.0154 18.6576 22.0662 18.5074Z" fill="#111828"/>
<path d="M22.6086 13.5727L21.7782 12.9234C19.0175 10.7745 15.0376 11.267 12.8887 14.0277L13.7169 14.6704C16.4754 16.8193 20.4552 16.3246 22.6042 13.5661" fill="#038A81"/>
<path d="M170.589 29.7799C169.151 31.697 166.989 33.9519 164.955 35.107C163.241 36.0788 161.291 37.1367 159.274 36.3946C158.945 36.2709 158.634 36.1053 158.351 35.8977C159.462 35.2638 160.471 34.4687 161.348 33.5389C163.336 31.5357 165.348 28.3863 162.98 26.096C161.494 23.1012 157.448 23.9603 155.677 26.2484C153.87 28.5829 153.81 31.454 154.899 33.9784C155.032 34.2766 155.186 34.5659 155.363 34.8398C153.146 35.8778 150.685 36.2886 148.249 36.0302C147.872 35.6967 147.536 35.4317 147.227 35.1622C148.183 34.4974 149.104 33.7841 149.985 33.0221C151.686 31.5137 153.678 29.2852 153.009 26.8381C152.412 24.6516 148.565 23.2426 146.657 24.1105C144.36 25.1574 142.982 28.3355 142.938 30.7164C142.915 31.9487 143.397 33.2739 144.161 34.387C143.258 35.1269 142.288 35.7983 141.414 35.8292C140.656 35.8535 140.574 35.668 140.073 35.0893C139.349 34.2545 138.876 33.2606 139 32.2049C139.232 30.1996 140.309 28.4504 141.65 27.0038C142.343 26.2573 140.245 25.3363 139.762 25.3738C138.609 25.4644 137.091 24.9321 135.925 24.7952C135.576 24.7554 135.23 24.6958 134.887 24.6163C134.872 23.9736 134.611 23.3618 134.163 22.9024C133.772 22.5159 133.059 22.2222 132.524 22.4386C130.965 23.0681 131.449 24.3093 132.358 25.1397C132.182 25.9039 132.021 26.7056 131.99 26.8315C131.7 27.9998 131.396 29.2145 131.053 30.4226C130.625 31.8494 129.892 33.1679 128.9 34.281C128.493 34.7647 128.08 35.5377 127.575 35.9021C127.151 36.2002 126.59 36.282 126.029 36.3438C125.598 35.6945 125.428 34.5769 125.382 33.9144C125.293 32.6754 125.753 31.2287 126.066 30.0273C126.729 27.5161 127.846 25.1176 128.595 22.591C129.196 20.5569 129.947 18.5692 130.614 16.5528C130.704 16.5528 130.795 16.5528 130.885 16.5528C131.709 16.5682 130.804 16.4534 131.159 16.4777C131.601 16.5064 132.389 16.6986 132.783 16.7803C133.904 16.9835 134.861 16.9194 136.034 16.9172C138.264 16.9172 140.61 17.2397 142.772 16.6235C144.097 16.248 142.017 14.3619 141.085 14.6357C139.084 15.1857 136.371 14.9913 134.304 14.8721C133.273 14.8124 132.25 14.6932 131.228 14.585C131.7 13.1958 132.281 11.8463 132.964 10.5477C133.262 9.96462 133.527 9.37935 133.807 8.78082C134.293 7.7428 135.044 6.94329 135.574 5.94502C136.045 5.06159 133.787 3.68123 133.339 4.51607C132.76 5.59606 131.996 6.50379 131.455 7.60807C130.914 8.71236 130.419 9.66867 129.958 10.8105C129.496 11.9523 128.935 12.9815 128.566 14.1565C128.546 14.2205 128.522 14.2824 128.5 14.3442C124.469 14.0571 120.432 13.3813 116.402 13.5801C115.138 13.6441 117.137 15.6252 118.089 15.5678C120.108 15.4684 122.285 15.8041 124.273 16.0095C125.393 16.1199 126.55 16.2436 127.709 16.3408C127.573 16.6831 127.442 17.021 127.338 17.3611C126.718 19.3864 126.155 21.4028 125.368 23.4082C124.677 25.1331 124.107 26.9044 123.661 28.7088C122.941 31.7456 122.203 36.1428 125.667 37.8986C129.013 39.5948 131.76 35.4692 132.88 32.9581C133.628 31.2729 133.931 29.4531 134.348 27.7282C134.461 27.2644 134.602 26.7564 134.711 26.2374C135.532 26.4494 136.367 26.5996 137.209 26.6901C137.535 26.7299 137.871 26.7851 138.2 26.8447C137.955 27.1584 137.756 27.5073 137.608 27.8761C137.434 28.3179 137.226 28.7242 137.056 29.1549C136.519 30.48 136.376 31.8052 136.899 33.1303C137.889 35.6415 140.707 38.3845 143.607 37.4525C144.435 37.1875 145.173 36.664 145.884 36.1274C146.822 36.8253 147.746 37.6204 148.916 37.8478C150.257 38.1062 151.701 38.04 153.046 37.9318C154.555 37.8103 155.628 37.1676 156.889 36.5602C158.738 38.1062 161.331 38.8991 163.601 38.358C167.278 37.4746 170.62 34.1087 172.811 31.1846C173.396 30.4557 171.187 28.9804 170.589 29.7799ZM145.502 32.9448C145.506 32.9095 145.506 32.8741 145.502 32.8388C145.409 32.5782 145.336 32.3109 145.281 32.0393C145.221 31.3016 145.462 30.3277 145.674 29.6364C145.954 28.7331 146.423 27.9004 147.052 27.1959C148.072 26.1071 148.521 25.5549 150.157 25.9944C150.599 26.1115 150.599 26.1115 150.619 26.7917C150.683 27.631 150.429 28.4636 149.908 29.124C148.826 30.5883 147.417 31.8008 146.019 32.8211C145.893 32.9117 145.76 33.0177 145.625 33.1281C145.599 33.0751 145.55 33.0066 145.502 32.9448ZM158.071 27.4742C158.629 26.8425 159.769 26.0276 160.681 25.9679C160.774 25.9613 160.862 25.9989 160.92 26.0717L160.951 26.1093C161.132 26.3301 161.75 26.7144 161.834 26.9331C162.088 27.5824 161.264 29.6054 160.827 30.2018C160.22 31.03 159.458 31.7301 158.742 32.4501C158.181 33.0133 157.565 33.519 156.905 33.963C156.116 31.8427 156.701 29.0158 158.071 27.4742Z" fill="#161616"/>
<path d="M119.01 23.3335C116.236 22.6267 114.387 25.7011 112.938 27.4282C112.808 27.5828 112.689 27.7418 112.565 27.9008C112.64 27.5695 112.717 27.2382 112.812 26.9158C113.21 25.5398 113.641 24.2412 114.076 22.8785C114.188 22.5251 113.802 22.0856 113.325 21.8096C112.717 21.3524 111.891 21.1249 111.717 21.5887C111.388 22.4854 109.612 23.8856 108.897 24.5195C108.261 25.0893 107.552 25.5752 106.79 25.9639L106.31 26.1847C106.299 25.6039 106.282 25.0804 105.911 24.4598C105.61 24.1065 105.283 23.7774 104.932 23.4748C104.833 23.3798 104.729 23.2937 104.619 23.212C104.325 23 104.007 22.8277 103.671 22.6952C102.953 22.3838 101.997 21.9951 101.206 22.0039C100.743 22.0083 100.285 22.0834 99.8437 22.2248C99.7752 21.9708 99.6846 21.7256 99.5698 21.4893C99.0994 20.5109 98.5318 19.3117 97.8029 18.5144C97.1315 17.748 96.4049 17.0346 95.6275 16.3787C94.7684 15.694 93.8452 15.8773 92.9065 15.4687C92.8072 15.4246 92.3919 15.3164 92.4118 15.5593C92.4582 16.0916 92.6702 16.4295 92.7851 16.933C92.9198 17.5205 92.7078 18.1897 92.8027 18.7949C92.9949 20.0272 93.7414 21.041 94.5983 21.8869C95.3757 22.6466 95.8638 23.1479 96.946 23.4174C97.1669 23.4748 97.4076 23.5168 97.6439 23.5521C97.1845 23.9342 96.723 24.3516 96.215 24.7514C96.1333 24.7911 96.067 24.853 96.0184 24.9303C95.4442 25.8689 94.8545 26.368 94.4724 27.4326C94.1654 28.3469 94.0064 29.3054 93.9976 30.2706C93.9048 32.1788 94.1897 34.0693 95.6032 35.5071C98.9006 38.8597 103.227 35.781 105.1 32.636C105.829 31.4632 106.273 30.1337 106.394 28.7577C107.781 28.2718 109.091 27.5872 110.284 26.728L110.31 26.706C110.056 27.755 109.868 28.7975 109.513 29.8134C109.071 31.0414 109.071 32.2892 108.671 33.526C108.501 34.0583 107.867 35.4409 108.057 36.0129C108.247 36.5849 109.162 37.3491 109.811 37.1348C110.725 36.8345 111.174 34.8644 111.551 34.0782C112.176 32.7685 112.985 31.6487 113.718 30.4296C114.403 29.2988 115.354 28.411 116.116 27.3376C116.543 26.7391 118.053 24.9789 119.171 24.9082C119.334 25.6701 119.363 26.4564 119.257 27.2294C119.16 27.8787 118.89 28.4949 118.789 29.1464C118.665 29.9327 118.745 30.6527 118.499 31.4367C117.817 33.6122 117.258 35.7103 118.795 37.6384C119.376 38.3672 121.395 38.5947 120.414 37.3645C119.372 36.0548 120.193 34.1753 120.529 32.7265C120.856 31.355 121.148 29.8819 121.413 28.4375C121.837 26.2731 121.444 23.9563 119.01 23.3335ZM103.452 24.409C103.543 24.4863 103.64 24.5548 103.744 24.61C103.892 25.3146 103.843 26.2422 103.892 26.8517C103.892 26.929 103.892 26.9997 103.903 27.0726C103.532 27.1477 103.152 27.1808 102.774 27.172C101.659 27.141 101.162 27.2161 100.966 25.9617C100.822 25.0606 101.198 24.4157 101.999 24.0358C102.198 24.0071 102.401 24.0027 102.602 24.0225C102.874 24.0513 103.163 24.3052 103.452 24.409ZM103.221 30.2043C102.445 32.0772 100.833 34.1201 98.8388 34.8092C96.5352 35.6065 96.3254 32.9761 96.4844 31.2512C96.522 30.4429 96.6744 29.6434 96.9394 28.8792C97.3281 27.8456 97.7897 27.395 98.3551 26.4807C98.4986 26.3636 98.6444 26.2377 98.7968 26.1074C98.958 26.5293 99.1811 26.9246 99.4594 27.2802C100.442 28.5258 102.043 29.047 103.625 29.131C103.508 29.4755 103.384 29.8222 103.221 30.2043Z" fill="#161616"/>
<path d="M95.5003 38.5951C94.9393 38.5465 94.6345 38.6901 94.4667 38.6658C93.9521 38.5399 93.4529 38.3522 92.9825 38.1048C92.1256 37.5946 91.4233 36.3181 91.1715 35.3684C90.8336 34.0963 91.1892 32.1704 91.4122 30.9292C91.7479 29.074 91.8142 27.1084 92.7374 25.4078C93.1283 24.69 91.7899 23.9656 91.2488 23.917C88.625 23.6829 86.92 25.9422 85.5352 27.9542C85.7229 26.8897 85.9018 25.8119 86.052 24.7386C86.158 23.9898 84.8991 23.3339 84.2852 23.4134C81.5797 23.8021 79.5588 26.4657 77.9223 28.4269C77.7124 28.6831 77.5203 28.9547 77.3502 29.2396C77.5976 28.5108 77.7456 27.6936 78.0393 26.9825C78.2602 26.4369 78.7019 25.9996 78.9227 25.4696C79.042 25.1714 79.137 24.8644 79.2077 24.5508C79.3335 24.2549 79.4373 23.9501 79.5146 23.6365C79.7355 22.753 77.4187 21.5074 77.1581 22.5742C76.8379 23.8993 76.2239 24.1511 75.4531 25.1383C74.8568 25.9047 74.3488 26.7086 73.6641 27.4396C72.5157 28.6786 71.2347 30.3108 69.8831 31.2958C68.5999 32.2278 67.5199 33.4204 66.0667 34.2155C65.0949 34.7478 63.5931 35.5804 62.3452 35.6379C61.8947 35.3375 61.5921 34.8604 61.5148 34.3238C61.4684 33.9704 61.4684 33.6104 61.5148 33.257C63.953 32.5105 66.2632 31.393 68.3614 29.9442C69.8742 28.862 71.4114 26.8654 70.857 24.913C70.4153 23.3273 68.2531 22.2186 66.6608 22.3135C65.0176 22.4085 63.1646 23.9214 62.1464 25.209C60.1123 27.782 57.4952 33.1355 60.3045 35.9316C63.1138 38.7276 66.833 37.0226 69.5297 34.9775C71.217 33.659 72.8072 32.2212 74.287 30.6752C74.0705 31.1898 73.8828 31.7176 73.726 32.2543C73.4057 33.4249 73.3527 34.6042 73.0833 35.7659C72.9176 36.4793 74.7132 37.6013 75.1682 36.8967C76.67 34.5777 78.1696 32.0821 79.91 29.9397C80.8817 28.7449 82.1186 27.0509 83.5828 25.9996C83.3774 27.1923 83.1411 28.3805 82.8827 29.5201C82.6376 30.5846 82.1428 31.5697 81.8491 32.6121C81.5554 33.6546 81.5134 34.7147 81.35 35.7969C81.2285 36.5986 83.1831 37.7316 83.4901 36.7642C83.9119 35.4391 84.7777 34.4077 85.4027 33.2062C85.904 32.2433 86.2177 31.3046 86.8758 30.366C87.6135 29.3191 88.3003 28.2303 89.1396 27.2475C89.334 27.0288 89.5482 26.8279 89.7801 26.649C89.4598 27.9211 89.2103 29.2109 89.0292 30.5096C88.7465 32.42 88.7862 34.3414 89.6166 36.0906C90.372 37.6764 91.4807 38.9353 93.1194 39.6508C93.5501 39.8673 94.0051 40.0395 94.4711 40.1632C95.2198 40.3664 95.7278 40.2052 96.4411 40.2648C97.8082 40.3797 96.3175 38.6548 95.5003 38.5951ZM62.7913 29.0983C63.6461 27.3469 66.2389 23.7557 68.5336 24.447C68.6639 25.8958 67.6193 27.1989 66.5216 28.0912C65.3577 29.0386 63.7388 29.9309 62.1575 30.6156C62.3408 30.0988 62.5528 29.5908 62.7913 29.0983Z" fill="#161616"/>
<path d="M59.3932 38.9372C58.6467 38.6457 57.9488 38.2438 57.326 37.7402C57.1139 37.6077 56.8931 37.4928 56.6634 37.3912C56.4933 37.1616 56.31 36.9407 56.1179 36.7287C55.3206 35.684 54.5277 33.5837 54.2229 31.9471C54.2053 31.8499 54.1898 31.7528 54.1743 31.6556C54.4062 31.3221 54.6359 30.993 54.8678 30.6728C56.7451 28.0865 58.5539 25.423 60.005 22.5761C62.9733 16.7477 65.2569 10.3804 66.1006 3.88942C66.4186 1.45999 64.0687 -0.348829 61.9043 1.18171C60.6896 2.04085 59.7863 3.89605 59.1039 5.17039C58.5981 6.11345 58.1012 6.93725 57.6197 7.90681C54.8678 13.4282 52.6018 19.3914 51.7405 25.518C51.4931 27.1898 51.4732 28.886 51.6831 30.5623C51.0713 31.4171 50.4485 32.2696 49.7837 33.0757C48.7302 34.3545 47.3543 35.5868 46.4487 37.007C45.9474 37.7954 48.0809 39.1714 48.6021 38.3851C49.4855 37.0379 50.9344 35.8386 51.979 34.6305C52.1778 34.3986 52.3677 34.1535 52.5577 33.9083C52.7211 34.3037 52.9066 34.688 53.112 35.0634C54.764 38.0494 56.2725 39.3502 59.2474 40.4921C60.9414 41.137 60.6167 39.443 59.3932 38.9372ZM59.1127 10.8398C59.8216 9.64717 60.2943 8.35073 61.0054 7.23099C61.7166 6.11124 62.4962 4.02635 63.7352 3.01924C63.6292 4.03519 63.32 5.07763 63.0925 5.98315C62.6133 7.8781 62.1075 9.75097 61.6106 11.6393C60.8155 14.6717 59.5235 17.5737 58.0901 20.3433C56.8909 22.6711 55.5635 24.9305 54.1147 27.1103C54.2936 25.4915 54.5962 23.888 55.0158 22.3133C56.0141 18.5168 57.1139 14.2034 59.1127 10.8398Z" fill="#161616"/>
</svg>
