<svg width="164" height="37" viewBox="0 0 164 37" fill="none" xmlns="http://www.w3.org/2000/svg">
<path d="M13.4773 28.0355V28.5556C13.4751 29.1063 13.0294 29.552 12.4787 29.5542H6.93718C6.38871 29.5542 5.94294 29.1084 5.94075 28.56C5.94075 27.9328 5.94075 27.3144 5.94075 26.696C5.94075 25.1664 5.95605 23.6368 5.94075 22.1072H1.00013C0.447291 22.105 0.00152094 21.6527 0.00589124 21.0999C0.00807638 20.8377 0.110778 20.5886 0.294331 20.4028L19.1675 1.52532C20.437 0.262305 22.4889 0.266675 23.7541 1.53625L23.7563 1.53843L42.601 20.3831C42.9943 20.7721 42.9987 21.4058 42.6097 21.7991C42.4218 21.9892 42.1661 22.0963 41.8995 22.0963H36.9611C36.9087 25.6778 36.9261 27.9962 36.9436 30.7386C36.9546 32.1655 36.9633 33.7104 36.9677 35.6114C36.9677 35.6398 36.9677 35.6704 36.9677 35.701C36.9677 36.2517 36.5197 36.6996 35.9691 36.6996H35.9669H15.9793C15.4265 36.6996 14.9807 36.2539 14.9785 35.701V23.0796C14.9807 22.8393 14.9938 22.5989 15.0222 22.3607C15.0856 21.7926 15.2254 21.2354 15.4396 20.7044C15.5641 20.3984 15.7084 20.1034 15.8766 19.8194C16.0165 19.5834 16.1716 19.3539 16.3399 19.1376C18.5054 16.3122 22.5544 15.7769 25.3798 17.9423C25.5874 18.1019 25.7841 18.2723 25.9698 18.4558C25.9917 18.4733 26.0113 18.4908 26.0288 18.5105C26.42 18.9038 26.7587 19.343 27.0405 19.8216C27.2088 20.1056 27.3552 20.4028 27.4776 20.7087C27.5999 21.0147 27.6983 21.3271 27.7726 21.6483C27.8272 21.8843 27.8665 22.1225 27.8949 22.3629C28.2861 25.9247 25.7163 29.1281 22.1545 29.5192C21.9251 29.5455 21.6935 29.5564 21.4619 29.5586H20C19.4471 29.5564 19.0014 29.1106 19.0014 28.5578V28.0377C18.997 27.4871 19.4384 27.0369 19.9891 27.0326C19.9913 27.0326 19.9934 27.0326 19.9956 27.0326H21.4531C21.971 27.0326 22.4823 26.932 22.9609 26.7354C23.9311 26.3289 24.7002 25.5598 25.1067 24.5896C25.3055 24.111 25.4082 23.5975 25.4082 23.0796C25.4082 22.8698 25.3929 22.6579 25.3602 22.4503C25.2728 21.9412 25.0914 21.4517 24.8226 21.0103C24.6718 20.7634 24.4948 20.5339 24.2938 20.3263L24.2239 20.2586C23.1007 19.1442 21.4182 18.8098 19.9541 19.4129C19.4756 19.6096 19.0407 19.898 18.6736 20.263L18.6539 20.2804C18.2344 20.7 17.9132 21.2091 17.7143 21.7685L17.6947 21.8363C17.557 22.234 17.4914 22.6535 17.4958 23.0731V34.2173H34.4984V20.6301C34.4984 20.0794 34.9464 19.6315 35.4971 19.6315H35.4992H38.3552L22.4911 3.7651C21.9535 3.2057 21.0707 3.17074 20.4916 3.68643L5.0951 19.0852L4.54881 19.6315H7.40699C7.95983 19.6249 8.41215 20.0685 8.41871 20.6213C8.41871 20.6235 8.41871 20.6279 8.41871 20.6301V27.0304H12.4896C13.0425 27.0304 13.4904 27.4783 13.4904 28.0312" fill="#42B580"/>
<path d="M136.213 36.7045C134.384 36.7241 132.579 36.298 130.953 35.4633L132.107 32.9329C133.322 33.654 134.71 34.032 136.123 34.0255C137.052 34.0976 137.972 33.8048 138.687 33.2082C139.283 32.5505 139.585 31.6764 139.517 30.7893V30.2124C138.623 31.4623 137.168 32.1856 135.632 32.1441C134.262 32.1593 132.94 31.6393 131.95 30.6931C130.873 29.6027 130.293 28.119 130.348 26.5872V26.5435C130.296 25.0095 130.881 23.5236 131.965 22.4376C132.953 21.5002 134.266 20.9823 135.63 20.9954C137.113 20.9648 138.529 21.6182 139.469 22.7676V21.2161H142.849V30.4243C142.849 32.6488 142.305 34.2265 141.189 35.247C140.109 36.2259 138.483 36.7045 136.213 36.7045ZM136.611 23.7902C135.107 23.7028 133.818 24.8522 133.731 26.3556C133.731 26.4168 133.731 26.4801 133.731 26.5413V26.5872C133.807 28.1867 135.166 29.4214 136.766 29.3449C138.258 29.2728 139.454 28.0797 139.524 26.5872V26.5413C139.532 25.0292 138.313 23.7946 136.801 23.7859C136.735 23.7859 136.685 23.7859 136.611 23.7902ZM91.0329 36.6629H87.6569V21.2161H91.0329V22.9249C91.8611 21.6903 93.2618 20.9627 94.7477 20.9932C96.1615 20.9867 97.5163 21.5592 98.4974 22.5775C99.6315 23.8208 100.23 25.4597 100.165 27.1401V27.1859C100.232 28.8641 99.6402 30.503 98.5127 31.7485C97.5294 32.7712 96.168 33.3437 94.7498 33.3328C93.2989 33.3677 91.9201 32.71 91.0351 31.5606V36.6629H91.0329V36.6629ZM93.8736 23.858C92.2282 23.858 90.9892 25.2718 90.9892 27.1357V27.1816C90.9892 29.0543 92.2282 30.4593 93.8736 30.4593C95.5584 30.4593 96.7799 29.0783 96.7799 27.1816V27.1357C96.7799 25.2652 95.5278 23.858 93.8714 23.858H93.8736ZM121.988 33.3852C120.283 33.4093 118.636 32.7668 117.399 31.5934C116.221 30.4506 115.563 28.8773 115.574 27.2362V27.1925C115.568 25.5471 116.232 23.9672 117.414 22.8222C120.006 20.4098 124.018 20.4011 126.62 22.8004C127.796 23.941 128.456 25.5143 128.445 27.1532V27.1991C128.451 28.8467 127.785 30.4243 126.603 31.5694C125.362 32.7559 123.705 33.4071 121.988 33.3852ZM121.988 23.9082C120.316 23.8733 118.931 25.1997 118.896 26.8713C118.896 26.9631 118.896 27.0548 118.896 27.1466V27.1925C118.837 28.9428 120.205 30.409 121.955 30.4702H122.02C123.692 30.5052 125.078 29.1788 125.112 27.5072C125.112 27.4154 125.112 27.3236 125.112 27.2297V27.1859C125.169 25.4378 123.801 23.9716 122.053 23.9082H121.99H121.988V23.9082ZM78.7611 33.3852C77.0567 33.4093 75.4091 32.7668 74.1723 31.5934C72.9945 30.4506 72.3346 28.8773 72.3455 27.2362V27.1925C72.3412 25.5471 73.0055 23.9694 74.1876 22.8222C76.7792 20.412 80.7889 20.4033 83.3915 22.8004C84.5671 23.941 85.227 25.5143 85.2161 27.1532V27.1991C85.2226 28.8467 84.5583 30.4243 83.3762 31.5694C82.135 32.7559 80.4787 33.4071 78.7611 33.3852ZM78.7611 23.9082C77.0895 23.8733 75.7041 25.1997 75.6691 26.8713C75.6691 26.9631 75.6691 27.0548 75.6691 27.1466V27.1925C75.6123 28.9406 76.9802 30.4069 78.7284 30.4702H78.7917C80.4634 30.5052 81.8466 29.1788 81.8815 27.5094C81.8815 27.5072 81.8815 27.5072 81.8815 27.505C81.8815 27.4132 81.8815 27.3214 81.8815 27.2297V27.1859C81.9383 25.4378 80.5704 23.9716 78.8223 23.9082H78.7611V23.9082ZM155.097 33.1186H151.568L155.739 27.0832L151.723 21.2249H155.34L157.56 24.6861L159.802 21.2249H163.329L159.312 27.0199L163.506 33.1208H159.891L157.488 29.417L155.084 33.1208L155.097 33.1186ZM149.394 33.1186H146.02V21.2161H149.396V33.1099L149.394 33.1186ZM114.154 33.1186H102.992V17.5757H106.41V30.0048H114.154V33.1099V33.1186ZM67.3525 33.1186H63.9786V21.2161H67.3525V23.6198C68.102 21.8302 69.2361 20.9976 70.9186 20.9976C70.9929 20.9976 71.0694 20.9976 71.1371 20.9976V24.5244H70.9601C68.6286 24.5244 67.3437 26.0147 67.3437 28.7199V33.1121L67.3525 33.1186ZM52.9305 33.1186H49.5107V17.5757H55.8586C59.4706 17.5757 61.8044 19.6843 61.8044 22.9468V22.9905C61.8656 24.5616 61.186 26.0693 59.971 27.068C58.6905 28.025 57.1216 28.5123 55.5243 28.449H52.9283V33.1099L52.9305 33.1186ZM52.9305 20.6633V25.4138H55.6379C57.2571 25.4138 58.3453 24.4676 58.3453 23.0604V23.0145C58.3453 21.522 57.3336 20.6633 55.5702 20.6633H52.9305ZM147.709 19.7892C146.599 19.7892 145.699 18.8889 145.699 17.7789C145.699 16.6688 146.599 15.7686 147.709 15.7686C148.819 15.7686 149.719 16.6688 149.719 17.7789C149.722 18.8911 148.824 19.7936 147.711 19.7958C147.709 19.7958 147.709 19.7958 147.707 19.7958L147.709 19.7892Z" fill="#1E2A34"/>
</svg>
