<svg width="187" height="31" viewBox="0 0 187 31" fill="none" xmlns="http://www.w3.org/2000/svg">
<path d="M53.4143 10.0921C53.4143 11.7887 53.0129 13.1059 52.2132 14.0405C51.4104 14.9782 50.3002 15.4454 48.8764 15.4454C47.4588 15.4454 46.3455 14.9813 45.5333 14.053C44.7242 13.1247 44.3133 11.8232 44.3008 10.1517V7.99089C44.3008 6.25348 44.7022 4.89868 45.5082 3.92334C46.3142 2.94801 47.4306 2.46191 48.8607 2.46191C50.2657 2.46191 51.3759 2.94174 52.185 3.89826C52.9941 4.85477 53.4049 6.20016 53.4175 7.9313V10.0921H53.4143ZM50.8553 7.97521C50.8553 6.83366 50.6922 5.98691 50.3692 5.43182C50.0461 4.87672 49.5412 4.59761 48.8576 4.59761C48.1802 4.59761 47.6784 4.86418 47.3554 5.40045C47.0323 5.93673 46.863 6.74898 46.8504 7.84349V10.0921C46.8504 11.1991 47.0167 12.0114 47.3459 12.5351C47.6752 13.0588 48.1864 13.3191 48.8732 13.3191C49.5381 13.3191 50.0336 13.062 50.3566 12.5508C50.6796 12.0396 50.8459 11.243 50.8521 10.1674V7.97521H50.8553Z" fill="#242833"/>
<path d="M57.3717 5.88265L57.4407 6.81094C57.9957 6.07709 58.7233 5.70703 59.6203 5.70703C61.2353 5.70703 62.0664 6.83917 62.1103 9.10031V15.2722H59.6453V9.2822C59.6453 8.74906 59.5669 8.36332 59.407 8.12184C59.2471 7.88036 58.9679 7.76119 58.5697 7.76119C58.1243 7.76119 57.7762 7.99012 57.5285 8.448V15.2722H55.0635V5.88265H57.3717Z" fill="#242833"/>
<path d="M68.0345 12.7578C68.0345 12.5508 67.9341 12.3564 67.7334 12.1807C67.5327 12.0051 67.0905 11.7668 66.4006 11.4657C65.3876 11.0549 64.6914 10.6284 64.3119 10.1893C63.9324 9.75026 63.7443 9.20143 63.7443 8.54912C63.7443 7.72746 64.0422 7.05006 64.6349 6.51378C65.2276 5.97751 66.0148 5.71094 66.9933 5.71094C68.0219 5.71094 68.8467 5.97751 69.4677 6.51065C70.0855 7.04379 70.396 7.75882 70.396 8.65575H67.9404C67.9404 7.89054 67.6205 7.51107 66.987 7.51107C66.7267 7.51107 66.5135 7.59261 66.3441 7.75569C66.1748 7.91876 66.0932 8.14456 66.0932 8.43309C66.0932 8.64007 66.1842 8.8251 66.3723 8.98504C66.5574 9.14498 66.9933 9.37079 67.6832 9.66558C68.6836 10.0356 69.3924 10.4496 69.8064 10.9012C70.2203 11.3559 70.4273 11.9455 70.4273 12.6668C70.4273 13.5073 70.1106 14.1816 69.4802 14.6896C68.8499 15.1977 68.0219 15.4549 66.9964 15.4549C66.3065 15.4549 65.7012 15.32 65.1743 15.0503C64.6475 14.7806 64.2366 14.4074 63.9387 13.9276C63.6408 13.4477 63.4902 12.9303 63.4902 12.372H65.8266C65.8392 12.8017 65.9364 13.1216 66.1246 13.3348C66.3127 13.5481 66.6201 13.6547 67.0497 13.6547C67.702 13.6516 68.0345 13.3537 68.0345 12.7578Z" fill="#242833"/>
<path d="M74.345 6.7083C74.8782 6.04345 75.5305 5.71102 76.3082 5.71102C77.1644 5.71102 77.8167 6.01209 78.262 6.61422C78.7074 7.21635 78.9332 8.11328 78.9394 9.30501V15.2762H76.4744V9.3301C76.4744 8.78128 76.3898 8.38299 76.2173 8.13524C76.0479 7.89062 75.7688 7.76517 75.3893 7.76517C74.944 7.76517 74.5959 7.97216 74.3482 8.37985V15.273H71.8926V1.94141H74.3482V6.7083H74.345Z" fill="#242833"/>
<path d="M80.4131 10.2771C80.4131 8.85333 80.7487 7.73687 81.4198 6.92775C82.0909 6.11863 83.0192 5.71094 84.2078 5.71094C85.4058 5.71094 86.3403 6.1155 87.0115 6.92775C87.6826 7.73687 88.0182 8.8596 88.0182 10.2959V10.8949C88.0182 12.325 87.6857 13.4415 87.0209 14.2443C86.356 15.0503 85.4246 15.4517 84.2266 15.4517C83.0223 15.4517 82.0878 15.0472 81.4198 14.2412C80.7518 13.4352 80.4162 12.3125 80.4162 10.8761V10.2771H80.4131ZM82.8781 10.8918C82.8781 12.5696 83.3265 13.4101 84.2235 13.4101C85.0514 13.4101 85.4967 12.7107 85.5594 11.3089L85.5688 10.2771C85.5688 9.42096 85.4497 8.78433 85.2145 8.37036C84.9761 7.9564 84.6406 7.74941 84.2078 7.74941C83.7907 7.74941 83.4645 7.9564 83.2325 8.37036C82.9972 8.78433 82.8812 9.41783 82.8812 10.2771V10.8918H82.8781Z" fill="#242833"/>
<path d="M94.1807 8.25433L93.3653 8.18533C92.6942 8.18533 92.2395 8.48013 92.0011 9.06972V15.2761H89.5361V5.88342H91.8537L91.9227 6.89953C92.3116 6.10609 92.8447 5.71094 93.5284 5.71094C93.8075 5.71094 94.0333 5.74857 94.2058 5.82384L94.1807 8.25433Z" fill="#242833"/>
<path d="M99.0668 15.4478C97.806 15.4478 96.8213 15.0715 96.1157 14.3188C95.41 13.5661 95.0557 12.4905 95.0557 11.0886V10.3422C95.0557 8.86196 95.3787 7.71728 96.0279 6.91444C96.677 6.10845 97.6053 5.70703 98.8159 5.70703C99.995 5.70703 100.886 6.08337 101.482 6.83917C102.077 7.59184 102.382 8.70829 102.394 10.1885V11.3928H97.5081C97.5426 12.089 97.6963 12.6002 97.9691 12.9232C98.242 13.2463 98.6622 13.4062 99.2267 13.4062C100.048 13.4062 100.735 13.1239 101.284 12.5626L102.247 14.046C101.946 14.4631 101.51 14.7986 100.936 15.0589C100.362 15.3192 99.7379 15.4478 99.0668 15.4478ZM97.5238 9.68363H99.9794V9.45783C99.9668 8.89646 99.8759 8.46995 99.7003 8.18143C99.5246 7.8929 99.2267 7.74864 98.797 7.74864C98.3674 7.74864 98.0569 7.90231 97.8625 8.20965C97.6712 8.51699 97.5583 9.00623 97.5238 9.68363Z" fill="#242833"/>
<path d="M111.335 2.6377L113.721 11.7795L116.099 2.6377H119.432V15.2762H116.87V11.8547L117.105 6.58607L114.581 15.2762H112.843L110.316 6.58607L110.551 11.8547V15.2762H107.998V2.6377H111.335Z" fill="#242833"/>
<path d="M121.073 10.2771C121.073 8.85333 121.409 7.73687 122.08 6.92775C122.751 6.11863 123.679 5.71094 124.868 5.71094C126.066 5.71094 127 6.1155 127.672 6.92775C128.343 7.73687 128.678 8.8596 128.678 10.2959V10.8949C128.678 12.325 128.346 13.4415 127.681 14.2443C127.016 15.0503 126.085 15.4517 124.887 15.4517C123.682 15.4517 122.748 15.0472 122.08 14.2412C121.412 13.4352 121.076 12.3125 121.076 10.8761V10.2771H121.073ZM123.541 10.8918C123.541 12.5696 123.99 13.4101 124.887 13.4101C125.715 13.4101 126.16 12.7107 126.223 11.3089L126.232 10.2771C126.232 9.42096 126.113 8.78433 125.878 8.37036C125.639 7.9564 125.304 7.74941 124.871 7.74941C124.454 7.74941 124.128 7.9564 123.896 8.37036C123.664 8.78433 123.545 9.41783 123.545 10.2771V10.8918H123.541Z" fill="#242833"/>
<path d="M132.516 5.88342L132.585 6.75213C133.134 6.05905 133.862 5.71094 134.765 5.71094C135.703 5.71094 136.364 6.13431 136.753 6.97793C137.293 6.13431 138.058 5.71094 139.055 5.71094C140.698 5.71094 141.542 6.84935 141.58 9.12303V15.2792H139.124V9.2767C139.124 8.73415 139.049 8.34528 138.898 8.1132C138.748 7.88113 138.494 7.76509 138.133 7.76509C137.675 7.76509 137.333 8.04421 137.108 8.60557L137.126 8.90037V15.273H134.671V9.29552C134.671 8.75611 134.599 8.36723 134.454 8.12888C134.31 7.8874 134.053 7.76823 133.683 7.76823C133.26 7.76823 132.924 7.99717 132.676 8.45504V15.2792H130.221V5.88342H132.516Z" fill="#242833"/>
<path d="M147.187 15.4478C145.926 15.4478 144.941 15.0715 144.236 14.3188C143.53 13.5661 143.176 12.4905 143.176 11.0886V10.3422C143.176 8.86196 143.499 7.71728 144.148 6.91444C144.797 6.10845 145.725 5.70703 146.933 5.70703C148.112 5.70703 149.003 6.08337 149.599 6.83917C150.194 7.59184 150.499 8.70829 150.511 10.1885V11.3928H145.625C145.66 12.089 145.813 12.6002 146.086 12.9232C146.359 13.2463 146.779 13.4062 147.344 13.4062C148.165 13.4062 148.852 13.1239 149.401 12.5626L150.364 14.046C150.063 14.4631 149.627 14.7986 149.053 15.0589C148.479 15.3192 147.858 15.4478 147.187 15.4478ZM145.641 9.68363H148.096V9.45783C148.084 8.89646 147.993 8.46995 147.817 8.18143C147.645 7.8929 147.344 7.74864 146.914 7.74864C146.484 7.74864 146.174 7.90231 145.979 8.20965C145.791 8.51699 145.675 9.00623 145.641 9.68363Z" fill="#242833"/>
<path d="M154.149 5.88265L154.218 6.81094C154.773 6.07709 155.501 5.70703 156.398 5.70703C158.013 5.70703 158.844 6.83917 158.888 9.10031V15.2722H156.423V9.2822C156.423 8.74906 156.344 8.36332 156.184 8.12184C156.024 7.88036 155.745 7.76119 155.347 7.76119C154.902 7.76119 154.554 7.99012 154.306 8.448V15.2722H151.841V5.88265H154.149Z" fill="#242833"/>
<path d="M163.508 3.57422V5.8824H164.765V7.7233H163.508V12.393C163.508 12.763 163.558 13.0202 163.658 13.1582C163.759 13.2962 163.956 13.3683 164.245 13.3683C164.483 13.3683 164.677 13.3495 164.825 13.3087L164.809 15.2186C164.392 15.3754 163.94 15.4538 163.454 15.4538C161.867 15.4538 161.068 14.5444 161.049 12.7254V7.7233H159.964V5.8824H161.049V3.57422H163.508Z" fill="#242833"/>
<path d="M170.73 14.4162C170.222 15.1061 169.538 15.448 168.682 15.448C167.82 15.448 167.167 15.15 166.719 14.5573C166.273 13.9646 166.051 13.099 166.051 11.9669V5.88281H168.506V12.0296C168.519 12.9453 168.82 13.4001 169.419 13.4001C169.98 13.4001 170.385 13.1586 170.636 12.6694V5.88281H173.11V15.2755H170.802L170.73 14.4162Z" fill="#242833"/>
<path d="M177.172 5.88342L177.241 6.75213C177.79 6.05905 178.517 5.71094 179.421 5.71094C180.358 5.71094 181.02 6.13431 181.409 6.97793C181.948 6.13431 182.714 5.71094 183.708 5.71094C185.351 5.71094 186.195 6.84935 186.232 9.12303V15.2792H183.777V9.2767C183.777 8.73415 183.701 8.34528 183.551 8.1132C183.4 7.88113 183.146 7.76509 182.786 7.76509C182.328 7.76509 181.986 8.04421 181.76 8.60557L181.776 8.90037V15.273H179.32V9.29552C179.32 8.75611 179.248 8.36723 179.104 8.12888C178.96 7.89054 178.702 7.76823 178.332 7.76823C177.909 7.76823 177.573 7.99717 177.326 8.45504V15.2792H174.87V5.88342H177.172Z" fill="#242833"/>
<path d="M46.4939 23.6367L48.9087 29.4229H48.937L51.3612 23.6367H52.0731V30.21H51.5368V27.306L51.5807 24.4302L51.5525 24.4207L49.1094 30.2069H48.7362L46.2995 24.4458L46.2713 24.449L46.3214 27.3028V30.2069H45.7852V23.6367H46.4939Z" fill="#242833"/>
<path d="M58.5964 27.46C58.5964 28.3099 58.3643 28.9935 57.9002 29.5173C57.436 30.041 56.812 30.3013 56.0279 30.3013C55.2564 30.3013 54.6418 30.041 54.1839 29.5173C53.726 28.9935 53.4971 28.3067 53.4971 27.46V26.3906C53.4971 25.5438 53.726 24.8601 54.1839 24.3333C54.6418 23.8064 55.2564 23.543 56.0248 23.543C56.8088 23.543 57.4329 23.8064 57.8971 24.3333C58.3643 24.8601 58.5964 25.5469 58.5964 26.3906V27.46ZM58.0601 26.3843C58.0601 25.6724 57.8814 25.1016 57.5207 24.6657C57.1601 24.2329 56.6614 24.0134 56.0248 24.0134C55.3976 24.0134 54.9115 24.2298 54.5634 24.6657C54.2152 25.0985 54.0396 25.6724 54.0396 26.3843V27.4663C54.0396 28.1844 54.2152 28.7583 54.5665 29.1943C54.9177 29.627 55.4038 29.8466 56.0311 29.8466C56.6708 29.8466 57.1695 29.6302 57.527 29.1974C57.8845 28.7646 58.0633 28.1876 58.0633 27.4694V26.3843H58.0601Z" fill="#242833"/>
<path d="M61.7665 29.0998L61.8982 29.5389H61.9265L62.0582 29.0998L64.0308 23.6367H64.6172L62.1648 30.21H61.6536L59.2012 23.6367H59.7876L61.7665 29.0998Z" fill="#242833"/>
<path d="M66.2798 30.21H65.7373V23.6367H66.2798V30.21Z" fill="#242833"/>
<path d="M72.9601 30.21H72.4239L68.6919 24.5587L68.6636 24.5619V30.21H68.1211V23.6367H68.6636L72.3956 29.2786L72.4239 29.2755V23.6367H72.9601V30.21Z" fill="#242833"/>
<path d="M79.376 29.4293C79.2286 29.6425 78.9589 29.8432 78.57 30.0282C78.1811 30.2133 77.6887 30.3074 77.096 30.3074C76.3308 30.3074 75.7036 30.0471 75.2143 29.5265C74.7251 29.0059 74.4805 28.3316 74.4805 27.5037V26.2994C74.4805 25.4872 74.7125 24.8254 75.1767 24.3142C75.6408 23.8031 76.243 23.5459 76.9831 23.5459C77.6919 23.5459 78.2438 23.7215 78.6421 24.0759C79.0404 24.4303 79.2725 24.8882 79.3352 25.4558L79.3258 25.484H78.824C78.7456 25.045 78.5606 24.6874 78.2689 24.4177C77.9772 24.1449 77.5476 24.01 76.9831 24.01C76.3935 24.01 75.9199 24.2233 75.5593 24.6498C75.1986 25.0763 75.0199 25.6251 75.0199 26.2931V27.5068C75.0199 28.1936 75.2112 28.755 75.5938 29.194C75.9764 29.6331 76.475 29.8526 77.0929 29.8526C77.5288 29.8526 77.8988 29.793 78.2062 29.6707C78.5104 29.5484 78.7205 29.4167 78.8303 29.2724V27.5601H77.0835V27.0991H79.3728V29.4293H79.376Z" fill="#242833"/>
<path d="M87.6645 24.0977H85.4033V30.21H84.8608V24.0977H82.5996V23.6367H87.6645V24.0977Z" fill="#242833"/>
<path d="M92.434 27.0269H89.2697V29.749H92.895V30.21H88.7334V23.6367H92.8731V24.0977H89.2697V26.5658H92.434V27.0269Z" fill="#242833"/>
<path d="M98.5881 28.156L98.5975 28.1842C98.541 28.8428 98.3058 29.3603 97.8919 29.7397C97.4779 30.1192 96.9259 30.3074 96.236 30.3074C95.5053 30.3074 94.9157 30.0439 94.4672 29.5139C94.0188 28.9871 93.793 28.3002 93.793 27.4629V26.3935C93.793 25.5561 94.0156 24.8725 94.4672 24.3425C94.9157 23.8125 95.5053 23.5459 96.236 23.5459C96.9354 23.5459 97.4873 23.7309 97.8981 24.101C98.3058 24.4711 98.541 24.9916 98.5975 25.6628L98.5881 25.691H98.0832C98.011 25.1453 97.8229 24.7282 97.5218 24.4397C97.2207 24.1512 96.7911 24.0069 96.236 24.0069C95.6621 24.0069 95.2011 24.2296 94.853 24.6749C94.5049 25.1202 94.3324 25.691 94.3324 26.3841V27.4629C94.3324 28.1654 94.5049 28.7393 94.853 29.1846C95.2011 29.63 95.6621 29.8495 96.236 29.8495C96.7911 29.8495 97.2176 29.7084 97.5218 29.4261C97.826 29.1439 98.011 28.7236 98.08 28.1623H98.5881V28.156Z" fill="#242833"/>
<path d="M104.801 30.21H104.265V27.1868H100.527V30.21H99.9902V23.6367H100.527V26.7258H104.265V23.6367H104.801V30.21Z" fill="#242833"/>
<path d="M111.364 30.21H110.828L107.096 24.5587L107.068 24.5619V30.21H106.525V23.6367H107.068L110.8 29.2786L110.828 29.2755V23.6367H111.364V30.21Z" fill="#242833"/>
<path d="M117.887 27.46C117.887 28.3099 117.655 28.9935 117.191 29.5173C116.727 30.041 116.103 30.3013 115.319 30.3013C114.547 30.3013 113.933 30.041 113.475 29.5173C113.017 28.9935 112.788 28.3067 112.788 27.46V26.3906C112.788 25.5438 113.017 24.8601 113.475 24.3333C113.933 23.8064 114.547 23.543 115.316 23.543C116.1 23.543 116.724 23.8064 117.188 24.3333C117.655 24.8601 117.887 25.5469 117.887 26.3906V27.46ZM117.351 26.3843C117.351 25.6724 117.172 25.1016 116.812 24.6657C116.451 24.2329 115.952 24.0134 115.316 24.0134C114.689 24.0134 114.202 24.2298 113.854 24.6657C113.506 25.0985 113.331 25.6724 113.331 26.3843V27.4663C113.331 28.1844 113.506 28.7583 113.857 29.1943C114.209 29.627 114.695 29.8466 115.322 29.8466C115.962 29.8466 116.46 29.6302 116.818 29.1974C117.175 28.7646 117.354 28.1876 117.354 27.4694V26.3843H117.351Z" fill="#242833"/>
<path d="M119.851 29.749H123.1V30.21H119.309V23.6367H119.851V29.749V29.749Z" fill="#242833"/>
<path d="M128.685 27.46C128.685 28.3099 128.453 28.9935 127.989 29.5173C127.525 30.041 126.901 30.3013 126.117 30.3013C125.345 30.3013 124.731 30.041 124.273 29.5173C123.815 28.9935 123.586 28.3067 123.586 27.46V26.3906C123.586 25.5438 123.815 24.8601 124.273 24.3333C124.731 23.8064 125.345 23.543 126.114 23.543C126.898 23.543 127.522 23.8064 127.986 24.3333C128.453 24.8601 128.685 25.5469 128.685 26.3906V27.46ZM128.149 26.3843C128.149 25.6724 127.97 25.1016 127.61 24.6657C127.249 24.2329 126.75 24.0134 126.114 24.0134C125.486 24.0134 125 24.2298 124.652 24.6657C124.304 25.0985 124.128 25.6724 124.128 26.3843V27.4663C124.128 28.1844 124.304 28.7583 124.655 29.1943C125.007 29.627 125.493 29.8466 126.12 29.8466C126.76 29.8466 127.258 29.6302 127.616 29.1974C127.973 28.7646 128.152 28.1876 128.152 27.4694V26.3843H128.149Z" fill="#242833"/>
<path d="M134.797 29.4293C134.649 29.6425 134.38 29.8432 133.991 30.0282C133.602 30.2133 133.11 30.3074 132.517 30.3074C131.752 30.3074 131.124 30.0471 130.635 29.5265C130.146 29.0059 129.901 28.3316 129.901 27.5037V26.2994C129.901 25.4872 130.133 24.8254 130.598 24.3142C131.062 23.8031 131.664 23.5459 132.404 23.5459C133.113 23.5459 133.665 23.7215 134.063 24.0759C134.461 24.4303 134.693 24.8882 134.756 25.4558L134.747 25.484H134.245C134.166 25.045 133.981 24.6874 133.69 24.4177C133.398 24.1449 132.968 24.01 132.404 24.01C131.814 24.01 131.341 24.2233 130.98 24.6498C130.62 25.0763 130.441 25.6251 130.441 26.2931V27.5068C130.441 28.1936 130.632 28.755 131.015 29.194C131.397 29.6331 131.896 29.8526 132.514 29.8526C132.95 29.8526 133.32 29.793 133.627 29.6707C133.931 29.5484 134.141 29.4167 134.251 29.2724V27.5601H132.504V27.0991H134.794V29.4293H134.797Z" fill="#242833"/>
<path d="M138.37 27.2901L140.405 23.6396H141.032L138.636 27.8107V30.2129H138.1V27.7793L135.72 23.6396H136.347L138.37 27.2901Z" fill="#242833"/>
<path d="M148.029 27.1272H144.833V30.21H144.297V23.6367H148.49V24.0977H144.833V26.6662H148.029V27.1272Z" fill="#242833"/>
<path d="M154.427 27.46C154.427 28.3099 154.195 28.9935 153.73 29.5173C153.266 30.041 152.642 30.3013 151.858 30.3013C151.087 30.3013 150.472 30.041 150.014 29.5173C149.556 28.9935 149.324 28.3067 149.324 27.46V26.3906C149.324 25.5438 149.553 24.8601 150.011 24.3333C150.469 23.8064 151.084 23.543 151.852 23.543C152.636 23.543 153.26 23.8064 153.724 24.3333C154.191 24.8601 154.424 25.5469 154.424 26.3906V27.46H154.427ZM153.887 26.3843C153.887 25.6724 153.709 25.1016 153.348 24.6657C152.987 24.2329 152.489 24.0134 151.852 24.0134C151.225 24.0134 150.739 24.2298 150.39 24.6657C150.042 25.0985 149.867 25.6724 149.867 26.3843V27.4663C149.867 28.1844 150.042 28.7583 150.394 29.1943C150.745 29.627 151.231 29.8466 151.858 29.8466C152.498 29.8466 152.997 29.6302 153.354 29.1974C153.712 28.7646 153.89 28.1876 153.89 27.4694V26.3843H153.887Z" fill="#242833"/>
<path d="M156.37 27.2407V30.2106H155.834V23.6436H158.061C158.766 23.6436 159.306 23.7972 159.682 24.1077C160.058 24.415 160.246 24.8666 160.246 25.4594C160.246 25.8075 160.146 26.1211 159.945 26.3971C159.745 26.673 159.459 26.8738 159.092 26.9992C159.497 27.1027 159.792 27.2846 159.971 27.548C160.149 27.8115 160.24 28.1407 160.24 28.539V29.1568C160.24 29.3607 160.265 29.5457 160.312 29.7088C160.359 29.8719 160.441 30.0036 160.551 30.1071V30.2169H159.999C159.889 30.1071 159.811 29.9566 159.764 29.7621C159.72 29.5677 159.695 29.3638 159.695 29.1537V28.5453C159.695 28.1407 159.563 27.824 159.303 27.5919C159.042 27.3599 158.678 27.2407 158.211 27.2407H156.37ZM156.37 26.7797H157.992C158.584 26.7797 159.017 26.6605 159.293 26.4222C159.569 26.1838 159.704 25.8608 159.704 25.4531C159.704 25.0203 159.569 24.6879 159.296 24.4527C159.023 24.2206 158.613 24.1014 158.061 24.1014H156.373V26.7797H156.37Z" fill="#242833"/>
<path d="M163.079 28.3503L163.277 29.357L163.305 29.3601L163.553 28.3503L164.942 23.6367H165.453L166.842 28.3503L167.081 29.3664L167.109 29.3633L167.322 28.3534L168.511 23.6399H169.063L167.376 30.2132H166.864L165.387 25.1703L165.215 24.4803H165.187L165.02 25.1703L163.531 30.2132H163.016L161.329 23.6399H161.884L163.079 28.3503Z" fill="#242833"/>
<path d="M173.547 28.3785H170.536L169.859 30.21H169.301L171.797 23.6367H172.308L174.786 30.21H174.224L173.547 28.3785ZM170.718 27.8956H173.371L172.064 24.3392H172.035L170.718 27.8956Z" fill="#242833"/>
<path d="M176.317 27.2407V30.2106H175.78V23.6436H178.007C178.713 23.6436 179.252 23.7972 179.628 24.1077C180.005 24.415 180.193 24.8666 180.193 25.4594C180.193 25.8075 180.092 26.1211 179.892 26.3971C179.691 26.673 179.406 26.8738 179.039 26.9992C179.443 27.1027 179.738 27.2846 179.917 27.548C180.096 27.8115 180.187 28.1407 180.187 28.539V29.1568C180.187 29.3607 180.212 29.5457 180.259 29.7088C180.306 29.8719 180.387 30.0036 180.497 30.1071V30.2169H179.945C179.835 30.1071 179.757 29.9566 179.71 29.7621C179.666 29.5677 179.641 29.3638 179.641 29.1537V28.5453C179.641 28.1407 179.509 27.824 179.249 27.5919C178.989 27.3599 178.625 27.2407 178.157 27.2407H176.317ZM176.317 26.7797H177.938C178.531 26.7797 178.963 26.6605 179.239 26.4222C179.515 26.1838 179.65 25.8608 179.65 25.4531C179.65 25.0203 179.515 24.6879 179.243 24.4527C178.97 24.2206 178.559 24.1014 178.007 24.1014H176.32V26.7797H176.317Z" fill="#242833"/>
<path d="M181.877 30.21V23.6367H183.787C184.59 23.6367 185.255 23.9033 185.778 24.4396C186.302 24.9758 186.562 25.6626 186.562 26.5031V27.3467C186.562 28.1904 186.302 28.8772 185.778 29.4103C185.255 29.9434 184.59 30.21 183.787 30.21H181.877ZM182.413 24.0977V29.749H183.787C184.436 29.749 184.972 29.5232 185.393 29.0685C185.813 28.6137 186.023 28.0398 186.023 27.3436V26.4874C186.023 25.8006 185.813 25.233 185.389 24.7783C184.966 24.3235 184.433 24.0977 183.787 24.0977H182.413V24.0977Z" fill="#242833"/>
<path d="M27.5073 29.0733C32.4852 29.0733 36.5205 25.0379 36.5205 20.0601C36.5205 15.0822 32.4852 11.0469 27.5073 11.0469C22.5295 11.0469 18.4941 15.0822 18.4941 20.0601C18.4941 25.0379 22.5295 29.0733 27.5073 29.0733Z" fill="#003A81"/>
<path d="M7.50175 23.5738C11.1217 23.5738 14.0562 20.6393 14.0562 17.0193C14.0562 13.3994 11.1217 10.4648 7.50175 10.4648C3.88181 10.4648 0.947266 13.3994 0.947266 17.0193C0.947266 20.6393 3.88181 23.5738 7.50175 23.5738Z" fill="#FCBA30"/>
<path d="M17.7131 10.8051C20.4272 10.8051 22.6274 8.60494 22.6274 5.89086C22.6274 3.17677 20.4272 0.976562 17.7131 0.976562C14.999 0.976562 12.7988 3.17677 12.7988 5.89086C12.7988 8.60494 14.999 10.8051 17.7131 10.8051Z" fill="#01C089"/>
</svg>
