<svg width="147" height="51" viewBox="0 0 147 51" fill="none" xmlns="http://www.w3.org/2000/svg">
<path d="M55.8952 24.9823C58.6852 24.9823 60.6952 26.4223 60.6952 28.9123C60.6952 31.1023 58.6552 32.6923 55.8952 32.6923H50.1352V24.9823H55.8952ZM50.1352 35.5723H55.8352L60.5152 43.2523H64.6552L59.3452 35.0323C62.2252 34.2823 64.2952 31.7623 64.2952 28.9123C64.2952 24.8623 60.9652 22.0123 56.3152 22.0123H46.5352V43.2523H50.1352V35.5723Z" fill="#023D4D"/>
<path d="M74.0245 27.4123C69.1345 27.4123 65.7445 30.8023 65.7445 35.6323C65.7445 40.4623 69.1345 43.8523 74.0245 43.8523C78.8845 43.8523 82.3045 40.4623 82.3045 35.6323C82.3045 30.8023 78.8845 27.4123 74.0245 27.4123ZM74.0245 40.9423C71.0845 40.9423 69.0145 38.7223 69.0145 35.6323C69.0145 32.5423 71.0845 30.3223 74.0245 30.3223C76.9345 30.3223 79.0645 32.5423 79.0645 35.6323C79.0645 38.7223 76.9345 40.9423 74.0245 40.9423Z" fill="#023D4D"/>
<path d="M87.419 27.4123C82.529 27.4123 79.139 30.8023 79.139 35.6323C79.139 40.4623 82.529 43.8523 87.419 43.8523C92.279 43.8523 95.699 40.4623 95.699 35.6323C95.699 30.8023 92.279 27.4123 87.419 27.4123ZM87.419 40.9423C84.479 40.9423 82.409 38.7223 82.409 35.6323C82.409 32.5423 84.479 30.3223 87.419 30.3223C90.329 30.3223 92.459 32.5423 92.459 35.6323C92.459 38.7223 90.329 40.9423 87.419 40.9423Z" fill="#023D4D"/>
<path d="M100.554 43.2523V34.3123C100.554 31.9123 101.994 30.3223 104.154 30.3223C106.254 30.3223 107.604 31.9123 107.604 34.3123V43.2523H110.874V34.3123C110.874 32.0023 112.404 30.3223 114.534 30.3223C116.604 30.3523 118.074 32.0023 118.074 34.3123V43.2523H121.314V34.0423C121.314 30.1723 118.794 27.4423 115.224 27.4423C113.034 27.4423 111.114 28.5523 110.064 30.2923C109.164 28.5523 107.184 27.4123 104.814 27.4123C102.984 27.4123 101.394 28.2823 100.434 29.7523V28.0123H97.2835V43.2523H100.554Z" fill="#023D4D"/>
<path d="M124.321 21.1123V43.2523H127.561V21.1123H124.321Z" fill="#023D4D"/>
<path d="M131.879 49.5223C132.659 49.8523 133.679 50.0323 134.549 50.0323C137.789 50.0323 139.139 47.1223 140.459 43.6123L146.429 28.0123H143.009L138.869 39.2623L134.099 28.0123H130.529L137.399 43.3123C136.619 45.2023 135.989 47.3023 133.889 47.3023C133.289 47.3023 132.539 47.1223 131.879 46.8823V49.5223Z" fill="#023D4D"/>
<path d="M19.2516 8.44098C24.0343 8.44098 27.6666 10.9231 27.6666 15.282C27.6666 19.2776 24.0343 21.9413 19.2516 21.9413H10.1707V8.44098H19.2516ZM10.1707 29.085H18.9489L27.4245 43.8567L38.8059 38.8567L28.3931 27.7531C34.0233 25.9369 37.8373 21.0938 37.8373 15.282C37.8373 6.68533 30.8752 0.752441 20.8862 0.752441H0V38.8567L10.1707 43.8567V29.085Z" fill="#40B680"/>
</svg>
