<svg width="142" height="47" viewBox="0 0 142 47" fill="none" xmlns="http://www.w3.org/2000/svg">
<g clip-path="url(#clip0)">
<path d="M19.7419 29.5513L7.81965 16.9019L2.63281 16.8792V45.2263H10.6423V32.1958L22.5909 45.9506H27.7476V16.2266H19.7419V29.5513Z" fill="#151F2F"/>
<path d="M83.0631 28.4384L73.9109 16.3548H68.7354V45.9506H76.6509V33.1993L81.0184 38.1301H85.0476L89.4865 33.1654V45.9506H97.402V16.4265L92.2528 16.2266L83.0631 28.4384Z" fill="#151F2F"/>
<path d="M137.156 20.4309C134.518 17.8316 130.985 16.3528 127.286 16.3037H116.206V44.7677H127.395C131.131 44.5753 134.664 43.021 137.341 40.3991C139.987 37.796 141.475 34.2347 141.475 30.5187C141.464 26.7047 139.904 23.0604 137.156 20.4309ZM124.107 23.9997H127.286C130.853 23.9997 133.443 26.7424 133.443 30.5187C133.443 34.1932 130.74 37.0717 127.286 37.0717H124.107V23.9997Z" fill="#151F2F"/>
<path d="M45.0406 37.8616C43.4432 37.0581 42.0412 35.915 40.9287 34.5116C36.907 29.362 37.8053 21.9188 42.9358 17.8821C44.3791 16.7466 46.0629 15.9656 47.8558 15.5959C50.8514 14.9508 53.9822 15.5167 56.5606 17.1766C56.6433 17.2257 56.7298 17.2672 56.8162 17.3124C56.9854 17.486 57.1808 17.6293 57.3988 17.735C57.4439 17.7878 57.4928 17.8368 57.5416 17.8821C61.4543 21.0435 62.9953 25.8498 61.552 30.6786C59.8193 36.3865 54.1251 39.9101 48.2654 38.8953C47.3897 38.7104 46.529 38.4765 45.6795 38.1936C45.4879 38.0502 45.2736 37.9446 45.0443 37.8729L45.0406 37.8616ZM55.2489 20.9756C55.388 21.5868 55.6247 21.6962 56.0532 21.3529C55.948 20.9756 55.948 20.9756 55.6097 20.9756H55.2339C55.4443 20.7417 55.7601 20.6323 56.0683 20.6889C56.3088 20.7228 56.4855 20.9303 56.4855 21.1756C56.5155 21.4095 56.6696 21.5528 56.7561 21.715C56.9741 21.9942 57.1432 22.3073 57.2635 22.6393C56.7974 22.3639 56.3953 22.0998 55.9668 21.8848C55.6323 21.7188 55.4518 21.8848 55.4706 22.2621C55.4744 22.4922 55.5721 22.711 55.7413 22.8657C55.6435 22.9826 55.5045 22.843 55.4293 22.9524C55.4293 23.043 55.4857 23.0694 55.5233 23.126C55.6924 23.3863 55.9217 23.6353 55.8728 23.9748C55.7939 24.518 55.8315 24.5709 56.3727 24.5746C56.5118 24.5784 56.6471 24.5256 56.7486 24.4275C56.8538 24.3445 57.0229 24.2351 57.1244 24.3822C57.3687 24.7595 57.6732 24.7369 58.0565 24.6614C58.2633 24.6237 58.4662 24.684 58.6579 24.5143C58.7895 24.4275 58.9624 24.4275 59.0939 24.5143C59.2443 24.6124 59.4209 24.6614 59.6013 24.6501C59.8118 24.6501 60.0035 24.7746 60.0862 24.9708C60.1689 25.1254 60.1952 25.348 60.4282 25.3857C60.447 25.3593 60.4658 25.3329 60.4771 25.3027C60.4883 25.2612 60.4883 25.2197 60.4771 25.1782C60.2215 24.669 59.8945 24.171 60.2553 23.5711C60.2929 23.507 60.2553 23.4051 60.2553 23.3221C60.2553 23.2391 60.2065 23.0694 60.3418 22.9864C60.7176 23.1637 61.1724 24.1182 61.0145 24.4615C60.9958 24.4954 60.9657 24.5218 60.9281 24.5369C60.6086 24.6991 60.7214 24.8878 60.8755 25.1028C60.977 25.2386 61.2175 25.348 61.1386 25.5329C61.0409 25.8347 61.0784 26.1667 61.2438 26.4383C61.3942 26.7552 61.4092 27.1173 61.2889 27.4456C61.0672 27.8756 60.8153 28.2906 60.5372 28.6867C60.0486 29.4412 59.8569 30.3844 59.0977 30.9503L59.3457 31.3803C59.0714 31.6821 58.8684 32.0405 58.7519 32.4329C58.703 32.6517 58.5414 32.8252 58.3272 32.8931C58.1468 32.9686 57.9212 33.0063 57.8461 33.244C57.6206 33.9419 57.0943 34.4323 56.6283 34.9492C56.5343 35.051 56.3276 35.1529 56.4892 35.3264C56.6508 35.5 56.7448 35.9187 57.1019 35.8659C57.6393 35.8131 58.143 35.5717 58.5226 35.1869C59.9922 33.6326 61.0145 31.7086 61.4844 29.6186C61.5934 29.147 61.9204 28.6037 61.334 28.1774C61.8414 27.9284 61.7099 27.5021 61.7099 27.1211C61.7099 26.7401 61.3979 26.4307 61.3754 26.0648C61.4656 25.9441 61.5746 26.1063 61.6497 26.0082C61.5934 24.3558 60.7026 22.0508 59.5262 20.4625C59.1353 19.8891 58.6316 19.4025 58.0453 19.0327C57.3311 18.6102 56.5757 18.2707 55.7901 18.0141C55.4143 17.8934 55.076 17.6822 54.7114 17.5614C54.3092 17.452 53.9371 17.2521 53.6289 16.9729C53.3583 16.7126 52.9298 16.6636 52.6254 16.4221C52.6254 16.4033 52.5502 16.4221 52.5164 16.4221C52.5164 16.5164 52.6667 16.5315 52.6254 16.6447C52.3623 16.5693 52.0842 16.5579 51.8173 16.6183C52.0278 17.0408 51.5317 17.0333 51.4414 17.3087C52.0015 17.95 52.9186 17.7463 53.5726 18.2254C53.3884 18.6517 53.8996 18.6743 54.0612 18.9196C53.8394 19.1874 53.8169 19.195 53.6853 18.9196C53.6327 18.8026 53.5726 18.7347 53.4523 18.7272C53.1027 18.7309 52.8096 18.9988 52.772 19.3496C52.772 19.4968 52.7457 19.6439 52.7269 19.8401C52.351 19.6892 52.1481 20.1192 51.8098 20.0815C51.7647 20.2173 51.7647 20.3607 51.8098 20.4965C52.2007 20.5418 52.5953 20.5569 52.99 20.5418C53.3283 20.5418 53.426 20.4324 53.4711 20.1645C53.3959 19.9834 53.2155 19.9872 53.0952 19.8929C53.1779 19.6364 53.0952 19.244 53.5989 19.2968C53.4899 19.5119 53.565 19.7005 53.5425 19.8853C53.7943 19.8853 54.0424 19.9457 54.0048 19.5571C54.1664 19.6213 54.2641 19.8023 54.437 19.6892C54.6099 19.576 54.4633 19.3647 54.5987 19.2478C54.7001 19.2666 54.7716 19.3572 54.764 19.4628C54.764 19.6288 54.7979 19.8401 54.6776 19.9382C54.5009 20.1192 54.2228 20.074 53.9973 20.1532C53.6477 20.2739 53.4899 20.3267 53.5838 20.704C53.6778 21.0812 53.659 21.6056 54.1326 21.8358C54.1627 21.8622 54.189 21.8961 54.2002 21.9338C54.4408 22.5903 54.655 22.7374 55.2978 22.6884C55.3504 22.296 55.3504 21.9037 55.2978 21.5113C55.2639 21.5075 55.2339 21.5075 55.2 21.5113C54.5799 21.6849 54.1777 21.334 54.3168 20.7228C54.3468 20.5908 54.2604 20.5191 54.2416 20.4135L54.3092 20.3079C54.4972 20.3984 54.546 20.5984 54.6438 20.7228C54.6438 20.8511 54.4295 20.7228 54.4821 20.919C54.625 21.0511 54.7903 21.1567 54.967 21.2397C55.1173 21.1831 55.0948 20.9681 55.2677 20.9643L55.2489 20.9756ZM50.0057 27.1098C49.4532 26.7854 49.0735 25.8535 49.3479 25.4763C49.4757 25.5216 49.4682 25.7404 49.6524 25.714C49.7501 25.6989 49.814 25.6083 49.8027 25.514C49.8027 25.5102 49.8027 25.5065 49.7989 25.4989C49.72 24.7595 49.5434 24.0314 49.2765 23.3372C49.0623 22.8128 48.3519 22.7638 47.7731 23.0543C47.6716 23.1033 47.525 23.1222 47.5213 23.292C47.5175 23.4617 47.7205 23.4391 47.8219 23.507C47.9234 23.5749 48.0249 23.507 48.0587 23.6466C47.8896 23.7862 47.5739 23.4995 47.5025 23.8541C47.2581 23.624 47.1943 23.2618 47.3446 22.96C47.2506 22.7827 47.074 23.0279 47.0176 22.8393C46.9424 22.6167 46.886 22.3903 46.856 22.1564C46.8372 21.9527 47.0326 21.881 47.198 21.8848C47.6002 21.915 47.9497 21.6094 47.976 21.2057C47.9836 21.119 47.9723 21.0322 47.9497 20.9492C47.6754 21.1114 47.7205 21.4585 47.5175 21.6169C47.3145 21.7754 47.0589 21.8735 46.8485 21.5868C47.3859 21.0209 47.4235 20.7945 47.0101 20.455C47.1529 20.3909 47.3333 20.3795 47.3859 20.2173C47.5213 19.7344 48.2467 19.4628 47.8558 18.78C47.8069 18.6593 47.8332 18.5234 47.9272 18.4329C48.1001 18.233 48.3106 18.067 48.5473 17.9462C49.3592 17.5463 50.2199 17.2483 51.1069 17.0635C51.2573 17.0408 51.3588 16.9012 51.3362 16.7503C51.3362 16.7428 51.3324 16.7315 51.3324 16.7239C51.0017 16.8107 50.7724 16.5655 50.5093 16.4787C49.8929 16.3203 49.2652 16.226 48.63 16.192C48.6037 16.4108 48.8217 16.4485 48.7992 16.6108C48.6789 16.7503 48.4759 16.7805 48.3181 16.6824C47.9911 16.5127 47.5964 16.5428 47.3033 16.7654C47.0589 16.8937 46.8259 17.0484 46.5891 17.188C46.5553 17.203 46.5215 17.2106 46.4876 17.2106C46.4087 17.1163 46.5064 16.9767 46.3862 16.905C46.0742 16.9012 45.7735 17.0257 45.5518 17.2483C45.0819 17.5954 44.552 17.8519 43.9919 18.0028C43.1463 18.282 42.3945 18.7913 41.8157 19.4704C40.6919 20.6814 39.8387 22.1149 39.3088 23.6805C39.1471 24.0917 39.087 24.5369 39.1359 24.9783C39.2373 25.7102 39.3839 26.4458 39.0306 27.1739C39.1922 27.223 39.3651 27.223 39.5267 27.1739C40.1281 27.023 40.7671 27.1626 41.2519 27.5512C41.5188 27.77 41.8345 27.9247 42.1728 28.0001C42.5486 28.0944 42.8982 28.1925 43.2778 28.2982C42.7328 28.8791 42.4998 28.9319 41.8082 28.6415C41.7218 28.6075 41.6203 28.6075 41.5338 28.6415C41.1166 28.7584 41.158 29.0866 41.158 29.396C41.6052 29.562 42.1352 29.3469 42.4133 29.992C42.6501 30.5466 42.5035 30.9125 42.2104 31.4294L41.7368 30.8296C41.6353 30.9918 41.609 31.1879 41.6691 31.369C41.8646 32.3046 42.2517 33.1874 42.7967 33.9683C43.0899 34.3079 43.2252 34.753 43.1726 35.1982C43.1463 35.4321 43.244 35.666 43.4357 35.8056C43.8454 36.1489 44.2212 36.5261 44.5632 36.9373C44.8564 37.3372 45.1984 37.805 45.7547 37.8692C46.2358 37.9144 46.7056 38.0427 47.1416 38.2464C47.2506 37.8918 47.3596 37.59 47.431 37.2844C47.5476 36.8091 47.9723 37.092 48.2467 36.9072C48.1377 36.6544 48.0211 36.3979 47.9009 36.1225C48.3106 35.8923 48.7278 35.7075 48.848 35.2397C49.2803 35.2133 49.6937 35.168 50.1072 35.1718C50.3552 35.1718 50.5131 35.1039 50.5732 34.8511C50.7724 34.9454 50.9303 35.0284 51.0957 35.0963C51.261 35.1642 51.4227 35.3642 51.5805 35.2849C52.2082 34.9794 52.8923 34.7153 53.1666 33.9834C53.2606 33.7269 53.3846 33.4854 53.5425 33.2629C52.866 32.8403 52.3398 32.2141 52.0391 31.4709C51.994 31.3351 51.9338 31.2106 51.8511 31.0936C51.5354 30.6485 51.3475 30.075 50.6897 29.9619C50.5356 29.9468 50.4003 29.8562 50.3327 29.7166C50.5319 29.7695 50.7273 29.8411 50.9265 29.8789C51.3475 29.9543 51.5354 29.7808 51.5091 29.3658C51.4527 28.4717 51.4527 28.4717 50.5507 28.434C50.5018 28.4302 50.4529 28.4189 50.4078 28.4C50.2688 28.0228 50.5582 27.8002 50.6822 27.521C50.4943 27.2909 50.1523 27.3626 49.9831 27.1438C50.359 27.057 50.6935 27.2909 51.0844 27.2041C50.7085 26.8042 50.6747 26.1968 50.9979 25.7554L50.5619 25.5102C50.6183 26.1855 50.032 26.559 49.9869 27.1475L50.0057 27.1098ZM50.7198 21.5905C51.0543 21.5226 51.0957 21.6999 51.1182 21.9338C51.1182 22.379 51.6031 22.6355 51.5993 23.092C51.5993 23.1297 51.667 23.1826 51.7158 23.2052C52.1932 23.4051 52.678 23.5787 53.1742 23.722C53.441 23.7975 53.6891 23.9258 53.9033 24.0993C54.0198 24.1974 54.1251 24.4086 54.3092 24.2766C54.4558 24.1597 54.5085 23.9635 54.4408 23.7899C54.2754 23.3033 54.2529 22.7261 53.5876 22.5676C53.3809 22.5148 53.3884 22.1149 53.3207 22.0734C52.9449 21.832 53.0652 21.5226 53.0877 21.1982C53.0877 20.9492 52.9562 20.7945 52.6818 20.787C52.2909 20.7908 51.9 20.7681 51.5129 20.7191C51.3362 20.6851 51.1558 20.7493 51.043 20.8888C50.8739 21.0662 51.1671 21.1039 51.1859 21.2284C51.0693 21.3642 50.8551 21.334 50.7198 21.6056V21.5905ZM42.5637 35.5868C42.7065 34.8322 42.466 34.4059 41.7518 34.1079C41.5677 34.5455 42.0939 35.5038 42.5637 35.5868ZM54.6701 25.9403C54.3356 26.2346 53.8469 26.4458 53.9822 26.9212C54.0725 27.2268 54.4633 27.2456 54.8091 27.2117C54.7377 26.7703 54.4859 26.3855 54.6701 25.9403ZM60.7815 25.3216C60.5936 25.4046 60.4583 25.5668 60.4057 25.7668C60.1313 26.4345 60.4245 27.1588 60.1989 27.8341C60.65 27.4342 60.4996 26.8948 60.5109 26.4156C60.4959 26.1516 60.556 25.8913 60.68 25.6611C60.7402 25.563 60.868 25.4838 60.7665 25.2839L60.7815 25.3216ZM51.6407 36.5337C51.4978 36.8694 51.5918 37.258 51.8737 37.4881C51.9489 37.5409 52.0165 37.6277 52.1255 37.5636C52.2195 37.5032 52.2759 37.3976 52.2683 37.2882C52.2946 36.8317 51.9338 36.7223 51.6407 36.5337ZM56.6133 27.7172C57.0605 27.6681 57.1695 27.5021 57.1432 26.94C56.6358 26.8985 56.5043 27.0834 56.6133 27.7172ZM52.1706 23.7937C52.0353 23.9144 51.8549 23.9673 51.6745 23.9408C51.5655 23.9182 51.4941 23.9974 51.4527 24.0917C51.4227 24.1559 51.4452 24.2351 51.5053 24.2728C51.6858 24.3634 51.8812 24.4803 52.0804 24.3483C52.2796 24.2162 52.3285 24.0955 52.1706 23.7937ZM50.1372 21.5302L49.5847 21.4095C49.5246 21.5453 49.7238 21.549 49.6749 21.6622L49.2427 21.7603C49.2991 21.9829 49.5283 22.1187 49.7501 22.0621C49.9681 21.9716 50.1147 21.7641 50.1259 21.5302H50.1372ZM56.2712 29.6789C56.1096 29.9166 56.1096 30.2297 56.2712 30.4674C56.5531 30.3768 56.7561 30.1316 56.8012 29.8374L56.2712 29.6789ZM53.8996 28.7735C53.6064 28.7245 53.3508 28.4906 53.0915 28.7546C53.0313 28.815 53.0276 28.9131 53.0877 28.9734C53.1103 28.9961 53.1403 29.0112 53.1704 29.0187C53.4448 29.113 53.7304 29.2224 53.8996 28.7735ZM48.1301 19.4251C48.1565 19.5949 48.2467 19.7458 48.3857 19.8438C48.4872 19.9268 48.6376 19.9193 48.7278 19.8212C48.7841 19.7608 48.9044 19.6967 48.8217 19.5835C48.739 19.4704 48.7014 19.3572 48.6188 19.4364C48.4383 19.6175 48.3218 19.3534 48.1301 19.4364V19.4251ZM51.6256 26.7891C51.3776 26.6156 51.4414 26.1931 51.0318 26.3251C51.0656 26.7967 51.1032 26.8344 51.6256 26.7891ZM56.6471 24.9858C56.4404 25.1217 56.3577 25.2197 56.4704 25.4272C56.6584 25.3442 56.6959 25.2311 56.6471 24.9858Z" fill="#AFAFAF"/>
<path d="M46.2516 28.1811C46.5523 28.1547 46.6275 28.498 46.9169 28.5584C46.9883 28.5584 46.9507 28.8338 46.8305 28.9356L46.7027 29.0413C46.6463 29.0865 46.5711 29.1243 46.62 29.2148C46.7027 29.2337 46.7403 29.1809 46.7854 29.1356L46.9357 29.0375L48.379 28.1849C48.285 28.5622 47.9054 28.7055 47.6837 28.9922C47.7739 29.0865 47.6837 29.2563 47.8415 29.3431C48.0294 28.9809 48.3527 28.7055 48.7436 28.5886C49.0818 28.4792 49.4539 28.581 49.6907 28.8451C49.9764 29.0903 50.1944 29.411 50.3147 29.7694C50.2508 29.7694 50.1606 29.7694 50.1192 29.743C49.6268 29.3355 49.2209 29.4978 48.8601 29.9241C48.7586 30.1051 48.5293 30.173 48.3489 30.0712C48.3001 30.0448 48.2587 30.007 48.2287 29.9656C47.849 29.626 47.3078 29.5355 46.838 29.7354C46.7365 29.7807 46.62 29.7882 46.5147 29.7581L44.1807 28.9206C44.6618 28.6452 45.0714 28.449 45.5601 28.7847C45.763 28.9507 46.06 28.9356 46.2441 28.747C46.4283 28.5622 46.184 28.3698 46.2704 28.2L46.2516 28.1811Z" fill="#AFAFAF"/>
<path d="M49.0856 26.3271C48.7623 25.9876 48.176 26.1385 48.1121 25.5349C48.1121 25.3538 48.161 25.3048 48.2925 25.267C48.2662 25.0935 48.0031 25.0746 48.0444 24.8558C48.191 24.8143 48.2963 24.9464 48.4203 24.9501C48.7022 24.6521 48.6421 24.2635 48.7285 23.9014C48.8037 24.256 49.0292 24.5729 48.8225 24.9652C48.6045 25.2444 48.6533 25.6443 48.9315 25.8593C48.9653 25.8857 49.0029 25.9121 49.0442 25.931C49.1758 26.0253 49.1156 26.1159 49.078 26.3083" fill="#AFAFAF"/>
<path d="M46.2818 28.1914C45.8533 27.9462 45.4436 27.6708 45.0527 27.369C45.2294 27.0672 45.624 26.9917 45.6804 26.6484C45.9097 26.8484 45.9097 26.8484 45.6428 27.0936C45.8157 27.3237 45.9999 27.0332 46.2141 27.1313C46.3795 27.4633 46.4021 27.8481 46.2743 28.199L46.2818 28.1914Z" fill="#AFAFAF"/>
<path d="M50.3187 39.9198C43.3879 39.9047 37.7838 34.2496 37.7989 27.293C37.8139 20.3364 43.448 14.7115 50.3788 14.7266C57.2984 14.7417 62.8987 20.3779 62.8987 27.3232C62.8836 34.2836 57.257 39.9198 50.3187 39.9198ZM50.3187 15.964C44.0682 15.9791 39.0129 21.0834 39.0279 27.3571C39.0429 33.6309 44.1283 38.705 50.3788 38.6899C56.6218 38.6748 61.6734 33.5894 61.6696 27.3232C61.6546 21.0419 56.5767 15.9602 50.3187 15.964Z" fill="#151F2F"/>
<path d="M51.2461 42.1203L53.7494 41.6902H53.802C55.0987 41.3469 56.3465 40.8414 57.5155 40.1812C58.2784 39.7436 59.0039 39.238 59.6804 38.6722L60.0863 38.3289L58.1544 36.0653L57.3538 36.7482L58.5942 38.2119C58.0868 38.6118 57.5493 38.974 56.9893 39.2984C55.9068 39.9133 54.7491 40.3849 53.5464 40.7056L51.1447 41.1206H50.8778L48.9985 41.0526C43.0374 40.566 38.0422 36.3369 36.5576 30.5234C35.3398 25.6115 36.8771 20.4205 40.5755 16.9799L41.9662 18.372L42.7179 17.6175L40.6357 15.5312L40.2598 15.8444C36.0088 19.5264 34.1822 25.2946 35.539 30.7649C37.1402 36.9745 42.4698 41.4978 48.8369 42.0486V44.6328C45.364 44.7271 42.7292 45.1911 42.7292 45.7646C42.7292 46.338 45.3602 46.7869 48.8369 46.8963H49.3142H50.1336C54.2229 46.8963 57.538 46.3871 57.538 45.7646C57.538 45.1421 54.6514 44.6932 50.9455 44.6328V42.1354H51.2537" fill="#151F2F"/>
<path d="M8.79677 30.8551C8.23674 30.8928 7.95485 30.1534 7.94357 29.9761C7.92478 29.6743 7.92478 29.3762 7.94357 29.0744C7.94733 28.75 7.89471 28.4293 7.78571 28.1275C7.66543 27.8031 7.59402 27.4635 7.57523 27.1202C7.57523 27.0485 7.5865 26.9769 7.60154 26.909C7.70302 26.5242 7.75188 26.128 7.75188 25.7282C7.74061 25.2528 7.70678 24.7775 7.64664 24.3059C7.58651 23.6947 7.42864 23.0949 7.41737 22.48C7.41361 22.0612 7.43616 21.6462 7.47751 21.2313C7.51509 20.7748 7.5414 20.3183 7.57147 19.8618C7.57523 19.7788 7.55268 19.692 7.51133 19.6204C7.3422 19.2507 7.21441 18.8659 7.13548 18.466C7.05654 18.1528 6.9513 17.8435 6.82351 17.5455C6.80848 17.504 6.76713 17.4776 6.72579 17.4776C6.58672 17.4511 6.4439 17.4361 6.30107 17.4361C5.86132 17.4285 5.42156 17.4625 4.98557 17.5304C4.66233 17.6058 4.33157 17.6058 4.00834 17.5304C3.79034 17.47 3.59113 17.3606 3.422 17.2097C3.18521 16.9947 2.98976 16.7381 2.83942 16.4552C2.62142 16.044 2.49363 15.5913 2.46356 15.1272C2.42597 14.3576 2.54625 13.588 2.80935 12.8637C2.84693 12.792 2.83566 12.7053 2.77928 12.6449C2.64021 12.4902 2.51618 12.3205 2.40342 12.1469C2.29442 11.8866 2.25308 11.6037 2.28315 11.3207C2.26811 10.702 2.20422 10.0871 2.09898 9.47972C2.02756 9.09869 1.89977 8.73275 1.72312 8.38945C1.69305 8.3404 1.65922 8.29891 1.61788 8.26118C1.50888 8.15555 1.50512 7.98201 1.61036 7.87261C1.61412 7.86883 1.61412 7.86883 1.61788 7.86506C1.65546 7.83111 1.66674 7.77452 1.64043 7.72925C1.55022 7.4878 1.50888 7.23127 1.50888 6.97474C1.50512 6.66161 1.61788 6.35981 1.82084 6.12214C1.98998 5.92974 2.21925 5.80147 2.47108 5.76374C2.84693 5.70715 3.204 5.57889 3.531 5.38649C3.59113 5.35253 3.60993 5.31481 3.54979 5.26199C3.48965 5.20918 3.50093 5.22804 3.531 5.20163C3.60617 5.12241 3.6212 5.00546 3.5761 4.90737C3.5761 4.86965 3.59489 4.84324 3.60241 4.79797C3.55355 4.82815 3.52348 4.83569 3.56482 4.9036C3.59113 4.97528 3.57234 5.0545 3.51596 5.10732C3.46334 5.14882 3.51596 5.26954 3.4032 5.25067C3.37689 5.2054 3.4032 5.16391 3.4032 5.12241C3.4032 5.08091 3.33179 5.3714 3.29045 5.37894C3.33555 5.08468 3.12131 5.37894 3.12131 5.37894C3.12131 5.37894 3.25662 5.08091 3.25662 5.05827C3.14762 5.12241 3.05366 5.20918 2.98224 5.31481C2.94842 5.37517 2.89204 5.42044 2.82814 5.44308C2.85821 5.41289 2.88828 5.37517 2.91083 5.33744L2.65901 5.36762C2.65901 5.33744 2.90707 5.27708 2.91835 5.26576C3.02359 5.19409 3.095 5.07714 3.11379 4.94887C2.94842 4.89983 2.3057 5.26954 2.09898 5.19786C2.33201 5.11486 3.05742 4.86587 3.07245 4.60934C3.02735 4.60934 3.0048 4.6282 2.986 4.65084C2.64397 4.83947 2.27187 4.96773 1.8885 5.02809C2.09898 4.92246 2.75297 4.60557 2.94466 4.48107C2.97849 4.46221 3.00104 4.42448 3.03862 4.41317C3.24159 4.33017 3.26038 4.14909 3.27917 3.97178C3.32427 3.6662 3.313 3.35308 3.24534 3.05504C3.20776 2.87773 3.21152 2.6891 3.26414 2.51557C3.36562 2.15717 3.4671 1.79878 3.57986 1.44416C3.6851 1.16876 3.82792 0.904681 4.00082 0.667009C4.12485 0.474609 4.35037 0.372749 4.57588 0.410475C4.71119 0.425565 4.84274 0.38784 4.95174 0.308616C5.10208 0.199211 5.30129 0.199211 5.45163 0.308616C5.50801 0.338796 5.56815 0.350114 5.63204 0.346341C5.86507 0.395385 6.0718 0.531197 6.21462 0.723598C6.24845 0.772641 6.30107 0.802822 6.36121 0.799049C6.65814 0.791504 6.93251 0.972587 7.03399 1.25553C7.09037 1.39134 7.20689 1.48943 7.24823 1.63279C7.29709 1.84028 7.33468 2.05154 7.35723 2.26658C7.40609 2.59102 7.48878 2.90791 7.54892 3.22858C7.59402 3.46625 7.60154 3.7077 7.57147 3.94537C7.57147 4.02082 7.52637 4.08872 7.45871 4.11891C7.38354 4.14531 7.36099 4.2019 7.32716 4.25849C7.29334 4.31508 7.27454 4.21322 7.2783 4.17549C7.31589 3.97932 7.32716 3.79824 7.37978 3.59075C7.42113 3.51152 7.42113 3.41344 7.37978 3.33421C7.31965 3.33421 7.33092 3.38703 7.3234 3.41721C7.25951 3.6662 7.21065 3.91519 7.13548 4.17172C7.09037 4.36412 7.09037 4.56784 7.13548 4.76024C7.18434 4.98282 7.26703 5.19786 7.29709 5.42799C7.29709 5.46571 7.32716 5.47326 7.35723 5.48457C7.48502 5.5223 7.60906 5.57134 7.73309 5.62416C7.95485 5.7562 8.13526 5.9486 8.25177 6.17872C8.45474 6.50317 8.58253 6.86533 8.62763 7.24636L8.79301 7.18977C8.89073 7.15959 8.93584 7.18977 8.91328 7.29163C8.82308 7.83111 8.87946 8.38567 9.0749 8.89497C9.27787 9.56649 9.58231 10.2003 9.97696 10.7813C10.0897 10.9774 10.1649 11.1925 10.1987 11.415C10.1987 11.5018 10.2288 11.5924 10.3453 11.6112C10.3603 11.615 10.3716 11.6263 10.3829 11.6376C10.4731 11.8074 10.646 11.8074 10.8038 11.8338C10.9053 11.8338 11.0068 11.864 11.0557 11.9734C11.518 11.9734 11.954 11.8338 12.405 11.7885L12.7809 11.7093L15.3029 11.2415H15.3856C15.5622 11.2189 15.6411 11.317 15.5735 11.4905C15.378 11.9998 15.1976 12.5053 14.9834 12.9995C14.7203 13.6786 14.4647 14.3652 14.1903 15.0405C14.1415 15.1876 14.1114 15.3385 14.1039 15.4932C14.1039 15.58 14.04 15.6479 13.9535 15.6592L11.6195 16.1647L10.2852 16.4552L10.225 16.4778C10.2701 16.6966 10.3453 16.9079 10.4017 17.1229C10.4581 17.2701 10.5708 17.387 10.7136 17.4474C10.8151 17.504 10.8903 17.5983 10.9241 17.7115C10.9316 17.7303 10.9392 17.7454 10.9504 17.7605C11.4917 18.4358 11.9577 19.1714 12.3374 19.9524C12.5741 20.3749 12.8974 20.7521 13.1605 21.1596C13.2244 21.2539 13.3071 21.3369 13.401 21.4048C13.6002 21.5632 13.7694 21.7519 13.9047 21.9669C14.2956 22.5781 14.7654 23.1326 15.3029 23.6193C15.7276 23.9965 16.0546 24.5436 15.7765 24.9246C15.2954 25.5848 14.4647 24.9699 14.273 24.7963C13.9874 24.5172 13.7355 24.204 13.5213 23.8645C13.3296 23.5627 13.0816 23.3024 12.8899 23.0006C12.841 22.9289 12.7959 22.8535 12.7546 22.778C12.6268 22.5479 12.4727 22.3328 12.296 22.1367C11.7097 21.518 11.082 20.9408 10.4167 20.4126C10.1461 20.1674 9.883 19.9184 9.6199 19.6317C9.58983 19.7562 9.57104 19.8807 9.56728 20.0089C9.64997 20.5597 9.68379 21.1143 9.665 21.6689C9.62366 22.3178 9.54473 22.9629 9.42445 23.6004C9.32297 24.1701 9.25156 24.7322 9.19518 25.3207C9.19518 25.4603 9.15759 25.6037 9.13504 25.7432C9.10121 25.8866 9.08994 26.0337 9.09745 26.1809C9.10873 26.2639 9.09745 26.3469 9.07114 26.4261C9.06363 26.4676 9.06363 26.5128 9.07114 26.5543C9.05235 27.0825 9.12752 27.6107 9.2929 28.1124C9.40942 28.4746 9.49962 28.8443 9.556 29.2215C9.61614 29.5234 9.61614 29.8365 9.556 30.1383C9.51842 30.1835 9.37183 30.8173 8.79677 30.8551ZM3.27541 4.73761C3.22655 4.77533 3.18897 4.8206 3.15514 4.87342C3.19648 4.88096 3.2491 4.76779 3.27541 4.73761ZM3.37689 4.49239C3.37689 4.56784 3.26038 4.59425 3.29045 4.68479C3.36186 4.63952 3.35058 4.55652 3.38065 4.49239H3.37689ZM7.93981 10.1286C7.84585 10.2229 7.73685 10.3021 7.61657 10.3587C7.53388 10.4002 7.48502 10.4832 7.48502 10.5738C7.48126 10.8529 7.44744 11.1283 7.3873 11.4C7.33092 11.5924 7.36099 11.7998 7.46999 11.9696C7.71805 12.3733 7.92478 12.7996 8.09391 13.2447C8.16533 13.4824 8.2405 13.7201 8.31567 13.9578C8.31567 13.9917 8.31567 14.0332 8.36829 14.0445C8.49232 14.0634 8.60884 13.9917 8.65018 13.8748C8.76294 13.4183 8.87194 12.958 8.99597 12.5053C9.04108 12.3506 8.99597 12.1846 8.8757 12.0752C8.63515 11.8413 8.46601 11.5395 8.39084 11.2113C8.28184 10.8341 8.1315 10.4681 7.93981 10.1286ZM6.80848 1.13481C6.74082 1.0254 6.60927 0.97636 6.48524 1.01031C6.54914 1.17631 6.68445 1.13481 6.80848 1.13481ZM7.03399 4.4358C6.98889 4.58293 6.87989 4.72629 7.00017 4.91114C6.98889 4.74892 7.00017 4.59048 7.03399 4.4358ZM3.09876 4.76024C3.0499 4.76024 3.02359 4.78288 3.04238 4.82815C3.06117 4.87342 3.08373 4.80551 3.08748 4.76024H3.09876ZM7.44368 4.03591C7.44368 4.07363 7.42113 4.08495 7.44368 4.10382V4.03591Z" fill="#01C089"/>
<path d="M112.511 19.7934C112.47 19.9405 112.455 20.0952 112.47 20.2461C112.477 20.2762 112.489 20.3027 112.507 20.3253C112.545 20.3743 112.594 20.4196 112.564 20.4951C112.564 20.4951 112.564 20.5177 112.564 20.529C112.568 20.2762 112.549 20.0235 112.5 19.7745L112.511 19.7934ZM118.92 7.35898C118.972 7.29107 119.002 7.20808 119.002 7.12131C118.983 7.12131 119.002 7.15149 118.976 7.14772C118.95 7.14394 118.976 7.0949 118.976 7.06095C118.953 7.17412 118.912 7.27598 118.901 7.38539C118.882 7.4118 118.837 7.4118 118.829 7.44575C118.901 7.5627 118.983 7.48348 119.062 7.46461C119.141 7.44575 119.085 7.3703 119.111 7.3288C119.111 7.35521 119.111 7.38916 119.111 7.42689C119.145 7.39293 119.171 7.35144 119.19 7.30617C119.19 7.41557 119.074 7.46461 119.07 7.56647C119.111 7.54006 119.149 7.50234 119.175 7.46084C119.156 7.52497 119.115 7.58156 119.059 7.62306C119.074 7.6457 119.096 7.66456 119.119 7.67588C119.145 7.67588 119.16 7.63815 119.19 7.64192C119.22 7.6457 119.16 7.68342 119.164 7.70606C119.243 7.75887 119.262 7.86828 119.209 7.9475C119.198 7.96636 119.183 7.98145 119.164 7.99277C119.066 8.07954 119.062 8.10972 119.164 8.20781C119.209 8.25308 119.228 8.32098 119.209 8.38135L119.186 8.32476C119.104 8.38889 119.186 8.49075 119.134 8.56997C119.134 8.52848 119.153 8.48321 119.104 8.45302C119.085 8.51716 119.104 8.58884 119.036 8.63411C119.201 8.7586 119.352 8.90573 119.48 9.06795C119.63 9.23017 119.739 9.43012 119.792 9.64516C119.829 9.86396 119.855 10.0865 119.863 10.3091C119.885 10.4751 119.885 10.6487 119.863 10.8147C119.792 11.1881 119.694 11.5578 119.57 11.9162C119.532 12.0219 119.483 12.12 119.457 12.2256C119.419 12.3652 119.408 12.5161 119.427 12.6594C119.427 12.7198 119.506 14.4137 119.566 14.923C119.604 15.172 119.619 15.4247 119.615 15.6775C119.592 15.9076 119.585 16.1415 119.596 16.3716C119.6 16.4622 119.581 16.5527 119.54 16.6319C119.54 16.6319 119.521 16.6734 119.51 16.6734C119.427 16.6734 119.423 16.764 119.404 16.8243C119.386 16.9036 119.34 16.9753 119.273 17.0243C119.22 17.0469 119.171 17.0771 119.122 17.096C119.081 17.1111 119.051 17.1412 119.036 17.1827C118.98 17.3374 118.912 17.4921 118.856 17.6468C118.844 17.7109 118.784 17.7524 118.72 17.7486C118.611 17.7449 118.502 17.7524 118.393 17.7675C118.006 17.809 117.619 17.775 117.243 17.6769C116.92 17.594 116.616 17.4431 116.349 17.2393C116.247 17.1714 116.161 17.1299 116.052 17.2092H116.014C115.548 17.3601 115.063 17.4468 114.575 17.4619C114.304 17.4732 114.037 17.5298 113.785 17.6317C113.661 17.6769 113.665 17.6996 113.684 17.8279C113.74 18.058 113.782 18.2881 113.812 18.522C113.842 18.8125 113.827 19.1068 113.763 19.3897C113.676 19.7179 113.62 20.0537 113.59 20.3894C113.56 20.6422 113.533 20.8987 113.507 21.1439C113.47 21.4005 113.47 21.6646 113.507 21.9211C113.507 21.955 113.518 21.989 113.545 22.0154C113.594 22.0418 113.616 22.1022 113.597 22.155C113.594 22.1738 113.594 22.1965 113.597 22.2153C113.665 22.3738 113.665 22.5549 113.597 22.7133C113.71 22.7812 113.718 22.7888 113.688 22.9133C113.65 23.0529 113.609 23.1887 113.556 23.3207C113.533 23.3773 113.485 23.415 113.425 23.4226C113.353 23.4339 113.278 23.4339 113.206 23.4226C113.022 23.3962 112.838 23.3547 112.658 23.3056C112.526 23.3018 112.391 23.332 112.274 23.3924C111.82 23.5471 111.331 23.5471 110.876 23.3924C110.778 23.3698 110.7 23.2981 110.658 23.2075C110.624 23.1245 110.658 23.0793 110.733 23.0566C110.771 23.0453 110.809 23.0264 110.842 23.0038C110.895 22.9585 110.959 22.9284 111.027 22.9095C111.128 22.8944 111.222 22.8416 111.29 22.7624C111.354 22.702 111.447 22.6794 111.53 22.7058C111.519 22.7171 111.511 22.7284 111.504 22.7435C111.564 22.7435 111.598 22.7096 111.635 22.6794C111.797 22.5436 111.962 22.4077 112.135 22.3021C112.308 22.1814 112.44 22.0041 112.511 21.8041C112.53 21.7362 112.541 21.6646 112.541 21.5929C112.353 21.6457 112.154 21.657 111.962 21.6231C111.726 21.5891 111.485 21.6268 111.271 21.7362C110.895 21.9286 110.444 21.8985 110.102 21.6532C110.015 21.5966 109.944 21.5174 109.895 21.4231C109.854 21.359 109.873 21.276 109.933 21.2345C109.94 21.2307 109.948 21.2269 109.955 21.2232C109.985 21.2043 110.019 21.193 110.053 21.1854C110.072 21.1854 110.094 21.1854 110.098 21.1854C110.102 21.1854 110.155 21.1175 110.196 21.0949C110.245 21.076 110.286 21.0383 110.312 20.993C110.35 20.9063 110.455 20.8648 110.542 20.9025C110.56 20.91 110.587 20.91 110.606 20.9025C110.666 20.8459 110.741 20.8044 110.824 20.7818C110.842 20.778 110.861 20.7667 110.872 20.7478C110.963 20.6497 111.064 20.5705 111.181 20.5064C111.252 20.4686 111.305 20.4045 111.331 20.3291C111.342 20.2989 111.361 20.2687 111.384 20.2461C111.455 20.1744 111.511 20.0876 111.545 19.9895C111.774 19.4727 111.883 18.9068 111.853 18.3409C111.835 17.9863 111.846 17.6317 111.895 17.2808C111.936 17.0318 111.962 16.7791 111.974 16.5263C111.97 16.4094 111.977 16.2924 111.992 16.1755L112.094 15.6813C112.117 15.4059 112.308 15.172 112.571 15.0927L112.699 15.0663C112.646 15.0399 112.646 14.9758 112.605 14.9494C112.564 14.923 112.556 14.8739 112.553 14.8249C112.549 14.7758 112.553 14.7306 112.631 14.7268C112.549 14.7268 112.526 14.674 112.515 14.6099C112.507 14.5834 112.496 14.5608 112.485 14.5382L112.09 13.6931L111.481 12.4029C111.455 12.3576 111.44 12.3048 111.447 12.252C111.447 12.2218 111.447 12.1916 111.508 12.1879C111.639 12.1803 111.771 12.1803 111.902 12.1879C111.985 12.1879 112.056 12.2407 112.083 12.3199C112.459 13.1197 112.834 13.9157 113.21 14.7117C113.222 14.7457 113.255 14.7683 113.289 14.7645C113.481 14.7645 113.665 14.7645 113.86 14.7645C113.891 14.7645 113.921 14.7494 113.936 14.723C113.985 14.6287 114.056 14.5495 114.142 14.4929C114.203 14.4552 114.259 14.3873 114.33 14.3873C114.439 14.376 114.552 14.376 114.661 14.3873C114.717 14.4024 114.778 14.391 114.826 14.3571C114.913 14.3156 115.011 14.3156 115.097 14.3571C115.274 14.3948 115.458 14.3797 115.623 14.3118C115.841 14.1949 116.044 14.0477 116.221 13.8742C116.379 13.7459 116.51 13.5799 116.597 13.3951C116.683 13.2065 116.781 13.0178 116.875 12.8367C116.905 12.7877 116.927 12.7387 116.946 12.6858C116.976 12.5236 116.931 12.3576 116.818 12.2369C116.732 12.1237 116.668 11.9955 116.623 11.8597C116.589 11.7653 116.582 11.6673 116.6 11.5692C116.664 11.2711 116.762 10.9844 116.894 10.709C116.909 10.6788 116.916 10.6449 116.916 10.6109C116.901 10.4261 116.92 10.2412 116.976 10.0639C116.976 10.0413 116.976 10.0224 116.976 9.99978C116.988 9.90546 117.052 9.82247 117.142 9.79229C117.157 9.78851 117.168 9.7772 117.172 9.7621C117.172 9.6942 117.239 9.66779 117.296 9.64516C117.326 9.63761 117.356 9.62252 117.382 9.60366C117.484 9.49048 117.619 9.4188 117.724 9.3094C117.83 9.19999 117.807 9.23772 117.758 9.1434C117.747 9.12454 117.739 9.10568 117.736 9.08304C117.702 8.92837 117.634 8.78124 117.54 8.65297L117.435 8.72465C117.296 8.81896 117.112 8.78501 117.01 8.65297L116.973 8.59638C116.946 8.55866 116.924 8.52848 116.867 8.53225C116.811 8.53602 116.803 8.4983 116.811 8.45302C116.818 8.40775 116.811 8.41907 116.811 8.39644C116.811 8.3738 116.717 8.39644 116.702 8.32853C116.679 8.2644 116.627 8.21158 116.563 8.19272C116.514 8.17385 116.461 8.14745 116.465 8.08709C116.465 7.95882 116.386 7.86073 116.386 7.73246C116.36 7.73246 116.352 7.77019 116.322 7.75887C116.292 7.74755 116.322 7.71737 116.322 7.69851C116.322 7.67965 116.285 7.62683 116.281 7.58156C116.281 7.54006 116.266 7.50234 116.236 7.47593C116.221 7.46461 116.213 7.44575 116.213 7.42689C116.213 7.31371 116.176 7.20431 116.161 7.0949C116.146 6.9855 116.161 6.97418 116.116 6.92891C116.116 6.92891 116.134 6.92891 116.153 6.92891C116.172 6.92891 116.123 6.87609 116.104 6.84968C116.104 6.88364 116.134 6.89873 116.104 6.92514C116.074 6.95154 116.052 6.87986 116.048 6.84591C116.044 6.81196 116.029 6.77801 116.01 6.7516C115.943 6.67615 115.984 6.60824 116.01 6.54411C116.055 6.44225 116.127 6.35171 116.217 6.28003C116.255 6.24985 116.281 6.21212 116.296 6.16685C116.311 6.12158 116.341 6.08008 116.386 6.06122C116.491 6.02726 116.567 5.92541 116.691 5.93295C116.717 5.93295 116.743 5.92163 116.766 5.90277C116.89 5.78959 117.063 5.78205 117.202 5.70282C117.232 5.69151 117.27 5.69151 117.3 5.70282L117.431 5.72169C117.675 5.74432 117.89 5.88768 118.01 6.09894C118.017 6.12535 118.036 6.14799 118.063 6.16308C118.115 6.18194 118.145 6.2423 118.126 6.29512C118.115 6.31021 118.115 6.3253 118.126 6.34039H118.183C118.168 6.30266 118.168 6.26494 118.183 6.22721C118.183 6.28757 118.183 6.33662 118.266 6.35171C118.288 6.35548 118.307 6.35548 118.329 6.35171C118.42 6.34039 118.51 6.35925 118.589 6.40075C118.773 6.49884 118.912 6.67237 118.965 6.87609C118.98 6.93268 118.987 6.99304 118.995 7.0534C119.021 7.19676 118.987 7.34389 118.893 7.45707" fill="#01C089"/>
<path d="M129.507 15.2246C129.466 15.3567 129.406 15.4849 129.33 15.6019C129.266 15.7151 129.184 15.8169 129.112 15.9263L128.879 16.3036L128.684 16.6318C128.612 16.7525 128.552 16.7148 128.492 16.6846C128.462 16.6695 128.443 16.6393 128.432 16.6092C128.417 16.5752 128.41 16.5413 128.402 16.5035C128.387 16.4432 128.368 16.3828 128.346 16.3262V16.3036C128.346 16.2847 128.319 16.2432 128.289 16.1753C128.259 16.1074 128.312 16.032 128.312 16.032C128.379 15.9792 128.342 15.9188 128.349 15.8999C128.346 15.8282 128.364 15.7528 128.406 15.6924C128.447 15.6094 128.312 15.4019 128.207 15.3152C128.056 15.1718 127.891 15.0436 127.714 14.9379C127.504 14.7946 127.282 14.6663 127.071 14.5229C126.985 14.4475 126.861 14.4324 126.76 14.4814C126.662 14.5192 126.56 14.5531 126.459 14.5758H126.41C126.387 14.8285 126.387 15.0775 126.41 15.3303C126.47 15.5529 126.557 15.7679 126.669 15.9678C126.752 16.1489 126.714 16.2734 126.523 16.3149C126.342 16.3451 126.162 16.364 125.982 16.3715C125.624 16.3941 125.267 16.4092 124.91 16.4243C124.869 16.4319 124.828 16.4205 124.794 16.3979C124.734 16.3451 124.764 16.2017 124.892 16.1414C125.019 16.081 125.034 15.9905 125.11 15.915C125.185 15.8396 125.2 15.8433 125.234 15.8509C125.403 15.9037 125.467 15.8056 125.564 15.6849C125.82 15.3642 125.613 15.0398 125.602 14.7191C125.572 14.5682 125.527 14.4173 125.463 14.2777C125.369 13.8816 125.346 13.4704 125.391 13.063C125.391 12.8404 125.538 12.6253 125.433 12.3877C125.399 12.3122 125.47 12.1953 125.504 12.0972C125.519 12.0519 125.542 12.0066 125.568 11.9651L125.369 11.8331L125.5 11.4558L125.455 11.4143C125.301 11.5011 125.158 11.603 125.027 11.7199C124.914 11.8633 124.745 11.9501 124.565 11.9651L124.474 12.2141C124.286 12.1613 124.177 11.9689 124.23 11.7841C124.23 11.7803 124.234 11.7765 124.234 11.769C124.234 11.5615 124.403 11.3917 124.61 11.3917C124.952 11.3087 125.181 10.988 125.155 10.6372C125.031 10.0751 125.064 9.48657 125.256 8.94332C125.297 8.82259 125.297 8.68678 125.256 8.56606C125.185 8.33216 125.188 8.29444 125.425 8.21144C125.44 8.20389 125.455 8.19635 125.467 8.18503C125.331 8.15485 125.158 8.1624 125.072 8.0794C124.985 7.9964 124.809 7.93227 124.892 7.78891L124.798 7.5701C124.798 7.5701 124.798 7.5701 124.798 7.55124C124.576 7.43052 124.798 7.27961 124.767 7.17398C124.741 7.03063 124.67 6.89859 124.568 6.79673C124.403 6.63828 124.335 6.5251 124.444 6.32893C124.523 6.20821 124.621 6.0988 124.73 6.00449C124.813 5.92904 124.899 5.86113 124.993 5.80077C125.046 5.76304 125.106 5.70646 125.166 5.70646C125.365 5.67627 125.561 5.61591 125.741 5.52914C125.974 5.44992 126.226 5.44992 126.459 5.52914C126.711 5.61591 126.729 5.85359 126.835 6.02335C126.94 6.17803 127.034 6.33647 127.117 6.50247C127.162 6.57415 127.188 6.65714 127.192 6.74014C127.184 6.98158 127.105 7.21171 126.966 7.40788C126.88 7.49088 126.782 7.55878 126.681 7.61915C126.613 7.67951 126.557 7.75119 126.466 7.8455C126.538 7.85304 126.609 7.86436 126.681 7.88323C126.722 7.88323 126.778 7.95113 126.775 7.98131C126.76 8.20767 126.85 8.42647 127.015 8.58115C127.105 8.69433 127.173 8.82259 127.218 8.95841C127.323 9.22626 127.47 9.47525 127.662 9.69028C127.846 9.93927 127.974 10.2222 128.037 10.524C128.105 10.7579 128.158 10.9956 128.199 11.237C128.252 11.4332 128.323 11.6181 128.413 11.7991C128.47 12.0104 128.477 12.2368 128.436 12.4518C128.436 12.4895 128.244 12.5159 128.139 12.5273C128.083 12.5235 128.03 12.5122 127.981 12.4858V12.1085H127.925L127.88 12.399H127.838C127.819 12.3688 127.786 12.3386 127.782 12.3084C127.771 12.1085 127.771 11.9048 127.782 11.7048C127.793 11.3389 127.699 10.9767 127.511 10.6636C127.444 11.0409 127.368 11.3993 127.654 11.7162L127.489 11.7652C127.489 11.7652 127.489 11.7991 127.489 11.8142C127.583 12.0217 127.56 12.2594 127.436 12.448C127.417 12.4707 127.406 12.4971 127.406 12.5273C127.417 12.8517 127.372 13.1724 127.278 13.4817C127.274 13.5157 127.274 13.5496 127.278 13.5836C127.425 13.7005 127.549 13.7873 127.654 13.8891L128.609 14.7568C128.609 14.7568 128.65 14.7946 128.665 14.7908C128.97 14.6965 129.18 14.9266 129.451 14.9983C129.62 15.0398 129.548 15.153 129.533 15.2171" fill="#01C089"/>
<path d="M26.1127 16.2244C26.0187 16.1188 25.8909 16.0433 25.8082 15.9339C25.5977 15.6623 25.3008 15.436 25.3008 15.0436C25.3121 14.308 25.2256 13.5723 25.0452 12.8555C24.9137 12.2859 24.9061 11.6973 25.0227 11.1277C25.1392 10.6976 25.158 10.2487 25.0753 9.81106C25.0264 9.56207 24.9926 9.30931 24.9776 9.05655C25.2294 8.98864 25.5526 9.05655 25.7067 8.85283C25.7518 8.79247 25.6729 8.66798 25.7067 8.61139C25.8759 8.37372 25.7443 8.16245 25.7067 7.94364C25.6503 7.81915 25.624 7.68334 25.6203 7.54752C25.6541 7.34003 25.7669 7.14763 25.8082 6.94391C25.8909 6.59684 25.9398 6.24222 25.9585 5.8876C25.9698 5.63861 25.9247 5.38585 25.827 5.15572C25.6466 4.77092 25.4399 4.39743 25.2068 4.04281C25.1392 3.93341 24.9813 3.88059 24.861 3.80137C25.0828 3.5637 25.0903 3.53352 24.8874 3.31093C24.7671 3.18267 24.846 3.09213 24.9249 2.98649C25.0527 2.82427 25.1692 2.65451 25.2707 2.47343C25.3497 2.35648 25.3196 2.2018 25.2031 2.12258C25.188 2.11126 25.1692 2.10371 25.1542 2.09617C24.8272 1.95658 24.6243 1.6246 24.6468 1.26998C24.6468 1.22093 24.6205 1.17566 24.6167 1.13039C24.5754 0.432468 24.0041 0.255158 23.508 0.0174863C23.4178 -0.0240119 23.2824 0.0174863 23.1697 0.0476668C23.0569 0.0778474 23.0532 0.0929376 22.993 0.100483C22.3804 0.187252 21.9181 0.704093 21.8993 1.32279C21.9106 1.46238 21.8918 1.60196 21.8429 1.734C21.7001 2.0094 21.5385 2.27725 21.3656 2.53379C21.2641 2.68846 21.2115 2.81673 21.3956 2.94877C21.4821 2.99027 21.5197 3.09213 21.4783 3.1789C21.4708 3.20153 21.452 3.22417 21.4295 3.24303C21.3956 3.32603 21.3956 3.42034 21.4295 3.50334C21.452 3.60897 21.5347 3.70328 21.5497 3.80514C21.5648 3.907 21.6625 4.1824 21.4708 4.25408C21.1062 4.44648 20.8319 4.78223 20.7191 5.18213C20.6026 5.47639 20.2831 5.7216 20.4598 6.10263C20.4598 6.13659 20.4372 6.19317 20.4259 6.23845C20.2906 6.66852 20.2079 7.11745 20.1891 7.57016C20.1891 8.29072 20.3357 9.02637 20.0463 9.73184C20.0313 9.77711 20.0238 9.82238 20.0238 9.87142C19.9937 10.1581 20.2681 10.5505 20.4823 10.4977C20.7529 10.4373 20.8957 10.4109 20.9784 10.3166C21.1964 10.0751 21.2491 9.72807 21.1137 9.43381C20.9972 9.19991 20.9371 8.9396 20.9408 8.67929C21.0273 7.98514 21.1852 7.29854 21.3167 6.60816H21.4182C21.4445 6.88733 21.4858 7.16272 21.4896 7.43812C21.5648 8.24168 21.5648 9.04901 21.4896 9.85256C21.452 10.1016 21.452 10.3581 21.4896 10.6071C21.6287 11.388 21.6587 12.184 21.5798 12.9725C21.5159 13.5836 21.5535 14.1986 21.6926 14.7984C21.7903 15.1228 21.7753 15.4699 21.6437 15.783C21.561 15.9943 21.5309 16.2207 21.5497 16.4432C21.561 16.5451 21.6212 16.6394 21.7151 16.6847C22.091 16.7337 22.4668 16.7564 22.8728 16.7677C22.9216 16.7677 23.0231 16.6356 23.0193 16.5753C23.0231 16.3338 22.978 16.0924 22.8878 15.866C22.651 15.4397 22.5796 14.9418 22.6811 14.4664C22.7262 13.81 22.8352 13.1573 23.0081 12.5235C23.0457 12.2745 23.0644 12.0218 23.0569 11.769C23.1058 11.3918 23.1885 11.0145 23.2599 10.6373H23.32C23.4215 11.1994 23.4854 11.769 23.6245 12.3236C23.7936 13.0102 24.0003 13.6855 24.2296 14.3645C24.3837 14.7343 24.4514 15.1304 24.4363 15.5303C24.4063 15.7755 24.3536 16.0207 24.3461 16.2848C24.3574 16.3942 24.4138 16.496 24.5002 16.564C24.9888 16.8884 25.5226 16.7714 26.0375 16.662C26.169 16.6205 26.2404 16.481 26.2029 16.3489C26.1878 16.2999 26.154 16.2546 26.1127 16.2244Z" fill="#01C089"/>
<path d="M100.95 20.6328H95.2705L96.2177 38.7902H100.773L103.103 45.6487H109.493L100.95 20.6328ZM96.9807 33.3992L98.0406 30.2604L99.108 33.3992H96.9807V33.3992Z" fill="#151F2F"/>
<path d="M2.17067 6.75569L1.90757 6.45011C1.90757 6.45011 1.7422 6.41239 1.67078 6.82737L1.79482 7.26499L1.47158 7.31403C1.11076 7.66865 0.877723 8.13645 0.813827 8.6382C1.07317 9.18522 1.16713 9.80015 1.08445 10.4C1.08445 10.4 1.03182 9.34367 0.746173 9.12486C0.746173 9.12486 -0.148369 8.58916 0.0583527 11.7355C0.152317 13.12 0.347763 14.4932 0.644691 15.8476C0.644691 15.8476 1.06189 16.4776 1.85495 15.7004C2.33605 15.2138 2.71943 14.6403 2.98253 14.0103L2.17067 6.75569Z" fill="#01C089"/>
</g>
<defs>
<clipPath id="clip0">
<rect width="141.447" height="46.8967" fill="white" transform="translate(0.0283203)"/>
</clipPath>
</defs>
</svg>
