<svg width="27" height="60" viewBox="0 0 27 60" fill="none" xmlns="http://www.w3.org/2000/svg">
<path d="M13.2874 0.166016L14.8885 3.17321C15.2484 3.72816 15.6384 4.21936 16.0977 4.67681C17.4444 6.00667 18.6996 7.42601 19.8548 8.92513C22.5677 12.4873 24.3975 16.4431 25.7042 20.7214C26.4879 23.3349 26.9134 26.0159 26.9453 28.7269C27.0766 36.8317 24.2981 43.791 18.6962 49.5748C17.785 50.492 16.8006 51.3334 15.7528 52.0908C15.1978 52.0908 14.9353 51.6652 14.7066 51.2734C14.2901 50.5468 14.0129 49.7488 13.8892 48.9205C13.6924 47.94 13.563 46.9594 13.6267 45.947V45.4896C13.5817 45.3921 13.0924 0.396617 13.2874 0.166016Z" fill="#599636"/>
<path d="M13.2869 0.064499C13.2213 -0.0667375 13.1557 0.0326273 13.09 0.0963707C13.1219 0.752553 12.8932 1.33749 12.5351 1.89618C12.1414 2.45113 11.6202 2.87671 11.0971 3.33416C8.19117 5.85015 5.90391 8.88921 4.07222 12.2882C1.63497 16.8628 0.378855 21.7654 0.0226415 26.9267C-0.140467 28.7884 0.61133 35.3577 1.19814 37.2532C2.79923 42.2851 5.67518 46.5016 9.40042 50.1612C10.3153 51.0423 11.294 51.8598 12.3064 52.6453C12.6007 52.6453 12.6326 52.3828 12.7001 52.1879C12.8291 51.7706 12.9275 51.3445 12.9944 50.913L13.6506 46.0122L13.2869 0.064499Z" fill="#6CAC48"/>
<path d="M14.8878 54.0808C14.9534 53.3309 15.3134 52.7084 15.7052 52.0879C15.3115 51.9248 15.019 51.6004 14.7903 51.2386C14.5931 50.896 14.4298 50.5349 14.3028 50.1606C13.8454 48.7882 13.7479 47.3483 13.6167 45.946V45.0967C13.4535 45.2279 13.4198 46.3378 13.4198 46.5028C13.3244 47.985 13.1277 49.4589 12.8311 50.9142C12.7336 51.5029 12.668 52.0897 12.3062 52.6128C12.3062 52.6784 12.3062 52.7441 12.338 52.8415C12.9267 54.5739 13.088 56.3381 13.1873 58.136V58.7922C13.1873 59.5759 13.1554 59.4109 13.806 59.6734C14.0685 59.7709 14.361 59.8046 14.6234 59.9996C14.8203 59.9996 14.8522 59.8365 14.8522 59.7052L14.7547 58.6272V55.62C14.7228 55.0951 14.8203 54.5739 14.8859 54.0827L14.8878 54.0808Z" fill="#C2BFBF"/>
</svg>
