<svg width="60" height="59" viewBox="0 0 60 59" fill="none" xmlns="http://www.w3.org/2000/svg">
<path d="M55.2243 45.5184C51.9623 45.4371 49.4341 45.7633 47.3137 46.6603C46.7019 46.9047 45.7232 46.905 45.6416 47.6798C45.9679 48.0061 46.0087 48.5362 46.2941 48.9846C46.784 49.8 47.6397 50.9011 48.4145 51.4722C49.2707 52.1245 50.1273 52.7768 51.0241 53.3477C52.6145 54.3265 54.4089 54.8972 55.9583 55.8759C56.8558 56.4464 57.7523 57.1809 58.6494 57.7924C59.098 58.1182 59.3833 58.6488 59.9544 58.8525V58.7304C59.6687 58.3631 59.5872 57.8332 59.3019 57.4254C58.8946 57.0176 58.4863 56.6505 58.0785 56.2427C56.8961 54.6527 55.4282 53.2662 53.838 52.1245C52.5332 51.2273 49.6785 50.0041 49.1486 48.4952C49.1486 48.4952 49.1076 48.4547 49.067 48.4139C49.964 48.3323 51.0241 48.0061 51.8807 47.7614C53.267 47.3941 54.531 47.4759 55.9583 47.1089C56.6106 46.9458 57.2631 46.7419 57.9154 46.5379V46.1712C57.1818 45.4371 56.6516 44.4586 55.8768 43.7653C53.7972 41.9707 51.5134 40.2176 49.1486 38.7497C47.8844 37.934 46.2531 37.4039 44.9076 36.7108C44.4187 36.4659 43.6028 36.3438 43.3176 35.936C42.5833 35.039 42.1755 33.8566 41.6455 32.7963C40.4633 30.5533 39.3212 28.0662 38.3017 25.7013C37.5681 24.1108 37.1195 22.5204 36.2223 21.0527C32.0223 14.1206 27.4553 9.92061 20.4419 5.80193C18.933 4.94576 17.1388 4.57873 15.2223 4.13037C14.2033 4.08936 13.1835 4.00803 12.1642 3.96701C11.5117 3.68154 10.8592 2.90693 10.2883 2.5399C7.96445 1.07178 1.96984 -2.10846 0.257258 2.09154C-0.843836 4.74186 1.88851 7.35139 2.82601 8.6974C3.51976 9.63514 4.41648 10.6952 4.90585 11.7555C5.19132 12.4483 5.27265 13.1829 5.55812 13.9167C6.21085 15.7104 6.8221 17.7089 7.67874 19.3809C8.12734 20.2371 8.61648 21.134 9.18741 21.9089C9.51366 22.3572 10.0844 22.5614 10.2069 23.2952C9.63624 24.1108 9.59523 25.3343 9.26874 26.3536C7.80085 30.9614 8.37202 36.6701 10.4514 40.0544C11.1037 41.0735 12.6534 43.3169 14.733 42.4603C16.5681 41.7265 16.1603 39.4022 16.69 37.3633C16.8128 36.8735 16.7312 36.5477 16.9757 36.2215V36.3033C17.5466 37.4447 18.1173 38.546 18.6475 39.6876C19.9117 41.6855 22.1134 43.7653 23.9484 45.1519C24.9273 45.8854 25.7019 47.1497 26.9254 47.5983V47.4757H26.8436C26.5989 47.1087 26.2319 46.9458 25.9058 46.6601C25.172 45.9265 24.3562 45.0293 23.7855 44.2137C22.0731 41.9299 20.564 39.4019 19.2184 36.7922C18.5662 35.5284 17.995 34.1419 17.4651 32.8779C17.2201 32.388 17.2201 31.6544 16.8126 31.41C16.2009 32.3069 15.3039 33.0818 14.8553 34.1826C14.0809 35.936 13.9991 38.0972 13.7137 40.3397C13.5505 40.3809 13.6319 40.3397 13.5503 40.4217C12.2458 40.095 11.7972 38.7497 11.3076 37.6078C10.0841 34.7128 9.88023 30.0642 10.9408 26.7206C11.2262 25.8642 12.4497 23.1731 11.9603 22.3575C11.7156 21.5826 10.8998 21.134 10.4514 20.5226C9.92148 19.7477 9.3503 18.7694 8.98351 17.9128C8.00476 15.6293 7.51538 13.1011 6.4553 10.8176C5.96593 9.75725 5.10999 8.65662 4.41648 7.67787C3.64187 6.57701 2.78546 5.80193 2.17374 4.49717C1.97007 4.04881 1.68437 3.31475 2.01062 2.82537C2.09218 2.49912 2.25507 2.37701 2.58155 2.29545C3.11171 1.84662 4.62062 2.41756 5.1503 2.66225C6.65921 3.2735 7.92319 3.8449 9.18741 4.70108C9.75812 5.10889 10.3698 5.88373 11.1037 6.08764H11.9601C13.2651 6.37287 14.7327 6.1692 15.9562 6.536C18.1176 7.22904 20.0746 8.24857 21.8282 9.34967C27.1701 12.734 31.5735 17.5458 34.5505 23.2952C35.0399 24.2327 35.2436 25.0896 35.6922 26.0679C36.5488 28.0662 37.6089 30.105 38.4648 32.0622C39.3212 33.9785 40.1366 35.936 41.3601 37.5265C41.9718 38.3824 44.4182 38.8312 45.5193 39.2798C46.3349 39.6466 47.5991 39.9731 48.333 40.4215C49.7193 41.2774 51.1056 42.2566 52.4106 43.1941C53.0631 43.6835 55.1017 44.703 55.2243 45.5184Z" fill="#00546B"/>
<path d="M13.6305 10.084C12.9375 10.084 12.4484 10.166 11.959 10.2881V10.3697H12.0405C12.367 11.0222 12.9375 11.4708 13.3451 12.0415C13.6716 12.6938 13.9568 13.3465 14.2833 13.999C14.3238 13.958 14.3646 13.9174 14.3646 13.9174C14.9358 13.5094 15.221 12.8571 15.221 11.8784C14.9763 11.5931 14.9355 11.3077 14.7316 11.0222C14.4872 10.6141 13.9568 10.4105 13.6305 10.084Z" fill="#00546B"/>
</svg>
