<svg width="137" height="45" viewBox="0 0 137 45" fill="none" xmlns="http://www.w3.org/2000/svg">
<path d="M25.1892 1.73926H19.5941V20.1772L5.05434 1.78088H0.519531V31.4506H6.11458V11.4455L21.7146 31.4947V31.4506H25.1892V1.73926Z" fill="#F15D34"/>
<path d="M44.6918 1.18848C34.4346 1.18848 29.4346 9.02399 29.4346 16.8277C29.4346 24.6314 34.2657 32.1314 44.6918 32.1314C55.1179 32.1314 59.8241 24.4575 59.9098 16.7861C59.9931 9.04114 54.9073 1.18848 44.6918 1.18848ZM55.1547 7.68216C55.184 8.41674 54.6649 9.26151 54.6649 9.26151C54.2707 9.26641 53.8789 9.1954 53.5116 9.04848C54.2511 8.89177 54.8657 8.38001 55.1547 7.68216ZM39.3685 23.0422C39.442 23.9653 37.9875 25.4737 37.9875 25.4737C37.2774 24.5163 38.3034 23.6446 38.3034 23.6446C38.6462 23.4046 38.7515 22.9443 38.5483 22.5794L39.3685 22.3664V23.0422ZM51.3006 17.7851L50.5023 19.3473C50.5023 19.3473 49.7016 18.7792 49.9514 18.3532C49.9514 18.3532 50.6125 17.7508 50.4778 17.288V16.7983L51.303 16.1323L51.3006 17.7851ZM53.9328 10.8702C53.7908 10.7184 53.6757 10.5446 53.5924 10.356L53.6243 11.3869C53.5851 12.1509 53.6782 13.4315 53.8936 14.0657C54.1385 14.7855 52.5077 14.4917 52.5077 14.4917C52.5077 14.4917 52.3657 13.4829 51.5136 13.3041C50.6615 13.1254 50.0224 12.7165 50.5195 11.7566C50.5195 11.7566 48.4235 13.0838 49.9514 14.5162L51.4793 15.6646C51.4793 15.6646 49.6306 16.693 49.0307 17.8683C49.0307 17.8683 47.2457 17.8169 46.4156 18.4903L46.4621 17.8463C46.4621 17.8463 46.5797 16.5534 47.6448 17.0872C47.6448 17.0872 47.9288 16.4824 48.3206 16.7665C48.7124 17.0505 49.3858 16.3404 49.3858 16.3404L49.0307 15.7013C49.0307 15.7013 47.6105 16.1274 46.5087 15.312C45.3725 13.5343 46.5552 11.884 46.5552 11.884C45.2329 13.6665 45.6369 15.2165 45.8377 15.743C45.0762 16.2547 43.6169 17.2758 43.6879 17.6308C43.6879 17.6308 44.0625 17.8267 43.1222 18.2356C42.9043 18.3311 42.8137 18.5784 42.7133 18.7107C42.6129 18.8429 42.5248 18.9555 42.4072 19.0902C42.3583 19.1563 42.3118 19.2175 42.2726 19.2738C41.8196 19.9594 41.7829 20.9462 41.2172 21.4359C40.5879 21.9697 38.11 22.2856 37.701 22.5354C37.2921 22.7851 36.7216 24.389 36.4278 24.984C36.1339 25.579 34.6648 25.8606 34.6648 25.8606L34.8411 25.3464C35.0027 24.8199 35.1227 24.4991 35.4263 24.3816L36.0556 24.1368C36.4645 23.7915 36.2711 22.9369 36.3347 22.3419C36.3543 22.0065 36.538 21.7004 36.8244 21.5241L38.1859 20.2998L37.9239 18.7621C37.9214 18.4438 37.9532 18.1279 38.0194 17.8169C37.488 18.5319 34.8582 20.1529 33.4846 18.7768C33.0193 18.3017 32.7671 17.6578 32.7867 16.9917C32.7867 15.5838 33.4282 14.8272 34.2803 14.0534C35.5463 12.8977 36.6947 12.5671 37.439 11.8105C37.2432 12.4324 35.4802 14.1587 34.8852 14.0828C34.7823 14.0706 34.677 14.095 34.5889 14.1514C33.487 14.8051 32.9532 16.1127 33.2838 17.3517C33.8078 19.5554 36.4327 18.8208 37.4048 17.3517C38.5066 15.6768 38.6291 15.5985 40.5463 14.2762C41.1291 13.8747 41.6335 13.3727 42.04 12.7948C42.5468 12.0749 46.4474 7.26835 48.0586 7.46179C49.5547 7.64298 51.2198 7.00145 52.8897 8.95299C52.8897 8.95299 55.1522 10.5176 56.5357 8.24289C56.5455 8.24044 55.948 10.3928 53.9328 10.8702ZM51.1757 14.9618C49.7726 14.2273 49.7726 13.478 49.7726 13.478C50.1522 13.762 50.5929 13.9481 51.0606 14.0265L51.1757 14.9618Z" fill="#F15D34"/>
<path d="M52.5449 12.2199L53.042 12.3619L52.5449 11.5098V12.2199Z" fill="#F15D34"/>
<path d="M79.0752 15.2607H63.4336V20.0086H79.0752V15.2607Z" fill="#F15D34"/>
<path d="M103.706 16.107C106.461 14.8827 107.563 12.679 107.563 10.3847C107.563 4.41007 103.197 1.78027 97.347 1.78027H83.2871V31.45H97.3592C103.505 31.45 108.466 29.3319 108.466 22.7207C108.454 20.8549 107.181 17.1673 103.706 16.107ZM88.7842 6.86846H97.3543C100.915 6.86846 102.007 9.15546 102.007 10.5144C102.007 12.2089 100.863 13.6976 97.3543 13.6976H88.7842V6.86846ZM97.3543 26.2393H88.7842V18.6095H97.3543C99.6438 18.6095 102.908 20.0077 102.908 22.6766C102.9 25.4754 99.6364 26.2393 97.347 26.2393H97.3543Z" fill="#F15D34"/>
<path d="M136.984 22.7531C136.984 15.6742 131.218 14.063 125.03 13.3015C121.47 12.8779 118.419 12.158 118.419 9.56984C118.419 7.3661 120.41 5.63005 124.565 5.63005C127.785 5.63005 130.584 7.24122 131.6 8.93566L136.051 6.64621C133.806 2.06733 129.014 0.754883 124.396 0.754883C118.928 0.806303 112.915 3.30632 112.915 9.41313C112.915 16.066 118.507 17.6772 124.57 18.397C128.512 18.8207 131.426 19.9642 131.426 22.7629C131.426 25.9828 128.12 27.2145 124.602 27.2145C121 27.2145 117.567 25.7722 116.252 22.5082L111.6 24.925C113.803 30.3487 118.456 32.2169 124.526 32.2169C131.135 32.2169 136.984 29.3766 136.984 22.7531Z" fill="#F15D34"/>
<path d="M3.48701 39.3304H5.46303V41.6663C4.96351 41.8451 4.43461 41.9283 3.90327 41.9112C2.95811 41.9112 2.24312 41.659 1.75585 41.1546C1.26857 40.6502 1.02126 39.9033 1.01392 38.9141C0.972293 38.111 1.24898 37.325 1.78523 36.7275C2.33127 36.1741 3.08788 35.8779 3.86654 35.917C4.48848 35.9146 5.10308 36.0493 5.66626 36.3137L5.85235 35.8974C5.23775 35.6207 4.56684 35.4836 3.89347 35.4959C3.27398 35.4836 2.66183 35.6305 2.11579 35.9244C1.60648 36.2011 1.19267 36.6222 0.92577 37.134C0.641732 37.6898 0.497264 38.3069 0.509507 38.9313C0.509507 40.0135 0.788648 40.851 1.34693 41.446C1.90521 42.041 2.71325 42.3397 3.76859 42.3422C4.51052 42.3544 5.24755 42.2148 5.93316 41.9332V38.8945H3.48456L3.48701 39.3304Z" fill="#F15D34"/>
<path d="M11.6745 37.2001C11.0697 37.1756 10.4894 37.44 10.1074 37.9102C9.69853 38.4538 9.49284 39.1247 9.52712 39.8029C9.52712 40.5987 9.72791 41.2182 10.1295 41.659C10.5604 42.1218 11.175 42.374 11.8068 42.3421C12.0688 42.3446 12.3308 42.3225 12.5879 42.276C12.8548 42.2246 13.1143 42.1413 13.3616 42.0312V41.6076C13.0996 41.7153 12.8278 41.7961 12.5487 41.8524C12.3063 41.894 12.0614 41.9136 11.8141 41.9112C11.3122 41.943 10.8224 41.7447 10.4821 41.3749C10.1417 40.9317 9.97277 40.3808 10.007 39.8225H13.5551V39.4577C13.5894 38.8651 13.4106 38.2775 13.0507 37.8049C12.7128 37.3984 12.2034 37.1756 11.6745 37.2001ZM10.0266 39.4258C10.0364 38.9288 10.2152 38.4513 10.531 38.0693C10.8249 37.751 11.2436 37.5796 11.6745 37.5992C12.0786 37.5821 12.463 37.7657 12.7054 38.0889C12.9772 38.4831 13.107 38.9557 13.08 39.4332L10.0266 39.4258Z" fill="#F15D34"/>
<path d="M19.4523 37.2002C18.6369 37.2002 18.0639 37.4573 17.7383 37.9715H17.7138L17.6281 37.2957H17.2461V42.2321H17.6942V39.5166C17.6942 38.8481 17.8313 38.3633 18.1056 38.0646C18.3798 37.7658 18.8132 37.6165 19.4033 37.6189C19.7633 37.5871 20.1183 37.7095 20.3828 37.9568C20.6178 38.2653 20.7305 38.6522 20.6962 39.0391V42.2419H21.1418V39.0122C21.1369 37.805 20.5737 37.2002 19.4523 37.2002Z" fill="#F15D34"/>
<path d="M28.4378 40.03C28.4378 40.6984 28.3007 41.1808 28.024 41.4771C27.7473 41.7758 27.3139 41.9227 26.7262 41.9227C26.3663 41.9546 26.0112 41.8321 25.7468 41.5848C25.5117 41.2763 25.3991 40.8894 25.4334 40.5026V37.3047H25.0098V40.5295C25.0098 41.7318 25.5729 42.3317 26.6969 42.3317C27.5122 42.3317 28.0852 42.0746 28.4109 41.5604H28.4378L28.5186 42.2411H28.9006V37.3047H28.4378V40.03Z" fill="#F15D34"/>
<path d="M33.0902 35.4857C32.8992 35.4857 32.8037 35.6326 32.8037 35.9216C32.8037 36.2105 32.8992 36.3623 33.0902 36.3623C33.1808 36.3672 33.2641 36.3207 33.3106 36.2448C33.3693 36.1468 33.3987 36.0342 33.3914 35.9216C33.3987 35.8089 33.3693 35.6963 33.3106 35.6008C33.2641 35.5249 33.1808 35.4808 33.0902 35.4857Z" fill="#F15D34"/>
<path d="M33.3207 37.3027H32.8701V42.2416H33.3207V37.3027Z" fill="#F15D34"/>
<path d="M39.5084 37.2002C38.6882 37.2002 38.1152 37.4573 37.7944 37.9715H37.7675L37.6818 37.2957H37.2998V42.2321H37.743V39.5166C37.743 38.8481 37.8801 38.3633 38.1544 38.0646C38.4286 37.7658 38.8596 37.6165 39.4497 37.6189C39.8096 37.5871 40.1671 37.7095 40.4291 37.9568C40.6666 38.2653 40.7768 38.6522 40.7425 39.0391V42.2419H41.1882V39.0122C41.1882 37.805 40.6299 37.2002 39.5084 37.2002Z" fill="#F15D34"/>
<path d="M46.9768 37.1994C46.372 37.1749 45.7892 37.437 45.4097 37.9095C44.9983 38.4531 44.7926 39.1216 44.8269 39.8023C44.8269 40.5981 45.0277 41.2176 45.4293 41.6583C45.8627 42.1138 46.4773 42.3586 47.1066 42.3219C47.3686 42.3244 47.6306 42.3023 47.8877 42.2558C48.1546 42.2044 48.4141 42.1211 48.6614 42.0109V41.6069C48.3994 41.7122 48.1276 41.7955 47.8509 41.8518C47.6085 41.8934 47.3637 41.913 47.1164 41.9105C46.6144 41.9424 46.1247 41.744 45.7843 41.3743C45.444 40.9311 45.275 40.3802 45.3093 39.8219H48.8671V39.457C48.8989 38.8645 48.7202 38.2793 48.3627 37.8042C48.0223 37.3978 47.5081 37.1725 46.9768 37.1994ZM45.3338 39.435C45.346 38.9404 45.5248 38.4629 45.8382 38.0785C46.132 37.7602 46.5507 37.5888 46.9841 37.6083C47.3882 37.5912 47.7726 37.7749 48.015 38.0981C48.2843 38.4923 48.4141 38.9649 48.3872 39.4424L45.3338 39.435Z" fill="#F15D34"/>
<path d="M57.8632 35.6006H57.4004V42.2412H61.0292V41.8053H57.8632V35.6006Z" fill="#F15D34"/>
<path d="M64.6088 35.4854C64.4178 35.4854 64.3223 35.6324 64.3223 35.9213C64.3223 36.2102 64.4178 36.3621 64.6088 36.3621C64.6994 36.367 64.7826 36.3204 64.8291 36.2445C64.8879 36.1466 64.9173 36.0339 64.9099 35.9213C64.9173 35.8087 64.8879 35.696 64.8291 35.6005C64.7802 35.5271 64.6969 35.483 64.6088 35.4854Z" fill="#F15D34"/>
<path d="M64.8363 37.3027H64.3857V42.2416H64.8363V37.3027Z" fill="#F15D34"/>
<path d="M71.0241 37.2002C70.2087 37.2002 69.6357 37.4573 69.3101 37.9715H69.2831L69.1974 37.2957H68.8154V42.2321H69.266V39.5166C69.266 38.8481 69.4031 38.3633 69.6773 38.0646C69.9491 37.7683 70.3825 37.6189 70.9726 37.6189C71.3326 37.5871 71.6876 37.7095 71.9521 37.9568C72.1872 38.2653 72.2998 38.6522 72.2655 39.0391V42.2419H72.7112V39.0122C72.7063 37.805 72.1455 37.2002 71.0241 37.2002Z" fill="#F15D34"/>
<path d="M80.1353 37.3022H79.5893L77.0697 40.074H77.0452L77.077 38.715V35.1719H76.6289V42.241H77.077V40.4829L77.885 39.7483L79.7631 42.241H80.3018L78.1911 39.4104L80.1353 37.3022Z" fill="#F15D34"/>
<path d="M91.1372 38.7622V38.7353C91.5265 38.6936 91.8889 38.5198 92.1656 38.2456C92.4031 37.9836 92.5305 37.6383 92.5182 37.2832C92.5525 36.7911 92.3346 36.3185 91.9404 36.0222C91.5559 35.7431 90.9536 35.6035 90.1333 35.6035H88.3115V42.2441H90.3463C91.0931 42.2441 91.6661 42.0801 92.0726 41.7544C92.4888 41.4067 92.7141 40.8827 92.6823 40.3415C92.7068 39.9498 92.5696 39.5629 92.3076 39.2715C91.9844 38.9801 91.5731 38.8014 91.1372 38.7622ZM88.7743 36.01H90.1162C90.6108 35.9781 91.1029 36.081 91.5437 36.3087C91.8718 36.5144 92.0603 36.8866 92.0334 37.2735C92.0652 37.6505 91.9036 38.0178 91.6074 38.2529C91.3258 38.4586 90.8728 38.5639 90.2484 38.5639H88.7792L88.7743 36.01ZM90.339 41.8327H88.7743V38.9679H90.2435C91.5388 38.9679 92.1877 39.4233 92.1877 40.3342C92.1852 41.3332 91.5682 41.8327 90.339 41.8327Z" fill="#F15D34"/>
<path d="M99.7465 40.03C99.7465 40.6984 99.6069 41.1808 99.3302 41.4771C99.0535 41.7758 98.6201 41.9227 98.0324 41.9227C97.6725 41.9546 97.3175 41.8321 97.053 41.5848C96.8179 41.2763 96.7053 40.8894 96.7396 40.5026V37.3047H96.2939V40.5295C96.2939 41.7318 96.8571 42.3317 97.981 42.3317C98.7964 42.3317 99.3694 42.0746 99.695 41.5604H99.722L99.8028 42.2411H100.182V37.3047H99.7391L99.7465 40.03Z" fill="#F15D34"/>
<path d="M104.392 35.4857C104.201 35.4857 104.105 35.6326 104.105 35.9216C104.105 36.2105 104.201 36.3623 104.392 36.3623C104.483 36.3672 104.566 36.3207 104.612 36.2448C104.671 36.1468 104.7 36.0342 104.693 35.9216C104.7 35.8089 104.671 35.6963 104.612 35.6008C104.566 35.5249 104.483 35.4808 104.392 35.4857Z" fill="#F15D34"/>
<path d="M104.619 37.3027H104.169V42.2416H104.619V37.3027Z" fill="#F15D34"/>
<path d="M109.049 35.1719H108.599V42.241H109.049V35.1719Z" fill="#F15D34"/>
<path d="M116.461 36.9549C116.461 37.3222 116.461 37.6895 116.49 38.0764H116.461C116.292 37.7948 116.049 37.5646 115.763 37.4079C115.471 37.2733 115.156 37.2071 114.835 37.2145C114.237 37.1778 113.659 37.43 113.277 37.8903C112.92 38.3408 112.741 38.9946 112.741 39.8492C112.741 40.6646 112.922 41.2841 113.282 41.7028C113.679 42.1411 114.254 42.3761 114.845 42.337C115.496 42.3639 116.11 42.0431 116.461 41.4922H116.497L116.612 42.2464H116.906V35.1748H116.461V36.9549ZM116.461 39.8492C116.461 40.5936 116.331 41.1273 116.071 41.4506C115.763 41.7983 115.31 41.9795 114.847 41.9403C113.76 41.9403 113.216 41.24 113.216 39.8418C113.216 39.1219 113.351 38.571 113.623 38.1915C113.907 37.8046 114.37 37.5916 114.847 37.6258C115.42 37.6258 115.834 37.7899 116.091 38.1156C116.348 38.4412 116.475 38.9897 116.473 39.761L116.461 39.8492Z" fill="#F15D34"/>
<path d="M121.34 37.3027H120.89V42.2416H121.34V37.3027Z" fill="#F15D34"/>
<path d="M121.113 35.4854C120.922 35.4854 120.826 35.6324 120.826 35.9213C120.826 36.2102 120.922 36.3621 121.113 36.3621C121.203 36.367 121.287 36.3204 121.333 36.2445C121.392 36.1466 121.419 36.0339 121.411 35.9213C121.419 35.8087 121.392 35.696 121.333 35.6005C121.284 35.5271 121.201 35.483 121.113 35.4854Z" fill="#F15D34"/>
<path d="M127.525 37.2002C126.71 37.2002 126.137 37.4573 125.811 37.9715H125.784L125.698 37.2957H125.316V42.2321H125.767V39.5166C125.767 38.8481 125.904 38.3633 126.176 38.0646C126.448 37.7658 126.881 37.6165 127.474 37.6189C127.834 37.5871 128.189 37.7095 128.453 37.9568C128.688 38.2653 128.801 38.6522 128.766 39.0391V42.2419H129.212V39.0122C129.21 37.805 128.646 37.2002 127.525 37.2002Z" fill="#F15D34"/>
<path d="M134.648 37.1997C134.183 37.1752 133.728 37.3368 133.38 37.6453C133.061 37.9563 132.89 38.3873 132.91 38.8329C132.907 39.1414 132.99 39.4426 133.155 39.7046C133.314 39.9568 133.551 40.1503 133.828 40.2604C133.407 40.5053 133.196 40.8016 133.196 41.1321C133.194 41.2766 133.24 41.4186 133.331 41.5337C133.424 41.6537 133.546 41.7467 133.686 41.8055C133.36 41.8692 133.061 42.0283 132.829 42.2634C132.618 42.4936 132.506 42.7972 132.515 43.1082C132.501 43.5073 132.692 43.8844 133.025 44.1072C133.458 44.3716 133.96 44.4965 134.467 44.4671C135.248 44.4671 135.85 44.3251 136.274 44.0411C136.683 43.7815 136.925 43.3212 136.906 42.8364C136.93 42.4666 136.771 42.1067 136.48 41.8765C136.117 41.639 135.689 41.5239 135.255 41.5509H134.394C134.188 41.5655 133.98 41.5288 133.791 41.4407C133.671 41.3697 133.603 41.235 133.612 41.0954C133.615 40.9485 133.664 40.8065 133.752 40.6914C133.862 40.5518 134.002 40.4392 134.161 40.3608C134.318 40.3829 134.474 40.3927 134.633 40.3878C135.101 40.4123 135.559 40.2531 135.909 39.9446C136.225 39.6458 136.399 39.2247 136.382 38.7888C136.382 38.3799 136.237 37.9832 135.973 37.6723L136.996 37.6086V37.2952H135.415C135.167 37.2217 134.908 37.1899 134.648 37.1997ZM134.345 42.0014H135.153C135.49 41.9769 135.828 42.0455 136.132 42.1997C136.34 42.3466 136.458 42.5915 136.436 42.8462C136.436 43.6713 135.787 44.0852 134.491 44.0852C133.483 44.0852 132.978 43.7472 132.978 43.0665C132.978 42.3858 133.439 42.0112 134.345 42.0112V42.0014ZM135.917 38.8182C135.939 39.1537 135.819 39.4842 135.586 39.7266C135.03 40.1454 134.266 40.1454 133.71 39.7266C133.47 39.494 133.343 39.1708 133.363 38.8378C133.343 38.4901 133.466 38.1498 133.703 37.8975C133.953 37.66 134.288 37.5376 134.631 37.5572C134.976 37.5352 135.317 37.6502 135.579 37.8731C135.823 38.1277 135.946 38.4754 135.917 38.8256V38.8182Z" fill="#F15D34"/>
</svg>
