<svg width="142" height="47" viewBox="0 0 142 47" fill="none" xmlns="http://www.w3.org/2000/svg">
<g clip-path="url(#clip0)">
<path d="M19.7419 29.5552L7.81965 16.9058L2.63281 16.8831V45.2302H10.6423V32.1997L22.5909 45.9545H27.7476V16.2305H19.7419V29.5552Z" fill="#151F2F"/>
<path d="M83.0631 28.4423L73.9109 16.3587H68.7354V45.9545H76.6509V33.2032L81.0184 38.134H85.0476L89.4865 33.1693V45.9545H97.402V16.4304L92.2528 16.2305L83.0631 28.4423Z" fill="#151F2F"/>
<path d="M137.156 20.4328C134.518 17.8336 130.985 16.3547 127.286 16.3057H116.206V44.7697H127.395C131.131 44.5773 134.664 43.023 137.341 40.401C139.987 37.798 141.475 34.2367 141.475 30.5207C141.464 26.7066 139.904 23.0623 137.156 20.4328ZM124.107 24.0017H127.286C130.853 24.0017 133.443 26.7444 133.443 30.5207C133.443 34.1952 130.74 37.0736 127.286 37.0736H124.107V24.0017Z" fill="#151F2F"/>
<path d="M45.0406 37.8626C43.4432 37.059 42.0412 35.9159 40.9287 34.5126C36.907 29.363 37.8053 21.9197 42.9358 17.8831C44.3791 16.7475 46.0629 15.9666 47.8558 15.5969C50.8514 14.9518 53.9822 15.5177 56.5606 17.1776C56.6433 17.2267 56.7298 17.2682 56.8162 17.3134C56.9854 17.487 57.1808 17.6303 57.3988 17.736C57.4439 17.7888 57.4928 17.8378 57.5416 17.8831C61.4543 21.0445 62.9953 25.8507 61.552 30.6796C59.8193 36.3875 54.1251 39.9111 48.2654 38.8963C47.3897 38.7114 46.529 38.4775 45.6795 38.1946C45.4879 38.0512 45.2736 37.9456 45.0443 37.8739L45.0406 37.8626ZM55.2489 20.9766C55.388 21.5877 55.6247 21.6971 56.0532 21.3538C55.948 20.9766 55.948 20.9766 55.6097 20.9766H55.2339C55.4443 20.7427 55.7601 20.6333 56.0683 20.6899C56.3088 20.7238 56.4855 20.9313 56.4855 21.1765C56.5155 21.4104 56.6696 21.5538 56.7561 21.716C56.9741 21.9952 57.1432 22.3083 57.2635 22.6403C56.7974 22.3649 56.3953 22.1008 55.9668 21.8858C55.6323 21.7198 55.4519 21.8858 55.4706 22.263C55.4744 22.4932 55.5721 22.712 55.7413 22.8666C55.6435 22.9836 55.5045 22.844 55.4293 22.9534C55.4293 23.044 55.4857 23.0704 55.5233 23.1269C55.6924 23.3873 55.9217 23.6362 55.8728 23.9758C55.7939 24.519 55.8315 24.5718 56.3727 24.5756C56.5118 24.5794 56.6471 24.5266 56.7486 24.4285C56.8538 24.3455 57.0229 24.2361 57.1244 24.3832C57.3687 24.7605 57.6732 24.7378 58.0565 24.6624C58.2633 24.6247 58.4662 24.685 58.6579 24.5153C58.7895 24.4285 58.9624 24.4285 59.0939 24.5153C59.2443 24.6133 59.4209 24.6624 59.6013 24.6511C59.8118 24.6511 60.0035 24.7756 60.0862 24.9717C60.1689 25.1264 60.1952 25.349 60.4282 25.3867C60.447 25.3603 60.4658 25.3339 60.4771 25.3037C60.4883 25.2622 60.4883 25.2207 60.4771 25.1792C60.2215 24.6699 59.8945 24.1719 60.2553 23.5721C60.2929 23.508 60.2553 23.4061 60.2553 23.3231C60.2553 23.2401 60.2065 23.0704 60.3418 22.9874C60.7176 23.1647 61.1724 24.1191 61.0145 24.4624C60.9958 24.4964 60.9657 24.5228 60.9281 24.5379C60.6086 24.7001 60.7214 24.8887 60.8755 25.1038C60.977 25.2396 61.2175 25.349 61.1386 25.5338C61.0409 25.8357 61.0784 26.1676 61.2438 26.4393C61.3942 26.7562 61.4092 27.1183 61.2889 27.4465C61.0672 27.8766 60.8153 28.2916 60.5372 28.6877C60.0486 29.4422 59.8569 30.3854 59.0977 30.9512L59.3457 31.3813C59.0714 31.6831 58.8684 32.0415 58.7519 32.4339C58.703 32.6527 58.5414 32.8262 58.3272 32.8941C58.1468 32.9696 57.9212 33.0073 57.8461 33.245C57.6206 33.9429 57.0944 34.4333 56.6283 34.9502C56.5343 35.052 56.3276 35.1539 56.4892 35.3274C56.6508 35.501 56.7448 35.9197 57.1019 35.8669C57.6393 35.8141 58.143 35.5726 58.5226 35.1878C59.9922 33.6335 61.0145 31.7095 61.4844 29.6195C61.5934 29.148 61.9204 28.6047 61.334 28.1784C61.8414 27.9294 61.7099 27.5031 61.7099 27.1221C61.7099 26.7411 61.3979 26.4317 61.3754 26.0658C61.4656 25.9451 61.5746 26.1073 61.6497 26.0092C61.5934 24.3568 60.7026 22.0518 59.5262 20.4635C59.1353 19.8901 58.6316 19.4034 58.0453 19.0337C57.3311 18.6112 56.5757 18.2717 55.7901 18.0151C55.4143 17.8944 55.076 17.6831 54.7114 17.5624C54.3092 17.453 53.9371 17.2531 53.6289 16.9739C53.3583 16.7136 52.9298 16.6645 52.6254 16.4231C52.6254 16.4042 52.5502 16.4231 52.5164 16.4231C52.5164 16.5174 52.6667 16.5325 52.6254 16.6457C52.3623 16.5702 52.0842 16.5589 51.8173 16.6193C52.0278 17.0418 51.5317 17.0343 51.4414 17.3097C52.0015 17.951 52.9186 17.7473 53.5726 18.2264C53.3884 18.6527 53.8996 18.6753 54.0612 18.9205C53.8394 19.1884 53.8169 19.1959 53.6853 18.9205C53.6327 18.8036 53.5726 18.7357 53.4523 18.7281C53.1027 18.7319 52.8096 18.9998 52.772 19.3506C52.772 19.4977 52.7457 19.6449 52.7269 19.841C52.351 19.6901 52.1481 20.1202 51.8098 20.0825C51.7647 20.2183 51.7647 20.3617 51.8098 20.4975C52.2007 20.5427 52.5953 20.5578 52.99 20.5427C53.3283 20.5427 53.426 20.4333 53.4711 20.1655C53.3959 19.9844 53.2155 19.9882 53.0952 19.8939C53.1779 19.6373 53.0952 19.245 53.5989 19.2978C53.4899 19.5128 53.565 19.7015 53.5425 19.8863C53.7943 19.8863 54.0424 19.9467 54.0048 19.5581C54.1664 19.6222 54.2641 19.8033 54.437 19.6901C54.6099 19.577 54.4633 19.3657 54.5987 19.2488C54.7001 19.2676 54.7716 19.3582 54.764 19.4638C54.764 19.6298 54.7979 19.841 54.6776 19.9391C54.5009 20.1202 54.2228 20.0749 53.9973 20.1542C53.6477 20.2749 53.4899 20.3277 53.5838 20.705C53.6778 21.0822 53.659 21.6066 54.1326 21.8367C54.1627 21.8631 54.189 21.8971 54.2002 21.9348C54.4408 22.5912 54.655 22.7384 55.2978 22.6893C55.3504 22.297 55.3504 21.9046 55.2978 21.5123C55.2639 21.5085 55.2339 21.5085 55.2 21.5123C54.5799 21.6858 54.1777 21.335 54.3168 20.7238C54.3468 20.5918 54.2604 20.5201 54.2416 20.4145L54.3092 20.3088C54.4972 20.3994 54.546 20.5993 54.6438 20.7238C54.6438 20.8521 54.4295 20.7238 54.4821 20.92C54.625 21.052 54.7903 21.1577 54.967 21.2407C55.1173 21.1841 55.0948 20.969 55.2677 20.9653L55.2489 20.9766ZM50.0057 27.1108C49.4532 26.7863 49.0735 25.8545 49.3479 25.4773C49.4757 25.5225 49.4682 25.7413 49.6524 25.7149C49.7501 25.6998 49.814 25.6093 49.8027 25.515C49.8027 25.5112 49.8027 25.5074 49.7989 25.4999C49.72 24.7605 49.5434 24.0324 49.2765 23.3382C49.0623 22.8138 48.3519 22.7648 47.7731 23.0553C47.6716 23.1043 47.525 23.1232 47.5213 23.2929C47.5175 23.4627 47.7205 23.4401 47.8219 23.508C47.9234 23.5759 48.0249 23.508 48.0587 23.6476C47.8896 23.7871 47.5739 23.5004 47.5025 23.8551C47.2581 23.6249 47.1943 23.2628 47.3446 22.961C47.2506 22.7836 47.074 23.0289 47.0176 22.8402C46.9424 22.6177 46.886 22.3913 46.856 22.1574C46.8372 21.9537 47.0326 21.882 47.198 21.8858C47.6002 21.916 47.9497 21.6104 47.976 21.2067C47.9836 21.1199 47.9723 21.0332 47.9497 20.9502C47.6754 21.1124 47.7205 21.4595 47.5175 21.6179C47.3145 21.7764 47.0589 21.8745 46.8485 21.5877C47.3859 21.0219 47.4235 20.7955 47.0101 20.456C47.1529 20.3918 47.3333 20.3805 47.3859 20.2183C47.5212 19.7354 48.2467 19.4638 47.8558 18.781C47.8069 18.6602 47.8332 18.5244 47.9272 18.4339C48.1001 18.2339 48.3106 18.0679 48.5473 17.9472C49.3592 17.5473 50.2199 17.2493 51.1069 17.0644C51.2573 17.0418 51.3588 16.9022 51.3362 16.7513C51.3362 16.7438 51.3324 16.7325 51.3324 16.7249C51.0017 16.8117 50.7724 16.5665 50.5093 16.4797C49.8929 16.3212 49.2652 16.2269 48.63 16.193C48.6037 16.4118 48.8217 16.4495 48.7992 16.6117C48.6789 16.7513 48.4759 16.7815 48.3181 16.6834C47.9911 16.5136 47.5964 16.5438 47.3033 16.7664C47.0589 16.8947 46.8259 17.0493 46.5891 17.1889C46.5553 17.204 46.5215 17.2116 46.4876 17.2116C46.4087 17.1173 46.5064 16.9777 46.3862 16.906C46.0742 16.9022 45.7735 17.0267 45.5518 17.2493C45.0819 17.5964 44.552 17.8529 43.9919 18.0038C43.1463 18.283 42.3945 18.7923 41.8157 19.4713C40.6919 20.6823 39.8387 22.1159 39.3088 23.6815C39.1471 24.0927 39.087 24.5379 39.1359 24.9793C39.2373 25.7112 39.3839 26.4468 39.0306 27.1749C39.1922 27.224 39.3651 27.224 39.5267 27.1749C40.1281 27.024 40.7671 27.1636 41.2519 27.5522C41.5188 27.771 41.8345 27.9257 42.1728 28.0011C42.5486 28.0954 42.8982 28.1935 43.2778 28.2991C42.7328 28.8801 42.4998 28.9329 41.8082 28.6424C41.7218 28.6085 41.6203 28.6085 41.5338 28.6424C41.1166 28.7594 41.158 29.0876 41.158 29.397C41.6052 29.5629 42.1352 29.3479 42.4133 29.993C42.6501 30.5476 42.5035 30.9135 42.2104 31.4304L41.7368 30.8305C41.6353 30.9927 41.609 31.1889 41.6691 31.37C41.8646 32.3056 42.2517 33.1884 42.7967 33.9693C43.0899 34.3088 43.2252 34.754 43.1726 35.1992C43.1463 35.4331 43.244 35.667 43.4357 35.8065C43.8454 36.1498 44.2212 36.5271 44.5632 36.9383C44.8564 37.3382 45.1984 37.806 45.7547 37.8701C46.2358 37.9154 46.7056 38.0437 47.1416 38.2474C47.2506 37.8928 47.3596 37.591 47.431 37.2854C47.5476 36.81 47.9723 37.093 48.2467 36.9081C48.1377 36.6554 48.0211 36.3988 47.9009 36.1234C48.3106 35.8933 48.7278 35.7085 48.848 35.2407C49.2803 35.2142 49.6937 35.169 50.1072 35.1728C50.3552 35.1728 50.5131 35.1048 50.5732 34.8521C50.7724 34.9464 50.9303 35.0294 51.0957 35.0973C51.261 35.1652 51.4227 35.3651 51.5805 35.2859C52.2082 34.9803 52.8923 34.7163 53.1666 33.9844C53.2606 33.7279 53.3846 33.4864 53.5425 33.2638C52.866 32.8413 52.3398 32.2151 52.0391 31.4719C51.994 31.336 51.9338 31.2116 51.8511 31.0946C51.5354 30.6494 51.3475 30.076 50.6897 29.9628C50.5356 29.9477 50.4003 29.8572 50.3327 29.7176C50.5319 29.7704 50.7273 29.8421 50.9265 29.8798C51.3475 29.9553 51.5354 29.7818 51.5091 29.3668C51.4527 28.4727 51.4527 28.4727 50.5507 28.4349C50.5018 28.4312 50.4529 28.4199 50.4078 28.401C50.2688 28.0237 50.5582 27.8012 50.6822 27.522C50.4943 27.2919 50.1523 27.3635 49.9831 27.1447C50.359 27.058 50.6935 27.2919 51.0844 27.2051C50.7085 26.8052 50.6747 26.1978 50.9979 25.7564L50.5619 25.5112C50.6183 26.1865 50.032 26.56 49.9869 27.1485L50.0057 27.1108ZM50.7198 21.5915C51.0543 21.5236 51.0957 21.7009 51.1182 21.9348C51.1182 22.38 51.6031 22.6365 51.5993 23.093C51.5993 23.1307 51.667 23.1835 51.7158 23.2062C52.1932 23.4061 52.678 23.5797 53.1742 23.723C53.441 23.7985 53.6891 23.9267 53.9033 24.1003C54.0198 24.1984 54.1251 24.4096 54.3092 24.2776C54.4558 24.1606 54.5084 23.9645 54.4408 23.7909C54.2754 23.3043 54.2529 22.7271 53.5876 22.5686C53.3809 22.5158 53.3884 22.1159 53.3207 22.0744C52.9449 21.833 53.0652 21.5236 53.0877 21.1992C53.0877 20.9502 52.9562 20.7955 52.6818 20.788C52.2909 20.7917 51.9 20.7691 51.5129 20.7201C51.3362 20.6861 51.1558 20.7502 51.043 20.8898C50.8739 21.0671 51.1671 21.1049 51.1859 21.2293C51.0693 21.3652 50.8551 21.335 50.7198 21.6066V21.5915ZM42.5637 35.5877C42.7065 34.8332 42.466 34.4069 41.7518 34.1089C41.5677 34.5465 42.0939 35.5047 42.5637 35.5877ZM54.6701 25.9413C54.3356 26.2355 53.8469 26.4468 53.9822 26.9221C54.0725 27.2277 54.4633 27.2466 54.8091 27.2126C54.7377 26.7712 54.4859 26.3864 54.6701 25.9413ZM60.7815 25.3226C60.5936 25.4056 60.4583 25.5678 60.4057 25.7677C60.1313 26.4355 60.4245 27.1598 60.1989 27.8351C60.65 27.4352 60.4996 26.8957 60.5109 26.4166C60.4959 26.1525 60.556 25.8922 60.68 25.6621C60.7402 25.564 60.868 25.4848 60.7665 25.2849L60.7815 25.3226ZM51.6407 36.5346C51.4978 36.8704 51.5918 37.259 51.8737 37.4891C51.9489 37.5419 52.0165 37.6287 52.1255 37.5646C52.2195 37.5042 52.2759 37.3986 52.2683 37.2892C52.2946 36.8327 51.9338 36.7233 51.6407 36.5346ZM56.6133 27.7182C57.0605 27.6691 57.1695 27.5031 57.1432 26.941C56.6358 26.8995 56.5043 27.0844 56.6133 27.7182ZM52.1706 23.7947C52.0353 23.9154 51.8549 23.9682 51.6745 23.9418C51.5655 23.9192 51.4941 23.9984 51.4527 24.0927C51.4227 24.1569 51.4452 24.2361 51.5053 24.2738C51.6858 24.3643 51.8812 24.4813 52.0804 24.3493C52.2796 24.2172 52.3285 24.0965 52.1706 23.7947ZM50.1372 21.5312L49.5847 21.4104C49.5246 21.5462 49.7238 21.55 49.6749 21.6632L49.2427 21.7613C49.2991 21.9839 49.5283 22.1197 49.7501 22.0631C49.9681 21.9725 50.1147 21.7651 50.1259 21.5312H50.1372ZM56.2712 29.6799C56.1096 29.9176 56.1096 30.2307 56.2712 30.4684C56.5531 30.3778 56.7561 30.1326 56.8012 29.8383L56.2712 29.6799ZM53.8996 28.7745C53.6064 28.7254 53.3508 28.4915 53.0915 28.7556C53.0313 28.816 53.0276 28.9141 53.0877 28.9744C53.1103 28.9971 53.1403 29.0121 53.1704 29.0197C53.4448 29.114 53.7304 29.2234 53.8996 28.7745ZM48.1301 19.4261C48.1565 19.5958 48.2467 19.7467 48.3857 19.8448C48.4872 19.9278 48.6376 19.9203 48.7278 19.8222C48.7841 19.7618 48.9044 19.6977 48.8217 19.5845C48.739 19.4713 48.7014 19.3582 48.6188 19.4374C48.4383 19.6185 48.3218 19.3544 48.1301 19.4374V19.4261ZM51.6256 26.7901C51.3776 26.6166 51.4414 26.194 51.0318 26.3261C51.0656 26.7977 51.1032 26.8354 51.6256 26.7901ZM56.6471 24.9868C56.4404 25.1226 56.3577 25.2207 56.4704 25.4282C56.6584 25.3452 56.6959 25.232 56.6471 24.9868Z" fill="#AFAFAF"/>
<path d="M46.2516 28.1821C46.5523 28.1557 46.6275 28.499 46.9169 28.5594C46.9883 28.5594 46.9507 28.8348 46.8305 28.9366L46.7027 29.0423C46.6463 29.0875 46.5711 29.1252 46.62 29.2158C46.7027 29.2347 46.7403 29.1818 46.7854 29.1366L46.9357 29.0385L48.379 28.1859C48.285 28.5631 47.9054 28.7065 47.6837 28.9932C47.7739 29.0875 47.6837 29.2573 47.8415 29.3441C48.0294 28.9819 48.3527 28.7065 48.7436 28.5895C49.0818 28.4801 49.4539 28.582 49.6907 28.8461C49.9764 29.0913 50.1944 29.412 50.3147 29.7704C50.2508 29.7704 50.1606 29.7704 50.1192 29.7439C49.6268 29.3365 49.2209 29.4987 48.8601 29.925C48.7586 30.1061 48.5293 30.174 48.3489 30.0722C48.3001 30.0458 48.2587 30.008 48.2287 29.9665C47.849 29.627 47.3078 29.5365 46.838 29.7364C46.7365 29.7817 46.62 29.7892 46.5147 29.759L44.1807 28.9215C44.6618 28.6461 45.0714 28.45 45.5601 28.7857C45.763 28.9517 46.06 28.9366 46.2441 28.748C46.4283 28.5631 46.184 28.3707 46.2704 28.201L46.2516 28.1821Z" fill="#AFAFAF"/>
<path d="M49.0856 26.3291C48.7623 25.9895 48.176 26.1405 48.1121 25.5368C48.1121 25.3558 48.161 25.3067 48.2925 25.269C48.2662 25.0955 48.0031 25.0766 48.0444 24.8578C48.191 24.8163 48.2963 24.9483 48.4203 24.9521C48.7022 24.6541 48.6421 24.2655 48.7285 23.9033C48.8037 24.2579 49.0292 24.5748 48.8225 24.9672C48.6045 25.2464 48.6533 25.6462 48.9315 25.8613C48.9653 25.8877 49.0029 25.9141 49.0442 25.933C49.1758 26.0273 49.1156 26.1178 49.078 26.3102" fill="#AFAFAF"/>
<path d="M46.2818 28.1934C45.8533 27.9482 45.4436 27.6728 45.0527 27.371C45.2294 27.0691 45.624 26.9937 45.6804 26.6504C45.9097 26.8503 45.9097 26.8503 45.6428 27.0956C45.8157 27.3257 45.9999 27.0352 46.2141 27.1333C46.3795 27.4653 46.4021 27.8501 46.2743 28.2009L46.2818 28.1934Z" fill="#AFAFAF"/>
<path d="M50.3187 39.9217C43.3879 39.9066 37.7838 34.2516 37.7989 27.2949C37.8139 20.3383 43.448 14.7135 50.3788 14.7285C57.2984 14.7436 62.8987 20.3798 62.8987 27.3251C62.8836 34.2855 57.257 39.9217 50.3187 39.9217ZM50.3187 15.9659C44.0682 15.981 39.0129 21.0853 39.0279 27.3591C39.0429 33.6329 44.1283 38.7069 50.3788 38.6919C56.6218 38.6768 61.6734 33.5914 61.6696 27.3251C61.6546 21.0438 56.5767 15.9622 50.3187 15.9659Z" fill="#151F2F"/>
<path d="M51.2461 42.1213L53.7494 41.6912H53.802C55.0987 41.3479 56.3465 40.8424 57.5155 40.1822C58.2784 39.7445 59.0039 39.239 59.6804 38.6731L60.0863 38.3298L58.1544 36.0663L57.3538 36.7491L58.5942 38.2129C58.0868 38.6128 57.5493 38.9749 56.9893 39.2994C55.9068 39.9143 54.7491 40.3859 53.5464 40.7065L51.1447 41.1215H50.8778L48.9985 41.0536C43.0374 40.567 38.0422 36.3379 36.5576 30.5244C35.3398 25.6125 36.8771 20.4215 40.5755 16.9809L41.9662 18.373L42.7179 17.6185L40.6357 15.5322L40.2598 15.8454C36.0088 19.5274 34.1822 25.2956 35.539 30.7658C37.1402 36.9755 42.4699 41.4988 48.8369 42.0496V44.6338C45.364 44.7281 42.7292 45.1921 42.7292 45.7656C42.7292 46.339 45.3602 46.7879 48.8369 46.8973H49.3142H50.1336C54.2229 46.8973 57.538 46.388 57.538 45.7656C57.538 45.1431 54.6514 44.6941 50.9455 44.6338V42.1363H51.2537" fill="#151F2F"/>
<path d="M8.79677 30.857C8.23674 30.8947 7.95485 30.1553 7.94357 29.978C7.92478 29.6762 7.92478 29.3782 7.94357 29.0764C7.94733 28.7519 7.89471 28.4313 7.78571 28.1295C7.66543 27.805 7.59402 27.4655 7.57523 27.1222C7.57523 27.0505 7.5865 26.9788 7.60154 26.9109C7.70302 26.5261 7.75188 26.13 7.75188 25.7301C7.74061 25.2548 7.70678 24.7794 7.64664 24.3078C7.5865 23.6967 7.42864 23.0969 7.41737 22.4819C7.41361 22.0632 7.43616 21.6482 7.47751 21.2332C7.51509 20.7767 7.5414 20.3202 7.57147 19.8638C7.57523 19.7808 7.55268 19.694 7.51133 19.6223C7.3422 19.2526 7.21441 18.8678 7.13548 18.4679C7.05654 18.1548 6.9513 17.8454 6.82351 17.5474C6.80848 17.5059 6.76713 17.4795 6.72579 17.4795C6.58672 17.4531 6.4439 17.438 6.30107 17.438C5.86132 17.4305 5.42156 17.4644 4.98557 17.5323C4.66233 17.6078 4.33157 17.6078 4.00834 17.5323C3.79034 17.472 3.59113 17.3626 3.422 17.2117C3.18521 16.9966 2.98976 16.7401 2.83942 16.4571C2.62142 16.0459 2.49363 15.5932 2.46356 15.1292C2.42597 14.3596 2.54625 13.59 2.80935 12.8657C2.84693 12.794 2.83566 12.7072 2.77928 12.6469C2.64021 12.4922 2.51618 12.3224 2.40342 12.1489C2.29442 11.8886 2.25308 11.6056 2.28315 11.3227C2.26811 10.704 2.20422 10.0891 2.09898 9.48167C2.02756 9.10064 1.89977 8.7347 1.72312 8.3914C1.69305 8.34236 1.65922 8.30086 1.61788 8.26313C1.50888 8.1575 1.50512 7.98396 1.61036 7.87456C1.61412 7.87079 1.61412 7.87079 1.61788 7.86701C1.65546 7.83306 1.66674 7.77647 1.64043 7.7312C1.55022 7.48976 1.50888 7.23322 1.50888 6.97669C1.50512 6.66357 1.61788 6.36176 1.82084 6.12409C1.98998 5.93169 2.21925 5.80342 2.47108 5.7657C2.84693 5.70911 3.204 5.58084 3.531 5.38844C3.59113 5.35449 3.60993 5.31676 3.54979 5.26395C3.48965 5.21113 3.50093 5.22999 3.531 5.20358C3.60617 5.12436 3.6212 5.00741 3.5761 4.90932C3.5761 4.8716 3.59489 4.84519 3.60241 4.79992C3.55355 4.8301 3.52348 4.83765 3.56482 4.90555C3.59113 4.97723 3.57234 5.05645 3.51596 5.10927C3.46334 5.15077 3.51596 5.27149 3.4032 5.25263C3.37689 5.20736 3.4032 5.16586 3.4032 5.12436C3.4032 5.08286 3.33179 5.37335 3.29045 5.3809C3.33555 5.08664 3.12131 5.3809 3.12131 5.3809C3.12131 5.3809 3.25662 5.08286 3.25662 5.06023C3.14762 5.12436 3.05366 5.21113 2.98224 5.31676C2.94842 5.37712 2.89204 5.42239 2.82814 5.44503C2.85821 5.41485 2.88828 5.37712 2.91083 5.3394L2.65901 5.36958C2.65901 5.3394 2.90707 5.27904 2.91835 5.26772C3.02359 5.19604 3.095 5.07909 3.11379 4.95082C2.94842 4.90178 2.3057 5.27149 2.09898 5.19981C2.33201 5.11682 3.05742 4.86783 3.07245 4.61129C3.02735 4.61129 3.0048 4.63015 2.986 4.65279C2.64397 4.84142 2.27187 4.96969 1.8885 5.03005C2.09898 4.92441 2.75297 4.60752 2.94466 4.48302C2.97849 4.46416 3.00104 4.42644 3.03862 4.41512C3.24159 4.33212 3.26038 4.15104 3.27917 3.97373C3.32427 3.66815 3.313 3.35503 3.24534 3.057C3.20776 2.87969 3.21152 2.69106 3.26414 2.51752C3.36562 2.15913 3.4671 1.80073 3.57986 1.44611C3.6851 1.17071 3.82792 0.906634 4.00082 0.668962C4.12485 0.476562 4.35037 0.374702 4.57588 0.412428C4.71119 0.427518 4.84274 0.389793 4.95174 0.310569C5.10208 0.201165 5.30129 0.201165 5.45163 0.310569C5.50801 0.340749 5.56815 0.352067 5.63204 0.348295C5.86507 0.397338 6.0718 0.53315 6.21462 0.725551C6.24845 0.774594 6.30107 0.804775 6.36121 0.801002C6.65814 0.793457 6.93251 0.97454 7.03399 1.25748C7.09037 1.39329 7.20689 1.49138 7.24823 1.63474C7.29709 1.84223 7.33468 2.05349 7.35723 2.26853C7.40609 2.59297 7.48878 2.90987 7.54892 3.23053C7.59402 3.4682 7.60154 3.70965 7.57147 3.94732C7.57147 4.02277 7.52637 4.09068 7.45871 4.12086C7.38354 4.14727 7.36099 4.20385 7.32716 4.26044C7.29334 4.31703 7.27454 4.21517 7.2783 4.17745C7.31589 3.98127 7.32716 3.80019 7.37978 3.5927C7.42113 3.51348 7.42113 3.41539 7.37978 3.33617C7.31965 3.33617 7.33092 3.38898 7.3234 3.41916C7.25951 3.66815 7.21065 3.91714 7.13548 4.17367C7.09037 4.36608 7.09037 4.56979 7.13548 4.76219C7.18434 4.98478 7.26703 5.19981 7.29709 5.42994C7.29709 5.46766 7.32716 5.47521 7.35723 5.48653C7.48502 5.52425 7.60906 5.5733 7.73309 5.62611C7.95485 5.75815 8.13526 5.95055 8.25177 6.18068C8.45474 6.50512 8.58253 6.86728 8.62763 7.24831L8.79301 7.19172C8.89073 7.16154 8.93583 7.19173 8.91328 7.29358C8.82308 7.83306 8.87946 8.38763 9.0749 8.89692C9.27787 9.56844 9.58231 10.2022 9.97696 10.7832C10.0897 10.9794 10.1649 11.1944 10.1987 11.417C10.1987 11.5038 10.2288 11.5943 10.3453 11.6132C10.3603 11.6169 10.3716 11.6283 10.3829 11.6396C10.4731 11.8093 10.646 11.8093 10.8039 11.8358C10.9053 11.8358 11.0068 11.8659 11.0557 11.9753C11.518 11.9753 11.954 11.8358 12.405 11.7905L12.7809 11.7113L15.3029 11.2435H15.3856C15.5622 11.2208 15.6411 11.3189 15.5735 11.4924C15.378 12.0017 15.1976 12.5073 14.9834 13.0015C14.7203 13.6805 14.4647 14.3671 14.1903 15.0424C14.1415 15.1896 14.1114 15.3405 14.1039 15.4951C14.1039 15.5819 14.04 15.6498 13.9535 15.6611L11.6195 16.1667L10.2852 16.4571L10.225 16.4798C10.2701 16.6986 10.3453 16.9098 10.4017 17.1249C10.4581 17.272 10.5708 17.389 10.7136 17.4493C10.8151 17.5059 10.8903 17.6002 10.9241 17.7134C10.9316 17.7323 10.9392 17.7474 10.9504 17.7624C11.4917 18.4377 11.9577 19.1734 12.3374 19.9543C12.5741 20.3768 12.8974 20.7541 13.1605 21.1615C13.2244 21.2558 13.3071 21.3388 13.401 21.4067C13.6002 21.5652 13.7694 21.7538 13.9047 21.9689C14.2956 22.58 14.7654 23.1346 15.3029 23.6212C15.7276 23.9985 16.0546 24.5455 15.7765 24.9265C15.2954 25.5867 14.4647 24.9718 14.273 24.7983C13.9874 24.5191 13.7355 24.206 13.5213 23.8665C13.3296 23.5647 13.0816 23.3043 12.8899 23.0025C12.841 22.9309 12.7959 22.8554 12.7546 22.78C12.6268 22.5498 12.4727 22.3348 12.296 22.1386C11.7097 21.5199 11.082 20.9427 10.4167 20.4146C10.1461 20.1693 9.883 19.9204 9.6199 19.6336C9.58983 19.7581 9.57104 19.8826 9.56728 20.0109C9.64997 20.5617 9.68379 21.1163 9.665 21.6708C9.62366 22.3197 9.54473 22.9648 9.42445 23.6024C9.32297 24.172 9.25156 24.7341 9.19518 25.3227C9.19518 25.4623 9.15759 25.6056 9.13504 25.7452C9.10121 25.8886 9.08994 26.0357 9.09745 26.1828C9.10873 26.2658 9.09745 26.3488 9.07114 26.428C9.06363 26.4695 9.06363 26.5148 9.07114 26.5563C9.05235 27.0845 9.12752 27.6126 9.2929 28.1144C9.40942 28.4765 9.49962 28.8462 9.556 29.2235C9.61614 29.5253 9.61614 29.8384 9.556 30.1402C9.51842 30.1855 9.37183 30.8193 8.79677 30.857ZM3.27541 4.73956C3.22655 4.77728 3.18897 4.82256 3.15514 4.87537C3.19648 4.88292 3.2491 4.76974 3.27541 4.73956ZM3.37689 4.49434C3.37689 4.56979 3.26038 4.5962 3.29045 4.68674C3.36186 4.64147 3.35058 4.55848 3.38065 4.49434H3.37689ZM7.93981 10.1306C7.84585 10.2249 7.73685 10.3041 7.61657 10.3607C7.53389 10.4022 7.48502 10.4852 7.48502 10.5757C7.48126 10.8549 7.44744 11.1303 7.3873 11.4019C7.33092 11.5943 7.36099 11.8018 7.46999 11.9716C7.71805 12.3752 7.92478 12.8015 8.09391 13.2467C8.16533 13.4844 8.2405 13.722 8.31567 13.9597C8.31567 13.9937 8.31567 14.0352 8.36829 14.0465C8.49232 14.0653 8.60884 13.9937 8.65018 13.8767C8.76294 13.4202 8.87194 12.96 8.99597 12.5073C9.04108 12.3526 8.99597 12.1866 8.8757 12.0772C8.63515 11.8433 8.46601 11.5415 8.39084 11.2133C8.28184 10.836 8.1315 10.4701 7.93981 10.1306ZM6.80848 1.13676C6.74082 1.02736 6.60927 0.978313 6.48524 1.01227C6.54914 1.17826 6.68445 1.13676 6.80848 1.13676ZM7.03399 4.43775C6.98889 4.58488 6.87989 4.72824 7.00017 4.9131C6.98889 4.75088 7.00017 4.59243 7.03399 4.43775ZM3.09876 4.76219C3.0499 4.76219 3.02359 4.78483 3.04238 4.8301C3.06117 4.87537 3.08373 4.80747 3.08748 4.76219H3.09876ZM7.44368 4.03786C7.44368 4.07559 7.42113 4.08691 7.44368 4.10577V4.03786Z" fill="#01C089"/>
<path d="M112.511 19.7953C112.47 19.9424 112.455 20.0971 112.47 20.248C112.477 20.2782 112.489 20.3046 112.507 20.3272C112.545 20.3763 112.594 20.4216 112.564 20.497C112.564 20.497 112.564 20.5196 112.564 20.531C112.568 20.2782 112.549 20.0254 112.5 19.7764L112.511 19.7953ZM118.92 7.36093C118.972 7.29303 119.002 7.21003 119.002 7.12326C118.983 7.12326 119.002 7.15344 118.976 7.14967C118.95 7.1459 118.976 7.09685 118.976 7.0629C118.953 7.17608 118.912 7.27794 118.901 7.38734C118.882 7.41375 118.837 7.41375 118.829 7.4477C118.901 7.56465 118.983 7.48543 119.062 7.46657C119.141 7.4477 119.085 7.37225 119.111 7.33075C119.111 7.35716 119.111 7.39111 119.111 7.42884C119.145 7.39489 119.171 7.35339 119.19 7.30812C119.19 7.41752 119.074 7.46657 119.07 7.56842C119.111 7.54202 119.149 7.50429 119.175 7.46279C119.156 7.52693 119.115 7.58351 119.059 7.62501C119.074 7.64765 119.096 7.66651 119.119 7.67783C119.145 7.67783 119.16 7.6401 119.19 7.64388C119.22 7.64765 119.16 7.68537 119.164 7.70801C119.243 7.76083 119.262 7.87023 119.209 7.94945C119.198 7.96832 119.183 7.98341 119.164 7.99473C119.066 8.08149 119.062 8.11167 119.164 8.20976C119.209 8.25503 119.228 8.32294 119.209 8.3833L119.186 8.32671C119.104 8.39084 119.186 8.4927 119.134 8.57193C119.134 8.53043 119.153 8.48516 119.104 8.45498C119.085 8.51911 119.104 8.59079 119.036 8.63606C119.201 8.76056 119.352 8.90769 119.48 9.06991C119.63 9.23213 119.739 9.43207 119.792 9.64711C119.829 9.86592 119.855 10.0885 119.863 10.3111C119.885 10.4771 119.885 10.6506 119.863 10.8166C119.792 11.1901 119.694 11.5598 119.57 11.9182C119.532 12.0238 119.483 12.1219 119.457 12.2275C119.419 12.3671 119.408 12.518 119.427 12.6614C119.427 12.7218 119.506 14.4156 119.566 14.9249C119.604 15.1739 119.619 15.4267 119.615 15.6794C119.592 15.9096 119.585 16.1435 119.596 16.3736C119.6 16.4641 119.581 16.5547 119.54 16.6339C119.54 16.6339 119.521 16.6754 119.51 16.6754C119.427 16.6754 119.423 16.7659 119.404 16.8263C119.386 16.9055 119.34 16.9772 119.273 17.0262C119.22 17.0489 119.171 17.0791 119.122 17.0979C119.081 17.113 119.051 17.1432 119.036 17.1847C118.98 17.3394 118.912 17.494 118.856 17.6487C118.844 17.7129 118.784 17.7544 118.72 17.7506C118.611 17.7468 118.502 17.7544 118.393 17.7694C118.006 17.8109 117.619 17.777 117.243 17.6789C116.92 17.5959 116.616 17.445 116.349 17.2413C116.247 17.1734 116.161 17.1319 116.052 17.2111H116.014C115.548 17.362 115.063 17.4488 114.575 17.4639C114.304 17.4752 114.037 17.5318 113.785 17.6336C113.661 17.6789 113.665 17.7015 113.684 17.8298C113.74 18.0599 113.782 18.2901 113.812 18.524C113.842 18.8144 113.827 19.1087 113.763 19.3916C113.676 19.7199 113.62 20.0556 113.59 20.3914C113.56 20.6441 113.533 20.9007 113.507 21.1459C113.47 21.4024 113.47 21.6665 113.507 21.923C113.507 21.957 113.518 21.9909 113.545 22.0174C113.594 22.0438 113.616 22.1041 113.597 22.1569C113.594 22.1758 113.594 22.1984 113.597 22.2173C113.665 22.3757 113.665 22.5568 113.597 22.7153C113.71 22.7832 113.718 22.7907 113.688 22.9152C113.65 23.0548 113.609 23.1906 113.556 23.3227C113.533 23.3792 113.485 23.417 113.425 23.4245C113.353 23.4358 113.278 23.4358 113.206 23.4245C113.022 23.3981 112.838 23.3566 112.658 23.3076C112.526 23.3038 112.391 23.334 112.274 23.3943C111.82 23.549 111.331 23.549 110.876 23.3943C110.778 23.3717 110.7 23.3 110.658 23.2095C110.624 23.1265 110.658 23.0812 110.733 23.0586C110.771 23.0473 110.809 23.0284 110.842 23.0058C110.895 22.9605 110.959 22.9303 111.027 22.9115C111.128 22.8964 111.222 22.8435 111.29 22.7643C111.354 22.704 111.447 22.6813 111.53 22.7077C111.519 22.719 111.511 22.7304 111.504 22.7455C111.564 22.7455 111.598 22.7115 111.635 22.6813C111.797 22.5455 111.962 22.4097 112.135 22.3041C112.308 22.1833 112.44 22.006 112.511 21.8061C112.53 21.7382 112.541 21.6665 112.541 21.5948C112.353 21.6476 112.154 21.659 111.962 21.625C111.726 21.5911 111.485 21.6288 111.271 21.7382C110.895 21.9306 110.444 21.9004 110.102 21.6552C110.015 21.5986 109.944 21.5194 109.895 21.4251C109.854 21.3609 109.873 21.2779 109.933 21.2364C109.94 21.2327 109.948 21.2289 109.955 21.2251C109.985 21.2063 110.019 21.1949 110.053 21.1874C110.072 21.1874 110.094 21.1874 110.098 21.1874C110.102 21.1874 110.155 21.1195 110.196 21.0968C110.245 21.078 110.286 21.0403 110.312 20.995C110.35 20.9082 110.455 20.8667 110.542 20.9044C110.56 20.912 110.587 20.912 110.606 20.9044C110.666 20.8479 110.741 20.8064 110.824 20.7837C110.842 20.78 110.861 20.7686 110.872 20.7498C110.963 20.6517 111.064 20.5725 111.181 20.5083C111.252 20.4706 111.305 20.4065 111.331 20.331C111.342 20.3008 111.361 20.2707 111.384 20.248C111.455 20.1763 111.511 20.0896 111.545 19.9915C111.774 19.4746 111.883 18.9088 111.853 18.3429C111.835 17.9883 111.846 17.6336 111.895 17.2828C111.936 17.0338 111.962 16.781 111.974 16.5283C111.97 16.4113 111.977 16.2944 111.992 16.1774L112.094 15.6832C112.117 15.4078 112.308 15.1739 112.571 15.0947L112.699 15.0683C112.646 15.0419 112.646 14.9777 112.605 14.9513C112.564 14.9249 112.556 14.8759 112.553 14.8268C112.549 14.7778 112.553 14.7325 112.631 14.7288C112.549 14.7288 112.526 14.6759 112.515 14.6118C112.507 14.5854 112.496 14.5628 112.485 14.5401L112.09 13.6951L111.481 12.4049C111.455 12.3596 111.44 12.3068 111.447 12.254C111.447 12.2238 111.447 12.1936 111.508 12.1898C111.639 12.1823 111.771 12.1823 111.902 12.1898C111.985 12.1898 112.056 12.2426 112.083 12.3219C112.459 13.1216 112.834 13.9177 113.21 14.7137C113.222 14.7476 113.255 14.7703 113.289 14.7665C113.481 14.7665 113.665 14.7665 113.86 14.7665C113.891 14.7665 113.921 14.7514 113.936 14.725C113.985 14.6307 114.056 14.5514 114.142 14.4949C114.203 14.4571 114.259 14.3892 114.33 14.3892C114.439 14.3779 114.552 14.3779 114.661 14.3892C114.717 14.4043 114.778 14.393 114.826 14.359C114.913 14.3175 115.011 14.3175 115.097 14.359C115.274 14.3968 115.458 14.3817 115.623 14.3138C115.841 14.1968 116.044 14.0497 116.221 13.8762C116.379 13.7479 116.51 13.5819 116.597 13.397C116.683 13.2084 116.781 13.0198 116.875 12.8387C116.905 12.7897 116.927 12.7406 116.946 12.6878C116.976 12.5256 116.931 12.3596 116.818 12.2389C116.732 12.1257 116.668 11.9974 116.623 11.8616C116.589 11.7673 116.582 11.6692 116.6 11.5711C116.664 11.2731 116.762 10.9864 116.894 10.711C116.909 10.6808 116.916 10.6468 116.916 10.6129C116.901 10.428 116.92 10.2432 116.976 10.0659C116.976 10.0432 116.976 10.0244 116.976 10.0017C116.988 9.90742 117.052 9.82442 117.142 9.79424C117.157 9.79047 117.168 9.77915 117.172 9.76406C117.172 9.69615 117.239 9.66974 117.296 9.64711C117.326 9.63956 117.356 9.62447 117.382 9.60561C117.484 9.49243 117.619 9.42076 117.724 9.31135C117.83 9.20195 117.807 9.23967 117.758 9.14536C117.747 9.12649 117.739 9.10763 117.736 9.085C117.702 8.93032 117.634 8.78319 117.54 8.65492L117.435 8.7266C117.296 8.82092 117.112 8.78696 117.01 8.65492L116.973 8.59834C116.946 8.56061 116.924 8.53043 116.867 8.5342C116.811 8.53797 116.803 8.50025 116.811 8.45498C116.818 8.40971 116.811 8.42103 116.811 8.39839C116.811 8.37575 116.717 8.39839 116.702 8.33048C116.679 8.26635 116.627 8.21353 116.563 8.19467C116.514 8.17581 116.461 8.1494 116.465 8.08904C116.465 7.96077 116.386 7.86269 116.386 7.73442C116.36 7.73442 116.352 7.77214 116.322 7.76083C116.292 7.74951 116.322 7.71933 116.322 7.70046C116.322 7.6816 116.285 7.62879 116.281 7.58352C116.281 7.54202 116.266 7.50429 116.236 7.47788C116.221 7.46657 116.213 7.4477 116.213 7.42884C116.213 7.31566 116.176 7.20626 116.161 7.09685C116.146 6.98745 116.161 6.97613 116.116 6.93086C116.116 6.93086 116.134 6.93086 116.153 6.93086C116.172 6.93086 116.123 6.87805 116.104 6.85164C116.104 6.88559 116.134 6.90068 116.104 6.92709C116.074 6.9535 116.052 6.88182 116.048 6.84786C116.044 6.81391 116.029 6.77996 116.01 6.75355C115.943 6.6781 115.984 6.61019 116.01 6.54606C116.055 6.4442 116.127 6.35366 116.217 6.28198C116.255 6.2518 116.281 6.21407 116.296 6.1688C116.311 6.12353 116.341 6.08203 116.386 6.06317C116.491 6.02922 116.567 5.92736 116.691 5.9349C116.717 5.9349 116.743 5.92359 116.766 5.90472C116.89 5.79155 117.063 5.784 117.202 5.70478C117.232 5.69346 117.27 5.69346 117.3 5.70478L117.431 5.72364C117.675 5.74628 117.89 5.88963 118.01 6.1009C118.017 6.1273 118.036 6.14994 118.063 6.16503C118.115 6.18389 118.145 6.24425 118.126 6.29707C118.115 6.31216 118.115 6.32725 118.126 6.34234H118.183C118.168 6.30462 118.168 6.26689 118.183 6.22916C118.183 6.28953 118.183 6.33857 118.266 6.35366C118.288 6.35743 118.307 6.35743 118.329 6.35366C118.42 6.34234 118.51 6.3612 118.589 6.4027C118.773 6.50079 118.912 6.67433 118.965 6.87805C118.98 6.93463 118.987 6.995 118.995 7.05536C119.021 7.19871 118.987 7.34584 118.893 7.45902" fill="#01C089"/>
<path d="M129.507 15.2266C129.466 15.3586 129.406 15.4869 129.33 15.6038C129.266 15.717 129.184 15.8189 129.112 15.9283L128.879 16.3055L128.684 16.6338C128.612 16.7545 128.552 16.7168 128.492 16.6866C128.462 16.6715 128.443 16.6413 128.432 16.6111C128.417 16.5772 128.41 16.5432 128.402 16.5055C128.387 16.4451 128.368 16.3848 128.346 16.3282V16.3055C128.346 16.2867 128.319 16.2452 128.289 16.1773C128.259 16.1094 128.312 16.0339 128.312 16.0339C128.379 15.9811 128.342 15.9207 128.349 15.9019C128.346 15.8302 128.364 15.7547 128.406 15.6944C128.447 15.6114 128.312 15.4039 128.207 15.3171C128.056 15.1738 127.891 15.0455 127.714 14.9399C127.504 14.7965 127.282 14.6683 127.071 14.5249C126.985 14.4494 126.861 14.4344 126.76 14.4834C126.662 14.5211 126.56 14.5551 126.459 14.5777H126.41C126.387 14.8305 126.387 15.0795 126.41 15.3322C126.47 15.5548 126.557 15.7698 126.669 15.9698C126.752 16.1509 126.714 16.2754 126.523 16.3169C126.342 16.347 126.162 16.3659 125.982 16.3735C125.624 16.3961 125.267 16.4112 124.91 16.4263C124.869 16.4338 124.828 16.4225 124.794 16.3999C124.734 16.347 124.764 16.2037 124.892 16.1433C125.019 16.083 125.034 15.9924 125.11 15.917C125.185 15.8415 125.2 15.8453 125.234 15.8528C125.403 15.9057 125.467 15.8076 125.564 15.6868C125.82 15.3662 125.613 15.0417 125.602 14.7211C125.572 14.5702 125.527 14.4193 125.463 14.2797C125.369 13.8836 125.346 13.4723 125.391 13.0649C125.391 12.8423 125.538 12.6273 125.433 12.3896C125.399 12.3142 125.47 12.1972 125.504 12.0991C125.519 12.0539 125.542 12.0086 125.568 11.9671L125.369 11.8351L125.5 11.4578L125.455 11.4163C125.301 11.5031 125.158 11.6049 125.027 11.7219C124.914 11.8652 124.745 11.952 124.565 11.9671L124.474 12.2161C124.286 12.1633 124.177 11.9709 124.23 11.786C124.23 11.7822 124.234 11.7785 124.234 11.7709C124.234 11.5634 124.403 11.3937 124.61 11.3937C124.952 11.3107 125.181 10.99 125.155 10.6392C125.031 10.077 125.064 9.48852 125.256 8.94527C125.297 8.82455 125.297 8.68873 125.256 8.56801C125.185 8.33411 125.188 8.29639 125.425 8.21339C125.44 8.20585 125.455 8.1983 125.467 8.18698C125.331 8.1568 125.158 8.16435 125.072 8.08135C124.985 7.99836 124.809 7.93422 124.892 7.79086L124.798 7.57206C124.798 7.57206 124.798 7.57206 124.798 7.55319C124.576 7.43247 124.798 7.28157 124.767 7.17594C124.741 7.03258 124.67 6.90054 124.568 6.79868C124.403 6.64023 124.335 6.52706 124.444 6.33088C124.523 6.21016 124.621 6.10076 124.73 6.00644C124.813 5.93099 124.899 5.86308 124.993 5.80272C125.046 5.765 125.106 5.70841 125.166 5.70841C125.365 5.67823 125.561 5.61787 125.741 5.5311C125.974 5.45187 126.226 5.45187 126.459 5.5311C126.711 5.61787 126.729 5.85554 126.835 6.0253C126.94 6.17998 127.034 6.33843 127.117 6.50442C127.162 6.5761 127.188 6.6591 127.192 6.74209C127.184 6.98354 127.105 7.21366 126.966 7.40983C126.88 7.49283 126.782 7.56074 126.681 7.6211C126.613 7.68146 126.557 7.75314 126.466 7.84745C126.538 7.855 126.609 7.86632 126.681 7.88518C126.722 7.88518 126.778 7.95308 126.775 7.98326C126.76 8.20962 126.85 8.42843 127.015 8.5831C127.105 8.69628 127.173 8.82455 127.218 8.96036C127.323 9.22821 127.47 9.4772 127.662 9.69224C127.846 9.94123 127.974 10.2242 128.037 10.526C128.105 10.7599 128.158 10.9975 128.199 11.239C128.252 11.4352 128.323 11.62 128.413 11.8011C128.47 12.0124 128.477 12.2387 128.436 12.4538C128.436 12.4915 128.244 12.5179 128.139 12.5292C128.083 12.5254 128.03 12.5141 127.981 12.4877V12.1105H127.925L127.88 12.4009H127.838C127.819 12.3708 127.786 12.3406 127.782 12.3104C127.771 12.1105 127.771 11.9067 127.782 11.7068C127.793 11.3408 127.699 10.9787 127.511 10.6656C127.444 11.0428 127.368 11.4012 127.654 11.7181L127.489 11.7671C127.489 11.7671 127.489 11.8011 127.489 11.8162C127.583 12.0237 127.56 12.2614 127.436 12.45C127.417 12.4726 127.406 12.499 127.406 12.5292C127.417 12.8536 127.372 13.1743 127.278 13.4837C127.274 13.5176 127.274 13.5516 127.278 13.5855C127.425 13.7025 127.549 13.7892 127.654 13.8911L128.609 14.7588C128.609 14.7588 128.65 14.7965 128.665 14.7927C128.97 14.6984 129.18 14.9286 129.451 15.0002C129.62 15.0417 129.548 15.1549 129.533 15.219" fill="#01C089"/>
<path d="M26.1127 16.2264C26.0187 16.1207 25.8909 16.0453 25.8082 15.9359C25.5977 15.6643 25.3008 15.4379 25.3008 15.0456C25.3121 14.3099 25.2256 13.5743 25.0452 12.8575C24.9137 12.2878 24.9061 11.6993 25.0227 11.1296C25.1392 10.6996 25.158 10.2506 25.0753 9.81302C25.0264 9.56403 24.9926 9.31126 24.9776 9.0585C25.2294 8.9906 25.5526 9.0585 25.7067 8.85478C25.7518 8.79442 25.6729 8.66993 25.7067 8.61334C25.8759 8.37567 25.7443 8.16441 25.7067 7.9456C25.6503 7.8211 25.624 7.68529 25.6203 7.54948C25.6541 7.34199 25.7669 7.14959 25.8082 6.94587C25.8909 6.59879 25.9398 6.24417 25.9585 5.88955C25.9698 5.64056 25.9247 5.3878 25.827 5.15767C25.6466 4.77287 25.4399 4.39939 25.2068 4.04477C25.1392 3.93536 24.9813 3.88255 24.861 3.80332C25.0828 3.56565 25.0903 3.53547 24.8874 3.31289C24.7671 3.18462 24.846 3.09408 24.9249 2.98845C25.0527 2.82623 25.1692 2.65646 25.2707 2.47538C25.3497 2.35843 25.3196 2.20375 25.2031 2.12453C25.188 2.11321 25.1692 2.10567 25.1542 2.09812C24.8272 1.95854 24.6243 1.62655 24.6468 1.27193C24.6468 1.22289 24.6205 1.17762 24.6167 1.13235C24.5754 0.434421 24.0041 0.257111 23.508 0.0194394C23.4178 -0.0220588 23.2824 0.0194394 23.1697 0.04962C23.0569 0.0798005 23.0532 0.0948907 22.993 0.102436C22.3804 0.189205 21.9181 0.706046 21.8993 1.32475C21.9106 1.46433 21.8918 1.60392 21.8429 1.73596C21.7001 2.01135 21.5385 2.27921 21.3656 2.53574C21.2641 2.69041 21.2115 2.81868 21.3956 2.95072C21.4821 2.99222 21.5197 3.09408 21.4783 3.18085C21.4708 3.20348 21.452 3.22612 21.4295 3.24498C21.3956 3.32798 21.3956 3.42229 21.4295 3.50529C21.452 3.61092 21.5347 3.70523 21.5497 3.80709C21.5648 3.90895 21.6625 4.18435 21.4708 4.25603C21.1062 4.44843 20.8319 4.78419 20.7191 5.18408C20.6026 5.47834 20.2831 5.72356 20.4598 6.10459C20.4598 6.13854 20.4372 6.19513 20.4259 6.2404C20.2906 6.67047 20.2079 7.11941 20.1891 7.57211C20.1891 8.29267 20.3357 9.02832 20.0463 9.73379C20.0313 9.77906 20.0238 9.82433 20.0238 9.87338C19.9937 10.1601 20.2681 10.5524 20.4823 10.4996C20.7529 10.4393 20.8957 10.4129 20.9784 10.3185C21.1964 10.0771 21.2491 9.73002 21.1137 9.43576C20.9972 9.20186 20.9371 8.94155 20.9408 8.68125C21.0273 7.9871 21.1852 7.30049 21.3167 6.61011H21.4182C21.4445 6.88928 21.4858 7.16468 21.4896 7.44007C21.5648 8.24363 21.5648 9.05096 21.4896 9.85452C21.452 10.1035 21.452 10.36 21.4896 10.609C21.6287 11.3899 21.6587 12.186 21.5798 12.9744C21.5159 13.5856 21.5535 14.2005 21.6926 14.8003C21.7903 15.1248 21.7753 15.4719 21.6437 15.785C21.561 15.9963 21.5309 16.2226 21.5497 16.4452C21.561 16.547 21.6212 16.6414 21.7151 16.6866C22.091 16.7357 22.4668 16.7583 22.8728 16.7696C22.9216 16.7696 23.0231 16.6376 23.0193 16.5772C23.0231 16.3358 22.978 16.0943 22.8878 15.868C22.651 15.4417 22.5796 14.9437 22.6811 14.4684C22.7262 13.8119 22.8352 13.1593 23.0081 12.5255C23.0457 12.2765 23.0644 12.0237 23.0569 11.771C23.1058 11.3937 23.1885 11.0165 23.2599 10.6392H23.32C23.4215 11.2013 23.4854 11.771 23.6245 12.3255C23.7936 13.0122 24.0003 13.6874 24.2296 14.3665C24.3837 14.7362 24.4514 15.1323 24.4363 15.5322C24.4063 15.7774 24.3536 16.0227 24.3461 16.2867C24.3574 16.3961 24.4138 16.498 24.5002 16.5659C24.9888 16.8903 25.5226 16.7734 26.0375 16.664C26.169 16.6225 26.2404 16.4829 26.2029 16.3509C26.1878 16.3018 26.154 16.2566 26.1127 16.2264Z" fill="#01C089"/>
<path d="M100.95 20.6367H95.2705L96.2177 38.7941H100.773L103.103 45.6526H109.493L100.95 20.6367ZM96.9807 33.4031L98.0406 30.2643L99.108 33.4031H96.9807Z" fill="#151F2F"/>
<path d="M2.17067 6.75764L1.90757 6.45206C1.90757 6.45206 1.7422 6.41434 1.67078 6.82932L1.79482 7.26694L1.47158 7.31598C1.11076 7.6706 0.877723 8.1384 0.813827 8.64015C1.07317 9.18717 1.16713 9.8021 1.08445 10.4019C1.08445 10.4019 1.03182 9.34562 0.746173 9.12681C0.746173 9.12681 -0.148369 8.59111 0.0583527 11.7374C0.152317 13.122 0.347763 14.4952 0.644691 15.8495C0.644691 15.8495 1.06189 16.4795 1.85495 15.7024C2.33605 15.2157 2.71943 14.6423 2.98253 14.0123L2.17067 6.75764Z" fill="#01C089"/>
</g>
<defs>
<clipPath id="clip0">
<rect width="141.447" height="46.8967" fill="white" transform="translate(0.0283203)"/>
</clipPath>
</defs>
</svg>
