<svg width="27" height="28" viewBox="0 0 27 28" fill="none" xmlns="http://www.w3.org/2000/svg">
<circle cx="23.5785" cy="4.3827" r="3.42176" fill="#F98D00"/>
<path d="M19.4108 24.5356H4.38922C3.92794 24.5356 3.55469 24.1619 3.55469 23.701V12.8521C3.55469 8.25041 7.29866 4.50684 11.9 4.50684C16.5013 4.50684 20.2453 8.25041 20.2453 12.8521V23.701C20.2453 24.1619 19.872 24.5356 19.4108 24.5356ZM5.22375 22.8665H18.5762V12.8521C18.5762 9.17092 15.5812 6.1759 11.9 6.1759C8.21877 6.1759 5.22375 9.17092 5.22375 12.8521V22.8665Z" fill="#023D4D"/>
<path d="M7.78668 13.867C7.32541 13.867 6.95215 13.4933 6.95215 13.0325C6.95215 10.3773 9.11264 8.2168 11.7678 8.2168C12.2291 8.2168 12.6023 8.59046 12.6023 9.05133C12.6023 9.51219 12.2291 9.88586 11.7678 9.88586C10.0327 9.88586 8.62121 11.2974 8.62121 13.0325C8.62121 13.4933 8.24795 13.867 7.78668 13.867Z" fill="#023D4D"/>
<path d="M22.7413 24.5353H1.04351C0.582241 24.5353 0.208984 24.1616 0.208984 23.7007C0.208984 23.2399 0.582241 22.8662 1.04351 22.8662H22.7413C23.2026 22.8662 23.5758 23.2399 23.5758 23.7007C23.5758 24.1616 23.2026 24.5353 22.7413 24.5353Z" fill="#023D4D"/>
<path d="M11.8869 27.0393C13.7306 27.0393 15.2251 25.5447 15.2251 23.7012H8.54883C8.54883 25.5447 10.0433 27.0393 11.8869 27.0393Z" fill="#023D4D"/>
</svg>
