<svg width="187" height="31" viewBox="0 0 187 31" fill="none" xmlns="http://www.w3.org/2000/svg">
<path d="M53.4143 10.0911C53.4143 11.7877 53.0129 13.1049 52.2132 14.0395C51.4104 14.9772 50.3002 15.4445 48.8764 15.4445C47.4588 15.4445 46.3455 14.9803 45.5333 14.052C44.7242 13.1237 44.3133 11.8222 44.3008 10.1507V7.98991C44.3008 6.2525 44.7022 4.8977 45.5082 3.92237C46.3142 2.94704 47.4306 2.46094 48.8607 2.46094C50.2657 2.46094 51.3759 2.94076 52.185 3.89728C52.9941 4.85379 53.4049 6.19919 53.4175 7.93032V10.0911H53.4143ZM50.8553 7.97423C50.8553 6.83268 50.6922 5.98593 50.3692 5.43084C50.0461 4.87575 49.5412 4.59663 48.8576 4.59663C48.1802 4.59663 47.6784 4.8632 47.3554 5.39948C47.0323 5.93575 46.863 6.74801 46.8504 7.84251V10.0911C46.8504 11.1982 47.0167 12.0104 47.3459 12.5341C47.6752 13.0579 48.1864 13.3182 48.8732 13.3182C49.5381 13.3182 50.0336 13.061 50.3566 12.5498C50.6796 12.0386 50.8459 11.2421 50.8521 10.1664V7.97423H50.8553Z" fill="#242833"/>
<path d="M57.3717 5.88265L57.4407 6.81094C57.9957 6.07709 58.7233 5.70703 59.6203 5.70703C61.2353 5.70703 62.0664 6.83917 62.1103 9.10031V15.2722H59.6453V9.2822C59.6453 8.74906 59.5669 8.36332 59.407 8.12184C59.2471 7.88036 58.9679 7.76119 58.5697 7.76119C58.1243 7.76119 57.7762 7.99012 57.5285 8.448V15.2722H55.0635V5.88265H57.3717Z" fill="#242833"/>
<path d="M68.0345 12.7568C68.0345 12.5498 67.9341 12.3554 67.7334 12.1798C67.5327 12.0041 67.0905 11.7658 66.4006 11.4647C65.3876 11.0539 64.6914 10.6274 64.3119 10.1883C63.9324 9.74928 63.7443 9.20046 63.7443 8.54815C63.7443 7.72648 64.0422 7.04908 64.6349 6.51281C65.2276 5.97653 66.0148 5.70996 66.9933 5.70996C68.0219 5.70996 68.8467 5.97653 69.4677 6.50967C70.0855 7.04281 70.396 7.75784 70.396 8.65477H67.9404C67.9404 7.88956 67.6205 7.51009 66.987 7.51009C66.7267 7.51009 66.5135 7.59163 66.3441 7.75471C66.1748 7.91779 66.0932 8.14359 66.0932 8.43211C66.0932 8.63909 66.1842 8.82412 66.3723 8.98407C66.5574 9.14401 66.9933 9.36981 67.6832 9.6646C68.6836 10.0347 69.3924 10.4486 69.8064 10.9002C70.2203 11.355 70.4273 11.9446 70.4273 12.6659C70.4273 13.5063 70.1106 14.1806 69.4802 14.6887C68.8499 15.1967 68.0219 15.4539 66.9964 15.4539C66.3065 15.4539 65.7012 15.319 65.1743 15.0493C64.6475 14.7796 64.2366 14.4064 63.9387 13.9266C63.6408 13.4468 63.4902 12.9293 63.4902 12.3711H65.8266C65.8392 12.8007 65.9364 13.1206 66.1246 13.3339C66.3127 13.5471 66.6201 13.6537 67.0497 13.6537C67.702 13.6506 68.0345 13.3527 68.0345 12.7568Z" fill="#242833"/>
<path d="M74.345 6.70733C74.8782 6.04247 75.5305 5.71004 76.3082 5.71004C77.1644 5.71004 77.8167 6.01111 78.262 6.61324C78.7074 7.21538 78.9332 8.11231 78.9394 9.30403V15.2752H76.4744V9.32912C76.4744 8.7803 76.3898 8.38201 76.2173 8.13426C76.0479 7.88964 75.7688 7.7642 75.3893 7.7642C74.944 7.7642 74.5959 7.97118 74.3482 8.37888V15.2721H71.8926V1.94043H74.3482V6.70733H74.345Z" fill="#242833"/>
<path d="M80.4131 10.2761C80.4131 8.85235 80.7487 7.73589 81.4198 6.92677C82.0909 6.11766 83.0192 5.70996 84.2078 5.70996C85.4058 5.70996 86.3403 6.11452 87.0115 6.92677C87.6826 7.73589 88.0182 8.85862 88.0182 10.295V10.894C88.0182 12.324 87.6857 13.4405 87.0209 14.2433C86.356 15.0493 85.4246 15.4507 84.2266 15.4507C83.0223 15.4507 82.0878 15.0462 81.4198 14.2402C80.7518 13.4342 80.4162 12.3115 80.4162 10.8751V10.2761H80.4131ZM82.8781 10.8908C82.8781 12.5686 83.3265 13.4091 84.2235 13.4091C85.0514 13.4091 85.4967 12.7098 85.5594 11.3079L85.5688 10.2761C85.5688 9.41999 85.4497 8.78335 85.2145 8.36939C84.9761 7.95542 84.6406 7.74844 84.2078 7.74844C83.7907 7.74844 83.4645 7.95542 83.2325 8.36939C82.9972 8.78335 82.8812 9.41685 82.8812 10.2761V10.8908H82.8781Z" fill="#242833"/>
<path d="M94.1807 8.25335L93.3653 8.18436C92.6942 8.18436 92.2395 8.47915 92.0011 9.06874V15.2751H89.5361V5.88245H91.8537L91.9227 6.89855C92.3116 6.10511 92.8447 5.70996 93.5284 5.70996C93.8075 5.70996 94.0333 5.74759 94.2058 5.82286L94.1807 8.25335Z" fill="#242833"/>
<path d="M99.0668 15.4478C97.806 15.4478 96.8213 15.0715 96.1157 14.3188C95.41 13.5661 95.0557 12.4905 95.0557 11.0886V10.3422C95.0557 8.86196 95.3787 7.71728 96.0279 6.91444C96.677 6.10845 97.6053 5.70703 98.8159 5.70703C99.995 5.70703 100.886 6.08337 101.482 6.83917C102.077 7.59184 102.382 8.70829 102.394 10.1885V11.3928H97.5081C97.5426 12.089 97.6963 12.6002 97.9691 12.9232C98.242 13.2463 98.6622 13.4062 99.2267 13.4062C100.048 13.4062 100.735 13.1239 101.284 12.5626L102.247 14.046C101.946 14.4631 101.51 14.7986 100.936 15.0589C100.362 15.3192 99.7379 15.4478 99.0668 15.4478ZM97.5238 9.68363H99.9794V9.45783C99.9668 8.89646 99.8759 8.46995 99.7003 8.18143C99.5246 7.8929 99.2267 7.74864 98.797 7.74864C98.3674 7.74864 98.0569 7.90231 97.8625 8.20965C97.6712 8.51699 97.5583 9.00623 97.5238 9.68363Z" fill="#242833"/>
<path d="M111.335 2.63672L113.721 11.7785L116.099 2.63672H119.432V15.2753H116.87V11.8538L117.105 6.58509L114.581 15.2753H112.843L110.316 6.58509L110.551 11.8538V15.2753H107.998V2.63672H111.335Z" fill="#242833"/>
<path d="M121.073 10.2761C121.073 8.85235 121.409 7.73589 122.08 6.92677C122.751 6.11766 123.679 5.70996 124.868 5.70996C126.066 5.70996 127 6.11452 127.672 6.92677C128.343 7.73589 128.678 8.85862 128.678 10.295V10.894C128.678 12.324 128.346 13.4405 127.681 14.2433C127.016 15.0493 126.085 15.4507 124.887 15.4507C123.682 15.4507 122.748 15.0462 122.08 14.2402C121.412 13.4342 121.076 12.3115 121.076 10.8751V10.2761H121.073ZM123.541 10.8908C123.541 12.5686 123.99 13.4091 124.887 13.4091C125.715 13.4091 126.16 12.7098 126.223 11.3079L126.232 10.2761C126.232 9.41999 126.113 8.78335 125.878 8.36939C125.639 7.95542 125.304 7.74844 124.871 7.74844C124.454 7.74844 124.128 7.95542 123.896 8.36939C123.664 8.78335 123.545 9.41685 123.545 10.2761V10.8908H123.541Z" fill="#242833"/>
<path d="M132.516 5.88245L132.585 6.75115C133.134 6.05807 133.862 5.70996 134.765 5.70996C135.703 5.70996 136.364 6.13334 136.753 6.97695C137.293 6.13334 138.058 5.70996 139.055 5.70996C140.698 5.70996 141.542 6.84837 141.58 9.12206V15.2783H139.124V9.27572C139.124 8.73318 139.049 8.3443 138.898 8.11223C138.748 7.88015 138.494 7.76412 138.133 7.76412C137.675 7.76412 137.333 8.04323 137.108 8.6046L137.126 8.89939V15.272H134.671V9.29454C134.671 8.75513 134.599 8.36625 134.454 8.12791C134.31 7.88643 134.053 7.76725 133.683 7.76725C133.26 7.76725 132.924 7.99619 132.676 8.45406V15.2783H130.221V5.88245H132.516Z" fill="#242833"/>
<path d="M147.187 15.4478C145.926 15.4478 144.941 15.0715 144.236 14.3188C143.53 13.5661 143.176 12.4905 143.176 11.0886V10.3422C143.176 8.86196 143.499 7.71728 144.148 6.91444C144.797 6.10845 145.725 5.70703 146.933 5.70703C148.112 5.70703 149.003 6.08337 149.599 6.83917C150.194 7.59184 150.499 8.70829 150.511 10.1885V11.3928H145.625C145.66 12.089 145.813 12.6002 146.086 12.9232C146.359 13.2463 146.779 13.4062 147.344 13.4062C148.165 13.4062 148.852 13.1239 149.401 12.5626L150.364 14.046C150.063 14.4631 149.627 14.7986 149.053 15.0589C148.479 15.3192 147.858 15.4478 147.187 15.4478ZM145.641 9.68363H148.096V9.45783C148.084 8.89646 147.993 8.46995 147.817 8.18143C147.645 7.8929 147.344 7.74864 146.914 7.74864C146.484 7.74864 146.174 7.90231 145.979 8.20965C145.791 8.51699 145.675 9.00623 145.641 9.68363Z" fill="#242833"/>
<path d="M154.149 5.88265L154.218 6.81094C154.773 6.07709 155.501 5.70703 156.398 5.70703C158.013 5.70703 158.844 6.83917 158.888 9.10031V15.2722H156.423V9.2822C156.423 8.74906 156.344 8.36332 156.184 8.12184C156.024 7.88036 155.745 7.76119 155.347 7.76119C154.902 7.76119 154.554 7.99012 154.306 8.448V15.2722H151.841V5.88265H154.149Z" fill="#242833"/>
<path d="M163.508 3.57422V5.8824H164.765V7.7233H163.508V12.393C163.508 12.763 163.558 13.0202 163.658 13.1582C163.759 13.2962 163.956 13.3683 164.245 13.3683C164.483 13.3683 164.677 13.3495 164.825 13.3087L164.809 15.2186C164.392 15.3754 163.94 15.4538 163.454 15.4538C161.867 15.4538 161.068 14.5444 161.049 12.7254V7.7233H159.964V5.8824H161.049V3.57422H163.508Z" fill="#242833"/>
<path d="M170.73 14.4162C170.222 15.1061 169.538 15.448 168.682 15.448C167.82 15.448 167.167 15.15 166.719 14.5573C166.273 13.9646 166.051 13.099 166.051 11.9669V5.88281H168.506V12.0296C168.519 12.9453 168.82 13.4001 169.419 13.4001C169.98 13.4001 170.385 13.1586 170.636 12.6694V5.88281H173.11V15.2755H170.802L170.73 14.4162Z" fill="#242833"/>
<path d="M177.172 5.88245L177.241 6.75115C177.79 6.05807 178.517 5.70996 179.421 5.70996C180.358 5.70996 181.02 6.13334 181.409 6.97695C181.948 6.13334 182.714 5.70996 183.708 5.70996C185.351 5.70996 186.195 6.84837 186.232 9.12206V15.2783H183.777V9.27572C183.777 8.73318 183.701 8.3443 183.551 8.11223C183.4 7.88015 183.146 7.76412 182.786 7.76412C182.328 7.76412 181.986 8.04323 181.76 8.6046L181.776 8.89939V15.272H179.32V9.29454C179.32 8.75513 179.248 8.36625 179.104 8.12791C178.96 7.88956 178.702 7.76725 178.332 7.76725C177.909 7.76725 177.573 7.99619 177.326 8.45406V15.2783H174.87V5.88245H177.172Z" fill="#242833"/>
<path d="M46.4939 23.6348L48.9087 29.4209H48.937L51.3612 23.6348H52.0731V30.2081H51.5368V27.304L51.5807 24.4282L51.5525 24.4188L49.1094 30.2049H48.7362L46.2995 24.4439L46.2713 24.447L46.3214 27.3009V30.2049H45.7852V23.6348H46.4939Z" fill="#242833"/>
<path d="M58.5964 27.458C58.5964 28.3079 58.3643 28.9916 57.9002 29.5153C57.436 30.039 56.812 30.2993 56.0279 30.2993C55.2564 30.2993 54.6418 30.039 54.1839 29.5153C53.726 28.9916 53.4971 28.3048 53.4971 27.458V26.3886C53.4971 25.5419 53.726 24.8582 54.1839 24.3313C54.6418 23.8045 55.2564 23.541 56.0248 23.541C56.8088 23.541 57.4329 23.8045 57.8971 24.3313C58.3643 24.8582 58.5964 25.545 58.5964 26.3886V27.458ZM58.0601 26.3823C58.0601 25.6704 57.8814 25.0997 57.5207 24.6637C57.1601 24.231 56.6614 24.0114 56.0248 24.0114C55.3976 24.0114 54.9115 24.2278 54.5634 24.6637C54.2152 25.0965 54.0396 25.6704 54.0396 26.3823V27.4643C54.0396 28.1825 54.2152 28.7564 54.5665 29.1923C54.9177 29.6251 55.4038 29.8446 56.0311 29.8446C56.6708 29.8446 57.1695 29.6282 57.527 29.1954C57.8845 28.7627 58.0633 28.1856 58.0633 27.4674V26.3823H58.0601Z" fill="#242833"/>
<path d="M61.7665 29.0979L61.8982 29.5369H61.9265L62.0582 29.0979L64.0308 23.6348H64.6172L62.1648 30.2081H61.6536L59.2012 23.6348H59.7876L61.7665 29.0979Z" fill="#242833"/>
<path d="M66.2798 30.2081H65.7373V23.6348H66.2798V30.2081Z" fill="#242833"/>
<path d="M72.9601 30.2081H72.4239L68.6919 24.5568L68.6636 24.5599V30.2081H68.1211V23.6348H68.6636L72.3956 29.2766L72.4239 29.2735V23.6348H72.9601V30.2081Z" fill="#242833"/>
<path d="M79.376 29.4273C79.2286 29.6406 78.9588 29.8413 78.57 30.0263C78.1811 30.2113 77.6887 30.3054 77.096 30.3054C76.3308 30.3054 75.7036 30.0451 75.2143 29.5245C74.7251 29.0039 74.4805 28.3297 74.4805 27.5017V26.2975C74.4805 25.4852 74.7125 24.8235 75.1767 24.3123C75.6408 23.8011 76.243 23.5439 76.9831 23.5439C77.6919 23.5439 78.2438 23.7196 78.6421 24.0739C79.0404 24.4283 79.2725 24.8862 79.3352 25.4538L79.3258 25.4821H78.824C78.7456 25.043 78.5606 24.6855 78.2689 24.4158C77.9772 24.1429 77.5476 24.0081 76.9831 24.0081C76.3935 24.0081 75.9199 24.2213 75.5593 24.6479C75.1986 25.0744 75.0199 25.6232 75.0199 26.2912V27.5049C75.0199 28.1917 75.2112 28.753 75.5938 29.1921C75.9764 29.6311 76.475 29.8507 77.0929 29.8507C77.5288 29.8507 77.8988 29.7911 78.2062 29.6688C78.5104 29.5465 78.7205 29.4148 78.8303 29.2705V27.5582H77.0835V27.0972H79.3728V29.4273H79.376Z" fill="#242833"/>
<path d="M87.6645 24.0958H85.4033V30.2081H84.8608V24.0958H82.5996V23.6348H87.6645V24.0958Z" fill="#242833"/>
<path d="M92.434 27.0249H89.2697V29.7471H92.895V30.2081H88.7334V23.6348H92.8731V24.0958H89.2697V26.5639H92.434V27.0249Z" fill="#242833"/>
<path d="M98.5881 28.154L98.5975 28.1823C98.541 28.8408 98.3058 29.3583 97.8919 29.7378C97.4779 30.1172 96.9259 30.3054 96.236 30.3054C95.5053 30.3054 94.9157 30.042 94.4672 29.512C94.0188 28.9851 93.793 28.2983 93.793 27.461V26.3915C93.793 25.5542 94.0156 24.8705 94.4672 24.3405C94.9157 23.8105 95.5053 23.5439 96.236 23.5439C96.9354 23.5439 97.4873 23.729 97.8981 24.099C98.3058 24.4691 98.541 24.9897 98.5975 25.6608L98.5881 25.689H98.0832C98.011 25.1434 97.8229 24.7263 97.5218 24.4377C97.2207 24.1492 96.7911 24.005 96.236 24.005C95.6621 24.005 95.2011 24.2276 94.853 24.6729C94.5049 25.1183 94.3324 25.689 94.3324 26.3821V27.461C94.3324 28.1634 94.5049 28.7374 94.853 29.1827C95.2011 29.628 95.6621 29.8475 96.236 29.8475C96.7911 29.8475 97.2176 29.7064 97.5218 29.4242C97.826 29.1419 98.011 28.7217 98.08 28.1603H98.5881V28.154Z" fill="#242833"/>
<path d="M104.801 30.2081H104.265V27.1848H100.527V30.2081H99.9902V23.6348H100.527V26.7238H104.265V23.6348H104.801V30.2081Z" fill="#242833"/>
<path d="M111.364 30.2081H110.828L107.096 24.5568L107.068 24.5599V30.2081H106.525V23.6348H107.068L110.8 29.2766L110.828 29.2735V23.6348H111.364V30.2081Z" fill="#242833"/>
<path d="M117.887 27.458C117.887 28.3079 117.655 28.9916 117.191 29.5153C116.727 30.039 116.103 30.2993 115.319 30.2993C114.547 30.2993 113.933 30.039 113.475 29.5153C113.017 28.9916 112.788 28.3048 112.788 27.458V26.3886C112.788 25.5419 113.017 24.8582 113.475 24.3313C113.933 23.8045 114.547 23.541 115.316 23.541C116.1 23.541 116.724 23.8045 117.188 24.3313C117.655 24.8582 117.887 25.545 117.887 26.3886V27.458ZM117.351 26.3823C117.351 25.6704 117.172 25.0997 116.812 24.6637C116.451 24.231 115.952 24.0114 115.316 24.0114C114.689 24.0114 114.202 24.2278 113.854 24.6637C113.506 25.0965 113.331 25.6704 113.331 26.3823V27.4643C113.331 28.1825 113.506 28.7564 113.857 29.1923C114.209 29.6251 114.695 29.8446 115.322 29.8446C115.962 29.8446 116.46 29.6282 116.818 29.1954C117.175 28.7627 117.354 28.1856 117.354 27.4674V26.3823H117.351Z" fill="#242833"/>
<path d="M119.851 29.7471H123.1V30.2081H119.309V23.6348H119.851V29.7471Z" fill="#242833"/>
<path d="M128.685 27.458C128.685 28.3079 128.453 28.9916 127.989 29.5153C127.525 30.039 126.901 30.2993 126.117 30.2993C125.345 30.2993 124.731 30.039 124.273 29.5153C123.815 28.9916 123.586 28.3048 123.586 27.458V26.3886C123.586 25.5419 123.815 24.8582 124.273 24.3313C124.731 23.8045 125.345 23.541 126.114 23.541C126.898 23.541 127.522 23.8045 127.986 24.3313C128.453 24.8582 128.685 25.545 128.685 26.3886V27.458ZM128.149 26.3823C128.149 25.6704 127.97 25.0997 127.61 24.6637C127.249 24.231 126.75 24.0114 126.114 24.0114C125.486 24.0114 125 24.2278 124.652 24.6637C124.304 25.0965 124.128 25.6704 124.128 26.3823V27.4643C124.128 28.1825 124.304 28.7564 124.655 29.1923C125.007 29.6251 125.493 29.8446 126.12 29.8446C126.76 29.8446 127.258 29.6282 127.616 29.1954C127.973 28.7627 128.152 28.1856 128.152 27.4674V26.3823H128.149Z" fill="#242833"/>
<path d="M134.797 29.4273C134.649 29.6406 134.38 29.8413 133.991 30.0263C133.602 30.2113 133.11 30.3054 132.517 30.3054C131.752 30.3054 131.124 30.0451 130.635 29.5245C130.146 29.0039 129.901 28.3297 129.901 27.5017V26.2975C129.901 25.4852 130.133 24.8235 130.598 24.3123C131.062 23.8011 131.664 23.5439 132.404 23.5439C133.113 23.5439 133.665 23.7196 134.063 24.0739C134.461 24.4283 134.693 24.8862 134.756 25.4538L134.747 25.4821H134.245C134.166 25.043 133.981 24.6855 133.69 24.4158C133.398 24.1429 132.968 24.0081 132.404 24.0081C131.814 24.0081 131.341 24.2213 130.98 24.6479C130.62 25.0744 130.441 25.6232 130.441 26.2912V27.5049C130.441 28.1917 130.632 28.753 131.015 29.1921C131.397 29.6311 131.896 29.8507 132.514 29.8507C132.95 29.8507 133.32 29.7911 133.627 29.6688C133.931 29.5465 134.141 29.4148 134.251 29.2705V27.5582H132.504V27.0972H134.794V29.4273H134.797Z" fill="#242833"/>
<path d="M138.37 27.2881L140.405 23.6377H141.032L138.636 27.8087V30.211H138.1V27.7774L135.72 23.6377H136.347L138.37 27.2881Z" fill="#242833"/>
<path d="M148.029 27.1253H144.833V30.2081H144.297V23.6348H148.49V24.0958H144.833V26.6643H148.029V27.1253Z" fill="#242833"/>
<path d="M154.427 27.458C154.427 28.3079 154.195 28.9916 153.73 29.5153C153.266 30.039 152.642 30.2993 151.858 30.2993C151.087 30.2993 150.472 30.039 150.014 29.5153C149.556 28.9916 149.324 28.3048 149.324 27.458V26.3886C149.324 25.5419 149.553 24.8582 150.011 24.3313C150.469 23.8045 151.084 23.541 151.852 23.541C152.636 23.541 153.26 23.8045 153.724 24.3313C154.191 24.8582 154.424 25.545 154.424 26.3886V27.458H154.427ZM153.887 26.3823C153.887 25.6704 153.709 25.0997 153.348 24.6637C152.987 24.231 152.489 24.0114 151.852 24.0114C151.225 24.0114 150.739 24.2278 150.39 24.6637C150.042 25.0965 149.867 25.6704 149.867 26.3823V27.4643C149.867 28.1825 150.042 28.7564 150.394 29.1923C150.745 29.6251 151.231 29.8446 151.858 29.8446C152.498 29.8446 152.997 29.6282 153.354 29.1954C153.712 28.7627 153.89 28.1856 153.89 27.4674V26.3823H153.887Z" fill="#242833"/>
<path d="M156.37 27.2387V30.2086H155.834V23.6416H158.061C158.766 23.6416 159.306 23.7953 159.682 24.1057C160.058 24.4131 160.246 24.8647 160.246 25.4574C160.246 25.8055 160.146 26.1191 159.945 26.3951C159.745 26.6711 159.459 26.8718 159.092 26.9972C159.497 27.1007 159.792 27.2826 159.971 27.5461C160.149 27.8095 160.24 28.1388 160.24 28.5371V29.1549C160.24 29.3587 160.265 29.5438 160.312 29.7069C160.359 29.8699 160.441 30.0016 160.551 30.1051V30.2149H159.999C159.889 30.1051 159.811 29.9546 159.764 29.7602C159.72 29.5657 159.695 29.3619 159.695 29.1518V28.5434C159.695 28.1388 159.563 27.822 159.303 27.59C159.042 27.3579 158.678 27.2387 158.211 27.2387H156.37ZM156.37 26.7777H157.992C158.584 26.7777 159.017 26.6585 159.293 26.4202C159.569 26.1819 159.704 25.8588 159.704 25.4511C159.704 25.0184 159.569 24.6859 159.296 24.4507C159.023 24.2186 158.613 24.0995 158.061 24.0995H156.373V26.7777H156.37Z" fill="#242833"/>
<path d="M163.079 28.3483L163.277 29.355L163.305 29.3582L163.553 28.3483L164.942 23.6348H165.453L166.842 28.3483L167.081 29.3644L167.109 29.3613L167.322 28.3515L168.511 23.6379H169.063L167.376 30.2112H166.864L165.387 25.1683L165.215 24.4784H165.187L165.02 25.1683L163.531 30.2112H163.016L161.329 23.6379H161.884L163.079 28.3483Z" fill="#242833"/>
<path d="M173.547 28.3766H170.536L169.859 30.2081H169.301L171.797 23.6348H172.308L174.786 30.2081H174.224L173.547 28.3766ZM170.718 27.8936H173.371L172.064 24.3373H172.035L170.718 27.8936Z" fill="#242833"/>
<path d="M176.317 27.2387V30.2086H175.78V23.6416H178.007C178.713 23.6416 179.252 23.7953 179.628 24.1057C180.005 24.4131 180.193 24.8647 180.193 25.4574C180.193 25.8055 180.092 26.1191 179.892 26.3951C179.691 26.6711 179.406 26.8718 179.039 26.9972C179.443 27.1007 179.738 27.2826 179.917 27.5461C180.096 27.8095 180.187 28.1388 180.187 28.5371V29.1549C180.187 29.3587 180.212 29.5438 180.259 29.7069C180.306 29.8699 180.387 30.0016 180.497 30.1051V30.2149H179.945C179.835 30.1051 179.757 29.9546 179.71 29.7602C179.666 29.5657 179.641 29.3619 179.641 29.1518V28.5434C179.641 28.1388 179.509 27.822 179.249 27.59C178.989 27.3579 178.625 27.2387 178.157 27.2387H176.317ZM176.317 26.7777H177.938C178.531 26.7777 178.963 26.6585 179.239 26.4202C179.515 26.1819 179.65 25.8588 179.65 25.4511C179.65 25.0184 179.515 24.6859 179.243 24.4507C178.97 24.2186 178.559 24.0995 178.007 24.0995H176.32V26.7777H176.317Z" fill="#242833"/>
<path d="M181.877 30.2081V23.6348H183.787C184.59 23.6348 185.255 23.9013 185.778 24.4376C186.302 24.9739 186.562 25.6607 186.562 26.5012V27.3448C186.562 28.1884 186.302 28.8752 185.778 29.4084C185.255 29.9415 184.59 30.2081 183.787 30.2081H181.877ZM182.413 24.0958V29.7471H183.787C184.436 29.7471 184.972 29.5213 185.393 29.0665C185.813 28.6118 186.023 28.0379 186.023 27.3417V26.4855C186.023 25.7987 185.813 25.231 185.389 24.7763C184.966 24.3216 184.433 24.0958 183.787 24.0958H182.413Z" fill="#242833"/>
<path d="M27.5073 29.0733C32.4852 29.0733 36.5205 25.0379 36.5205 20.0601C36.5205 15.0822 32.4852 11.0469 27.5073 11.0469C22.5295 11.0469 18.4941 15.0822 18.4941 20.0601C18.4941 25.0379 22.5295 29.0733 27.5073 29.0733Z" fill="#003A81"/>
<path d="M7.50175 23.5728C11.1217 23.5728 14.0562 20.6383 14.0562 17.0183C14.0562 13.3984 11.1217 10.4639 7.50175 10.4639C3.88181 10.4639 0.947266 13.3984 0.947266 17.0183C0.947266 20.6383 3.88181 23.5728 7.50175 23.5728Z" fill="#FCBA30"/>
<path d="M17.7131 10.8051C20.4272 10.8051 22.6274 8.60494 22.6274 5.89086C22.6274 3.17677 20.4272 0.976562 17.7131 0.976562C14.999 0.976562 12.7988 3.17677 12.7988 5.89086C12.7988 8.60494 14.999 10.8051 17.7131 10.8051Z" fill="#01C089"/>
</svg>
