<svg width="27" height="26" viewBox="0 0 27 26" fill="none" xmlns="http://www.w3.org/2000/svg">
<path d="M26.8753 13.4206C26.8769 13.2107 26.7683 13.0149 26.5893 12.9052H26.5861L26.5751 12.8989L17.2623 7.38636C17.2218 7.35906 17.1804 7.33439 17.1373 7.31182C16.7778 7.12653 16.3505 7.12653 15.9909 7.31182C15.9479 7.33439 15.9059 7.35906 15.866 7.38636L6.55319 12.8984L6.54216 12.9047C6.25767 13.0816 6.17053 13.4558 6.34743 13.7403C6.39939 13.8243 6.4713 13.8941 6.55686 13.944L15.8692 19.4565C15.9096 19.4833 15.9511 19.5085 15.9941 19.531C16.3537 19.7163 16.7809 19.7163 17.1405 19.531C17.1835 19.5085 17.225 19.4838 17.2654 19.4565L26.5777 13.944C26.7641 13.8358 26.8774 13.6359 26.8753 13.4206Z" fill="#0A2767"/>
<path d="M7.63843 9.74048H13.7499V15.3422H7.63843V9.74048ZM25.6248 4.04581V1.48323C25.6395 0.842322 25.1324 0.311121 24.4915 0.295898H8.6326C7.99169 0.311121 7.48464 0.842847 7.49934 1.48323V4.04581L16.8741 6.54592L25.6248 4.04581Z" fill="#0364B8"/>
<path d="M7.49902 4.04541H13.749V9.67027H7.49902V4.04541Z" fill="#0078D4"/>
<path d="M19.999 4.04541H13.749V9.67027L19.999 15.2951H25.6239V9.6708L19.999 4.04541Z" fill="#28A8EA"/>
<path d="M13.749 9.67139H19.999V15.2962H13.749V9.67139Z" fill="#0078D4"/>
<path d="M13.749 15.2959H19.999V20.9208H13.749V15.2959Z" fill="#0364B8"/>
<path d="M7.63867 15.3423H13.7501V20.4349H7.63867V15.3423Z" fill="#14447D"/>
<path d="M19.999 15.2959H25.6239V20.9208H19.999V15.2959Z" fill="#0078D4"/>
<path d="M26.5894 13.9101L26.5773 13.9164L17.265 19.1539C17.2246 19.1791 17.1831 19.2027 17.1401 19.2237C16.9821 19.2988 16.8099 19.3418 16.6351 19.3487L16.1265 19.051C16.0835 19.0295 16.042 19.0054 16.0016 18.9791L6.56382 13.5931H6.55962L6.25098 13.4204V24.0235C6.2557 24.731 6.83309 25.3005 7.54014 25.2958H25.6063C25.6168 25.2958 25.6262 25.2906 25.6378 25.2906C25.7873 25.2811 25.9343 25.2502 26.075 25.1992C26.1359 25.1735 26.1947 25.1431 26.2508 25.1079C26.2928 25.0843 26.3647 25.0323 26.3647 25.0323C26.6849 24.7956 26.8744 24.4213 26.876 24.0229V13.4209C26.8755 13.6235 26.7658 13.8104 26.5894 13.9101Z" fill="url(#paint0_linear)"/>
<path opacity="0.5" d="M26.3749 13.3789V14.0287L16.6375 20.7333L6.55618 13.5978C6.55618 13.5941 6.55355 13.5915 6.54988 13.5915L5.625 13.0351V12.5664L6.00608 12.5601L6.81233 13.0225L6.83123 13.0288L6.89999 13.0724C6.89999 13.0724 16.375 18.4789 16.4002 18.4909L16.7629 18.7035C16.7944 18.6909 16.8254 18.6783 16.8632 18.6663C16.8821 18.6537 26.2694 13.3726 26.2694 13.3726L26.3749 13.3789Z" fill="#0A2767"/>
<path d="M26.5894 13.9101L26.5773 13.9169L17.265 19.1544C17.2246 19.1796 17.1831 19.2032 17.1401 19.2242C16.7784 19.4011 16.3554 19.4011 15.9937 19.2242C15.9507 19.2032 15.9092 19.1796 15.8688 19.1544L6.55647 13.9169L6.54545 13.9101C6.36541 13.8125 6.25308 13.6251 6.25098 13.4209V24.0234C6.2557 24.7305 6.83257 25.3005 7.53961 25.2958H25.5874C26.2944 25.3005 26.8718 24.7305 26.876 24.0234V13.4209C26.8755 13.6235 26.7658 13.8104 26.5894 13.9101Z" fill="#1490DF"/>
<path opacity="0.1" d="M17.4004 19.0776L17.2608 19.1558C17.2203 19.1816 17.1789 19.2052 17.1358 19.2267C16.982 19.3023 16.8151 19.3464 16.6445 19.3569L20.1876 23.5467L26.3684 25.0358C26.5379 24.9077 26.6723 24.7398 26.7605 24.5466L17.4004 19.0776Z" fill="black"/>
<path opacity="0.05" d="M18.0313 18.7222L17.2608 19.1552C17.2203 19.1809 17.1789 19.2046 17.1358 19.2261C16.982 19.3017 16.8151 19.3458 16.6445 19.3563L18.3043 23.9329L26.3699 25.0336C26.6875 24.7953 26.8749 24.421 26.8749 24.0237V23.8867L18.0313 18.7222Z" fill="black"/>
<path d="M7.55648 25.2958H25.5848C25.8625 25.2974 26.1328 25.2097 26.3564 25.0459L16.125 19.0526C16.082 19.0311 16.0405 19.0069 16.0001 18.9807L6.56232 13.5946H6.55812L6.25 13.4209V23.9872C6.24948 24.7089 6.83422 25.2953 7.55648 25.2958Z" fill="#28A8EA"/>
<path opacity="0.1" d="M15.0001 6.44173V19.7732C14.9991 20.2404 14.7146 20.6608 14.2815 20.8356C14.1472 20.8934 14.0028 20.9233 13.8564 20.9233H6.25V5.92155H7.49979V5.29639H13.8558C14.4878 5.29849 14.9986 5.81027 15.0001 6.44173Z" fill="black"/>
<path opacity="0.2" d="M14.375 7.06631V20.3978C14.3765 20.549 14.3445 20.698 14.281 20.835C14.1073 21.2628 13.6926 21.5437 13.2312 21.5458H6.25V5.92045H13.2312C13.4123 5.91888 13.5913 5.96402 13.7498 6.05168C14.133 6.24484 14.375 6.63747 14.375 7.06631Z" fill="black"/>
<path opacity="0.2" d="M14.375 7.06631V19.1475C14.3718 19.7784 13.8621 20.2902 13.2312 20.2954H6.25V5.92045H13.2312C13.4123 5.91888 13.5913 5.96402 13.7498 6.05168C14.133 6.24484 14.375 6.63747 14.375 7.06631Z" fill="black"/>
<path opacity="0.2" d="M13.7498 7.06627V19.1474C13.7493 19.7794 13.238 20.2923 12.6061 20.2954H6.25V5.92041H12.6061C13.238 5.92094 13.7503 6.43324 13.7498 7.06522C13.7498 7.06575 13.7498 7.06575 13.7498 7.06627Z" fill="black"/>
<path d="M1.14586 5.92041H12.6045C13.237 5.92041 13.7504 6.43324 13.7504 7.06627V18.5249C13.7504 19.1574 13.2375 19.6708 12.6045 19.6708H1.14586C0.51283 19.6708 0 19.1574 0 18.5249V7.06627C0 6.43377 0.51283 5.92041 1.14586 5.92041Z" fill="url(#paint1_linear)"/>
<path d="M3.58061 10.7258C3.863 10.1242 4.31862 9.62086 4.88919 9.2802C5.52117 8.91854 6.24081 8.73797 6.96833 8.75897C7.64283 8.74427 8.30841 8.91539 8.89263 9.25343C9.44167 9.58097 9.88417 10.0607 10.1655 10.6344C10.4726 11.267 10.6253 11.963 10.6117 12.6658C10.6264 13.4002 10.4694 14.1282 10.1524 14.7906C9.86422 15.3853 9.40756 15.8819 8.84014 16.2199C8.23335 16.5685 7.5431 16.7438 6.84393 16.7275C6.15473 16.7443 5.47446 16.5711 4.87712 16.2273C4.32334 15.8992 3.8756 15.4189 3.5869 14.8436C3.27826 14.2206 3.12342 13.5319 3.13549 12.8369C3.12289 12.1089 3.27511 11.3872 3.58061 10.7258ZM4.97527 14.1198C5.12592 14.5004 5.38102 14.83 5.71171 15.0709C6.04818 15.3061 6.4513 15.4273 6.86178 15.4174C7.29902 15.4347 7.72997 15.3092 8.08952 15.0599C8.41601 14.8195 8.66429 14.4888 8.80444 14.1088C8.96139 13.6841 9.03855 13.2343 9.03277 12.7818C9.0375 12.3252 8.96506 11.8706 8.81756 11.4381C8.68739 11.0475 8.44698 10.7032 8.12522 10.4471C7.77458 10.1862 7.34521 10.0534 6.90849 10.0723C6.48909 10.0613 6.07705 10.1836 5.73166 10.4219C5.39572 10.6638 5.13537 10.9966 4.98157 11.3814C4.64039 12.2627 4.63829 13.2395 4.97632 14.1219L4.97527 14.1198Z" fill="white"/>
<path d="M19.999 4.04541H25.6239V9.67027H19.999V4.04541Z" fill="#50D9FF"/>
<defs>
<linearGradient id="paint0_linear" x1="16.5629" y1="13.4208" x2="16.5629" y2="25.2958" gradientUnits="userSpaceOnUse">
<stop stop-color="#35B8F1"/>
<stop offset="1" stop-color="#28A8EA"/>
</linearGradient>
<linearGradient id="paint1_linear" x1="2.38866" y1="5.02542" x2="11.3614" y2="20.5658" gradientUnits="userSpaceOnUse">
<stop stop-color="#1784D9"/>
<stop offset="0.5" stop-color="#107AD5"/>
<stop offset="1" stop-color="#0A63C9"/>
</linearGradient>
</defs>
</svg>
