<svg width="60" height="32" viewBox="0 0 60 32" fill="none" xmlns="http://www.w3.org/2000/svg">
<path d="M30 31.2328C46.5685 31.2328 60 24.2411 60 15.6164C60 6.9917 46.5685 0 30 0C13.4315 0 0 6.9917 0 15.6164C0 24.2411 13.4315 31.2328 30 31.2328Z" fill="#8993BE"/>
<path fill-rule="evenodd" clip-rule="evenodd" d="M8.42456 24.863L11.7124 8.21913H19.3148C22.6024 8.42467 24.2463 10.0683 24.2463 12.9453C24.2463 17.8768 20.3423 20.7535 16.8489 20.5479H13.1507L12.3288 24.863H8.42456ZM13.9725 17.4659L15 11.3014H17.6711C19.1095 11.3014 20.1367 11.9178 20.1367 13.1506C19.9314 16.6439 18.2875 17.2604 16.4383 17.4659H13.9727H13.9725ZM23.4825 20.5479L26.77 3.9043H30.6742L29.8523 8.21913H33.5507C36.8385 8.42467 38.0714 10.0683 37.6605 12.1233L36.2221 20.5479H32.1126L33.551 12.9453C33.7563 11.9178 33.7563 11.3014 32.3182 11.3014H29.2359L27.3867 20.5479H23.4825ZM35.9589 24.863L39.2465 8.21913H46.8492C50.137 8.42467 51.7809 10.0683 51.7809 12.9453C51.7809 17.8768 47.8767 20.7535 44.3835 20.5479H40.6849L39.8629 24.863H35.9589ZM41.5066 17.4659L42.5341 11.3014H45.2055C46.6439 11.3014 47.6711 11.9178 47.6711 13.1506C47.4658 16.6439 45.8219 17.2604 43.9727 17.4659H41.5068H41.5066Z" fill="#232531"/>
</svg>
