<svg width="277" height="148" viewBox="0 0 277 148" fill="none" xmlns="http://www.w3.org/2000/svg">
<path d="M0.986265 0.0180165C0.434032 0.0256022 -0.00749123 0.479424 9.43542e-05 1.03166C0.00767994 1.58389 0.461502 2.02541 1.01373 2.01783L0.986265 0.0180165ZM274.652 147.048C274.945 147.516 275.562 147.659 276.03 147.366C276.498 147.073 276.641 146.456 276.348 145.988L274.652 147.048ZM1.01373 2.01783C1.81942 2.00676 2.6393 2.00079 3.47305 2.00007L3.47132 7.45654e-05C2.62917 0.000800669 1.8007 0.0068292 0.986265 0.0180165L1.01373 2.01783ZM8.51725 2.05712C10.1601 2.09487 11.8481 2.15164 13.579 2.22839L13.6676 0.230358C11.9228 0.152993 10.2206 0.0957313 8.56319 0.057649L8.51725 2.05712ZM18.5854 2.49939C20.2219 2.60359 21.8917 2.72483 23.5933 2.86382L23.7561 0.870464C22.0428 0.730511 20.361 0.608397 18.7125 0.503436L18.5854 2.49939ZM28.6284 3.31858C30.2763 3.4814 31.9505 3.66034 33.6498 3.85596L33.8785 1.86908C32.1686 1.67224 30.4837 1.49216 28.825 1.32827L28.6284 3.31858ZM38.628 4.4681C40.2783 4.68384 41.9497 4.91497 43.6413 5.16196L43.9302 3.18294C42.2288 2.93451 40.5474 2.70201 38.8872 2.48497L38.628 4.4681ZM48.6167 5.9255C50.2546 6.18898 51.9095 6.46711 53.5804 6.76028L53.926 4.79037C52.2458 4.49556 50.5816 4.21587 48.9343 3.95089L48.6167 5.9255ZM58.5689 7.67174C60.1942 7.98048 61.8334 8.30331 63.4855 8.64059L63.8855 6.681C62.2245 6.3419 60.5764 6.01731 58.9421 5.70687L58.5689 7.67174ZM68.4404 9.6875C70.0629 10.0419 71.6967 10.4101 73.3412 10.7925L73.7942 8.8445C72.141 8.46006 70.4984 8.08985 68.8672 7.73356L68.4404 9.6875ZM78.2531 11.9696C79.8719 12.369 81.4999 12.7821 83.1366 13.2092L83.6416 11.274C81.9963 10.8447 80.3596 10.4294 78.7322 10.0278L78.2531 11.9696ZM88.0065 14.5148C89.618 14.9583 91.237 15.4155 92.8629 15.8864L93.4194 13.9654C91.7849 13.4919 90.1572 13.0324 88.5372 12.5865L88.0065 14.5148ZM97.691 17.3199C99.2924 17.807 100.9 18.3075 102.513 18.8218L103.12 16.9164C101.499 16.3993 99.8829 15.8961 98.273 15.4064L97.691 17.3199ZM107.298 20.3833C108.887 20.9136 110.48 21.4572 112.078 22.0145L112.737 20.1261C111.131 19.5658 109.529 19.0193 107.931 18.4862L107.298 20.3833ZM116.819 23.7047C118.394 24.278 119.971 24.8646 121.552 25.4647L122.262 23.595C120.673 22.9916 119.087 22.4018 117.504 21.8254L116.819 23.7047ZM126.247 27.2846C127.805 27.9008 129.364 28.5304 130.926 29.1734L131.688 27.324C130.117 26.6774 128.549 26.0445 126.982 25.4249L126.247 27.2846ZM135.571 31.1242C137.111 31.7834 138.651 32.4559 140.192 33.1419L141.006 31.3147C139.456 30.6249 137.907 29.9486 136.359 29.2857L135.571 31.1242ZM144.784 35.225C146.303 35.9273 147.822 36.643 149.342 37.3721L150.207 35.569C148.679 34.8357 147.151 34.116 145.623 33.4096L144.784 35.225ZM153.875 39.5887C155.372 40.3344 156.869 41.0933 158.364 41.8657L159.282 40.0887C157.778 39.3118 156.273 38.5485 154.767 37.7985L153.875 39.5887ZM162.835 44.2173C164.308 45.0064 165.779 45.8087 167.249 46.6245L168.22 44.8759C166.741 44.0551 165.261 43.248 163.779 42.4543L162.835 44.2173ZM171.652 49.1125C173.099 49.945 174.544 50.7909 175.987 51.6502L177.01 49.9321C175.559 49.0675 174.105 48.2164 172.649 47.3788L171.652 49.1125ZM180.305 54.269C181.728 55.1472 183.148 56.0389 184.565 56.9441L185.642 55.2588C184.216 54.3479 182.787 53.4507 181.355 52.567L180.305 54.269ZM188.793 59.6935C190.19 60.6178 191.583 61.5555 192.972 62.5069L194.102 60.8569C192.704 59.8994 191.302 58.9557 189.896 58.0256L188.793 59.6935ZM197.104 65.3867C198.472 66.3572 199.836 67.3412 201.196 68.339L202.379 66.7268C201.011 65.7224 199.638 64.732 198.261 63.7552L197.104 65.3867ZM205.225 71.3483C206.563 72.365 207.896 73.3953 209.224 74.4396L210.46 72.8676C209.124 71.8164 207.782 70.7792 206.435 69.7558L205.225 71.3483ZM213.145 77.5774C214.446 78.6367 215.741 79.7097 217.031 80.7965L218.32 79.2673C217.022 78.1731 215.718 77.0928 214.408 76.0264L213.145 77.5774ZM220.851 84.0725C222.113 85.1736 223.368 86.2884 224.617 87.417L225.958 85.933C224.701 84.7967 223.436 83.6742 222.166 82.5655L220.851 84.0725ZM228.331 90.8311C229.551 91.9731 230.765 93.1286 231.971 94.2978L233.363 92.8615C232.148 91.6841 230.926 90.5206 229.697 89.3707L228.331 90.8311ZM235.569 97.8469C236.747 99.0293 237.918 100.225 239.081 101.435L240.523 100.049C239.351 98.8307 238.172 97.6262 236.986 96.4354L235.569 97.8469ZM242.544 105.102C243.682 106.329 244.813 107.569 245.935 108.824L247.426 107.49C246.295 106.227 245.156 104.977 244.01 103.741L242.544 105.102ZM249.257 112.603C250.354 113.875 251.444 115.16 252.525 116.459L254.063 115.18C252.974 113.872 251.876 112.577 250.771 111.296L249.257 112.603ZM255.699 120.344C256.748 121.652 257.789 122.974 258.821 124.309L260.403 123.087C259.364 121.741 258.316 120.41 257.259 119.092L255.699 120.344ZM261.862 128.319C262.86 129.66 263.849 131.014 264.829 132.381L266.455 131.216C265.467 129.839 264.471 128.475 263.466 127.124L261.862 128.319ZM267.738 136.52C268.683 137.891 269.619 139.275 270.546 140.672L272.213 139.566C271.279 138.159 270.337 136.765 269.385 135.385L267.738 136.52ZM273.298 144.902C273.751 145.614 274.203 146.329 274.652 147.048L276.348 145.988C275.896 145.264 275.441 144.544 274.984 143.827L273.298 144.902Z" fill="#CBD5E1"/>
</svg>
