<svg width="390" height="210" viewBox="0 0 390 210" fill="none" xmlns="http://www.w3.org/2000/svg">
<path d="M275.514 62.018C276.066 62.0256 276.507 62.4794 276.5 63.0317C276.492 63.5839 276.038 64.0254 275.486 64.0178L275.514 62.018ZM1.84799 209.048C1.5553 209.516 0.938324 209.659 0.470001 209.366C0.00167847 209.073 -0.140717 208.456 0.152008 207.988L1.84799 209.048ZM275.486 64.0178C274.681 64.0068 273.861 64.0008 273.027 64.0001L273.029 62.0001C273.871 62.0008 274.699 62.0068 275.514 62.018L275.486 64.0178ZM267.983 64.0571C266.34 64.0949 264.652 64.1516 262.921 64.2284L262.832 62.2304C264.577 62.153 266.279 62.0957 267.937 62.0576L267.983 64.0571ZM257.915 64.4994C256.278 64.6036 254.608 64.7248 252.907 64.8638L252.744 62.8705C254.457 62.7305 256.139 62.6084 257.788 62.5034L257.915 64.4994ZM247.872 65.3186C246.224 65.4814 244.549 65.6603 242.85 65.856L242.621 63.8691C244.331 63.6722 246.016 63.4922 247.675 63.3283L247.872 65.3186ZM237.872 66.4681C236.222 66.6838 234.55 66.915 232.859 67.162L232.57 65.1829C234.271 64.9345 235.953 64.702 237.613 64.485L237.872 66.4681ZM227.883 67.9255C226.245 68.189 224.591 68.4671 222.92 68.7603L222.574 66.7904C224.254 66.4956 225.918 66.2159 227.566 65.9509L227.883 67.9255ZM217.931 69.6717C216.306 69.9805 214.667 70.3033 213.015 70.6406L212.614 68.681C214.276 68.3419 215.924 68.0173 217.558 67.7069L217.931 69.6717ZM208.06 71.6875C206.437 72.0419 204.803 72.4101 203.159 72.7925L202.706 70.8445C204.359 70.4601 206.002 70.0899 207.633 69.7336L208.06 71.6875ZM198.247 73.9696C196.628 74.369 195 74.7821 193.363 75.2092L192.858 73.274C194.504 72.8447 196.14 72.4294 197.768 72.0278L198.247 73.9696ZM188.494 76.5148C186.882 76.9583 185.263 77.4155 183.637 77.8864L183.081 75.9654C184.715 75.4919 186.343 75.0324 187.963 74.5865L188.494 76.5148ZM178.809 79.3199C177.208 79.807 175.6 80.3075 173.987 80.8218L173.38 78.9164C175.001 78.3993 176.617 77.8961 178.227 77.4064L178.809 79.3199ZM169.202 82.3833C167.613 82.9136 166.02 83.4572 164.422 84.0145L163.763 82.1261C165.369 81.5658 166.971 81.0193 168.569 80.4862L169.202 82.3833ZM159.681 85.7047C158.106 86.278 156.529 86.8646 154.948 87.4647L154.238 85.595C155.827 84.9916 157.413 84.4018 158.996 83.8254L159.681 85.7047ZM150.253 89.2846C148.695 89.9008 147.136 90.5304 145.574 91.1734L144.812 89.324C146.383 88.6774 147.951 88.0445 149.518 87.4249L150.253 89.2846ZM140.929 93.1242C139.389 93.7834 137.849 94.4559 136.308 95.1419L135.494 93.3147C137.044 92.6249 138.593 91.9486 140.141 91.2857L140.929 93.1242ZM131.716 97.225C130.197 97.9273 128.678 98.643 127.158 99.3721L126.293 97.569C127.821 96.8357 129.349 96.116 130.877 95.4096L131.716 97.225ZM122.625 101.589C121.128 102.334 119.631 103.093 118.136 103.866L117.218 102.089C118.722 101.312 120.227 100.548 121.733 99.7985L122.625 101.589ZM113.665 106.217C112.192 107.006 110.721 107.809 109.251 108.625L108.28 106.876C109.759 106.055 111.239 105.248 112.721 104.454L113.665 106.217ZM104.848 111.112C103.401 111.945 101.956 112.791 100.513 113.65L99.4897 111.932C100.941 111.067 102.395 110.216 103.851 109.379L104.848 111.112ZM96.195 116.269C94.7719 117.147 93.3519 118.039 91.9354 118.944L90.8584 117.259C92.2839 116.348 93.7127 115.451 95.1446 114.567L96.195 116.269ZM87.7071 121.694C86.3103 122.618 84.9172 123.556 83.5283 124.507L82.3981 122.857C83.7959 121.899 85.1978 120.956 86.6035 120.026L87.7071 121.694ZM79.3963 127.387C78.0277 128.357 76.6636 129.341 75.3042 130.339L74.1208 128.727C75.489 127.722 76.862 126.732 78.2395 125.755L79.3963 127.387ZM71.2749 133.348C69.9367 134.365 68.6037 135.395 67.2762 136.44L66.0397 134.868C67.3761 133.816 68.718 132.779 70.0649 131.756L71.2749 133.348ZM63.3551 139.577C62.054 140.637 60.7585 141.71 59.4691 142.796L58.1802 141.267C59.4783 140.173 60.7825 139.093 62.0924 138.026L63.3551 139.577ZM55.6493 146.072C54.3874 147.174 53.1317 148.288 51.8826 149.417L50.5418 147.933C51.7995 146.797 53.0638 145.674 54.3343 144.566L55.6493 146.072ZM48.1695 152.831C46.9491 153.973 45.7354 155.129 44.5288 156.298L43.137 154.862C44.352 153.684 45.5741 152.521 46.803 151.371L48.1695 152.831ZM40.9306 159.847C39.7528 161.029 38.5822 162.225 37.4192 163.435L35.9775 162.049C37.1487 160.831 38.3275 159.626 39.5136 158.435L40.9306 159.847ZM33.9564 167.102C32.8179 168.329 31.6873 169.569 30.5646 170.824L29.0743 169.49C30.2049 168.227 31.3436 166.977 32.4901 165.741L33.9564 167.102ZM27.2434 174.603C26.1456 175.875 25.056 177.16 23.9749 178.459L22.4375 177.18C23.5263 175.872 24.6237 174.577 25.7294 173.296L27.2434 174.603ZM20.8013 182.344C19.7519 183.652 18.7111 184.974 17.6791 186.309L16.0966 185.087C17.1359 183.741 18.1842 182.41 19.2411 181.092L20.8013 182.344ZM14.6384 190.319C13.6404 191.66 12.6512 193.014 11.6711 194.381L10.0454 193.216C11.0325 191.839 12.0288 190.475 13.0341 189.124L14.6384 190.319ZM8.76184 198.52C7.81677 199.891 6.8808 201.275 5.95413 202.672L4.28745 201.566C5.22073 200.159 6.16342 198.765 7.11526 197.385L8.76184 198.52ZM3.20245 206.902C2.74854 207.614 2.29706 208.329 1.84799 209.048L0.152008 207.988C0.604248 207.264 1.05896 206.544 1.51611 205.827L3.20245 206.902Z" fill="#CBD5E1"/>
<path d="M312 65.0636L310.495 52.2113L317.091 52.9L318.258 62.8679L312 65.0636Z" stroke="#CBD5E1" stroke-width="2" stroke-linecap="round"/>
<path d="M338.179 44.0452C343.167 42.5714 348.317 41.434 353.622 40.6991L340.096 30.0109C336.374 27.0696 329.556 25.5896 324.948 26.7213L318.316 28.3528L338.179 44.0452Z" stroke="#CBD5E1" stroke-width="2" stroke-linecap="round"/>
<path d="M338.179 44.0459L318.316 28.3535L299.552 32.9652L300.336 39.6623C308.619 38.6939 316.119 44.6205 317.092 52.9053C323.681 49.217 330.742 46.2487 338.179 44.0459Z" stroke="#CBD5E1" stroke-width="2" stroke-linecap="round"/>
<path d="M340.825 66.6074C346.017 66.8868 351.29 66.8043 356.619 66.2944L345.935 79.8154C342.992 83.5399 336.701 86.5553 331.956 86.5197L325.127 86.4649L340.825 66.6074Z" stroke="#CBD5E1" stroke-width="2" stroke-linecap="round"/>
<path d="M340.824 66.6088L325.127 86.4669L305.804 86.3199L305.02 79.6212C313.3 78.6495 319.228 71.1487 318.257 62.8644C325.523 64.9276 333.079 66.1844 340.824 66.6088Z" stroke="#CBD5E1" stroke-width="2" stroke-linecap="round"/>
<path d="M331.514 46.2492C326.501 48.1153 321.681 50.3353 317.093 52.9027L318.26 62.8677C323.318 64.3027 328.521 65.3461 333.827 66.0051L331.514 46.2492Z" stroke="#CBD5E1" stroke-width="2" stroke-linecap="round"/>
<path d="M333.826 66.0058L331.514 46.2505C339.191 43.3908 347.327 41.3809 355.836 40.3824C367.953 38.9632 379.5 42.5922 388.369 49.6007C381.36 58.4706 370.967 64.6714 358.85 66.0906C350.339 67.0873 341.959 67.0128 333.826 66.0058Z" stroke="#CBD5E1" stroke-width="2" stroke-linecap="round"/>
<path d="M365.306 56.646C362.939 56.9233 360.796 55.2295 360.522 52.8652C360.242 50.4966 361.936 48.353 364.302 48.0751C366.668 47.7971 368.812 49.4916 369.089 51.8583C369.367 54.2251 367.673 56.3686 365.306 56.646Z" stroke="#CBD5E1" stroke-width="2" stroke-linecap="round"/>
<path d="M332.17 51.8414L345.023 50.336C347.39 50.0579 349.534 51.7509 349.81 54.1192C350.088 56.486 348.393 58.6253 346.026 58.9027L333.172 60.4105L332.17 51.8414Z" stroke="#CBD5E1" stroke-width="2" stroke-linecap="round"/>
<path d="M303.692 53.0081L283.02 61.9455L305.196 65.8611L283.02 61.9455L303.692 53.0081Z" stroke="#CBD5E1" stroke-width="2" stroke-linecap="round"/>
</svg>
