<svg width="277" height="148" viewBox="0 0 277 148" fill="none" xmlns="http://www.w3.org/2000/svg">
<path d="M275.514 0.0180165C276.066 0.0256022 276.507 0.479424 276.5 1.03166C276.492 1.58389 276.038 2.02541 275.486 2.01783L275.514 0.0180165ZM1.84799 147.048C1.5553 147.516 0.938324 147.659 0.470001 147.366C0.00167847 147.073 -0.140717 146.456 0.152008 145.988L1.84799 147.048ZM275.486 2.01783C274.681 2.00676 273.861 2.00079 273.027 2.00007L273.029 7.45654e-05C273.871 0.000800669 274.699 0.0068292 275.514 0.0180165L275.486 2.01783ZM267.983 2.05712C266.34 2.09487 264.652 2.15164 262.921 2.22839L262.832 0.230358C264.577 0.152993 266.279 0.0957313 267.937 0.057649L267.983 2.05712ZM257.915 2.49939C256.278 2.60359 254.608 2.72483 252.907 2.86382L252.744 0.870464C254.457 0.730511 256.139 0.608397 257.788 0.503436L257.915 2.49939ZM247.872 3.31858C246.224 3.4814 244.549 3.66034 242.85 3.85596L242.621 1.86908C244.331 1.67224 246.016 1.49216 247.675 1.32827L247.872 3.31858ZM237.872 4.4681C236.222 4.68384 234.55 4.91497 232.859 5.16196L232.57 3.18294C234.271 2.93451 235.953 2.70201 237.613 2.48497L237.872 4.4681ZM227.883 5.9255C226.245 6.18898 224.591 6.46711 222.92 6.76028L222.574 4.79037C224.254 4.49556 225.918 4.21587 227.566 3.95089L227.883 5.9255ZM217.931 7.67174C216.306 7.98048 214.667 8.30331 213.015 8.64059L212.614 6.681C214.276 6.3419 215.924 6.01731 217.558 5.70687L217.931 7.67174ZM208.06 9.6875C206.437 10.0419 204.803 10.4101 203.159 10.7925L202.706 8.8445C204.359 8.46006 206.002 8.08985 207.633 7.73356L208.06 9.6875ZM198.247 11.9696C196.628 12.369 195 12.7821 193.363 13.2092L192.858 11.274C194.504 10.8447 196.14 10.4294 197.768 10.0278L198.247 11.9696ZM188.494 14.5148C186.882 14.9583 185.263 15.4155 183.637 15.8864L183.081 13.9654C184.715 13.4919 186.343 13.0324 187.963 12.5865L188.494 14.5148ZM178.809 17.3199C177.208 17.807 175.6 18.3075 173.987 18.8218L173.38 16.9164C175.001 16.3993 176.617 15.8961 178.227 15.4064L178.809 17.3199ZM169.202 20.3833C167.613 20.9136 166.02 21.4572 164.422 22.0145L163.763 20.1261C165.369 19.5658 166.971 19.0193 168.569 18.4862L169.202 20.3833ZM159.681 23.7047C158.106 24.278 156.529 24.8646 154.948 25.4647L154.238 23.595C155.827 22.9916 157.413 22.4018 158.996 21.8254L159.681 23.7047ZM150.253 27.2846C148.695 27.9008 147.136 28.5304 145.574 29.1734L144.812 27.324C146.383 26.6774 147.951 26.0445 149.518 25.4249L150.253 27.2846ZM140.929 31.1242C139.389 31.7834 137.849 32.4559 136.308 33.1419L135.494 31.3147C137.044 30.6249 138.593 29.9486 140.141 29.2857L140.929 31.1242ZM131.716 35.225C130.197 35.9273 128.678 36.643 127.158 37.3721L126.293 35.569C127.821 34.8357 129.349 34.116 130.877 33.4096L131.716 35.225ZM122.625 39.5887C121.128 40.3344 119.631 41.0933 118.136 41.8657L117.218 40.0887C118.722 39.3118 120.227 38.5485 121.733 37.7985L122.625 39.5887ZM113.665 44.2173C112.192 45.0064 110.721 45.8087 109.251 46.6245L108.28 44.8759C109.759 44.0551 111.239 43.248 112.721 42.4543L113.665 44.2173ZM104.848 49.1125C103.401 49.945 101.956 50.7909 100.513 51.6502L99.4897 49.9321C100.941 49.0675 102.395 48.2164 103.851 47.3788L104.848 49.1125ZM96.195 54.269C94.7719 55.1472 93.3519 56.0389 91.9354 56.9441L90.8584 55.2588C92.2839 54.3479 93.7127 53.4507 95.1446 52.567L96.195 54.269ZM87.7071 59.6935C86.3103 60.6178 84.9172 61.5555 83.5283 62.5069L82.3981 60.8569C83.7959 59.8994 85.1978 58.9557 86.6035 58.0256L87.7071 59.6935ZM79.3963 65.3867C78.0277 66.3572 76.6636 67.3412 75.3042 68.339L74.1208 66.7268C75.489 65.7224 76.862 64.732 78.2395 63.7552L79.3963 65.3867ZM71.2749 71.3483C69.9367 72.365 68.6037 73.3953 67.2762 74.4396L66.0397 72.8676C67.3761 71.8164 68.718 70.7792 70.0649 69.7558L71.2749 71.3483ZM63.3551 77.5774C62.054 78.6367 60.7585 79.7097 59.4691 80.7965L58.1802 79.2673C59.4783 78.1731 60.7825 77.0928 62.0924 76.0264L63.3551 77.5774ZM55.6493 84.0725C54.3874 85.1736 53.1317 86.2884 51.8826 87.417L50.5418 85.933C51.7995 84.7967 53.0638 83.6742 54.3343 82.5655L55.6493 84.0725ZM48.1695 90.8311C46.9491 91.9731 45.7354 93.1286 44.5288 94.2978L43.137 92.8615C44.352 91.6841 45.5741 90.5206 46.803 89.3707L48.1695 90.8311ZM40.9306 97.8469C39.7528 99.0293 38.5822 100.225 37.4192 101.435L35.9775 100.049C37.1487 98.8307 38.3275 97.6262 39.5136 96.4354L40.9306 97.8469ZM33.9564 105.102C32.8179 106.329 31.6873 107.569 30.5646 108.824L29.0743 107.49C30.2049 106.227 31.3436 104.977 32.4901 103.741L33.9564 105.102ZM27.2434 112.603C26.1456 113.875 25.056 115.16 23.9749 116.459L22.4375 115.18C23.5263 113.872 24.6237 112.577 25.7294 111.296L27.2434 112.603ZM20.8013 120.344C19.7519 121.652 18.7111 122.974 17.6791 124.309L16.0966 123.087C17.1359 121.741 18.1842 120.41 19.2411 119.092L20.8013 120.344ZM14.6384 128.319C13.6404 129.66 12.6512 131.014 11.6711 132.381L10.0454 131.216C11.0325 129.839 12.0288 128.475 13.0341 127.124L14.6384 128.319ZM8.76184 136.52C7.81677 137.891 6.8808 139.275 5.95413 140.672L4.28745 139.566C5.22073 138.159 6.16342 136.765 7.11526 135.385L8.76184 136.52ZM3.20245 144.902C2.74854 145.614 2.29706 146.329 1.84799 147.048L0.152008 145.988C0.604248 145.264 1.05896 144.544 1.51611 143.827L3.20245 144.902Z" fill="#CBD5E1"/>
</svg>
