<svg width="164" height="37" viewBox="0 0 164 37" fill="none" xmlns="http://www.w3.org/2000/svg">
<path d="M13.4773 28.0355V28.5556C13.4751 29.1063 13.0294 29.552 12.4787 29.5542H6.93718C6.38871 29.5542 5.94294 29.1084 5.94075 28.56C5.94075 27.9328 5.94075 27.3144 5.94075 26.696C5.94075 25.1664 5.95605 23.6368 5.94075 22.1072H1.00013C0.447291 22.105 0.00152094 21.6527 0.00589124 21.0999C0.00807638 20.8377 0.110778 20.5886 0.294331 20.4028L19.1674 1.52532C20.437 0.262305 22.4889 0.266675 23.7541 1.53625L23.7563 1.53843L42.601 20.3831C42.9943 20.7721 42.9987 21.4058 42.6097 21.7991C42.4218 21.9892 42.1661 22.0963 41.8995 22.0963H36.9611C36.9087 25.6778 36.9261 27.9962 36.9436 30.7386C36.9546 32.1655 36.9633 33.7104 36.9677 35.6114C36.9677 35.6399 36.9677 35.6704 36.9677 35.701C36.9677 36.2517 36.5197 36.6996 35.9691 36.6996H35.9669H15.9793C15.4265 36.6996 14.9807 36.2539 14.9785 35.701V23.0796C14.9807 22.8393 14.9938 22.5989 15.0222 22.3607C15.0856 21.7926 15.2254 21.2354 15.4396 20.7044C15.5641 20.3984 15.7084 20.1034 15.8766 19.8194C16.0165 19.5834 16.1716 19.3539 16.3399 19.1376C18.5054 16.3122 22.5544 15.7769 25.3798 17.9423C25.5874 18.1019 25.7841 18.2723 25.9698 18.4558C25.9917 18.4733 26.0113 18.4908 26.0288 18.5105C26.42 18.9038 26.7587 19.343 27.0405 19.8216C27.2088 20.1056 27.3552 20.4028 27.4776 20.7087C27.5999 21.0147 27.6983 21.3271 27.7726 21.6483C27.8272 21.8843 27.8665 22.1225 27.8949 22.3629C28.2861 25.9247 25.7163 29.1281 22.1545 29.5192C21.9251 29.5455 21.6935 29.5564 21.4619 29.5586H20C19.4471 29.5564 19.0014 29.1106 19.0014 28.5578V28.0377C18.997 27.4871 19.4384 27.0369 19.9891 27.0326C19.9913 27.0326 19.9934 27.0326 19.9956 27.0326H21.4531C21.971 27.0326 22.4823 26.932 22.9609 26.7354C23.9311 26.3289 24.7002 25.5598 25.1067 24.5896C25.3055 24.111 25.4082 23.5975 25.4082 23.0796C25.4082 22.8698 25.3929 22.6579 25.3602 22.4503C25.2728 21.9412 25.0914 21.4517 24.8226 21.0103C24.6718 20.7634 24.4948 20.5339 24.2938 20.3263L24.2239 20.2586C23.1007 19.1442 21.4182 18.8098 19.9541 19.4129C19.4756 19.6096 19.0407 19.898 18.6736 20.263L18.6539 20.2804C18.2344 20.7 17.9132 21.2091 17.7143 21.7685L17.6947 21.8363C17.557 22.234 17.4914 22.6535 17.4958 23.0731V34.2173H34.4984V20.6301C34.4984 20.0794 34.9464 19.6315 35.4971 19.6315H35.4992H38.3552L22.4911 3.7651C21.9535 3.2057 21.0707 3.17074 20.4916 3.68643L5.0951 19.0852L4.54881 19.6315H7.40699C7.95983 19.6249 8.41215 20.0685 8.41871 20.6213C8.41871 20.6235 8.41871 20.6279 8.41871 20.6301V27.0304H12.4896C13.0425 27.0304 13.4904 27.4783 13.4904 28.0312" fill="#42B580"/>
<path d="M136.214 36.7045C134.385 36.7241 132.58 36.298 130.954 35.4633L132.108 32.9329C133.323 33.654 134.711 34.032 136.124 34.0255C137.053 34.0976 137.973 33.8048 138.688 33.2082C139.284 32.5505 139.586 31.6764 139.518 30.7893V30.2124C138.624 31.4623 137.169 32.1856 135.633 32.1441C134.263 32.1593 132.941 31.6393 131.951 30.6931C130.873 29.6027 130.294 28.119 130.349 26.5872V26.5435C130.297 25.0095 130.882 23.5236 131.966 22.4376C132.954 21.5002 134.267 20.9823 135.631 20.9954C137.114 20.9648 138.53 21.6182 139.47 22.7676V21.2161H142.85V30.4243C142.85 32.6488 142.306 34.2265 141.19 35.247C140.11 36.2259 138.484 36.7045 136.214 36.7045ZM136.612 23.7902C135.108 23.7028 133.819 24.8522 133.732 26.3556C133.732 26.4168 133.732 26.4801 133.732 26.5413V26.5872C133.808 28.1867 135.167 29.4214 136.767 29.3449C138.259 29.2728 139.455 28.0797 139.524 26.5872V26.5413C139.533 25.0292 138.314 23.7946 136.802 23.7859C136.736 23.7859 136.686 23.7859 136.612 23.7902ZM91.0339 36.6629H87.6578V21.2161H91.0339V22.9249C91.8621 21.6903 93.2627 20.9627 94.7486 20.9932C96.1624 20.9867 97.5172 21.5592 98.4984 22.5775C99.6325 23.8208 100.231 25.4597 100.166 27.1401V27.186C100.233 28.8641 99.6412 30.503 98.5136 31.7485C97.5303 32.7712 96.169 33.3437 94.7508 33.3328C93.2999 33.3677 91.9211 32.71 91.0361 31.5606V36.6629H91.0339ZM93.8746 23.858C92.2292 23.858 90.9902 25.2718 90.9902 27.1357V27.1816C90.9902 29.0543 92.2292 30.4593 93.8746 30.4593C95.5593 30.4593 96.7808 29.0783 96.7808 27.1816V27.1357C96.7808 25.2652 95.5287 23.858 93.8724 23.858H93.8746ZM121.989 33.3852C120.284 33.4093 118.637 32.7668 117.4 31.5934C116.222 30.4506 115.564 28.8773 115.575 27.2362V27.1925C115.569 25.5471 116.233 23.9672 117.415 22.8222C120.007 20.4098 124.019 20.4011 126.621 22.8004C127.797 23.941 128.457 25.5143 128.446 27.1532V27.1991C128.452 28.8467 127.786 30.4243 126.604 31.5694C125.363 32.7559 123.706 33.4071 121.989 33.3852ZM121.989 23.9082C120.317 23.8733 118.932 25.1997 118.897 26.8713C118.897 26.9631 118.897 27.0548 118.897 27.1466V27.1925C118.838 28.9428 120.206 30.409 121.956 30.4702H122.021C123.693 30.5052 125.078 29.1788 125.113 27.5072C125.113 27.4154 125.113 27.3236 125.113 27.2297V27.186C125.17 25.4378 123.802 23.9716 122.054 23.9082H121.991H121.989ZM78.7621 33.3852C77.0577 33.4093 75.4101 32.7668 74.1733 31.5934C72.9955 30.4506 72.3356 28.8773 72.3465 27.2362V27.1925C72.3421 25.5471 73.0064 23.9694 74.1886 22.8222C76.7802 20.412 80.7899 20.4033 83.3924 22.8004C84.568 23.941 85.228 25.5143 85.217 27.1532V27.1991C85.2236 28.8467 84.5593 30.4243 83.3771 31.5694C82.136 32.7559 80.4796 33.4071 78.7621 33.3852ZM78.7621 23.9082C77.0905 23.8733 75.7051 25.1997 75.6701 26.8713C75.6701 26.9631 75.6701 27.0548 75.6701 27.1466V27.1925C75.6133 28.9406 76.9812 30.4069 78.7293 30.4702H78.7927C80.4643 30.5052 81.8475 29.1788 81.8825 27.5094C81.8825 27.5072 81.8825 27.5072 81.8825 27.505C81.8825 27.4132 81.8825 27.3214 81.8825 27.2297V27.186C81.9393 25.4378 80.5714 23.9716 78.8233 23.9082H78.7621ZM155.098 33.1186H151.569L155.74 27.0832L151.724 21.2249H155.341L157.561 24.6861L159.803 21.2249H163.329L159.313 27.0199L163.506 33.1208H159.892L157.489 29.417L155.085 33.1208L155.098 33.1186ZM149.395 33.1186H146.021V21.2161H149.397V33.1099L149.395 33.1186ZM114.155 33.1186H102.993V17.5757H106.411V30.0048H114.155V33.1099V33.1186ZM67.3535 33.1186H63.9796V21.2161H67.3535V23.6198C68.103 21.8302 69.237 20.9976 70.9196 20.9976C70.9939 20.9976 71.0704 20.9976 71.1381 20.9976V24.5244H70.9611C68.6296 24.5244 67.3447 26.0147 67.3447 28.7199V33.1121L67.3535 33.1186ZM52.9315 33.1186H49.5117V17.5757H55.8596C59.4716 17.5757 61.8054 19.6843 61.8054 22.9468V22.9905C61.8665 24.5616 61.187 26.0693 59.972 27.068C58.6915 28.025 57.1226 28.5123 55.5252 28.449H52.9293V33.1099L52.9315 33.1186ZM52.9315 20.6633V25.4138H55.6389C57.2581 25.4138 58.3463 24.4676 58.3463 23.0604V23.0145C58.3463 21.522 57.3345 20.6633 55.5711 20.6633H52.9315ZM147.71 19.7892C146.6 19.7892 145.7 18.8889 145.7 17.7789C145.7 16.6688 146.6 15.7686 147.71 15.7686C148.82 15.7686 149.72 16.6688 149.72 17.7789C149.723 18.8911 148.824 19.7936 147.712 19.7958C147.71 19.7958 147.71 19.7958 147.708 19.7958L147.71 19.7892Z" fill="#1E2A34"/>
</svg>
