<svg width="79" height="63" viewBox="0 0 79 63" fill="none" xmlns="http://www.w3.org/2000/svg">
<path d="M31.9667 46.7803C32.6687 37.5864 27.2868 31.4571 18.8629 31.4571C19.5649 22.9704 26.3508 12.8336 35.0087 6.70428L23.0748 0.103516C11.141 7.64724 1.54715 24.6206 0.143167 40.8868C-1.02681 53.6168 5.0571 62.1035 15.3529 62.1035C24.0108 62.1035 31.2647 55.7385 31.9667 46.7803ZM75.958 46.7803C76.66 37.5864 71.2781 31.4571 62.8542 31.4571C63.5562 22.9704 70.3421 12.8336 79 6.70428L67.0662 0.103516C55.1324 7.64724 45.5385 24.6206 44.1345 40.8868C42.9645 53.6168 49.0484 62.1035 59.3443 62.1035C68.0022 62.1035 75.2561 55.7385 75.958 46.7803Z" fill="#023D4D"/>
</svg>
