<svg width="49" height="36" viewBox="0 0 49 36" fill="none" xmlns="http://www.w3.org/2000/svg">
<path d="M31.1815 0C27.6574 0 24.2124 1.04502 21.2822 3.0029C18.352 4.96079 16.0682 7.74361 14.7196 10.9995C13.371 14.2553 13.0181 17.8379 13.7057 21.2943C14.3932 24.7507 16.0902 27.9256 18.5821 30.4175C21.074 32.9094 24.2489 34.6065 27.7053 35.294C31.1617 35.9815 34.7443 35.6286 38.0002 34.28C41.256 32.9314 44.0389 30.6476 45.9967 27.7174C47.9546 24.7872 48.9996 21.3423 48.9996 17.8182C48.9945 13.0941 47.1156 8.56496 43.7751 5.22452C40.4347 1.88408 35.9056 0.00515655 31.1815 0ZM31.1815 33.9394C27.993 33.9394 24.8761 32.9939 22.225 31.2225C19.5739 29.451 17.5076 26.9333 16.2874 23.9875C15.0672 21.0417 14.748 17.8003 15.37 14.6731C15.9921 11.5459 17.5275 8.67335 19.7821 6.41876C22.0366 4.16417 24.9092 2.62877 28.0364 2.00673C31.1636 1.38469 34.405 1.70395 37.3508 2.92412C40.2966 4.1443 42.8143 6.21059 44.5858 8.86171C46.3572 11.5128 47.3027 14.6297 47.3027 17.8182C47.2978 22.0923 45.5978 26.19 42.5755 29.2122C39.5533 32.2345 35.4556 33.9345 31.1815 33.9394ZM37.9269 18.7091C37.927 18.8205 37.9051 18.9309 37.8625 19.0339C37.8198 19.1368 37.7573 19.2304 37.6785 19.3092C37.5997 19.388 37.5062 19.4505 37.4032 19.4931C37.3002 19.5357 37.1899 19.5576 37.0784 19.5576H30.2906C30.1791 19.5576 30.0688 19.5357 29.9658 19.4931C29.8628 19.4505 29.7692 19.388 29.6904 19.3092C29.6116 19.2304 29.5491 19.1368 29.5065 19.0339C29.4639 18.9309 29.442 18.8205 29.4421 18.7091V8.52727C29.4421 8.30224 29.5315 8.08642 29.6906 7.9273C29.8497 7.76818 30.0655 7.67879 30.2906 7.67879C30.5156 7.67879 30.7314 7.76818 30.8905 7.9273C31.0497 8.08642 31.139 8.30224 31.139 8.52727V17.8606H37.0784C37.1899 17.8605 37.3002 17.8824 37.4032 17.9251C37.5062 17.9677 37.5997 18.0302 37.6785 18.109C37.7573 18.1878 37.8198 18.2813 37.8625 18.3843C37.9051 18.4873 37.927 18.5976 37.9269 18.7091Z" fill="url(#paint0_linear)"/>
<path d="M31.1815 0C27.6574 0 24.2124 1.04502 21.2822 3.0029C18.352 4.96079 16.0682 7.74361 14.7196 10.9995C13.371 14.2553 13.0181 17.8379 13.7057 21.2943C14.3932 24.7507 16.0902 27.9256 18.5821 30.4175C21.074 32.9094 24.2489 34.6065 27.7053 35.294C31.1617 35.9815 34.7443 35.6286 38.0002 34.28C41.256 32.9314 44.0389 30.6476 45.9967 27.7174C47.9546 24.7872 48.9996 21.3423 48.9996 17.8182C48.9945 13.0941 47.1156 8.56496 43.7751 5.22452C40.4347 1.88408 35.9056 0.00515655 31.1815 0ZM31.1815 33.9394C27.993 33.9394 24.8761 32.9939 22.225 31.2225C19.5739 29.451 17.5076 26.9333 16.2874 23.9875C15.0672 21.0417 14.748 17.8003 15.37 14.6731C15.9921 11.5459 17.5275 8.67335 19.7821 6.41876C22.0366 4.16417 24.9092 2.62877 28.0364 2.00673C31.1636 1.38469 34.405 1.70395 37.3508 2.92412C40.2966 4.1443 42.8143 6.21059 44.5858 8.86171C46.3572 11.5128 47.3027 14.6297 47.3027 17.8182C47.2978 22.0923 45.5978 26.19 42.5755 29.2122C39.5533 32.2345 35.4556 33.9345 31.1815 33.9394ZM37.9269 18.7091C37.927 18.8205 37.9051 18.9309 37.8625 19.0339C37.8198 19.1368 37.7573 19.2304 37.6785 19.3092C37.5997 19.388 37.5062 19.4505 37.4032 19.4931C37.3002 19.5357 37.1899 19.5576 37.0784 19.5576H30.2906C30.1791 19.5576 30.0688 19.5357 29.9658 19.4931C29.8628 19.4505 29.7692 19.388 29.6904 19.3092C29.6116 19.2304 29.5491 19.1368 29.5065 19.0339C29.4639 18.9309 29.442 18.8205 29.4421 18.7091V8.52727C29.4421 8.30224 29.5315 8.08642 29.6906 7.9273C29.8497 7.76818 30.0655 7.67879 30.2906 7.67879C30.5156 7.67879 30.7314 7.76818 30.8905 7.9273C31.0497 8.08642 31.139 8.30224 31.139 8.52727V17.8606H37.0784C37.1899 17.8605 37.3002 17.8824 37.4032 17.9251C37.5062 17.9677 37.5997 18.0302 37.6785 18.109C37.7573 18.1878 37.8198 18.2813 37.8625 18.3843C37.9051 18.4873 37.927 18.5976 37.9269 18.7091Z" stroke="url(#paint1_linear)"/>
<path d="M3.6274 9.35352C3.37424 9.35352 3.13144 9.28312 2.95243 9.15781C2.77342 9.0325 2.67285 8.86255 2.67285 8.68533C2.67285 8.50812 2.77342 8.33817 2.95243 8.21286C3.13144 8.08755 3.37424 8.01715 3.6274 8.01715L6.68194 8.01715L9.35467 8.01715L12.4092 8.01715C12.6624 8.01715 12.9052 8.08755 13.0842 8.21286C13.2632 8.33816 13.3638 8.50812 13.3638 8.68533C13.3638 8.86255 13.2632 9.0325 13.0842 9.15781C12.9052 9.28312 12.6624 9.35352 12.4092 9.35352L9.35467 9.35352L6.68194 9.35352L6.49103 9.35352L3.6274 9.35352Z" fill="url(#paint2_linear)"/>
<path d="M3.6274 9.35352C3.37424 9.35352 3.13144 9.28312 2.95243 9.15781C2.77342 9.0325 2.67285 8.86255 2.67285 8.68533C2.67285 8.50812 2.77342 8.33817 2.95243 8.21286C3.13144 8.08755 3.37424 8.01715 3.6274 8.01715L6.68194 8.01715L9.35467 8.01715L12.4092 8.01715C12.6624 8.01715 12.9052 8.08755 13.0842 8.21286C13.2632 8.33816 13.3638 8.50812 13.3638 8.68533C13.3638 8.86255 13.2632 9.0325 13.0842 9.15781C12.9052 9.28312 12.6624 9.35352 12.4092 9.35352L9.35467 9.35352L6.68194 9.35352L6.49103 9.35352L3.6274 9.35352Z" stroke="url(#paint3_linear)"/>
<path d="M0.954546 18.2627C0.701385 18.2627 0.458592 18.1923 0.27958 18.067C0.100568 17.9417 -1.78841e-08 17.7717 -2.43393e-08 17.5945C-3.07945e-08 17.4173 0.100568 17.2473 0.27958 17.122C0.458592 16.9967 0.701385 16.9263 0.954546 16.9263L4.00909 16.9263L6.68182 16.9263L9.73636 16.9263C9.98952 16.9263 10.2323 16.9967 10.4113 17.122C10.5903 17.2473 10.6909 17.4173 10.6909 17.5945C10.6909 17.7717 10.5903 17.9417 10.4113 18.067C10.2323 18.1923 9.98952 18.2627 9.73636 18.2627L6.68182 18.2627L4.00909 18.2627L3.81818 18.2627L0.954546 18.2627Z" fill="url(#paint4_linear)"/>
<path d="M0.954546 18.2627C0.701385 18.2627 0.458592 18.1923 0.27958 18.067C0.100568 17.9417 -1.78841e-08 17.7717 -2.43393e-08 17.5945C-3.07945e-08 17.4173 0.100568 17.2473 0.27958 17.122C0.458592 16.9967 0.701385 16.9263 0.954546 16.9263L4.00909 16.9263L6.68182 16.9263L9.73636 16.9263C9.98952 16.9263 10.2323 16.9967 10.4113 17.122C10.5903 17.2473 10.6909 17.4173 10.6909 17.5945C10.6909 17.7717 10.5903 17.9417 10.4113 18.067C10.2323 18.1923 9.98952 18.2627 9.73636 18.2627L6.68182 18.2627L4.00909 18.2627L3.81818 18.2627L0.954546 18.2627Z" stroke="url(#paint5_linear)"/>
<path d="M3.6274 27.1719C3.37424 27.1719 3.13144 27.1015 2.95243 26.9762C2.77342 26.8509 2.67285 26.6809 2.67285 26.5037C2.67285 26.3265 2.77342 26.1565 2.95243 26.0312C3.13144 25.9059 3.37424 25.8355 3.6274 25.8355L6.68194 25.8355L9.35467 25.8355L12.4092 25.8355C12.6624 25.8355 12.9052 25.9059 13.0842 26.0312C13.2632 26.1565 13.3638 26.3265 13.3638 26.5037C13.3638 26.6809 13.2632 26.8509 13.0842 26.9762C12.9052 27.1015 12.6624 27.1719 12.4092 27.1719L9.35467 27.1719L6.68194 27.1719L6.49103 27.1719L3.6274 27.1719Z" fill="url(#paint6_linear)"/>
<path d="M3.6274 27.1719C3.37424 27.1719 3.13144 27.1015 2.95243 26.9762C2.77342 26.8509 2.67285 26.6809 2.67285 26.5037C2.67285 26.3265 2.77342 26.1565 2.95243 26.0312C3.13144 25.9059 3.37424 25.8355 3.6274 25.8355L6.68194 25.8355L9.35467 25.8355L12.4092 25.8355C12.6624 25.8355 12.9052 25.9059 13.0842 26.0312C13.2632 26.1565 13.3638 26.3265 13.3638 26.5037C13.3638 26.6809 13.2632 26.8509 13.0842 26.9762C12.9052 27.1015 12.6624 27.1719 12.4092 27.1719L9.35467 27.1719L6.68194 27.1719L6.49103 27.1719L3.6274 27.1719Z" stroke="url(#paint7_linear)"/>
<defs>
<linearGradient id="paint0_linear" x1="31.1815" y1="0" x2="31.1815" y2="35.6364" gradientUnits="userSpaceOnUse">
<stop offset="0.182292" stop-color="#0A7B82"/>
<stop offset="1" stop-color="#0F172A"/>
</linearGradient>
<linearGradient id="paint1_linear" x1="31.1815" y1="0" x2="31.1815" y2="35.6364" gradientUnits="userSpaceOnUse">
<stop stop-color="#0A7B82"/>
<stop offset="1" stop-color="#0F192C"/>
</linearGradient>
<linearGradient id="paint2_linear" x1="2.67285" y1="8.68533" x2="13.3638" y2="8.68533" gradientUnits="userSpaceOnUse">
<stop offset="0.182292" stop-color="#0A7B82"/>
<stop offset="1" stop-color="#0F172A"/>
</linearGradient>
<linearGradient id="paint3_linear" x1="2.67285" y1="8.68533" x2="13.3638" y2="8.68533" gradientUnits="userSpaceOnUse">
<stop stop-color="#0A7B82"/>
<stop offset="1" stop-color="#0F192C"/>
</linearGradient>
<linearGradient id="paint4_linear" x1="-2.43393e-08" y1="17.5945" x2="10.6909" y2="17.5945" gradientUnits="userSpaceOnUse">
<stop offset="0.182292" stop-color="#0A7B82"/>
<stop offset="1" stop-color="#0F172A"/>
</linearGradient>
<linearGradient id="paint5_linear" x1="-2.43393e-08" y1="17.5945" x2="10.6909" y2="17.5945" gradientUnits="userSpaceOnUse">
<stop stop-color="#0A7B82"/>
<stop offset="1" stop-color="#0F192C"/>
</linearGradient>
<linearGradient id="paint6_linear" x1="2.67285" y1="26.5037" x2="13.3638" y2="26.5037" gradientUnits="userSpaceOnUse">
<stop offset="0.182292" stop-color="#0A7B82"/>
<stop offset="1" stop-color="#0F172A"/>
</linearGradient>
<linearGradient id="paint7_linear" x1="2.67285" y1="26.5037" x2="13.3638" y2="26.5037" gradientUnits="userSpaceOnUse">
<stop stop-color="#0A7B82"/>
<stop offset="1" stop-color="#0F192C"/>
</linearGradient>
</defs>
</svg>
