<svg width="54" height="60" viewBox="0 0 54 60" fill="none" xmlns="http://www.w3.org/2000/svg">
<path d="M51.8108 13.8421C49.5754 10.3412 44.7685 8.88686 38.2917 9.72158C38.0629 9.74841 37.8204 9.78891 37.5916 9.81573C37.4974 9.60061 37.4033 9.38496 37.2955 9.16984C34.5083 3.25841 30.6976 0 26.5503 0C22.403 0 18.5792 3.25841 15.8052 9.16984C15.7111 9.38496 15.6032 9.60061 15.5091 9.81573C15.2666 9.77576 15.0378 9.74841 14.809 9.72158C8.31901 8.87319 3.52528 10.3412 1.28989 13.8421C-0.944977 17.343 -0.25858 22.3113 3.21548 27.8319C3.6736 28.5594 4.1717 29.2863 4.7103 30C4.1717 30.7269 3.6736 31.4406 3.21548 32.1675C-0.25858 37.6882 -0.944977 42.6702 1.28989 46.1579C3.10766 49.0124 6.63589 50.5072 11.3886 50.5072C12.5279 50.5009 13.6655 50.4246 14.7953 50.2779C15.0241 50.2511 15.2666 50.2106 15.4954 50.1837C15.5901 50.3994 15.6842 50.6145 15.7921 50.8302C18.5792 56.7411 22.3899 60 26.5367 60C30.684 60 34.5083 56.7411 37.2818 50.8302C37.3759 50.6145 37.4838 50.3994 37.5779 50.1837C37.8204 50.2242 38.0492 50.2511 38.2785 50.2779C39.4073 50.431 40.5455 50.5072 41.6847 50.5072C46.438 50.5072 49.9657 49.0124 51.7834 46.1579C54.0188 42.657 53.3319 37.6882 49.8584 32.1675C49.4002 31.4406 48.9021 30.7137 48.3635 30C48.9021 29.2726 49.4002 28.5594 49.8584 27.8319C53.3724 22.2982 54.0593 17.3293 51.8108 13.8421ZM18.2426 10.3144C20.5179 5.46698 23.5475 2.69299 26.5503 2.69299C29.5531 2.69299 32.5827 5.46698 34.8581 10.3144C34.8597 10.3244 34.8644 10.3338 34.8718 10.3412C32.0115 11.0292 29.2218 11.9801 26.5367 13.182C23.8547 11.9743 21.0639 11.0228 18.2021 10.3412C18.2289 10.3412 18.2289 10.3275 18.2426 10.3144ZM38.6825 30C38.683 32.1544 38.5662 34.3077 38.3322 36.4495C36.6538 37.8039 34.9007 39.0625 33.0808 40.2197C30.9806 41.5683 28.7947 42.7785 26.5367 43.8421C24.2834 42.7701 22.0974 41.5604 19.993 40.2197C18.1752 39.0594 16.4222 37.8007 14.7417 36.4495C14.2746 32.1623 14.2746 27.8372 14.7417 23.55C18.3709 20.6334 22.3299 18.1524 26.5367 16.1579C28.7905 17.2293 30.9759 18.4391 33.0808 19.7798C34.8986 20.9401 36.6517 22.1987 38.3322 23.55C38.5662 25.6923 38.683 27.8451 38.6825 30ZM41.2539 26.0815C42.5726 27.3096 43.8139 28.6183 44.9705 30C43.8139 31.3812 42.5726 32.6898 41.2539 33.918C41.3349 32.6257 41.3755 31.3197 41.3755 30C41.3755 28.6803 41.3349 27.3743 41.2539 26.0815ZM37.7799 40.2739C37.3549 42.605 36.7379 44.8972 35.9353 47.1273C33.844 46.655 31.7917 46.0249 29.7956 45.2422C31.384 44.4075 32.973 43.4918 34.5483 42.4956C35.6528 41.7818 36.73 41.0413 37.7799 40.2739ZM23.3051 45.2422C21.3127 46.0349 19.2593 46.6655 17.1654 47.1273C16.3627 44.8972 15.7458 42.605 15.3208 40.2739C16.3575 41.0413 17.4347 41.7818 18.5524 42.4819C20.1277 43.4918 21.7166 44.4075 23.3051 45.2422ZM11.8467 33.918C10.5281 32.6898 9.28733 31.3812 8.13019 30C9.28733 28.6183 10.5281 27.3096 11.8467 26.0815C11.7657 27.3743 11.7252 28.6803 11.7252 30C11.7252 31.3197 11.7657 32.6257 11.8467 33.918ZM15.3208 19.7261C15.7458 17.3945 16.3627 15.1023 17.1654 12.8727C19.2566 13.3445 21.3095 13.9746 23.3051 14.7578C21.7166 15.5925 20.1277 16.5082 18.5524 17.5044C17.4478 18.2182 16.3706 18.9587 15.3208 19.7261ZM34.5352 17.5044C32.973 16.5082 31.384 15.5788 29.7819 14.7578C31.7743 13.9651 33.8277 13.3345 35.9221 12.8727C36.7243 15.1023 37.3412 17.3945 37.7667 19.7261C36.73 18.9587 35.6528 18.2182 34.5352 17.5044ZM5.49137 26.3913C2.63638 21.8669 1.93631 17.8142 3.5521 15.2827C4.84495 13.263 7.64576 12.1721 11.4291 12.1721C12.4421 12.1763 13.4541 12.2442 14.4587 12.3741H14.4855C13.3962 15.5415 12.6383 18.8131 12.2238 22.1362C10.1489 23.8671 8.21697 25.7633 6.44707 27.8051C6.11044 27.3475 5.7875 26.8762 5.49137 26.3913ZM14.4456 47.6123C13.4409 47.7427 12.429 47.81 11.4159 47.8142C7.63209 47.8142 4.83127 46.737 3.53895 44.7036C1.92316 42.1721 2.62323 38.1195 5.4777 33.595C5.77382 33.1238 6.09729 32.6388 6.43392 32.1675C8.2033 34.2099 10.1352 36.1055 12.2102 37.8365C12.6252 41.1601 13.3831 44.4317 14.4724 47.5986C14.4724 47.6123 14.4587 47.6123 14.4456 47.6123ZM34.8581 49.6856C32.5827 54.533 29.5531 57.307 26.5503 57.307C23.5475 57.307 20.5179 54.533 18.2426 49.6856C18.241 49.6757 18.2363 49.6662 18.2289 49.6588C21.0891 48.9708 23.8789 48.0199 26.564 46.8175C29.246 48.0257 32.0368 48.9772 34.8986 49.6588C34.8718 49.6588 34.8718 49.672 34.8581 49.6856ZM47.6093 33.6087C50.4643 38.1326 51.1644 42.1858 49.5486 44.7173C47.9328 47.2483 43.9606 48.3123 38.6551 47.6123H38.6283C39.7176 44.4448 40.476 41.1733 40.8905 37.8502C42.9655 36.1192 44.8974 34.223 46.6668 32.1812C46.9902 32.6525 47.3132 33.1238 47.6093 33.6087ZM40.8768 22.1498C40.4624 18.8262 39.7044 15.5546 38.6151 12.3877H38.642C43.9469 11.7008 47.9191 12.7512 49.5349 15.2827C51.1507 17.8142 50.4506 21.8669 47.5961 26.3913C47.3 26.8626 46.9766 27.3475 46.6399 27.8188C44.8784 25.7733 42.9507 23.8771 40.8768 22.1498Z" fill="url(#paint0_linear)"/>
<path d="M26.5501 24.668C23.6052 24.668 21.2178 27.0554 21.2178 30.0003C21.2178 32.9452 23.6052 35.3321 26.5501 35.3321C29.495 35.3321 31.8824 32.9452 31.8824 30.0003C31.8803 27.0559 29.494 24.6701 26.5501 24.668ZM26.5501 32.6391C25.0926 32.6391 23.9108 31.4578 23.9108 30.0003C23.9108 28.5428 25.0926 27.361 26.5501 27.361C28.0076 27.361 29.1894 28.5428 29.1894 30.0003C29.1868 31.4567 28.0065 32.637 26.5501 32.6391Z" fill="url(#paint1_linear)"/>
<defs>
<linearGradient id="paint0_linear" x1="26.5544" y1="-2.31597" x2="26.5544" y2="62.9633" gradientUnits="userSpaceOnUse">
<stop stop-color="#00EFD1"/>
<stop offset="1" stop-color="#00ACEA"/>
</linearGradient>
<linearGradient id="paint1_linear" x1="26.5501" y1="-2.31567" x2="26.5501" y2="62.9636" gradientUnits="userSpaceOnUse">
<stop stop-color="#00EFD1"/>
<stop offset="1" stop-color="#00ACEA"/>
</linearGradient>
</defs>
</svg>
