<svg width="60" height="60" viewBox="0 0 60 60" fill="none" xmlns="http://www.w3.org/2000/svg">
<path d="M2.97143 48.5714C3.65714 43.7143 7.82857 40 12.8571 40H30C35.0286 40 39.2 43.7143 39.8857 48.5714H41.4286C42.2286 48.5714 42.8571 49.2 42.8571 50V58.5714C42.8571 59.3714 42.2286 60 41.4286 60H1.42857C0.628571 60 0 59.3714 0 58.5714V50C0 49.2 0.628571 48.5714 1.42857 48.5714H2.97143ZM40 51.4286H2.85714V57.1429H40V51.4286ZM37 48.5714C36.3429 45.3143 33.4571 42.8571 30 42.8571H12.8571C9.4 42.8571 6.51429 45.3143 5.85714 48.5714H37ZM30 11.4286H54.2857C57.4286 11.4286 60 14 60 17.1429C60 20.2857 57.4286 22.8571 54.2857 22.8571H30C30.8 22.8571 31.4286 23.4857 31.4286 24.2857V30C31.4286 32.3714 29.5143 34.2857 27.1429 34.2857H15.7143C13.3429 34.2857 11.4286 32.3714 11.4286 30V24.2857C11.4286 23.4857 12.0571 22.8571 12.8571 22.8571H14.2857V11.4286H12.8571C12.0571 11.4286 11.4286 10.8 11.4286 10V4.28571C11.4286 1.91429 13.3429 0 15.7143 0H27.1429C29.5143 0 31.4286 1.91429 31.4286 4.28571V10C31.4286 10.8 30.8 11.4286 30 11.4286ZM14.2857 8.57143H28.5714V4.28571C28.5714 3.48571 27.9429 2.85714 27.1429 2.85714H15.7143C14.9143 2.85714 14.2857 3.48571 14.2857 4.28571V8.57143ZM25.7143 22.8571V11.4286H17.1429V22.8571H25.7143ZM28.5714 25.7143H14.2857V30C14.2857 30.8 14.9143 31.4286 15.7143 31.4286H27.1429C27.9429 31.4286 28.5714 30.8 28.5714 30V25.7143ZM28.5714 20H54.2857C55.8571 20 57.1429 18.7143 57.1429 17.1429C57.1429 15.5714 55.8571 14.2857 54.2857 14.2857H28.5714V20Z" fill="url(#paint0_linear)"/>
<path d="M2.97143 48.5714C3.65714 43.7143 7.82857 40 12.8571 40H30C35.0286 40 39.2 43.7143 39.8857 48.5714H41.4286C42.2286 48.5714 42.8571 49.2 42.8571 50V58.5714C42.8571 59.3714 42.2286 60 41.4286 60H1.42857C0.628571 60 0 59.3714 0 58.5714V50C0 49.2 0.628571 48.5714 1.42857 48.5714H2.97143ZM40 51.4286H2.85714V57.1429H40V51.4286ZM37 48.5714C36.3429 45.3143 33.4571 42.8571 30 42.8571H12.8571C9.4 42.8571 6.51429 45.3143 5.85714 48.5714H37ZM30 11.4286H54.2857C57.4286 11.4286 60 14 60 17.1429C60 20.2857 57.4286 22.8571 54.2857 22.8571H30C30.8 22.8571 31.4286 23.4857 31.4286 24.2857V30C31.4286 32.3714 29.5143 34.2857 27.1429 34.2857H15.7143C13.3429 34.2857 11.4286 32.3714 11.4286 30V24.2857C11.4286 23.4857 12.0571 22.8571 12.8571 22.8571H14.2857V11.4286H12.8571C12.0571 11.4286 11.4286 10.8 11.4286 10V4.28571C11.4286 1.91429 13.3429 0 15.7143 0H27.1429C29.5143 0 31.4286 1.91429 31.4286 4.28571V10C31.4286 10.8 30.8 11.4286 30 11.4286ZM14.2857 8.57143H28.5714V4.28571C28.5714 3.48571 27.9429 2.85714 27.1429 2.85714H15.7143C14.9143 2.85714 14.2857 3.48571 14.2857 4.28571V8.57143ZM25.7143 22.8571V11.4286H17.1429V22.8571H25.7143ZM28.5714 25.7143H14.2857V30C14.2857 30.8 14.9143 31.4286 15.7143 31.4286H27.1429C27.9429 31.4286 28.5714 30.8 28.5714 30V25.7143ZM28.5714 20H54.2857C55.8571 20 57.1429 18.7143 57.1429 17.1429C57.1429 15.5714 55.8571 14.2857 54.2857 14.2857H28.5714V20Z" stroke="url(#paint1_linear)"/>
<defs>
<linearGradient id="paint0_linear" x1="30" y1="0" x2="30" y2="60" gradientUnits="userSpaceOnUse">
<stop offset="0.182292" stop-color="#0A7B82"/>
<stop offset="1" stop-color="#0F172A"/>
</linearGradient>
<linearGradient id="paint1_linear" x1="30" y1="0" x2="30" y2="60" gradientUnits="userSpaceOnUse">
<stop stop-color="#0A7B82"/>
<stop offset="1" stop-color="#0F192C"/>
</linearGradient>
</defs>
</svg>
