<svg width="41" height="41" viewBox="0 0 41 41" fill="none" xmlns="http://www.w3.org/2000/svg">
<path d="M11.8421 33.9261C12.2631 33.505 12.9158 33.505 13.3368 33.9261C13.7579 34.3471 13.7579 34.9997 13.3368 35.4208L10.7053 38.0524C9.56841 39.1892 7.73683 39.1892 6.59999 38.0524L3.94736 35.4208C2.81052 34.284 2.81052 32.4524 3.94736 31.3155L6.57894 28.684C6.99999 28.2629 7.65262 28.2629 8.07367 28.684C8.49473 29.105 8.49473 29.7576 8.07367 30.1787L5.44209 32.7892C5.12631 33.105 5.12631 33.6103 5.44209 33.9261L8.07367 36.5576C8.38946 36.8734 8.89473 36.8734 9.21052 36.5576L11.8421 33.9261Z" fill="white"/>
<path d="M20.5786 10.8535L8.26278 26.4325C7.92594 26.8535 7.96804 27.443 8.34699 27.8219L14.1786 33.6535C14.5575 34.0325 15.147 34.0746 15.568 33.7377L31.147 21.4219C36.768 16.9798 39.6733 9.96931 38.7049 3.27457C32.0312 2.3272 25.0207 5.23246 20.5786 10.8535ZM18.1365 34.3904L16.8733 35.4009C15.6101 36.3904 13.8207 36.2851 12.6838 35.1483L6.85225 29.3167C5.71541 28.1798 5.61015 26.3904 6.59962 25.1272L7.61015 23.864L1.46278 19.7798C0.873306 19.3798 0.831201 18.5167 1.39962 18.0746L8.76804 12.1798C11.0207 10.3904 14.0944 10.0535 16.6628 11.3377L17.2523 11.6325L18.9154 9.5272C24.0101 3.0851 32.1365 -0.114905 39.8207 1.31667C40.2417 1.40088 40.5786 1.73773 40.6628 2.15878C42.0944 9.82194 38.8944 17.9693 32.4522 23.064L30.347 24.7272L30.6417 25.3167C31.9259 27.8851 31.6101 30.9798 29.7996 33.2114L23.9049 40.5798C23.4628 41.1272 22.5996 41.1062 22.1996 40.4956L18.1365 34.3904ZM19.7996 33.0851L23.1891 38.1588L28.1786 31.9062C29.4628 30.3062 29.6944 28.0956 28.768 26.264L28.6628 26.0535L19.7996 33.0851ZM8.91541 22.2009L15.9259 13.3167L15.7154 13.2114C13.8838 12.3061 11.6733 12.5377 10.0733 13.8219L3.84173 18.8114L8.91541 22.2009Z" fill="white"/>
<path d="M25.6937 8.85303C27.7568 6.78987 31.0832 6.78987 33.1463 8.85303C35.2095 10.9162 35.2095 14.2425 33.1463 16.3057C31.0832 18.3688 27.7568 18.3688 25.6937 16.3057C23.6516 14.2425 23.6516 10.9162 25.6937 8.85303ZM31.6516 14.8109C32.8937 13.5688 32.8937 11.5688 31.6516 10.3478C30.4095 9.10566 28.4095 9.10566 27.1884 10.3478C25.9674 11.5899 25.9463 13.5899 27.1884 14.8109C28.4305 16.053 30.4095 16.053 31.6516 14.8109Z" fill="white"/>
</svg>
