<svg width="40" height="40" viewBox="0 0 40 40" fill="none" xmlns="http://www.w3.org/2000/svg">
<g clip-path="url(#clip0)">
<path d="M10.8411 32.929C11.2622 32.5079 11.9148 32.5079 12.3359 32.929C12.7569 33.35 12.7569 34.0027 12.3359 34.4237L9.70428 37.0553C8.56743 38.1922 6.73586 38.1922 5.59901 37.0553L2.94638 34.4237C1.80954 33.2869 1.80954 31.4553 2.94638 30.3185L5.57796 27.6869C5.99901 27.2658 6.65164 27.2658 7.0727 27.6869C7.49375 28.1079 7.49375 28.7606 7.0727 29.1816L4.44112 31.7922C4.12533 32.1079 4.12533 32.6132 4.44112 32.929L7.0727 35.5606C7.38849 35.8764 7.89375 35.8764 8.20954 35.5606L10.8411 32.929Z" fill="url(#paint0_linear)"/>
<path d="M19.5786 9.85449L7.26278 25.4334C6.92594 25.8545 6.96804 26.444 7.34699 26.8229L13.1786 32.6545C13.5575 33.0334 14.147 33.0756 14.568 32.7387L30.147 20.4229C35.768 15.9808 38.6733 8.97028 37.7049 2.27555C31.0312 1.32818 24.0207 4.23344 19.5786 9.85449ZM17.1365 33.3913L15.8733 34.4019C14.6101 35.3913 12.8207 35.2861 11.6838 34.1492L5.85225 28.3177C4.71541 27.1808 4.61015 25.3913 5.59962 24.1282L6.61015 22.865L0.46278 18.7808C-0.126694 18.3808 -0.168799 17.5177 0.399622 17.0755L7.76804 11.1808C10.0207 9.39134 13.0944 9.05449 15.6628 10.3387L16.2523 10.6334L17.9154 8.52818C23.0101 2.08607 31.1365 -1.11393 38.8207 0.317651C39.2417 0.401861 39.5786 0.738703 39.6628 1.15976C41.0944 8.82292 37.8944 16.9703 31.4522 22.065L29.347 23.7282L29.6417 24.3177C30.9259 26.8861 30.6101 29.9808 28.7996 32.2124L22.9049 39.5808C22.4628 40.1282 21.5996 40.1071 21.1996 39.4966L17.1365 33.3913ZM18.7996 32.0861L22.1891 37.1598L27.1786 30.9071C28.4628 29.3071 28.6944 27.0966 27.768 25.265L27.6628 25.0545L18.7996 32.0861ZM7.91541 21.2019L14.9259 12.3177L14.7154 12.2124C12.8838 11.3071 10.6733 11.5387 9.0733 12.8229L2.84173 17.8124L7.91541 21.2019Z" fill="url(#paint1_linear)"/>
<path d="M24.6956 7.85596C26.7588 5.7928 30.0851 5.7928 32.1483 7.85596C34.2114 9.91912 34.2114 13.2454 32.1483 15.3086C30.0851 17.3718 26.7588 17.3718 24.6956 15.3086C22.6535 13.2454 22.6535 9.91912 24.6956 7.85596ZM30.6535 13.8139C31.8956 12.5718 31.8956 10.5718 30.6535 9.3507C29.4114 8.10859 27.4114 8.10859 26.1904 9.3507C24.9693 10.5928 24.9483 12.5928 26.1904 13.8139C27.4325 15.056 29.4114 15.056 30.6535 13.8139Z" fill="url(#paint2_linear)"/>
</g>
<defs>
<linearGradient id="paint0_linear" x1="7.3727" y1="27.3711" x2="7.3727" y2="37.9079" gradientUnits="userSpaceOnUse">
<stop stop-color="#0A7B82"/>
<stop offset="1" stop-color="#0F172A"/>
</linearGradient>
<linearGradient id="paint1_linear" x1="19.998" y1="-0.0195313" x2="19.998" y2="39.9738" gradientUnits="userSpaceOnUse">
<stop stop-color="#0A7B82"/>
<stop offset="1" stop-color="#0F172A"/>
</linearGradient>
<linearGradient id="paint2_linear" x1="28.4299" y1="6.30859" x2="28.4299" y2="16.856" gradientUnits="userSpaceOnUse">
<stop stop-color="#0A7B82"/>
<stop offset="1" stop-color="#0F172A"/>
</linearGradient>
<clipPath id="clip0">
<rect width="40" height="40" fill="#0A7B82"/>
</clipPath>
</defs>
</svg>
