<svg width="43" height="41" viewBox="0 0 43 41" fill="none" xmlns="http://www.w3.org/2000/svg">
<path fill-rule="evenodd" clip-rule="evenodd" d="M3.2876 0H39.2876C40.9476 0 42.2876 1.34 42.2876 3V7C42.2876 7.56 41.8476 8 41.2876 8H40.2876V27C40.2876 29.76 38.0476 32 35.2876 32H22.9076L26.1476 38.56C26.4076 39.06 26.2076 39.66 25.7076 39.9C25.2076 40.16 24.6076 39.96 24.3676 39.46L21.2676 33.24L18.1676 39.46C17.9276 39.94 17.3276 40.14 16.8276 39.9C16.3476 39.66 16.1476 39.06 16.3876 38.56L19.6676 32H7.2876C4.5276 32 2.2876 29.76 2.2876 27V8H1.2876C0.727598 8 0.287598 7.56 0.287598 7V3C0.287598 1.34 1.6276 0 3.2876 0ZM35.2876 30C36.9476 30 38.2876 28.66 38.2876 27V8H4.2876V27C4.2876 28.66 5.6276 30 7.2876 30H35.2876ZM2.2876 6H40.2876V3C40.2876 2.44 39.8476 2 39.2876 2H3.2876C2.7276 2 2.2876 2.44 2.2876 3V6ZM18.7081 22.42C18.3081 22.82 17.6881 22.82 17.2881 22.42L8.56807 13.72C8.16807 13.32 8.16807 12.7 8.56807 12.3C8.96807 11.9 9.58807 11.9 9.98807 12.3L17.9881 20.3L21.2881 17C21.6881 16.6 22.3081 16.6 22.7081 17L28.0081 22.28L29.3081 20.98C29.7081 20.58 30.3281 20.58 30.7281 20.98L34.0281 24.28C34.4281 24.68 34.4281 25.3 34.0281 25.7C33.6281 26.1 33.0081 26.1 32.6081 25.7L30.0281 23.12L28.7281 24.42C28.3281 24.82 27.7081 24.82 27.3081 24.42L22.0081 19.12L18.7081 22.42Z" fill="url(#paint0_linear)"/>
<defs>
<linearGradient id="paint0_linear" x1="21.2876" y1="0" x2="21.2876" y2="40.0141" gradientUnits="userSpaceOnUse">
<stop offset="0.182292" stop-color="#0A7B82"/>
<stop offset="1" stop-color="#0F172A"/>
</linearGradient>
</defs>
</svg>
