<svg width="37" height="37" viewBox="0 0 37 37" fill="none" xmlns="http://www.w3.org/2000/svg">
<path d="M27.772 28.1179C21.4626 33.7453 11.7615 33.5179 5.69836 27.4737C-0.592163 21.1832 -0.592163 11.0084 5.69836 4.7179C11.9889 -1.57263 22.1636 -1.57263 28.4542 4.7179C34.5173 10.7811 34.7257 20.4632 29.0984 26.7916L29.1173 26.8105L36.6963 34.3895C37.5868 35.28 36.2415 36.6253 35.351 35.7347L27.772 28.1179ZM27.1278 26.1284C32.6794 20.5768 32.6794 11.5958 27.1278 6.04421C21.5763 0.492632 12.5952 0.492632 7.04363 6.04421C1.49205 11.5958 1.49205 20.5768 7.04363 26.1284C12.5952 31.68 21.5763 31.68 27.1278 26.1284Z" fill="url(#paint0_linear)"/>
<path d="M27.772 28.1179C21.4626 33.7453 11.7615 33.5179 5.69836 27.4737C-0.592163 21.1832 -0.592163 11.0084 5.69836 4.7179C11.9889 -1.57263 22.1636 -1.57263 28.4542 4.7179C34.5173 10.7811 34.7257 20.4632 29.0984 26.7916L29.1173 26.8105L36.6963 34.3895C37.5868 35.28 36.2415 36.6253 35.351 35.7347L27.772 28.1179ZM27.1278 26.1284C32.6794 20.5768 32.6794 11.5958 27.1278 6.04421C21.5763 0.492632 12.5952 0.492632 7.04363 6.04421C1.49205 11.5958 1.49205 20.5768 7.04363 26.1284C12.5952 31.68 21.5763 31.68 27.1278 26.1284Z" stroke="url(#paint1_linear)"/>
<defs>
<linearGradient id="paint0_linear" x1="18.9846" y1="0" x2="18.9846" y2="36.0271" gradientUnits="userSpaceOnUse">
<stop offset="0.182292" stop-color="#0A7B82"/>
<stop offset="1" stop-color="#0F172A"/>
</linearGradient>
<linearGradient id="paint1_linear" x1="18.9846" y1="0" x2="18.9846" y2="36.0271" gradientUnits="userSpaceOnUse">
<stop stop-color="#0A7B82"/>
<stop offset="1" stop-color="#0F192C"/>
</linearGradient>
</defs>
</svg>
