<svg width="17" height="18" viewBox="0 0 17 18" fill="none" xmlns="http://www.w3.org/2000/svg">
<g clip-path="url(#clip0)">
<path d="M15.7756 12.0718C15.8436 12.0718 15.9031 12.0548 15.9626 12.0123C16.1411 11.8848 16.2006 11.6128 16.0816 11.4088L14.3306 8.46778C14.2541 8.33178 14.2541 8.17028 14.3306 8.03428L16.0816 5.09328C16.1241 5.01678 16.1496 4.93178 16.1496 4.84678C16.1496 4.60878 15.9796 4.42178 15.7756 4.42178H11.0581C10.8201 4.42178 10.6331 4.23478 10.6331 3.99678C10.6331 3.75878 10.8201 3.57178 11.0581 3.57178H15.7756C16.4556 3.57178 16.9996 4.14978 16.9996 4.84678C16.9996 5.08478 16.9401 5.31428 16.8126 5.51828L15.1976 8.24678L16.8211 10.9753C17.1696 11.5618 17.0081 12.3353 16.4471 12.7178C16.2516 12.8538 16.0221 12.9218 15.7841 12.9218H5.52461C5.28661 12.9218 5.09961 12.7348 5.09961 12.4968V9.15628C5.09961 8.91828 5.28661 8.73128 5.52461 8.73128C5.76261 8.73128 5.94961 8.91828 5.94961 9.15628V12.0718H15.7756Z" fill="#40B680"/>
<path d="M0.85 1.02188V8.67188H9.775C10.013 8.67188 10.2 8.47638 10.2 8.24687L10.166 4.84688L10.2 1.44688C10.2 1.20888 10.013 1.02188 9.775 1.02188H0.85ZM0.85 9.52188V16.7469C0.85 16.9849 0.663 17.1719 0.425 17.1719C0.187 17.1719 0 16.9849 0 16.7469V0.596875C0 0.358875 0.187 0.171875 0.425 0.171875H9.775C10.4805 0.171875 11.05 0.741375 11.05 1.44688C11.05 1.44688 11.0415 2.58588 11.016 4.84688L11.05 8.23837C11.0585 8.94388 10.489 9.52188 9.7835 9.52188C9.7835 9.52188 6.8 9.52188 0.85 9.52188Z" fill="#023D4D"/>
</g>
<defs>
<clipPath id="clip0">
<rect width="17" height="17" fill="white" transform="translate(0 0.171875)"/>
</clipPath>
</defs>
</svg>
