<svg width="44" height="43" viewBox="0 0 44 43" fill="none" xmlns="http://www.w3.org/2000/svg">
<path fill-rule="evenodd" clip-rule="evenodd" d="M16.8377 35.4535C14.8382 34.228 13.4407 32.121 13.2472 29.67C10.6027 28.724 8.62468 26.3375 8.28068 23.4135L6.81868 10.2125L6.10918 4.988C5.91568 3.3755 4.53968 2.15 2.92718 2.15H1.40068C0.798684 2.15 0.325684 1.677 0.325684 1.075C0.325684 0.473 0.798684 0 1.40068 0H2.92718C5.63618 0 7.93668 2.021 8.25918 4.73L8.73218 8.6H42.2507C42.9387 8.6 43.4547 9.245 43.3042 9.9115L40.1222 24.209C39.3482 27.649 36.2952 30.1 32.7692 30.1H15.7842C15.6767 30.1 15.5907 30.1 15.4832 30.1C15.9777 32.551 18.1492 34.4 20.7507 34.4H34.2527C34.2957 34.4 34.3602 34.4 34.4032 34.4215C34.5107 34.4 34.6182 34.4 34.7257 34.4C37.0907 34.4 39.0257 36.335 39.0257 38.7C39.0257 41.065 37.0907 43 34.7257 43C32.3607 43 30.4257 41.065 30.4257 38.7C30.4257 37.926 30.6407 37.1735 31.0062 36.55H23.3952C23.7607 37.1735 23.9757 37.926 23.9757 38.7C23.9757 41.065 22.0407 43 19.6757 43C17.3107 43 15.3757 41.065 15.3757 38.7C15.3757 37.41 15.9562 36.249 16.8377 35.4535ZM9.05468 10.75L10.4307 23.177C10.7317 25.886 13.0322 27.95 15.7842 27.95H32.7907C35.3062 27.95 37.4992 26.2085 38.0367 23.736L40.9177 10.75H9.05468ZM26.1042 16.598L28.6842 18.576C29.1572 18.9415 29.8237 18.8555 30.1892 18.3825C30.5547 17.9095 30.4687 17.243 29.9957 16.8775L25.6957 13.588C25.5022 13.4375 25.2657 13.3515 25.0292 13.3515C24.7712 13.3515 24.5347 13.4375 24.3412 13.588L20.0627 16.8775C19.5897 17.243 19.5037 17.9095 19.8692 18.3825C20.2347 18.8555 20.9012 18.9415 21.3742 18.576L23.9542 16.598V24.166C23.9542 24.768 24.4272 25.241 25.0292 25.241C25.6312 25.241 26.1042 24.768 26.1042 24.166V16.598ZM34.7257 40.85C35.9082 40.85 36.8757 39.8825 36.8757 38.7C36.8757 37.5175 35.9082 36.55 34.7257 36.55C33.5432 36.55 32.5757 37.5175 32.5757 38.7C32.5757 39.8825 33.5432 40.85 34.7257 40.85ZM19.6757 40.85C20.8582 40.85 21.8257 39.8825 21.8257 38.7C21.8257 37.5175 20.8582 36.55 19.6757 36.55C18.4932 36.55 17.5257 37.5175 17.5257 38.7C17.5257 39.8825 18.4932 40.85 19.6757 40.85Z" fill="url(#paint0_linear)"/>
<defs>
<linearGradient id="paint0_linear" x1="21.8281" y1="0" x2="21.8281" y2="43" gradientUnits="userSpaceOnUse">
<stop offset="0.182292" stop-color="#0A7B82"/>
<stop offset="1" stop-color="#0F172A"/>
</linearGradient>
</defs>
</svg>
