<svg width="53" height="60" viewBox="0 0 53 60" fill="none" xmlns="http://www.w3.org/2000/svg">
<path d="M46.2555 11.67C46.221 11.3535 45.939 11.2125 45.729 11.2125C45.519 11.2125 40.914 10.8615 40.914 10.8615C40.914 10.8615 37.716 7.6635 37.329 7.347C36.978 6.996 36.309 7.101 36.0285 7.1715C35.994 7.1715 35.325 7.383 34.236 7.734C33.147 4.605 31.284 1.758 27.945 1.758H27.6285C26.712 0.5625 25.518 0 24.534 0C16.8015 0 13.0755 9.666 11.916 14.5875C8.8935 15.537 6.7485 16.1685 6.5025 16.275C4.815 16.8015 4.7805 16.8375 4.569 18.4185C4.3935 19.614 0 53.6025 0 53.6025L34.2 60L52.7595 55.9935C52.794 55.923 46.2915 11.9865 46.2555 11.67ZM32.337 8.2245C31.494 8.4705 30.474 8.787 29.4555 9.138V8.5065C29.4555 6.609 29.2095 5.0625 28.752 3.831C30.5085 4.0425 31.599 5.976 32.337 8.2245ZM26.607 4.218C27.0645 5.4135 27.381 7.101 27.381 9.42V9.771C25.4835 10.368 23.4795 10.9665 21.405 11.634C22.5645 7.206 24.78 5.0265 26.607 4.218ZM24.357 2.0385C24.708 2.0385 25.0605 2.1795 25.341 2.3895C22.845 3.549 20.2095 6.4665 19.119 12.372C17.4675 12.8985 15.885 13.356 14.3745 13.848C15.6405 9.3495 18.804 2.0385 24.357 2.0385Z" fill="#7CB342"/>
<path d="M45.7292 11.1415C45.5177 11.1415 40.9142 10.7905 40.9142 10.7905C40.9142 10.7905 37.7162 7.59245 37.3292 7.27595C37.1867 7.13495 37.0112 7.06445 36.8717 7.06445L34.3052 59.9995L52.8647 55.993C52.8647 55.993 46.3622 11.986 46.3262 11.6695C46.1852 11.353 45.9392 11.212 45.7292 11.1415Z" fill="#558B2F"/>
<path d="M27.6195 21.8899L25.407 28.5634C25.407 28.5634 23.4015 27.4909 21.0165 27.4909C17.4555 27.4909 17.283 29.7379 17.283 30.2914C17.283 33.3334 25.2345 34.5094 25.2345 41.6659C25.2345 47.3014 21.6735 50.9314 16.8675 50.9314C11.0595 50.9314 8.15552 47.3359 8.15552 47.3359L9.71102 42.2194C9.71102 42.2194 12.753 44.8474 15.312 44.8474C17.0055 44.8474 17.697 43.5334 17.697 42.5659C17.697 38.5894 11.1975 38.4169 11.1975 31.8484C11.1975 26.3509 15.1395 21.0274 23.1255 21.0274C26.097 20.9914 27.6195 21.8899 27.6195 21.8899Z" fill="white"/>
</svg>
