<svg width="40" height="43" viewBox="0 0 40 43" fill="none" xmlns="http://www.w3.org/2000/svg">
<path d="M17.8947 20.4757H22.1053C23.8526 20.4757 25.2632 21.8476 25.2632 23.5471V39.9281C25.2632 41.6276 23.8526 42.9995 22.1053 42.9995H17.8947C16.1474 42.9995 14.7368 41.6276 14.7368 39.9281V23.5471C14.7368 21.8476 16.1474 20.4757 17.8947 20.4757ZM17.8947 22.5233C17.3053 22.5233 16.8421 22.9738 16.8421 23.5471V39.9281C16.8421 40.5014 17.3053 40.9519 17.8947 40.9519H22.1053C22.6947 40.9519 23.1579 40.5014 23.1579 39.9281V23.5471C23.1579 22.9738 22.6947 22.5233 22.1053 22.5233H17.8947ZM3.15789 26.6186H7.36842C9.11579 26.6186 10.5263 27.9905 10.5263 29.69V39.9281C10.5263 41.6276 9.11579 42.9995 7.36842 42.9995H3.15789C1.41053 42.9995 0 41.6276 0 39.9281V29.69C0 27.9905 1.41053 26.6186 3.15789 26.6186ZM3.15789 28.6662C2.56842 28.6662 2.10526 29.1167 2.10526 29.69V39.9281C2.10526 40.5014 2.56842 40.9519 3.15789 40.9519H7.36842C7.95789 40.9519 8.42105 40.5014 8.42105 39.9281V29.69C8.42105 29.1167 7.95789 28.6662 7.36842 28.6662H3.15789ZM32.6316 14.3329H36.8421C38.5895 14.3329 40 15.7048 40 17.4043V39.9281C40 41.6276 38.5895 42.9995 36.8421 42.9995H32.6316C30.8842 42.9995 29.4737 41.6276 29.4737 39.9281V17.4043C29.4737 15.7048 30.8842 14.3329 32.6316 14.3329ZM32.6316 16.3805C32.0421 16.3805 31.5789 16.8309 31.5789 17.4043V39.9281C31.5789 40.5014 32.0421 40.9519 32.6316 40.9519H36.8421C37.4316 40.9519 37.8947 40.5014 37.8947 39.9281V17.4043C37.8947 16.8309 37.4316 16.3805 36.8421 16.3805H32.6316ZM35.6 2.80476L32.3789 2.02667C31.8105 1.88333 31.4737 1.33048 31.6211 0.777618C31.7684 0.224761 32.3368 -0.102858 32.9053 0.0404753L39.0316 1.53524C39.6 1.67857 39.9368 2.23143 39.7895 2.78428L38.2526 8.74286C38.1053 9.29571 37.5368 9.62333 36.9684 9.48C36.4 9.33667 36.0632 8.78381 36.2105 8.23095L37.2211 4.27905L1.53684 22.4005C1.03158 22.6667 0.378947 22.4619 0.126316 21.9705C-0.147368 21.479 0.0631579 20.8443 0.568421 20.5986L35.6 2.80476Z" fill="url(#paint0_linear)"/>
<path d="M17.8947 20.4757H22.1053C23.8526 20.4757 25.2632 21.8476 25.2632 23.5471V39.9281C25.2632 41.6276 23.8526 42.9995 22.1053 42.9995H17.8947C16.1474 42.9995 14.7368 41.6276 14.7368 39.9281V23.5471C14.7368 21.8476 16.1474 20.4757 17.8947 20.4757ZM17.8947 22.5233C17.3053 22.5233 16.8421 22.9738 16.8421 23.5471V39.9281C16.8421 40.5014 17.3053 40.9519 17.8947 40.9519H22.1053C22.6947 40.9519 23.1579 40.5014 23.1579 39.9281V23.5471C23.1579 22.9738 22.6947 22.5233 22.1053 22.5233H17.8947ZM3.15789 26.6186H7.36842C9.11579 26.6186 10.5263 27.9905 10.5263 29.69V39.9281C10.5263 41.6276 9.11579 42.9995 7.36842 42.9995H3.15789C1.41053 42.9995 0 41.6276 0 39.9281V29.69C0 27.9905 1.41053 26.6186 3.15789 26.6186ZM3.15789 28.6662C2.56842 28.6662 2.10526 29.1167 2.10526 29.69V39.9281C2.10526 40.5014 2.56842 40.9519 3.15789 40.9519H7.36842C7.95789 40.9519 8.42105 40.5014 8.42105 39.9281V29.69C8.42105 29.1167 7.95789 28.6662 7.36842 28.6662H3.15789ZM32.6316 14.3329H36.8421C38.5895 14.3329 40 15.7048 40 17.4043V39.9281C40 41.6276 38.5895 42.9995 36.8421 42.9995H32.6316C30.8842 42.9995 29.4737 41.6276 29.4737 39.9281V17.4043C29.4737 15.7048 30.8842 14.3329 32.6316 14.3329ZM32.6316 16.3805C32.0421 16.3805 31.5789 16.8309 31.5789 17.4043V39.9281C31.5789 40.5014 32.0421 40.9519 32.6316 40.9519H36.8421C37.4316 40.9519 37.8947 40.5014 37.8947 39.9281V17.4043C37.8947 16.8309 37.4316 16.3805 36.8421 16.3805H32.6316ZM35.6 2.80476L32.3789 2.02667C31.8105 1.88333 31.4737 1.33048 31.6211 0.777618C31.7684 0.224761 32.3368 -0.102858 32.9053 0.0404753L39.0316 1.53524C39.6 1.67857 39.9368 2.23143 39.7895 2.78428L38.2526 8.74286C38.1053 9.29571 37.5368 9.62333 36.9684 9.48C36.4 9.33667 36.0632 8.78381 36.2105 8.23095L37.2211 4.27905L1.53684 22.4005C1.03158 22.6667 0.378947 22.4619 0.126316 21.9705C-0.147368 21.479 0.0631579 20.8443 0.568421 20.5986L35.6 2.80476Z" stroke="url(#paint1_linear)"/>
<defs>
<linearGradient id="paint0_linear" x1="20" y1="0.00683594" x2="20" y2="42.9995" gradientUnits="userSpaceOnUse">
<stop offset="0.182292" stop-color="#0A7B82"/>
<stop offset="1" stop-color="#0F172A"/>
</linearGradient>
<linearGradient id="paint1_linear" x1="20" y1="0.00683594" x2="20" y2="42.9995" gradientUnits="userSpaceOnUse">
<stop stop-color="#0A7B82"/>
<stop offset="1" stop-color="#0F192C"/>
</linearGradient>
</defs>
</svg>
