<svg width="28" height="43" viewBox="0 0 28 43" fill="none" xmlns="http://www.w3.org/2000/svg">
<path d="M18.5704 29.9319C18.5699 26.9987 19.7258 24.1835 21.7875 22.097C24.1698 20.1071 25.6812 17.2658 25.9999 14.1781C25.9999 10.9958 24.7357 7.94373 22.4855 5.69347C20.2353 3.4432 17.1833 2.17901 14.001 2.17901C10.8188 2.17901 7.76683 3.4432 5.51662 5.69347C3.26641 7.94373 2.00225 10.9958 2.00225 14.1781C2.32035 17.2655 3.83099 20.1068 6.21254 22.097C8.27569 24.1851 9.43174 27.0028 9.42958 29.9382V30.0537H18.5725L18.5704 29.9319ZM0.00105003 14.1718C-0.0216427 12.319 0.323688 10.4801 1.01702 8.76168C1.71035 7.04331 2.7379 5.47967 4.04007 4.16142C5.34224 2.84316 6.89315 1.79652 8.60285 1.08218C10.3126 0.367835 12.1471 0 14 0C15.8529 0 17.6874 0.367835 19.3971 1.08218C21.1069 1.79652 22.6578 2.84316 23.9599 4.16142C25.2621 5.47967 26.2896 7.04331 26.983 8.76168C27.6763 10.4801 28.0216 12.319 27.9989 14.1718C27.6974 17.7913 25.9753 21.1442 23.2091 23.4977C21.5201 25.2128 20.5754 27.5247 20.58 29.9319V31.047C20.58 31.3121 20.4747 31.5663 20.2873 31.7538C20.0998 31.9413 19.8456 32.0466 19.5805 32.0466H8.43003C8.16493 32.0466 7.91069 31.9413 7.72324 31.7538C7.53579 31.5663 7.43048 31.3121 7.43048 31.047V29.9319C7.43281 27.5235 6.48506 25.2115 4.79301 23.4977C2.02597 21.1446 0.303097 17.7916 0.00105003 14.1718Z" fill="url(#paint0_linear)"/>
<path d="M18.5704 29.9319C18.5699 26.9987 19.7258 24.1835 21.7875 22.097C24.1698 20.1071 25.6812 17.2658 25.9999 14.1781C25.9999 10.9958 24.7357 7.94373 22.4855 5.69347C20.2353 3.4432 17.1833 2.17901 14.001 2.17901C10.8188 2.17901 7.76683 3.4432 5.51662 5.69347C3.26641 7.94373 2.00225 10.9958 2.00225 14.1781C2.32035 17.2655 3.83099 20.1068 6.21254 22.097C8.27569 24.1851 9.43174 27.0028 9.42958 29.9382V30.0537H18.5725L18.5704 29.9319ZM0.00105003 14.1718C-0.0216427 12.319 0.323688 10.4801 1.01702 8.76168C1.71035 7.04331 2.7379 5.47967 4.04007 4.16142C5.34224 2.84316 6.89315 1.79652 8.60285 1.08218C10.3126 0.367835 12.1471 0 14 0C15.8529 0 17.6874 0.367835 19.3971 1.08218C21.1069 1.79652 22.6578 2.84316 23.9599 4.16142C25.2621 5.47967 26.2896 7.04331 26.983 8.76168C27.6763 10.4801 28.0216 12.319 27.9989 14.1718C27.6974 17.7913 25.9753 21.1442 23.2091 23.4977C21.5201 25.2128 20.5754 27.5247 20.58 29.9319V31.047C20.58 31.3121 20.4747 31.5663 20.2873 31.7538C20.0998 31.9413 19.8456 32.0466 19.5805 32.0466H8.43003C8.16493 32.0466 7.91069 31.9413 7.72324 31.7538C7.53579 31.5663 7.43048 31.3121 7.43048 31.047V29.9319C7.43281 27.5235 6.48506 25.2115 4.79301 23.4977C2.02597 21.1446 0.303097 17.7916 0.00105003 14.1718Z" stroke="url(#paint1_linear)"/>
<path d="M12.002 40.4605H15.9918V36.4706H12.002V40.4605ZM11.0025 34.4609H17.0019C17.267 34.4609 17.5212 34.5663 17.7087 34.7537C17.8961 34.9412 18.0014 35.1954 18.0014 35.4605V41.4601C18.0014 41.7252 17.8961 41.9794 17.7087 42.1669C17.5212 42.3543 17.267 42.4596 17.0019 42.4596H11.0025C10.7374 42.4596 10.4831 42.3543 10.2957 42.1669C10.1082 41.9794 10.0029 41.7252 10.0029 41.4601V35.4605C10.0029 35.1954 10.1082 34.9412 10.2957 34.7537C10.4831 34.5663 10.7374 34.4609 11.0025 34.4609Z" fill="#0F192C"/>
<path d="M12.002 40.4605H15.9918V36.4706H12.002V40.4605ZM11.0025 34.4609H17.0019C17.267 34.4609 17.5212 34.5663 17.7087 34.7537C17.8961 34.9412 18.0014 35.1954 18.0014 35.4605V41.4601C18.0014 41.7252 17.8961 41.9794 17.7087 42.1669C17.5212 42.3543 17.267 42.4596 17.0019 42.4596H11.0025C10.7374 42.4596 10.4831 42.3543 10.2957 42.1669C10.1082 41.9794 10.0029 41.7252 10.0029 41.4601V35.4605C10.0029 35.1954 10.1082 34.9412 10.2957 34.7537C10.4831 34.5663 10.7374 34.4609 11.0025 34.4609Z" stroke="url(#paint2_linear)"/>
<mask id="path-3-outside-1" maskUnits="userSpaceOnUse" x="4.71094" y="4.70312" width="18" height="18" fill="black">
<rect fill="white" x="4.71094" y="4.70312" width="18" height="18"/>
<path d="M7.51642 9.95605C7.20347 9.47458 7.26767 8.84868 7.66889 8.44746L8.44725 7.6691C8.84847 7.26788 9.4824 7.20368 9.95583 7.50861L10.7663 8.0302C11.0953 7.85366 11.4484 7.70922 11.8014 7.59688L12.0021 6.65C12.1224 6.10434 12.6119 5.70312 13.1816 5.70312H14.289C14.8587 5.70312 15.3482 6.10434 15.4686 6.65803L15.6692 7.6049C16.0303 7.71724 16.3753 7.86168 16.7043 8.03822L17.5148 7.50861C17.9882 7.19566 18.6222 7.25985 19.0234 7.6691L19.8017 8.44746C20.203 8.84868 20.2672 9.48261 19.9622 9.95605L19.4326 10.7585C19.6092 11.0875 19.7536 11.4406 19.8659 11.7936L20.8128 11.9942C21.3585 12.1146 21.7597 12.6041 21.7597 13.1738V14.2812C21.7597 14.8509 21.3585 15.3404 20.8048 15.4608L19.8579 15.6614C19.7456 16.0225 19.6011 16.3675 19.4246 16.6965L19.9542 17.507C20.2672 17.9804 20.203 18.6144 19.7937 19.0156L19.0154 19.7939C18.6141 20.1952 17.9802 20.2593 17.5068 19.9544L16.7043 19.4248C16.3753 19.6014 16.0223 19.7458 15.6692 19.8581L15.4686 20.805C15.3482 21.3507 14.8587 21.7519 14.289 21.7519H13.1816C12.6119 21.7519 12.1224 21.3507 12.0021 20.797L11.8095 19.8501C11.4484 19.7378 11.1033 19.5933 10.7743 19.4168L9.96386 19.9464C9.49042 20.2593 8.85649 20.1952 8.45528 19.7859L7.67691 19.0075C7.27569 18.6063 7.2115 17.9724 7.51642 17.499L8.03801 16.6965C7.86147 16.3675 7.71703 16.0145 7.60469 15.6614L6.65781 15.4608C6.11216 15.3404 5.71094 14.8509 5.71094 14.2812V13.1738C5.71094 12.6041 6.11216 12.1146 6.66584 11.9942L7.61272 11.8017C7.72506 11.4406 7.8695 11.0955 8.03801 10.7585L7.51642 9.95605ZM8.85649 10.943C8.62379 11.3523 8.43923 11.7936 8.31886 12.243C8.27874 12.3955 8.15837 12.4998 8.01393 12.5319L6.83435 12.7806C6.64979 12.8207 6.51338 12.9812 6.51338 13.1738V14.2812C6.51338 14.4738 6.64979 14.6343 6.83435 14.6744L8.01393 14.9231C8.15837 14.9552 8.27874 15.0676 8.31886 15.212C8.44725 15.6694 8.62379 16.1107 8.85649 16.52C8.92871 16.6484 8.92871 16.8089 8.84045 16.9373L8.18245 17.9483C8.07813 18.1088 8.1022 18.3174 8.23862 18.4539L9.01698 19.2322C9.1534 19.3686 9.36203 19.3847 9.52252 19.2884L10.5336 18.6304C10.662 18.5502 10.8225 18.5421 10.9509 18.6144C11.3601 18.8471 11.8014 19.0316 12.2588 19.152C12.4033 19.1921 12.5156 19.3125 12.5477 19.4569L12.7965 20.6365C12.8286 20.813 12.989 20.9494 13.1816 20.9494H14.289C14.4816 20.9494 14.6421 20.813 14.6822 20.6285L14.9309 19.4489C14.963 19.3044 15.0754 19.1841 15.2198 19.144C15.6772 19.0156 16.1186 18.839 16.5278 18.6063C16.6562 18.5341 16.8167 18.5341 16.9451 18.6224L17.9561 19.2804C18.1166 19.3847 18.3253 19.3606 18.4617 19.2242L19.24 18.4458C19.3765 18.3094 19.3925 18.1008 19.2962 17.9403L18.6382 16.9292C18.558 16.8008 18.5499 16.6404 18.6222 16.512C18.8549 16.1027 19.0394 15.6614 19.1598 15.204C19.1999 15.0596 19.3203 14.9472 19.4647 14.9151L20.6443 14.6664C20.8289 14.6262 20.9653 14.4657 20.9653 14.2732V13.1738C20.9653 12.9812 20.8289 12.8207 20.6443 12.7806L19.4647 12.5319C19.3203 12.4998 19.1999 12.3874 19.1598 12.243C19.0314 11.7856 18.8549 11.3443 18.6222 10.935C18.5499 10.8066 18.5499 10.6461 18.6382 10.5178L19.2962 9.50668C19.4005 9.34619 19.3765 9.13756 19.24 9.00115L18.4617 8.22278C18.3253 8.08637 18.1166 8.07032 17.9561 8.16661L16.937 8.83263C16.8087 8.91288 16.6482 8.9209 16.5198 8.84868C16.1105 8.61597 15.6692 8.43141 15.2118 8.31105C15.0674 8.27093 14.955 8.15056 14.9229 8.00612L14.6822 6.82654C14.6421 6.64198 14.4816 6.50556 14.289 6.50556H13.1816C12.989 6.50556 12.8286 6.64198 12.7884 6.82654L12.5397 8.00612C12.5076 8.15056 12.4033 8.27093 12.2508 8.31105C11.8014 8.43141 11.3601 8.61597 10.9509 8.84868C10.8225 8.9209 10.654 8.9209 10.5336 8.83263L9.52252 8.17463C9.36203 8.07032 9.1534 8.09439 9.01698 8.2308L8.23862 9.00917C8.1022 9.14558 8.07813 9.35422 8.18245 9.51471L8.84045 10.5258C8.92871 10.6461 8.92871 10.8147 8.85649 10.943Z"/>
</mask>
<path d="M7.51642 9.95605C7.20347 9.47458 7.26767 8.84868 7.66889 8.44746L8.44725 7.6691C8.84847 7.26788 9.4824 7.20368 9.95583 7.50861L10.7663 8.0302C11.0953 7.85366 11.4484 7.70922 11.8014 7.59688L12.0021 6.65C12.1224 6.10434 12.6119 5.70312 13.1816 5.70312H14.289C14.8587 5.70312 15.3482 6.10434 15.4686 6.65803L15.6692 7.6049C16.0303 7.71724 16.3753 7.86168 16.7043 8.03822L17.5148 7.50861C17.9882 7.19566 18.6222 7.25985 19.0234 7.6691L19.8017 8.44746C20.203 8.84868 20.2672 9.48261 19.9622 9.95605L19.4326 10.7585C19.6092 11.0875 19.7536 11.4406 19.8659 11.7936L20.8128 11.9942C21.3585 12.1146 21.7597 12.6041 21.7597 13.1738V14.2812C21.7597 14.8509 21.3585 15.3404 20.8048 15.4608L19.8579 15.6614C19.7456 16.0225 19.6011 16.3675 19.4246 16.6965L19.9542 17.507C20.2672 17.9804 20.203 18.6144 19.7937 19.0156L19.0154 19.7939C18.6141 20.1952 17.9802 20.2593 17.5068 19.9544L16.7043 19.4248C16.3753 19.6014 16.0223 19.7458 15.6692 19.8581L15.4686 20.805C15.3482 21.3507 14.8587 21.7519 14.289 21.7519H13.1816C12.6119 21.7519 12.1224 21.3507 12.0021 20.797L11.8095 19.8501C11.4484 19.7378 11.1033 19.5933 10.7743 19.4168L9.96386 19.9464C9.49042 20.2593 8.85649 20.1952 8.45528 19.7859L7.67691 19.0075C7.27569 18.6063 7.2115 17.9724 7.51642 17.499L8.03801 16.6965C7.86147 16.3675 7.71703 16.0145 7.60469 15.6614L6.65781 15.4608C6.11216 15.3404 5.71094 14.8509 5.71094 14.2812V13.1738C5.71094 12.6041 6.11216 12.1146 6.66584 11.9942L7.61272 11.8017C7.72506 11.4406 7.8695 11.0955 8.03801 10.7585L7.51642 9.95605ZM8.85649 10.943C8.62379 11.3523 8.43923 11.7936 8.31886 12.243C8.27874 12.3955 8.15837 12.4998 8.01393 12.5319L6.83435 12.7806C6.64979 12.8207 6.51338 12.9812 6.51338 13.1738V14.2812C6.51338 14.4738 6.64979 14.6343 6.83435 14.6744L8.01393 14.9231C8.15837 14.9552 8.27874 15.0676 8.31886 15.212C8.44725 15.6694 8.62379 16.1107 8.85649 16.52C8.92871 16.6484 8.92871 16.8089 8.84045 16.9373L8.18245 17.9483C8.07813 18.1088 8.1022 18.3174 8.23862 18.4539L9.01698 19.2322C9.1534 19.3686 9.36203 19.3847 9.52252 19.2884L10.5336 18.6304C10.662 18.5502 10.8225 18.5421 10.9509 18.6144C11.3601 18.8471 11.8014 19.0316 12.2588 19.152C12.4033 19.1921 12.5156 19.3125 12.5477 19.4569L12.7965 20.6365C12.8286 20.813 12.989 20.9494 13.1816 20.9494H14.289C14.4816 20.9494 14.6421 20.813 14.6822 20.6285L14.9309 19.4489C14.963 19.3044 15.0754 19.1841 15.2198 19.144C15.6772 19.0156 16.1186 18.839 16.5278 18.6063C16.6562 18.5341 16.8167 18.5341 16.9451 18.6224L17.9561 19.2804C18.1166 19.3847 18.3253 19.3606 18.4617 19.2242L19.24 18.4458C19.3765 18.3094 19.3925 18.1008 19.2962 17.9403L18.6382 16.9292C18.558 16.8008 18.5499 16.6404 18.6222 16.512C18.8549 16.1027 19.0394 15.6614 19.1598 15.204C19.1999 15.0596 19.3203 14.9472 19.4647 14.9151L20.6443 14.6664C20.8289 14.6262 20.9653 14.4657 20.9653 14.2732V13.1738C20.9653 12.9812 20.8289 12.8207 20.6443 12.7806L19.4647 12.5319C19.3203 12.4998 19.1999 12.3874 19.1598 12.243C19.0314 11.7856 18.8549 11.3443 18.6222 10.935C18.5499 10.8066 18.5499 10.6461 18.6382 10.5178L19.2962 9.50668C19.4005 9.34619 19.3765 9.13756 19.24 9.00115L18.4617 8.22278C18.3253 8.08637 18.1166 8.07032 17.9561 8.16661L16.937 8.83263C16.8087 8.91288 16.6482 8.9209 16.5198 8.84868C16.1105 8.61597 15.6692 8.43141 15.2118 8.31105C15.0674 8.27093 14.955 8.15056 14.9229 8.00612L14.6822 6.82654C14.6421 6.64198 14.4816 6.50556 14.289 6.50556H13.1816C12.989 6.50556 12.8286 6.64198 12.7884 6.82654L12.5397 8.00612C12.5076 8.15056 12.4033 8.27093 12.2508 8.31105C11.8014 8.43141 11.3601 8.61597 10.9509 8.84868C10.8225 8.9209 10.654 8.9209 10.5336 8.83263L9.52252 8.17463C9.36203 8.07032 9.1534 8.09439 9.01698 8.2308L8.23862 9.00917C8.1022 9.14558 8.07813 9.35422 8.18245 9.51471L8.84045 10.5258C8.92871 10.6461 8.92871 10.8147 8.85649 10.943Z" fill="url(#paint3_linear)"/>
<path d="M7.51642 9.95605C7.20347 9.47458 7.26767 8.84868 7.66889 8.44746L8.44725 7.6691C8.84847 7.26788 9.4824 7.20368 9.95583 7.50861L10.7663 8.0302C11.0953 7.85366 11.4484 7.70922 11.8014 7.59688L12.0021 6.65C12.1224 6.10434 12.6119 5.70312 13.1816 5.70312H14.289C14.8587 5.70312 15.3482 6.10434 15.4686 6.65803L15.6692 7.6049C16.0303 7.71724 16.3753 7.86168 16.7043 8.03822L17.5148 7.50861C17.9882 7.19566 18.6222 7.25985 19.0234 7.6691L19.8017 8.44746C20.203 8.84868 20.2672 9.48261 19.9622 9.95605L19.4326 10.7585C19.6092 11.0875 19.7536 11.4406 19.8659 11.7936L20.8128 11.9942C21.3585 12.1146 21.7597 12.6041 21.7597 13.1738V14.2812C21.7597 14.8509 21.3585 15.3404 20.8048 15.4608L19.8579 15.6614C19.7456 16.0225 19.6011 16.3675 19.4246 16.6965L19.9542 17.507C20.2672 17.9804 20.203 18.6144 19.7937 19.0156L19.0154 19.7939C18.6141 20.1952 17.9802 20.2593 17.5068 19.9544L16.7043 19.4248C16.3753 19.6014 16.0223 19.7458 15.6692 19.8581L15.4686 20.805C15.3482 21.3507 14.8587 21.7519 14.289 21.7519H13.1816C12.6119 21.7519 12.1224 21.3507 12.0021 20.797L11.8095 19.8501C11.4484 19.7378 11.1033 19.5933 10.7743 19.4168L9.96386 19.9464C9.49042 20.2593 8.85649 20.1952 8.45528 19.7859L7.67691 19.0075C7.27569 18.6063 7.2115 17.9724 7.51642 17.499L8.03801 16.6965C7.86147 16.3675 7.71703 16.0145 7.60469 15.6614L6.65781 15.4608C6.11216 15.3404 5.71094 14.8509 5.71094 14.2812V13.1738C5.71094 12.6041 6.11216 12.1146 6.66584 11.9942L7.61272 11.8017C7.72506 11.4406 7.8695 11.0955 8.03801 10.7585L7.51642 9.95605ZM8.85649 10.943C8.62379 11.3523 8.43923 11.7936 8.31886 12.243C8.27874 12.3955 8.15837 12.4998 8.01393 12.5319L6.83435 12.7806C6.64979 12.8207 6.51338 12.9812 6.51338 13.1738V14.2812C6.51338 14.4738 6.64979 14.6343 6.83435 14.6744L8.01393 14.9231C8.15837 14.9552 8.27874 15.0676 8.31886 15.212C8.44725 15.6694 8.62379 16.1107 8.85649 16.52C8.92871 16.6484 8.92871 16.8089 8.84045 16.9373L8.18245 17.9483C8.07813 18.1088 8.1022 18.3174 8.23862 18.4539L9.01698 19.2322C9.1534 19.3686 9.36203 19.3847 9.52252 19.2884L10.5336 18.6304C10.662 18.5502 10.8225 18.5421 10.9509 18.6144C11.3601 18.8471 11.8014 19.0316 12.2588 19.152C12.4033 19.1921 12.5156 19.3125 12.5477 19.4569L12.7965 20.6365C12.8286 20.813 12.989 20.9494 13.1816 20.9494H14.289C14.4816 20.9494 14.6421 20.813 14.6822 20.6285L14.9309 19.4489C14.963 19.3044 15.0754 19.1841 15.2198 19.144C15.6772 19.0156 16.1186 18.839 16.5278 18.6063C16.6562 18.5341 16.8167 18.5341 16.9451 18.6224L17.9561 19.2804C18.1166 19.3847 18.3253 19.3606 18.4617 19.2242L19.24 18.4458C19.3765 18.3094 19.3925 18.1008 19.2962 17.9403L18.6382 16.9292C18.558 16.8008 18.5499 16.6404 18.6222 16.512C18.8549 16.1027 19.0394 15.6614 19.1598 15.204C19.1999 15.0596 19.3203 14.9472 19.4647 14.9151L20.6443 14.6664C20.8289 14.6262 20.9653 14.4657 20.9653 14.2732V13.1738C20.9653 12.9812 20.8289 12.8207 20.6443 12.7806L19.4647 12.5319C19.3203 12.4998 19.1999 12.3874 19.1598 12.243C19.0314 11.7856 18.8549 11.3443 18.6222 10.935C18.5499 10.8066 18.5499 10.6461 18.6382 10.5178L19.2962 9.50668C19.4005 9.34619 19.3765 9.13756 19.24 9.00115L18.4617 8.22278C18.3253 8.08637 18.1166 8.07032 17.9561 8.16661L16.937 8.83263C16.8087 8.91288 16.6482 8.9209 16.5198 8.84868C16.1105 8.61597 15.6692 8.43141 15.2118 8.31105C15.0674 8.27093 14.955 8.15056 14.9229 8.00612L14.6822 6.82654C14.6421 6.64198 14.4816 6.50556 14.289 6.50556H13.1816C12.989 6.50556 12.8286 6.64198 12.7884 6.82654L12.5397 8.00612C12.5076 8.15056 12.4033 8.27093 12.2508 8.31105C11.8014 8.43141 11.3601 8.61597 10.9509 8.84868C10.8225 8.9209 10.654 8.9209 10.5336 8.83263L9.52252 8.17463C9.36203 8.07032 9.1534 8.09439 9.01698 8.2308L8.23862 9.00917C8.1022 9.14558 8.07813 9.35422 8.18245 9.51471L8.84045 10.5258C8.92871 10.6461 8.92871 10.8147 8.85649 10.943Z" stroke="url(#paint4_linear)" stroke-width="0.2" mask="url(#path-3-outside-1)"/>
<path d="M10.4734 13.7332C10.4734 15.5342 11.9322 16.9929 13.7332 16.9929C15.5342 16.9929 16.9929 15.5342 16.9929 13.7332C16.9929 11.9322 15.5342 10.4734 13.7332 10.4734C11.9322 10.4734 10.4734 11.9322 10.4734 13.7332ZM16.0905 13.7332C16.0905 15.0376 15.0376 16.0905 13.7332 16.0905C12.4288 16.0905 11.3759 15.0376 11.3759 13.7332C11.3759 12.4288 12.4288 11.3759 13.7332 11.3759C15.0376 11.3759 16.0905 12.4288 16.0905 13.7332Z" fill="url(#paint5_linear)" stroke="url(#paint6_linear)" stroke-width="0.1"/>
<defs>
<linearGradient id="paint0_linear" x1="14" y1="0" x2="14" y2="32.0466" gradientUnits="userSpaceOnUse">
<stop offset="0.182292" stop-color="#0A7B82"/>
<stop offset="1" stop-color="#0F172A"/>
</linearGradient>
<linearGradient id="paint1_linear" x1="14" y1="0" x2="14" y2="32.0466" gradientUnits="userSpaceOnUse">
<stop stop-color="#0A7B82"/>
<stop offset="1" stop-color="#0F192C"/>
</linearGradient>
<linearGradient id="paint2_linear" x1="14.0022" y1="34.4609" x2="14.0022" y2="42.4596" gradientUnits="userSpaceOnUse">
<stop stop-color="#0F192C"/>
<stop offset="1" stop-color="#0F192C"/>
</linearGradient>
<linearGradient id="paint3_linear" x1="13.7353" y1="5.70312" x2="13.7353" y2="21.7519" gradientUnits="userSpaceOnUse">
<stop offset="0.182292" stop-color="#0A7B82"/>
<stop offset="1" stop-color="#0F172A"/>
</linearGradient>
<linearGradient id="paint4_linear" x1="13.7353" y1="5.70312" x2="13.7353" y2="21.7519" gradientUnits="userSpaceOnUse">
<stop stop-color="#0A7B82"/>
<stop offset="1" stop-color="#0F192C"/>
</linearGradient>
<linearGradient id="paint5_linear" x1="13.7332" y1="10.5234" x2="13.7332" y2="16.9429" gradientUnits="userSpaceOnUse">
<stop offset="0.182292" stop-color="#0A7B82"/>
<stop offset="1" stop-color="#0F172A"/>
</linearGradient>
<linearGradient id="paint6_linear" x1="13.7332" y1="10.5234" x2="13.7332" y2="16.9429" gradientUnits="userSpaceOnUse">
<stop stop-color="#0A7B82"/>
<stop offset="1" stop-color="#0F192C"/>
</linearGradient>
</defs>
</svg>
