<svg width="37" height="40" viewBox="0 0 37 40" fill="none" xmlns="http://www.w3.org/2000/svg">
<path fill-rule="evenodd" clip-rule="evenodd" d="M11.7861 30.6667L5.72293 31.9048C4.64293 32.1143 3.77135 32.9333 3.50608 34.0191L2.48293 38.0952H34.1629L33.1398 34.0191C32.8745 32.9524 32.0029 32.1143 30.9229 31.9048L24.8598 30.6667C24.3103 33.8095 21.6008 36.1905 18.3229 36.1905C15.045 36.1905 12.3356 33.8095 11.7861 30.6667ZM13.5861 29.6952C13.6808 32.2476 15.765 34.2857 18.3229 34.2857C20.8808 34.2857 22.965 32.2476 23.0598 29.6762L22.3228 27.6366C21.8034 28.2103 21.0542 28.5698 20.2195 28.5698C18.6469 28.5698 17.3774 27.2936 17.3774 25.7126C17.3774 24.1317 18.6469 22.8555 20.2195 22.8555C21.0769 22.8555 21.8442 23.2348 22.3648 23.836C25.5497 22.2994 27.645 19.0293 27.645 15.3905V11.2762C27.645 8.43071 26.3877 5.88399 24.4003 4.16618C20.7097 9.75437 15.5331 12.1365 9.00086 11.2471L9.00082 11.2762V15.4095C9.00082 19.2 11.2745 22.5714 14.685 24.0381C15.1587 24.2286 15.3861 24.7619 15.1966 25.2381L13.5861 29.6952ZM9.23636 9.17084C15.0762 9.94046 19.5728 7.9206 22.8506 3.07999C21.5105 2.33112 19.9668 1.90476 18.3229 1.90476C13.8895 1.90476 10.1851 5.00584 9.23636 9.17084ZM7.23445 9.56438C7.14616 9.53773 7.05208 9.52344 6.95413 9.52344H5.05939C3.48676 9.52344 2.21729 10.7996 2.21729 12.3806V16.1901C2.21729 17.7711 3.48676 19.0472 5.05939 19.0472H6.95413C7.21637 19.0472 7.45083 18.9449 7.62091 18.7769C8.50607 21.6097 10.4801 23.9957 13.1313 25.3905L11.9377 28.7048L5.36293 30.0381C3.56293 30.4 2.12293 31.7714 1.66819 33.5619L0.360821 38.819C0.209242 39.4095 0.645031 40 1.27029 40H35.3756C36.0008 40 36.4366 39.4095 36.285 38.8571L34.9777 33.581C34.5229 31.7905 33.0829 30.419 31.2829 30.0571L24.7082 28.7238L23.5145 25.4095C26.1684 24.0133 28.1437 21.6139 29.0276 18.7792C29.1975 18.9458 29.431 19.0472 29.692 19.0472H31.5867C33.1594 19.0472 34.4288 17.7711 34.4288 16.1901V12.3806C34.4288 10.7996 33.1594 9.52344 31.5867 9.52344H29.692C29.5939 9.52344 29.4998 9.53776 29.4114 9.56446C28.5913 4.14848 23.9398 0 18.3229 0C12.706 0 8.05462 4.14844 7.23445 9.56438ZM21.1669 25.7126C21.1669 26.2459 20.7501 26.665 20.2195 26.665C19.689 26.665 19.2722 26.2459 19.2722 25.7126C19.2722 25.1793 19.689 24.7602 20.2195 24.7602C20.7501 24.7602 21.1669 25.1793 21.1669 25.7126ZM30.6394 17.1425H31.5867C32.1173 17.1425 32.5341 16.7234 32.5341 16.1901V12.3806C32.5341 11.8472 32.1173 11.4282 31.5867 11.4282H30.6394V17.1425ZM5.05939 11.4282H6.00676V17.1425H5.05939C4.52886 17.1425 4.11202 16.7234 4.11202 16.1901V12.3806C4.11202 11.8472 4.52886 11.4282 5.05939 11.4282Z" fill="white"/>
</svg>
