<svg width="61" height="61" viewBox="0 0 61 61" fill="none" xmlns="http://www.w3.org/2000/svg">
<path d="M0 6.67C0 2.99 2.98 0 6.67 0H53.34C57.02 0 60.01 2.99 60.01 6.67V53.34C60.01 57.02 57.02 60.01 53.34 60.01H6.67C2.98 60.01 0 57.02 0 53.34V6.67Z" fill="#FF6D00"/>
<path d="M0 6.67V26.61L6.67 33.28C6.67 33.28 25.26 54.75 40 40C54.74 25.25 33.37 8.33 33.37 8.33L25.03 0H6.67C2.98 0.01 0 2.99 0 6.67Z" fill="#E64A19"/>
<path d="M33.3599 8.33984C52.4099 21.1698 46.2499 35.3198 46.2499 35.3198C46.2499 35.3198 51.6699 41.3798 49.4799 46.6798C49.4799 46.6798 47.2499 42.9698 43.4999 42.9698C39.8899 42.9698 37.7699 46.6798 30.4999 46.6798C14.3199 46.6798 6.66992 33.2898 6.66992 33.2898C21.2499 42.7898 31.1999 36.0598 31.1999 36.0598C24.6299 32.2798 9.99992 13.3398 9.99992 13.3398C22.1599 23.5998 28.3299 26.6698 28.3299 26.6698C25.1899 24.0998 14.9999 11.6698 14.9999 11.6698C22.0399 18.7298 37.1799 28.9698 37.1799 28.9698C41.1499 18.0598 33.3599 8.33984 33.3599 8.33984Z" fill="white"/>
</svg>
