<svg width="53" height="60" viewBox="0 0 53 60" fill="none" xmlns="http://www.w3.org/2000/svg">
<path d="M31.4063 58.8281H20.8594V48.75H31.4063V58.8281ZM24.375 56.4844H27.8906V52.2656H24.375V56.4844Z" fill="#8B8992"/>
<path d="M26.3086 52.2656H27.8906V56.4844H26.3086V58.8281H31.4063V48.75H26.3086V52.2656Z" fill="#57555C"/>
<path d="M52.6172 44.0625H0V15.9375H52.6172V44.0625Z" fill="#9BC9FF"/>
<path d="M52.6172 15.9375H26.3086V44.0625H52.6172V15.9375Z" fill="#009AE5"/>
<path d="M34.9219 56.4844H17.3438V60H34.9219V56.4844Z" fill="#005ECE"/>
<path d="M24.375 44.0625H13.8281V20.0391H24.375V44.0625Z" fill="#B87FD9"/>
<path d="M24.375 44.0625H19.1016V20.0391H24.375V44.0625Z" fill="#8034AD"/>
<path d="M30.2573 15.3516H7.82941L3.26953 0H9.9777C12.3729 0 15.1607 0.857109 17.3441 2.40258V0H34.8171L30.2573 15.3516Z" fill="#8B8992"/>
<path d="M34.8168 0H19.043V15.3516H30.257L34.8168 0Z" fill="#57555C"/>
<path d="M25.4297 23.5547H12.7734C9.86566 23.5547 7.5 21.189 7.5 18.2812V11.8359H30.7031V18.2812C30.7031 21.189 28.3375 23.5547 25.4297 23.5547Z" fill="#E3CEF0"/>
<path d="M19.1016 11.8359V23.5547H25.4297C28.3375 23.5547 30.7031 21.189 30.7031 18.2812V11.8359H19.1016Z" fill="#D5B4E8"/>
<path d="M46.4313 13.8694C45.3613 13.8694 44.3054 13.5888 43.3538 13.0395C41.9254 12.2147 40.9036 10.8831 40.4768 9.2898C40.0498 7.69664 40.2689 6.03258 41.0936 4.60418C41.9184 3.17578 43.25 2.15402 44.8433 1.72711L50.8079 0.128906L52.406 6.09352C52.8329 7.68668 52.6139 9.35074 51.7891 10.7791C50.9643 12.2075 49.6329 13.2294 48.0396 13.6562C47.5077 13.7988 46.9675 13.8694 46.4313 13.8694Z" fill="#E0E0E2"/>
<path d="M52.4055 6.09352L50.8075 0.128906H50.8073L43.3535 13.0393C44.3051 13.5887 45.3609 13.8694 46.431 13.8693C46.9673 13.8693 47.5073 13.7987 48.0393 13.6562C49.6324 13.2293 50.964 12.2075 51.7888 10.7791C52.6134 9.35074 52.8325 7.68668 52.4055 6.09352Z" fill="#ACABB1"/>
<path d="M29.2295 48.0515L20.0957 42.778L34.7441 17.4062L43.878 22.6797L29.2295 48.0515Z" fill="#FFE477"/>
<path d="M24.6618 45.4141L29.2285 48.0508L43.8767 22.6802L39.31 20.0435L24.6618 45.4141Z" fill="#FFA733"/>
<path d="M43.473 26.5025L31.6328 19.6666L41.8362 8.10156L48.3868 11.8836L43.473 26.5025Z" fill="#FF9A00"/>
<path d="M48.3866 11.8831L45.1113 9.99219L37.5527 23.084L43.4728 26.502L48.3866 11.8831Z" fill="#E67500"/>
<path d="M52.6172 52.2656H0V40.5469H52.6172V52.2656Z" fill="#005ECE"/>
<path d="M52.6172 40.5469H26.3086V52.2656H52.6172V40.5469Z" fill="#003F8A"/>
<path d="M34.9219 56.4844H26.1328V60H34.9219V56.4844Z" fill="#003F8A"/>
</svg>
