<svg width="42" height="41" viewBox="0 0 42 41" fill="none" xmlns="http://www.w3.org/2000/svg">
<path d="M39 0H3C1.34 0 0 1.34 0 3V7C0 7.56 0.44 8 1 8H2V27C2 29.76 4.24 32 7 32H19.38L16.1 38.56C15.86 39.06 16.06 39.66 16.54 39.9C17.04 40.14 17.64 39.94 17.88 39.46L20.98 33.24L24.08 39.46C24.32 39.96 24.92 40.16 25.42 39.9C25.92 39.66 26.12 39.06 25.86 38.56L22.62 32H35C37.76 32 40 29.76 40 27V8H41C41.56 8 42 7.56 42 7V3C42 1.34 40.66 0 39 0ZM38 27C38 28.66 36.66 30 35 30H7C5.34 30 4 28.66 4 27V8H38V27ZM40 6H2V3C2 2.44 2.44 2 3 2H39C39.56 2 40 2.44 40 3V6Z" fill="url(#paint0_linear)"/>
<path d="M39 0H3C1.34 0 0 1.34 0 3V7C0 7.56 0.44 8 1 8H2V27C2 29.76 4.24 32 7 32H19.38L16.1 38.56C15.86 39.06 16.06 39.66 16.54 39.9C17.04 40.14 17.64 39.94 17.88 39.46L20.98 33.24L24.08 39.46C24.32 39.96 24.92 40.16 25.42 39.9C25.92 39.66 26.12 39.06 25.86 38.56L22.62 32H35C37.76 32 40 29.76 40 27V8H41C41.56 8 42 7.56 42 7V3C42 1.34 40.66 0 39 0ZM38 27C38 28.66 36.66 30 35 30H7C5.34 30 4 28.66 4 27V8H38V27ZM40 6H2V3C2 2.44 2.44 2 3 2H39C39.56 2 40 2.44 40 3V6Z" stroke="url(#paint1_linear)"/>
<path d="M17.0005 22.42C17.4005 22.82 18.0205 22.82 18.4205 22.42L21.7205 19.12L27.0205 24.42C27.4205 24.82 28.0405 24.82 28.4405 24.42L29.7405 23.12L32.3205 25.7C32.7205 26.1 33.3405 26.1 33.7405 25.7C34.1405 25.3 34.1405 24.68 33.7405 24.28L30.4405 20.98C30.0405 20.58 29.4205 20.58 29.0205 20.98L27.7205 22.28L22.4205 17C22.0205 16.6 21.4005 16.6 21.0005 17L17.7005 20.3L9.70047 12.3C9.30047 11.9 8.68047 11.9 8.28047 12.3C7.88047 12.7 7.88047 13.32 8.28047 13.72L17.0005 22.42Z" fill="url(#paint2_linear)"/>
<path d="M17.0005 22.42C17.4005 22.82 18.0205 22.82 18.4205 22.42L21.7205 19.12L27.0205 24.42C27.4205 24.82 28.0405 24.82 28.4405 24.42L29.7405 23.12L32.3205 25.7C32.7205 26.1 33.3405 26.1 33.7405 25.7C34.1405 25.3 34.1405 24.68 33.7405 24.28L30.4405 20.98C30.0405 20.58 29.4205 20.58 29.0205 20.98L27.7205 22.28L22.4205 17C22.0205 16.6 21.4005 16.6 21.0005 17L17.7005 20.3L9.70047 12.3C9.30047 11.9 8.68047 11.9 8.28047 12.3C7.88047 12.7 7.88047 13.32 8.28047 13.72L17.0005 22.42Z" stroke="url(#paint3_linear)"/>
<defs>
<linearGradient id="paint0_linear" x1="21" y1="0" x2="21" y2="40.0141" gradientUnits="userSpaceOnUse">
<stop offset="0.182292" stop-color="#0A7B82"/>
<stop offset="1" stop-color="#0F172A"/>
</linearGradient>
<linearGradient id="paint1_linear" x1="21" y1="0" x2="21" y2="40.0141" gradientUnits="userSpaceOnUse">
<stop stop-color="#0A7B82"/>
<stop offset="1" stop-color="#0F192C"/>
</linearGradient>
<linearGradient id="paint2_linear" x1="21.0105" y1="12" x2="21.0105" y2="26" gradientUnits="userSpaceOnUse">
<stop offset="0.182292" stop-color="#0A7B82"/>
<stop offset="1" stop-color="#0F172A"/>
</linearGradient>
<linearGradient id="paint3_linear" x1="21.0105" y1="12" x2="21.0105" y2="26" gradientUnits="userSpaceOnUse">
<stop stop-color="#0A7B82"/>
<stop offset="1" stop-color="#0F192C"/>
</linearGradient>
</defs>
</svg>
