<svg width="40" height="42" viewBox="0 0 40 42" fill="none" xmlns="http://www.w3.org/2000/svg">
<path fill-rule="evenodd" clip-rule="evenodd" d="M9.47368 13.6181H3.70526C7.47368 5.26903 17.0526 1.06293 25.8105 4.07029C33.0947 6.57292 37.8947 13.4078 37.8947 20.9788C37.8947 21.5677 38.3789 22.0303 38.9474 22.0303C39.5368 22.0303 40 21.5677 40 20.9788C40.0211 12.5245 34.6526 4.89048 26.5263 2.09342C16.9474 -1.20837 6.52632 3.18701 2.10526 12.0619V6.25746C2.10526 5.66861 1.64211 5.20594 1.05263 5.20594C0.463158 5.20594 0 5.66861 0 6.25746V14.6697C0 15.2585 0.463158 15.7212 1.05263 15.7212H9.47368C10.0632 15.7212 10.5263 15.2585 10.5263 14.6697C10.5263 14.0808 10.0632 13.6181 9.47368 13.6181ZM30.5263 28.3389H36.3158C32.5474 36.7301 22.9684 40.9361 14.1895 37.9288C6.90526 35.4262 2.12632 28.5913 2.10526 21.0203C2.10526 20.4314 1.64211 19.9688 1.05263 19.9688C0.463158 19.9688 0 20.4314 0 21.0203C0.0210526 29.4745 5.36842 37.1086 13.4947 39.9057C23.0526 43.2074 33.4737 38.8331 37.8947 29.9372V35.7206C37.8947 36.3094 38.3579 36.7721 38.9474 36.7721C39.5368 36.7721 40 36.3094 40 35.7206V27.2874C40 26.6985 39.5368 26.2358 38.9474 26.2358H30.5263C29.9368 26.2358 29.4737 26.6985 29.4737 27.2874C29.4737 27.8762 29.9368 28.3389 30.5263 28.3389Z" fill="white"/>
</svg>
