<svg width="37" height="37" viewBox="0 0 37 37" fill="none" xmlns="http://www.w3.org/2000/svg">
<path fill-rule="evenodd" clip-rule="evenodd" d="M5.69836 27.4737C11.7615 33.5179 21.4626 33.7453 27.772 28.1179L35.351 35.7347C36.2415 36.6253 37.5868 35.28 36.6963 34.3895L29.1173 26.8105L29.0984 26.7916C34.7257 20.4632 34.5173 10.7811 28.4542 4.7179C22.1636 -1.57263 11.9889 -1.57263 5.69836 4.7179C-0.592163 11.0084 -0.592163 21.1832 5.69836 27.4737ZM27.1278 6.04421C32.6794 11.5958 32.6794 20.5768 27.1278 26.1284C21.5763 31.68 12.5952 31.68 7.04363 26.1284C1.49205 20.5768 1.49205 11.5958 7.04363 6.04421C12.5952 0.492631 21.5763 0.492631 27.1278 6.04421ZM16.0806 18.5805L12.7006 15.2605C12.3006 14.8805 11.6806 14.8805 11.2806 15.2805C10.9006 15.6805 10.9006 16.3205 11.3006 16.7005L15.4006 20.7205C15.8006 21.1005 16.4206 21.1005 16.8006 20.7005L24.7006 12.7005C25.1006 12.3005 25.1006 11.6605 24.7006 11.2805C24.3006 10.8805 23.6606 10.8805 23.2806 11.2805L16.0806 18.5805Z" fill="url(#paint0_linear)"/>
<defs>
<linearGradient id="paint0_linear" x1="18.9846" y1="0" x2="18.9846" y2="36.0271" gradientUnits="userSpaceOnUse">
<stop offset="0.182292" stop-color="#0A7B82"/>
<stop offset="1" stop-color="#0F172A"/>
</linearGradient>
</defs>
</svg>
