<svg width="69" height="60" viewBox="0 0 69 60" fill="none" xmlns="http://www.w3.org/2000/svg">
<path d="M40.718 56.4414H19.5275C18.7283 56.4414 18.0801 57.0893 18.0801 57.8888C18.0801 58.688 18.728 59.3359 19.5275 59.3359H40.718C41.5172 59.3359 42.1651 58.688 42.1651 57.8888C42.1651 57.0893 41.5172 56.4414 40.718 56.4414Z" fill="#EDF4FC"/>
<path d="M24.2715 49.8086H35.9726V56.4412H24.2715V49.8086Z" fill="#C7D7E5"/>
<path d="M61.8109 27.6172H48.4473C46.8468 27.6172 45.5371 28.9269 45.5371 30.5274V56.4246C45.5371 58.0251 46.8468 59.3348 48.4473 59.3348H61.8109C63.4115 59.3348 64.7211 58.0251 64.7211 56.4246V30.5274C64.7211 28.9269 63.4117 27.6172 61.8109 27.6172Z" fill="#5290DB"/>
<path d="M45.5369 30.527C45.5369 28.9262 46.8465 27.6168 48.4471 27.6168H59.58V8.09383C59.58 6.3944 58.1896 5.00391 56.4901 5.00391H3.75399C2.05456 5.00391 0.664062 6.3944 0.664062 8.09383V46.7176C0.664062 48.4171 2.05456 49.8076 3.75399 49.8076H45.5369V30.527Z" fill="#5290DB"/>
<path d="M45.5369 41.5703H0.664062V46.7202C0.664062 48.4196 2.05456 49.8101 3.75399 49.8101H45.5369V41.5703Z" fill="#EDF4FC"/>
<path d="M30.1226 44.1641C29.2809 44.1641 28.5986 44.8463 28.5986 45.688C28.5986 46.5298 29.2809 47.212 30.1226 47.212C30.9643 47.212 31.6466 46.5298 31.6466 45.688C31.6466 44.8466 30.9643 44.1641 30.1226 44.1641Z" fill="#C7D7E5"/>
<path d="M55.2979 30.9482C55.2979 29.3474 56.6075 28.038 58.2081 28.038H66.7664V8.51499C66.7664 8.23184 66.5345 8 66.2514 8H13.515C13.2318 8 13 8.23184 13 8.51499V41.9889H55.2979V30.9482Z" fill="#EDF4FC"/>
<path d="M40.2797 36.3881V30.1758H36.5576V36.3881C36.5576 37.069 36.0056 37.6206 35.325 37.6206H25.2943C24.6137 37.6206 24.0617 37.0687 24.0617 36.3881V30.1758H20.0737V36.3881C20.0737 37.069 19.5218 37.6206 18.8411 37.6206H8.81045C8.12983 37.6206 7.57788 37.0687 7.57788 36.3881V30.1758H3.24023V41.5688H45.5381V37.6206H41.5126C40.8317 37.6206 40.2797 37.0687 40.2797 36.3881Z" fill="#70D6F9"/>
<path d="M61.3104 30.1758H58.3165C57.9033 30.1758 57.5247 30.422 57.3721 30.8059C57.0177 31.6973 56.1475 32.328 55.1298 32.328C54.1118 32.328 53.2416 31.6976 52.8875 30.8059C52.7348 30.4217 52.3565 30.1758 51.9431 30.1758H48.9491C48.4778 30.1758 48.0957 30.5578 48.0957 31.0292V55.9244C48.0957 56.3958 48.4778 56.7778 48.9491 56.7778H61.3107C61.7821 56.7778 62.1641 56.3958 62.1641 55.9244V31.0292C62.1639 30.5578 61.7818 30.1758 61.3104 30.1758Z" fill="#EDF4FC"/>
<path d="M57.5609 37.3545C57.5609 38.6759 56.4897 39.7473 55.1681 39.7473C53.8464 39.7473 52.7753 38.6759 52.7753 37.3545H48.0957V55.9241C48.0957 56.3955 48.4778 56.7775 48.9491 56.7775H61.3107C61.7821 56.7775 62.1641 56.3955 62.1641 55.9241V37.3545H57.5609Z" fill="#70D6F9"/>
<path d="M51.8252 45.1085H58.435C59.2587 45.1085 59.9263 44.4409 59.9263 43.6172C59.9263 42.7936 59.2587 42.126 58.435 42.126H51.8252C51.0016 42.126 50.334 42.7936 50.334 43.6172C50.3337 44.4409 51.0016 45.1085 51.8252 45.1085Z" fill="#FCDD86"/>
<path d="M58.4331 47.5938H51.8233C50.9996 47.5938 50.332 48.2613 50.332 49.085C50.332 49.9087 50.9996 50.5763 51.8233 50.5763H58.4331C59.2567 50.5763 59.9243 49.9087 59.9243 49.085C59.9246 48.2613 59.2567 47.5938 58.4331 47.5938Z" fill="#FCDD86"/>
<path d="M55.1682 39.7466C56.4897 39.7466 57.561 38.6753 57.561 37.3538C57.561 36.0322 56.4897 34.9609 55.1682 34.9609C53.8467 34.9609 52.7754 36.0322 52.7754 37.3538C52.7754 38.6753 53.8467 39.7466 55.1682 39.7466Z" fill="#FC657E"/>
<path d="M53.3072 42.126H51.8252C51.0016 42.126 50.334 42.7936 50.334 43.6172C50.334 44.4409 51.0016 45.1085 51.8252 45.1085H53.3072V42.126Z" fill="#EDB311"/>
<path d="M53.3072 47.5938H51.8252C51.0016 47.5938 50.334 48.2613 50.334 49.085C50.334 49.9087 51.0016 50.5763 51.8252 50.5763H53.3072V47.5938Z" fill="#EDB311"/>
<path d="M18.8414 23.7969H8.81069C8.13007 23.7969 7.57812 24.3488 7.57812 25.0294V36.3895C7.57812 37.0704 8.13007 37.6221 8.81069 37.6221H18.8414C19.5223 37.6221 20.074 37.0701 20.074 36.3895V25.0294C20.074 24.3488 19.522 23.7969 18.8414 23.7969Z" fill="#FCDD86"/>
<path d="M45.5376 30.5295C45.5376 28.9287 46.8473 27.6193 48.4478 27.6193H52.7751V25.0294C52.7751 24.3486 52.2232 23.7969 51.5426 23.7969H41.5119C40.8312 23.7969 40.2793 24.3488 40.2793 25.0294V36.3895C40.2793 37.0704 40.8312 37.6221 41.5119 37.6221H45.5374V30.5295H45.5376Z" fill="#FCDD86"/>
<path d="M35.3238 23.7969H25.2931C24.6125 23.7969 24.0605 24.3488 24.0605 25.0294V36.3895C24.0605 37.0704 24.6125 37.6221 25.2931 37.6221H35.3238C36.0047 37.6221 36.5564 37.0701 36.5564 36.3895V25.0294C36.5564 24.3488 36.0044 23.7969 35.3238 23.7969Z" fill="#FCDD86"/>
<path d="M20.9834 20.1544H39.5573C40.381 20.1544 41.0486 19.4868 41.0486 18.6631C41.0486 17.8395 40.381 17.1719 39.5573 17.1719H20.9834C20.1598 17.1719 19.4922 17.8395 19.4922 18.6631C19.4919 19.4868 20.1598 20.1544 20.9834 20.1544Z" fill="#FCDD86"/>
<path d="M51.7112 15.02C53.0327 15.02 54.104 13.9487 54.104 12.6272C54.104 11.3057 53.0327 10.2344 51.7112 10.2344C50.3897 10.2344 49.3184 11.3057 49.3184 12.6272C49.3184 13.9487 50.3897 15.02 51.7112 15.02Z" fill="#FC657E"/>
<path d="M22.7313 17.1719H20.9834C20.1598 17.1719 19.4922 17.8395 19.4922 18.6631C19.4922 19.4868 20.1598 20.1544 20.9834 20.1544H22.7313V17.1719Z" fill="#EDB311"/>
<path d="M12.0197 13.9595H8.90747C8.17341 13.9595 7.57812 13.3642 7.57812 12.6301C7.57812 11.8961 8.17341 11.3008 8.90747 11.3008H12.0197C12.7538 11.3008 13.3491 11.8961 13.3491 12.6301C13.3491 13.3642 12.7538 13.9595 12.0197 13.9595Z" fill="#70D6F9"/>
<path d="M68.0326 23.0712C66.837 22.8473 65.8955 21.9229 65.6695 20.7512C65.6581 20.6924 65.576 20.6922 65.5645 20.7512C65.3359 21.9224 64.3926 22.8446 63.1964 23.0661C63.1363 23.0773 63.1363 23.1576 63.1964 23.169C64.392 23.3929 65.3335 24.3173 65.5597 25.489C65.5712 25.5477 65.6533 25.548 65.6648 25.489C65.8934 24.3178 66.8367 23.3955 68.0328 23.1741C68.0927 23.1629 68.0927 23.0823 68.0326 23.0712Z" fill="#F5C84C"/>
<path d="M42.2473 1.35786C41.5598 1.22971 41.0177 0.69877 40.8872 0.025324C40.8805 -0.00844133 40.8335 -0.00844133 40.8268 0.025324C40.696 0.699035 40.1542 1.22998 39.4664 1.35786C39.4318 1.36424 39.4318 1.4105 39.4664 1.41688C40.1539 1.54503 40.696 2.07597 40.8268 2.74942C40.8335 2.78318 40.8805 2.78318 40.8872 2.74942C41.018 2.0757 41.5598 1.54476 42.2473 1.41688C42.2816 1.4105 42.2816 1.36424 42.2473 1.35786Z" fill="#87D147"/>
<path d="M10.2202 54.6307H10.8397V54.0112C10.8397 53.5475 11.2154 53.1719 11.679 53.1719C12.1427 53.1719 12.5184 53.5475 12.5184 54.0112V54.6307H13.1376C13.6013 54.6307 13.9769 55.0064 13.9769 55.47C13.9769 55.9337 13.6013 56.3094 13.1376 56.3094H12.5184V56.9289C12.5184 57.3925 12.1427 57.7682 11.679 57.7682C11.2154 57.7682 10.8397 57.3925 10.8397 56.9289V56.3094H10.2202C9.75653 56.3094 9.38086 55.9337 9.38086 55.47C9.38086 55.0066 9.75653 54.6307 10.2202 54.6307Z" fill="#70D6F9"/>
<path d="M4.96034 54.1394C5.4562 54.1394 5.85818 53.7375 5.85818 53.2416C5.85818 52.7457 5.4562 52.3438 4.96034 52.3438C4.46448 52.3438 4.0625 52.7457 4.0625 53.2416C4.0625 53.7375 4.46448 54.1394 4.96034 54.1394Z" fill="#F5C84C"/>
<path d="M62.9369 18.0135C63.4328 18.0135 63.8347 17.6115 63.8347 17.1156C63.8347 16.6197 63.4328 16.2178 62.9369 16.2178C62.441 16.2178 62.0391 16.6197 62.0391 17.1156C62.0391 17.6115 62.441 18.0135 62.9369 18.0135Z" fill="#FC657E"/>
<path d="M56.1248 53.7053H54.2106C53.8434 53.7053 53.5459 53.4078 53.5459 53.0406C53.5459 52.6735 53.8434 52.376 54.2106 52.376H56.1248C56.492 52.376 56.7895 52.6735 56.7895 53.0406C56.7895 53.4078 56.492 53.7053 56.1248 53.7053Z" fill="black"/>
<path d="M46.0702 13.2932H44.7701C44.403 13.2932 44.1055 12.9957 44.1055 12.6285C44.1055 12.2614 44.403 11.9639 44.7701 11.9639H46.0702C46.4374 11.9639 46.7349 12.2614 46.7349 12.6285C46.7349 12.9957 46.4374 13.2932 46.0702 13.2932Z" fill="black"/>
<path d="M42.0253 13.2932H40.7252C40.3581 13.2932 40.0605 12.9957 40.0605 12.6285C40.0605 12.2614 40.3581 11.9639 40.7252 11.9639H42.0253C42.3925 11.9639 42.69 12.2614 42.69 12.6285C42.69 12.9957 42.3925 13.2932 42.0253 13.2932Z" fill="black"/>
<path d="M37.9804 13.2932H36.6803C36.3131 13.2932 36.0156 12.9957 36.0156 12.6285C36.0156 12.2614 36.3131 11.9639 36.6803 11.9639H37.9804C38.3476 11.9639 38.6451 12.2614 38.6451 12.6285C38.6451 12.9957 38.3476 13.2932 37.9804 13.2932Z" fill="black"/>
<path d="M19.6776 37.8499C19.496 37.8499 19.3155 37.776 19.1844 37.6308L7.51145 24.716C7.26525 24.4437 7.28652 24.0234 7.55877 23.7772C7.83102 23.5307 8.25163 23.5523 8.49756 23.8245L20.1705 36.7393C20.4167 37.0116 20.3954 37.4319 20.1232 37.6781C19.9958 37.7932 19.8363 37.8499 19.6776 37.8499Z" fill="black"/>
<path d="M7.9709 37.848C7.81191 37.848 7.65266 37.7914 7.52557 37.6763C7.25332 37.4301 7.23205 37.01 7.47824 36.7375L19.1847 23.7854C19.4306 23.5132 19.851 23.4917 20.1235 23.7381C20.3957 23.9843 20.417 24.4044 20.1708 24.6769L8.46435 37.629C8.33328 37.7741 8.15249 37.848 7.9709 37.848Z" fill="black"/>
<path d="M36.162 37.8499C35.9804 37.8499 35.7999 37.776 35.6688 37.6308L23.9958 24.716C23.7496 24.4437 23.7709 24.0234 24.0431 23.7772C24.3154 23.5307 24.736 23.5523 24.9819 23.8245L36.6549 36.7393C36.9011 37.0116 36.8798 37.4319 36.6076 37.6781C36.4802 37.7932 36.3207 37.8499 36.162 37.8499Z" fill="black"/>
<path d="M24.4553 37.848C24.2963 37.848 24.137 37.7914 24.0099 37.6763C23.7377 37.4301 23.7164 37.01 23.9626 36.7375L35.6691 23.7854C35.915 23.5132 36.3356 23.4917 36.6079 23.7381C36.8801 23.9843 36.9014 24.4044 36.6552 24.6769L24.9487 37.629C24.8177 37.7741 24.6369 37.848 24.4553 37.848Z" fill="black"/>
<path d="M45.6043 30.3524C45.4227 30.3524 45.2422 30.2785 45.1111 30.1333L40.2146 24.716C39.9684 24.4437 39.9896 24.0234 40.2619 23.7772C40.5341 23.5307 40.9545 23.5523 41.2007 23.8245L46.0972 29.2418C46.3434 29.5141 46.3221 29.9344 46.0499 30.1806C45.9225 30.2957 45.763 30.3524 45.6043 30.3524Z" fill="black"/>
<path d="M40.674 37.8499C40.515 37.8499 40.3558 37.7933 40.2287 37.6781C39.9564 37.4319 39.9352 37.0119 40.1814 36.7394L44.9907 31.4183C45.2366 31.146 45.6569 31.1245 45.9295 31.3709C46.2017 31.6171 46.223 32.0372 45.9768 32.3097L41.1675 37.6308C41.0364 37.776 40.8556 37.8499 40.674 37.8499Z" fill="black"/>
<path d="M49.3674 28.2286C49.2084 28.2286 49.0491 28.172 48.9221 28.0569C48.6498 27.8107 48.6285 27.3906 48.8747 27.1181L51.8868 23.7854C52.1327 23.5132 52.553 23.4917 52.8255 23.7381C53.0978 23.9843 53.1191 24.4044 52.8729 24.6769L49.8608 28.0096C49.7295 28.1547 49.5487 28.2286 49.3674 28.2286Z" fill="black"/>
<path d="M40.7186 60.0002H19.5281C18.3636 60.0002 17.416 59.0529 17.416 57.8884C17.416 56.7239 18.3633 55.7764 19.5281 55.7764H40.7186C41.8831 55.7764 42.8304 56.7237 42.8304 57.8884C42.8304 59.0527 41.8831 60.0002 40.7186 60.0002ZM19.5281 57.1057C19.0966 57.1057 18.7454 57.4569 18.7454 57.8884C18.7454 58.3199 19.0966 58.6709 19.5281 58.6709H40.7186C41.1501 58.6709 41.5011 58.3199 41.5011 57.8884C41.5011 57.4569 41.1501 57.1057 40.7186 57.1057H19.5281Z" fill="black"/>
<path d="M35.9732 57.1055H24.2721C23.9049 57.1055 23.6074 56.808 23.6074 56.4409V49.8082C23.6074 49.4411 23.9049 49.1436 24.2721 49.1436H35.9732C36.3404 49.1436 36.6379 49.4411 36.6379 49.8082V56.4409C36.6379 56.808 36.3404 57.1055 35.9732 57.1055ZM24.9368 55.7762H35.3086V50.4729H24.9368V55.7762Z" fill="black"/>
<path d="M61.8115 60.0001H48.4479C46.4768 60.0001 44.873 58.3964 44.873 56.4252V30.528C44.873 28.5566 46.4768 26.9531 48.4479 26.9531H61.8115C63.783 26.9531 65.3864 28.5568 65.3864 30.528V56.4252C65.3867 58.3964 63.783 60.0001 61.8115 60.0001ZM48.4479 28.2822C47.2098 28.2822 46.2024 29.2896 46.2024 30.5277V56.4249C46.2024 57.6631 47.2098 58.6705 48.4479 58.6705H61.8115C63.0497 58.6705 64.0571 57.6631 64.0571 56.4249V30.5277C64.0571 29.2896 63.0497 28.2822 61.8115 28.2822H48.4479Z" fill="black"/>
<path d="M45.3306 50.4729H3.7546C1.68428 50.4729 0 48.7886 0 46.7183V8.09444C0 6.02412 1.68428 4.33984 3.7546 4.33984H56.4907C58.5611 4.33984 60.2453 6.02412 60.2453 8.09444V27.4064C60.2453 27.7735 59.9478 28.071 59.5807 28.071C59.2135 28.071 58.916 27.7735 58.916 27.4064V8.09444C58.916 6.75712 57.8281 5.66919 56.4907 5.66919H3.7546C2.41728 5.66919 1.32934 6.75712 1.32934 8.09444V46.7183C1.32934 48.0556 2.41728 49.1435 3.7546 49.1435H45.3306C45.6978 49.1435 45.9953 49.441 45.9953 49.8082C45.9953 50.1754 45.6978 50.4729 45.3306 50.4729Z" fill="black"/>
<path d="M45.3193 42.2317H0.830688C0.463523 42.2317 0.166016 41.9342 0.166016 41.567C0.166016 41.1999 0.463523 40.9023 0.830688 40.9023H45.3193C45.6865 40.9023 45.984 41.1999 45.984 41.567C45.984 41.9342 45.6865 42.2317 45.3193 42.2317Z" fill="black"/>
<path d="M30.1222 47.8773C28.9152 47.8773 27.9336 46.8954 27.9336 45.6886C27.9336 44.4819 28.9154 43.5 30.1222 43.5C31.329 43.5 32.3109 44.4819 32.3109 45.6886C32.3109 46.8954 31.329 47.8773 30.1222 47.8773ZM30.1222 44.8291C29.6484 44.8291 29.2629 45.2146 29.2629 45.6884C29.2629 46.1621 29.6484 46.5477 30.1222 46.5477C30.596 46.5477 30.9815 46.1621 30.9815 45.6884C30.9815 45.2146 30.5963 44.8291 30.1222 44.8291Z" fill="black"/>
<path d="M3.23987 42.064C2.8727 42.064 2.5752 41.7664 2.5752 41.3993V8.0947C2.5752 7.44438 3.10427 6.91504 3.75485 6.91504H56.491C57.1416 6.91504 57.6706 7.44412 57.6706 8.0947V27.4468C57.6706 27.8139 57.3731 28.1114 57.006 28.1114C56.6388 28.1114 56.3413 27.8139 56.3413 27.4468V8.24438H3.90454V41.3993C3.90454 41.7664 3.60703 42.064 3.23987 42.064Z" fill="black"/>
<path d="M7.2781 30.8401H3.46741C3.10024 30.8401 2.80273 30.5426 2.80273 30.1754C2.80273 29.8082 3.10024 29.5107 3.46741 29.5107H7.2781C7.64527 29.5107 7.94278 29.8082 7.94278 30.1754C7.94278 30.5426 7.64527 30.8401 7.2781 30.8401Z" fill="black"/>
<path d="M23.87 30.8401H20.2281C19.861 30.8401 19.5635 30.5426 19.5635 30.1754C19.5635 29.8082 19.861 29.5107 20.2281 29.5107H23.87C24.2372 29.5107 24.5347 29.8082 24.5347 30.1754C24.5347 30.5426 24.2372 30.8401 23.87 30.8401Z" fill="black"/>
<path d="M40.1018 30.8401H36.8229C36.4557 30.8401 36.1582 30.5426 36.1582 30.1754C36.1582 29.8082 36.4557 29.5107 36.8229 29.5107H40.1018C40.469 29.5107 40.7665 29.8082 40.7665 30.1754C40.7665 30.5426 40.469 30.8401 40.1018 30.8401Z" fill="black"/>
<path d="M61.3103 57.4421H48.9488C48.1118 57.4421 47.4307 56.761 47.4307 55.924V31.0289C47.4307 30.1919 48.1118 29.5107 48.9488 29.5107H51.9427C52.6382 29.5107 53.2513 29.9228 53.5047 30.5604C53.7708 31.2301 54.4087 31.663 55.1294 31.663C55.8502 31.663 56.4877 31.2301 56.7541 30.5601C57.0075 29.9226 57.6206 29.5107 58.3161 29.5107H61.3101C62.147 29.5107 62.8282 30.1919 62.8282 31.0289V55.924C62.8282 56.761 62.1473 57.4421 61.3103 57.4421ZM48.9488 30.8401C48.8446 30.8401 48.76 30.9246 48.76 31.0289V55.924C48.76 56.0282 48.8446 56.1128 48.9488 56.1128H61.3103C61.4146 56.1128 61.4991 56.0282 61.4991 55.924V31.0289C61.4991 30.9246 61.4146 30.8401 61.3103 30.8401H58.3164C58.1712 30.8401 58.0399 30.9249 57.9896 31.0512C57.5209 32.2306 56.3982 32.9923 55.1294 32.9923C53.8607 32.9923 52.7379 32.2303 52.2692 31.0512C52.2192 30.9249 52.0879 30.8401 51.9427 30.8401H48.9488Z" fill="black"/>
<path d="M52.543 38.0168H48.3444C47.9772 38.0168 47.6797 37.7193 47.6797 37.3522C47.6797 36.985 47.9772 36.6875 48.3444 36.6875H52.543C52.9101 36.6875 53.2076 36.985 53.2076 37.3522C53.2076 37.7193 52.9101 38.0168 52.543 38.0168Z" fill="black"/>
<path d="M61.9382 38.0168H57.7701C57.403 38.0168 57.1055 37.7193 57.1055 37.3522C57.1055 36.985 57.403 36.6875 57.7701 36.6875H61.9382C62.3053 36.6875 62.6028 36.985 62.6028 37.3522C62.6028 37.7193 62.3053 38.0168 61.9382 38.0168Z" fill="black"/>
<path d="M58.4346 45.7728H51.8249C50.6359 45.7728 49.6689 44.8056 49.6689 43.6169C49.6689 42.4279 50.6362 41.4609 51.8249 41.4609H58.4346C59.6233 41.4609 60.5906 42.4282 60.5906 43.6169C60.5906 44.8056 59.6233 45.7728 58.4346 45.7728ZM51.8249 42.79C51.3692 42.79 50.9983 43.1609 50.9983 43.6166C50.9983 44.0723 51.3692 44.4432 51.8249 44.4432H58.4346C58.8903 44.4432 59.2612 44.0723 59.2612 43.6166C59.2612 43.1609 58.8903 42.79 58.4346 42.79H51.8249Z" fill="black"/>
<path d="M58.4337 51.2415H51.8239C50.6349 51.2415 49.668 50.2743 49.668 49.0856C49.668 47.8967 50.6352 46.9297 51.8239 46.9297H58.4337C59.6224 46.9297 60.5896 47.8969 60.5896 49.0856C60.5896 50.2743 59.6224 51.2415 58.4337 51.2415ZM51.8239 48.259C51.3682 48.259 50.9973 48.6299 50.9973 49.0856C50.9973 49.5413 51.3682 49.9122 51.8239 49.9122H58.4337C58.8894 49.9122 59.2602 49.5413 59.2602 49.0856C59.2602 48.6299 58.8894 48.259 58.4337 48.259H51.8239Z" fill="black"/>
<path d="M55.1678 40.4119C53.482 40.4119 52.1104 39.0402 52.1104 37.3544C52.1104 35.6685 53.482 34.2969 55.1678 34.2969C56.8537 34.2969 58.2253 35.6685 58.2253 37.3544C58.2253 39.0402 56.8537 40.4119 55.1678 40.4119ZM55.1678 35.6262C54.215 35.6262 53.4397 36.4015 53.4397 37.3544C53.4397 38.3072 54.215 39.0825 55.1678 39.0825C56.1207 39.0825 56.896 38.3072 56.896 37.3544C56.896 36.4015 56.1207 35.6262 55.1678 35.6262Z" fill="black"/>
<path d="M53.3073 45.6366C52.9401 45.6366 52.6426 45.3391 52.6426 44.972V42.2633C52.6426 41.8961 52.9401 41.5986 53.3073 41.5986C53.6744 41.5986 53.9719 41.8961 53.9719 42.2633V44.972C53.9719 45.3391 53.6744 45.6366 53.3073 45.6366Z" fill="black"/>
<path d="M53.3073 51.1361C52.9401 51.1361 52.6426 50.8386 52.6426 50.4714V47.7545C52.6426 47.3874 52.9401 47.0898 53.3073 47.0898C53.6744 47.0898 53.9719 47.3874 53.9719 47.7545V50.4714C53.9719 50.8386 53.6744 51.1361 53.3073 51.1361Z" fill="black"/>
<path d="M18.84 38.2834H8.80935C7.76316 38.2834 6.91211 37.4324 6.91211 36.3862V25.0261C6.91211 23.98 7.76316 23.1289 8.80935 23.1289H18.84C19.8862 23.1289 20.7373 23.98 20.7373 25.0261V36.3862C20.7373 37.4324 19.8862 38.2834 18.84 38.2834ZM8.80935 24.4583C8.49616 24.4583 8.24145 24.713 8.24145 25.0261V36.3862C8.24145 36.6994 8.49616 36.9541 8.80935 36.9541H18.84C19.1532 36.9541 19.4079 36.6994 19.4079 36.3862V25.0261C19.4079 24.713 19.1532 24.4583 18.84 24.4583H8.80935Z" fill="black"/>
<path d="M45.3183 38.2834H41.5105C40.4643 38.2834 39.6133 37.4324 39.6133 36.3862V25.0261C39.6133 23.98 40.4643 23.1289 41.5105 23.1289H51.5412C52.5874 23.1289 53.4385 23.98 53.4385 25.0261V27.4049C53.4385 27.772 53.141 28.0695 52.7738 28.0695C52.4066 28.0695 52.1091 27.772 52.1091 27.4049V25.0261C52.1091 24.713 51.8544 24.4583 51.5412 24.4583H41.5105C41.1973 24.4583 40.9426 24.713 40.9426 25.0261V36.3862C40.9426 36.6994 41.1973 36.9541 41.5105 36.9541H45.3183C45.6855 36.9541 45.983 37.2516 45.983 37.6188C45.983 37.9859 45.6855 38.2834 45.3183 38.2834Z" fill="black"/>
<path d="M35.3244 38.2834H25.2937C24.2475 38.2834 23.3965 37.4324 23.3965 36.3862V25.0261C23.3965 23.98 24.2475 23.1289 25.2937 23.1289H35.3244C36.3706 23.1289 37.2217 23.98 37.2217 25.0261V36.3862C37.2217 37.4324 36.3706 38.2834 35.3244 38.2834ZM25.2937 24.4583C24.9805 24.4583 24.7258 24.713 24.7258 25.0261V36.3862C24.7258 36.6994 24.9805 36.9541 25.2937 36.9541H35.3244C35.6376 36.9541 35.8923 36.6994 35.8923 36.3862V25.0261C35.8923 24.713 35.6376 24.4583 35.3244 24.4583H25.2937Z" fill="black"/>
<path d="M39.5579 20.8206H20.9841C19.7951 20.8206 18.8281 19.8534 18.8281 18.6647C18.8281 17.476 19.7954 16.5088 20.9841 16.5088H39.5579C40.7466 16.5088 41.7138 17.476 41.7138 18.6647C41.7138 19.8534 40.7466 20.8206 39.5579 20.8206ZM20.9841 17.8381C20.5284 17.8381 20.1575 18.209 20.1575 18.6647C20.1575 19.1204 20.5284 19.4913 20.9841 19.4913H39.5579C40.0136 19.4913 40.3845 19.1204 40.3845 18.6647C40.3845 18.209 40.0136 17.8381 39.5579 17.8381H20.9841Z" fill="black"/>
<path d="M51.7118 15.6863C50.0259 15.6863 48.6543 14.3147 48.6543 12.6288C48.6543 10.9429 50.0259 9.57129 51.7118 9.57129C53.3977 9.57129 54.7693 10.9429 54.7693 12.6288C54.7693 14.3147 53.3977 15.6863 51.7118 15.6863ZM51.7118 10.9006C50.7589 10.9006 49.9836 11.6759 49.9836 12.6288C49.9836 13.5817 50.7589 14.3569 51.7118 14.3569C52.6647 14.3569 53.4399 13.5817 53.4399 12.6288C53.4399 11.6759 52.6647 10.9006 51.7118 10.9006Z" fill="black"/>
<path d="M22.7311 20.608C22.3639 20.608 22.0664 20.3105 22.0664 19.9433V17.3287C22.0664 16.9616 22.3639 16.6641 22.7311 16.6641C23.0982 16.6641 23.3958 16.9616 23.3958 17.3287V19.9433C23.3958 20.3105 23.0982 20.608 22.7311 20.608Z" fill="black"/>
<path d="M12.0184 14.6208H8.90613C7.80649 14.6208 6.91211 13.7265 6.91211 12.6268C6.91211 11.5272 7.80649 10.6328 8.90613 10.6328H12.0184C13.118 10.6328 14.0124 11.5272 14.0124 12.6268C14.0124 13.7265 13.1178 14.6208 12.0184 14.6208ZM8.90613 11.9622C8.53976 11.9622 8.24145 12.2605 8.24145 12.6268C8.24145 12.9932 8.53976 13.2915 8.90613 13.2915H12.0184C12.3848 13.2915 12.6831 12.9932 12.6831 12.6268C12.6831 12.2605 12.3848 11.9622 12.0184 11.9622H8.90613Z" fill="black"/>
</svg>
