<svg width="67" height="61" viewBox="0 0 67 61" fill="none" xmlns="http://www.w3.org/2000/svg">
<path d="M42.8977 58.0657V50.3223L30.4307 47.7412L33.0118 58.0657H42.8977Z" fill="#9ABADB"/>
<path d="M23.125 58.0627H33.0109V47.7383L23.125 50.3194V58.0627Z" fill="#D1E8FF"/>
<path d="M66.0226 38.7061L30.4297 36.125L33.0108 50.3211H66.0226V38.7061Z" fill="#D1E8FF"/>
<path d="M0 38.7061V50.3211H33.0118V36.125L0 38.7061Z" fill="#F5F5FF"/>
<path d="M48.7046 56.1328H33.0113L31.7207 58.0671L33.0113 60.0014H48.7046V56.1328Z" fill="#D1E8FF"/>
<path d="M33.0119 56.1328H17.3184V60.0014H33.0119V56.1328Z" fill="#F5F5FF"/>
<path d="M66.0236 0H33.0118L30.4307 19.3537L33.0118 38.7074H66.0236V0Z" fill="#294B6E"/>
<path d="M33.0118 0H0V38.7076H33.0118V0Z" fill="#6283A3"/>
<path d="M23.0599 29.6022L12.8115 19.3538L23.0599 9.10547L25.7954 11.8409L18.2825 19.3538L25.7954 26.8667L23.0599 29.6022Z" fill="#F5F5FF"/>
<path d="M42.962 29.6032L40.2266 26.8677L47.7395 19.3548L40.2266 11.8419L42.962 9.10645L53.2104 19.3548L42.962 29.6032Z" fill="#D1E8FF"/>
<path d="M28.7282 30.9679L32.5225 31.7227L37.2931 7.73981L33.4988 6.98505L28.7282 30.9679Z" fill="#D1E8FF"/>
</svg>
