<svg width="61" height="60" viewBox="0 0 61 60" fill="none" xmlns="http://www.w3.org/2000/svg">
<path d="M4.26514 29.9986C4.26514 40.1859 10.1852 48.9888 18.7697 53.1611L6.4933 19.5248C5.02164 22.8203 4.26236 26.3894 4.26514 29.9986ZM47.3748 28.6999C47.3748 25.5193 46.2323 23.3166 45.2524 21.6021C43.9478 19.4822 42.7255 17.6869 42.7255 15.567C42.7255 13.2013 44.5193 10.9991 47.0467 10.9991C47.1608 10.9991 47.269 11.0133 47.3806 11.0196C42.8014 6.82482 36.7012 4.26367 30.0011 4.26367C21.0101 4.26367 13.0999 8.87668 8.49815 15.8638C9.10195 15.8819 9.67148 15.8941 10.1543 15.8941C12.8462 15.8941 17.0131 15.5675 17.0131 15.5675C18.4005 15.4857 18.564 17.5234 17.1786 17.6874C17.1786 17.6874 15.784 17.8515 14.2326 17.9328L23.6045 45.8092L29.2371 28.9178L25.2269 17.9323C23.8411 17.851 22.5282 17.6869 22.5282 17.6869C21.1413 17.6057 21.3039 15.4852 22.6907 15.567C22.6907 15.567 26.9409 15.8936 29.4697 15.8936C32.1611 15.8936 36.3285 15.567 36.3285 15.567C37.7168 15.4852 37.8799 17.5229 36.4935 17.6869C36.4935 17.6869 35.0964 17.851 33.548 17.9323L42.8484 45.5976L45.415 37.0195C46.5281 33.4598 47.3748 30.9031 47.3748 28.6999Z" fill="#00749A"/>
<path d="M30.4514 32.2509L22.7297 54.6882C25.0904 55.3839 27.5388 55.7371 29.9999 55.7371C32.9969 55.7371 35.871 55.2185 38.5462 54.2783C38.4745 54.166 38.4132 54.0473 38.3631 53.9237L30.4514 32.2509ZM52.5821 17.6523C52.6928 18.4721 52.7555 19.3526 52.7555 20.2987C52.7555 22.9103 52.2678 25.8461 50.7986 29.5169L42.9374 52.2455C50.5886 47.7838 55.7349 39.4946 55.7349 29.9997C55.7417 25.684 54.6572 21.4365 52.5821 17.6523Z" fill="#00749A"/>
<path d="M30.0002 0C13.4585 0 0 13.4576 0 29.9993C0 46.5429 13.458 60.0005 30.0002 60.0005C46.5415 60.0005 60.002 46.5434 60.002 29.9993C60.0015 13.4576 46.5415 0 30.0002 0ZM30.0002 58.6249C14.2171 58.6249 1.37558 45.7834 1.37558 29.9993C1.37558 14.2166 14.2166 1.37607 30.0002 1.37607C45.7829 1.37607 58.6234 14.2166 58.6234 29.9993C58.6234 45.7834 45.7824 58.6249 30.0002 58.6249Z" fill="#00749A"/>
</svg>
